<svg height="512pt" viewBox="0 0 512 512" width="512pt" xmlns="http://www.w3.org/2000/svg"><path d="M512 256c0 141.387-114.613 256-256 256S0 397.387 0 256C0 114.617 114.613 0 256 0s256 114.617 256 256zm0 0" fill="#69ebfc"/><path d="M256 14c139.043 0 252.191 110.852 255.902 249 .063-2.324.098-4.656.098-7C512 114.617 397.383 0 256 0S0 114.617 0 256c0 2.344.035 4.676.098 7C3.808 124.852 116.957 14 256 14zm0 0" fill="#a1f1fc"/><path d="M256 498C116.957 498 3.809 387.148.098 249A260.286 260.286 0 0 0 0 256c0 141.383 114.617 256 256 256s256-114.617 256-256c0-2.344-.035-4.676-.098-7C508.192 387.148 395.043 498 256 498zm0 0" fill="#5fd4e3"/><path d="M476.645 256c0 121.86-98.786 220.645-220.645 220.645S35.355 377.859 35.355 256 134.141 35.355 256 35.355 476.645 134.141 476.645 256zm0 0" fill="#ffefe4"/><path d="M256 82.816c-95.492 0-173.184 77.692-173.184 173.184 0 8.285 6.715 15 15 15s15-6.715 15-15c0-78.953 64.23-143.184 143.184-143.184S399.184 177.046 399.184 256 334.954 399.184 256 399.184c-44.367 0-85.293-20.215-112.148-54.122l13.976 3.747c8 2.14 16.227-2.606 18.371-10.606 2.145-8.004-2.601-16.23-10.605-18.371l-46.375-12.43c-8-2.132-16.227 2.606-18.371 10.61l-12.426 46.37c-2.145 8.005 2.605 16.231 10.605 18.376 1.301.347 2.606.512 3.895.512 6.621 0 12.683-4.418 14.476-11.122l2.438-9.09c32.469 41.41 82.21 66.126 136.164 66.126 95.492 0 173.184-77.692 173.184-173.184 0-95.496-77.692-173.184-173.184-173.184zm0 0" fill="#edd4c2"/><path d="M370.445 347.816L272 249.375V85.258c0-8.836-7.164-16-16-16s-16 7.164-16 16v170.738c0 .527.027 1.055.078 1.586.024.227.067.45.102.676.039.289.074.582.129.867.054.266.129.523.191.781.063.246.117.492.191.739.079.257.176.507.266.757.086.243.164.48.262.72.097.237.215.464.324.694.113.243.219.485.344.72.125.23.261.444.394.663.137.227.262.457.41.676.164.25.348.484.528.723.136.18.258.363.402.535.34.414.695.808 1.07 1.183l103.125 103.125a15.96 15.96 0 0 0 11.313 4.684c4.098 0 8.191-1.563 11.316-4.684 6.25-6.242 6.25-16.375 0-22.625zm0 0" fill="#69ebfc"/><path d="M284.75 256c0 15.879-12.871 28.75-28.75 28.75s-28.75-12.871-28.75-28.75 12.871-28.75 28.75-28.75 28.75 12.871 28.75 28.75zm0 0" fill="#5fd4e3"/><path d="M512 90.441c0 49.95-40.492 90.438-90.441 90.438-49.946 0-90.438-40.488-90.438-90.438C331.121 40.492 371.613 0 421.56 0 471.508 0 512 40.492 512 90.441zm0 0" fill="#d476e2"/><path d="M421.398 9.227c48.465-.086 88.086 37.964 90.48 85.847.083-1.586.126-3.187.122-4.793C511.91 40.332 471.348-.086 421.398 0c-49.945.09-90.367 40.652-90.277 90.602 0 1.484.047 2.96.117 4.43 2.41-47.723 41.82-85.72 90.16-85.805zm0 0" fill="#ea82fa"/><path d="M365.133 120.867a9.62 9.62 0 0 1 2.86-6.832c3.41-3.363 6.612-6.539 9.6-9.531 1.602-1.602 3.239-3.238 4.919-4.914 1.676-1.676 3.238-3.242 4.687-4.692a368.238 368.238 0 0 0 3.887-3.941 94.304 94.304 0 0 0 2.629-2.805c1.219-1.445 2.305-2.742 3.258-3.886s1.715-2.266 2.289-3.375a17.012 17.012 0 0 0 1.312-3.317c.305-1.101.461-2.3.461-3.601 0-2.516-.992-4.703-2.976-6.575-1.98-1.863-4.688-2.8-8.118-2.8-2.52 0-6.503 1.441-9.363 4.918-2.062 2.507-5.547 3.332-8.55 2.093-4.65-1.914-6.102-7.77-2.926-11.664 1.343-1.652 2.664-2.906 3.574-3.636 2.133-1.715 4.668-3.125 7.601-4.23s6.235-1.657 9.891-1.657c3.96 0 7.547.59 10.75 1.77 3.2 1.183 5.902 2.804 8.117 4.859a21.795 21.795 0 0 1 5.145 7.261c1.218 2.786 1.832 5.778 1.832 8.977 0 4.879-1.203 9.36-3.606 13.438-2.398 4.078-5.312 7.87-8.746 11.375l-9.836 9.832c-2.59 2.593-5.527 5.488-8.8 8.691l.456.684h25.098a6.574 6.574 0 1 1 0 13.148h-35.86c-5.292.004-9.585-4.289-9.585-9.59zm88.157 2.617v-7.433h-26.845c-5.129 0-9.289-4.156-9.289-9.285a9.28 9.28 0 0 1 1.582-5.184L448.77 56.93a10.586 10.586 0 0 1 8.789-4.68c5.851 0 10.593 4.742 10.593 10.594v39.258h2.86a6.972 6.972 0 0 1 6.972 6.972 6.973 6.973 0 0 1-6.972 6.977h-2.86v7.433a6.972 6.972 0 0 1-6.972 6.973h-.918a6.97 6.97 0 0 1-6.973-6.973zm0-48.937h-.915l-18.637 27.558h19.551zm0 0" fill="#ffefe4"/></svg>