<svg height="512pt" viewBox="0 0 512 512" width="512pt" xmlns="http://www.w3.org/2000/svg"><path d="M476.316 512H35.684C15.977 512 0 496.023 0 476.316V35.684C0 15.977 15.977 0 35.684 0h440.628C496.023 0 512 15.977 512 35.684v440.629c0 19.71-15.977 35.687-35.684 35.687zm0 0" fill="#d476e2"/><path d="M476.316 0H35.684C15.977 0 0 15.977 0 35.684v14C0 29.977 15.977 14 35.684 14h440.628C496.023 14 512 29.977 512 49.684v-14C512 15.977 496.023 0 476.316 0zm0 0" fill="#ea82fa"/><path d="M35.684 512h440.628c19.711 0 35.684-15.977 35.684-35.684v-14c0 19.707-15.973 35.684-35.684 35.684H35.685C15.977 498 0 482.023 0 462.316v14C0 496.023 15.977 512 35.684 512zm0 0" fill="#b665c2"/><path d="M445.535 475.387H66.465c-16.488 0-29.852-13.364-29.852-29.852V66.465c0-16.488 13.367-29.852 29.852-29.852h379.07c16.488 0 29.852 13.367 29.852 29.852v379.07c0 16.488-13.364 29.852-29.852 29.852zm0 0" fill="#b665c2"/><path d="M424.91 293.797H84.754c-10.285 0-18.621-8.336-18.621-18.621V95.234c0-10.285 8.336-18.62 18.62-18.62H424.91c10.285 0 18.621 8.335 18.621 18.62v179.942c.004 10.281-8.336 18.62-18.62 18.62zm0 0" fill="#d476e2"/><path d="M354.895 270.121H154.77c-10.68 0-19.336-8.66-19.336-19.34V119.625c0-10.68 8.656-19.336 19.336-19.336h200.125c10.68 0 19.34 8.656 19.34 19.336v131.16c0 10.68-8.66 19.336-19.34 19.336zM116.57 130.242H98.098a8.032 8.032 0 0 1 0-16.063h18.472a8.029 8.029 0 0 1 8.032 8.032 8.031 8.031 0 0 1-8.032 8.031zm0 41.996H98.098a8.032 8.032 0 0 1 0-16.063h18.472a8.029 8.029 0 0 1 8.032 8.032 8.031 8.031 0 0 1-8.032 8.031zm0 41.996H98.098a8.032 8.032 0 0 1 0-16.063h18.472a8.029 8.029 0 0 1 8.032 8.032 8.031 8.031 0 0 1-8.032 8.031zm0 41.996H98.098a8.035 8.035 0 0 1-8.035-8.03 8.035 8.035 0 0 1 8.035-8.036h18.472a8.032 8.032 0 0 1 8.032 8.035 8.031 8.031 0 0 1-8.032 8.031zm295.985-125.988h-18.477a8.031 8.031 0 1 1 0-16.063h18.477a8.031 8.031 0 1 1 0 16.063zm0 41.996h-18.477a8.031 8.031 0 1 1 0-16.063h18.477a8.031 8.031 0 1 1 0 16.063zm0 41.996h-18.477a8.031 8.031 0 1 1 0-16.063h18.477a8.031 8.031 0 1 1 0 16.063zm0 41.996h-18.477a8.034 8.034 0 0 1 0-16.066h18.477a8.034 8.034 0 0 1 0 16.066zm0 0" fill="#69ebfc"/><path d="M234.05 359.578H81.91c-8.715 0-15.777-7.062-15.777-15.777s7.066-15.781 15.777-15.781h152.14c8.72 0 15.782 7.066 15.782 15.78 0 8.716-7.066 15.778-15.781 15.778zm188.93 93.555H297.543c-11.352 0-20.55-9.203-20.55-20.555V348.57c0-11.351 9.202-20.55 20.55-20.55H422.98c11.352 0 20.551 9.203 20.551 20.55v84.008c.004 11.352-9.199 20.555-20.55 20.555zm0 0" fill="#d476e2"/><path d="M213.031 343.8v74.997c0 8.937-7.25 16.187-16.191 16.187h-77.715c-8.941 0-16.191-7.246-16.191-16.187V343.8zm0 0" fill="#6770e6"/><path d="M121.797 405.684c0 .453.387.84.844.84h16.367a.855.855 0 0 0 .844-.84v-7.914a.855.855 0 0 0-.844-.844H122.64a.855.855 0 0 0-.844.844zm4.488 4.035h9.074v6.61h-9.074zm0-22.598h9.074v6.61h-9.074zm0 0" fill="#69ebfc"/><path d="M138.555 393.73h.449a4.044 4.044 0 0 1 4.039 4.04v7.914a4.044 4.044 0 0 1-4.04 4.035h-.448v6.61h2.453a6.397 6.397 0 0 0 6.398-6.4v-16.41a6.4 6.4 0 0 0-6.398-6.402h-2.453zm-24.321-.21v16.414a6.402 6.402 0 0 0 6.403 6.398h2.453v-6.613h-.45a4.041 4.041 0 0 1-4.038-4.035v-7.91a4.044 4.044 0 0 1 4.039-4.04h.449v-6.613h-2.453a6.4 6.4 0 0 0-6.403 6.399zm0 0" fill="#69ebfc"/><path d="M166.465 392.238v18.973c0 2.816-2.305 5.117-5.117 5.117-2.817 0-5.121-2.3-5.121-5.117v-18.973c0-2.816 2.304-5.117 5.12-5.117 2.813 0 5.118 2.305 5.118 5.117zm27.16-17.281v36.254c0 2.816-2.305 5.117-5.117 5.117-2.817 0-5.121-2.3-5.121-5.117v-36.254c0-2.816 2.304-5.117 5.12-5.117 2.813 0 5.118 2.3 5.118 5.117zm-27.16-16.34v18.977c0 2.812-2.305 5.117-5.117 5.117-2.817 0-5.121-2.305-5.121-5.117v-18.977c0-2.816 2.304-5.117 5.12-5.117 2.813 0 5.118 2.3 5.118 5.117zm0 0" fill="#8f95e6"/><path d="M325.684 365.598h-16.575c-3.996 0-7.261-3.27-7.261-7.262v-5.172c0-3.992 3.27-7.262 7.261-7.262h16.575c3.992 0 7.257 3.27 7.257 7.262v5.172c0 3.992-3.265 7.262-7.257 7.262zm42.679 0H351.79c-3.996 0-7.262-3.27-7.262-7.262v-5.172c0-3.992 3.27-7.262 7.262-7.262h16.574c3.992 0 7.258 3.27 7.258 7.262v5.172c0 3.992-3.266 7.262-7.258 7.262zm43.051 0h-16.57c-3.996 0-7.262-3.27-7.262-7.262v-5.172c0-3.992 3.27-7.262 7.262-7.262h16.57c3.996 0 7.262 3.27 7.262 7.262v5.172c0 3.992-3.266 7.262-7.262 7.262zm-85.73 34.824h-16.575c-3.996 0-7.261-3.27-7.261-7.262v-5.172c0-3.992 3.27-7.258 7.261-7.258h16.575c3.992 0 7.257 3.266 7.257 7.258v5.172c0 3.992-3.265 7.262-7.257 7.262zm42.679 0H351.79c-3.996 0-7.262-3.27-7.262-7.262v-5.172c0-3.992 3.27-7.258 7.262-7.258h16.574c3.992 0 7.258 3.266 7.258 7.258v5.172c0 3.992-3.266 7.262-7.258 7.262zm43.051 0h-16.57c-3.996 0-7.262-3.27-7.262-7.262v-5.172c0-3.992 3.27-7.258 7.262-7.258h16.57c3.996 0 7.262 3.266 7.262 7.258v5.172c0 3.992-3.266 7.262-7.262 7.262zm-85.73 34.824h-16.575c-3.996 0-7.261-3.266-7.261-7.258v-5.172c0-3.996 3.27-7.261 7.261-7.261h16.575c3.992 0 7.257 3.27 7.257 7.261v5.172c0 3.992-3.265 7.258-7.257 7.258zm42.679 0H351.79c-3.996 0-7.262-3.266-7.262-7.258v-5.172c0-3.996 3.27-7.261 7.262-7.261h16.574c3.992 0 7.258 3.27 7.258 7.261v5.172c0 3.992-3.266 7.258-7.258 7.258zm43.051 0h-16.57c-3.996 0-7.262-3.266-7.262-7.258v-5.172c0-3.996 3.27-7.261 7.262-7.261h16.57c3.996 0 7.262 3.27 7.262 7.261v5.172c0 3.992-3.266 7.258-7.262 7.258zm0 0" fill="#69ebfc"/><path d="M250.32 235.8c-7.125-1.042-13.46-3.796-19.023-8.265-3.242-2.605-5.938-5.87-8.098-9.8-2.617-4.766-.574-10.762 4.461-12.817 4-1.633 8.695-.246 10.93 3.457a25.12 25.12 0 0 0 2.472 3.41c2.563 2.996 5.645 5.067 9.258 6.2v-27.079l-1.273-.57c-3.512-1.328-6.82-2.895-9.906-4.707-3.086-1.797-5.793-3.895-8.121-6.266a28.065 28.065 0 0 1-5.563-8.054c-1.383-2.996-2.074-6.344-2.074-10.051 0-3.418.62-6.649 1.851-9.692a24.972 24.972 0 0 1 5.356-8.12c2.324-2.376 5.144-4.352 8.48-5.915 3.32-1.57 7.07-2.59 11.246-3.066v-5.914a6.347 6.347 0 0 1 12.691 0v6.199c3.802.566 7.11 1.57 9.903 2.996a34.57 34.57 0 0 1 7.281 4.918c.793.703 1.563 1.543 2.29 2.453 3.597 4.504 1.773 11.242-3.497 13.594-3.609 1.61-7.765.601-10.421-2.324-1.395-1.535-3.227-3.043-5.555-4.106v25.512c4.097 1.715 7.789 3.473 11.125 5.277 3.32 1.805 6.168 3.844 8.55 6.13 2.38 2.273 4.176 4.866 5.41 7.76 1.247 2.907 1.852 6.255 1.852 10.052 0 4.273-.734 8.082-2.199 11.398-1.48 3.328-3.445 6.18-5.922 8.55-2.476 2.384-5.34 4.282-8.62 5.708a42.361 42.361 0 0 1-10.196 2.988v6.2a6.343 6.343 0 1 1-12.688 0zm-9.394-74.538c0 2.281.734 4.254 2.199 5.914 1.48 1.668 3.875 3.351 7.195 5.062V151.43c-2.851.761-5.117 1.992-6.836 3.699-1.714 1.719-2.558 3.758-2.558 6.133zm30.781 45.894c0-2.469-.664-4.52-2.004-6.129-1.328-1.617-3.558-3.23-6.695-4.847v21.8c2.57-.847 4.66-2.203 6.281-4.058 1.602-1.856 2.418-4.11 2.418-6.766zm0 0" fill="#ffefe4"/></svg>