<svg height="512pt" viewBox="0 0 512 512" width="512pt" xmlns="http://www.w3.org/2000/svg"><path d="M264.934 80.074c0-10.926 8.855-19.781 19.78-19.781h30.013c-18.79-5.719-38.622-8.813-59.02-8.813-78.742 0-151.277 46.063-184.8 117.352-4.227 8.996-.364 19.719 8.632 23.95 8.992 4.226 19.719.363 23.945-8.634 27.614-58.722 87.368-96.668 152.223-96.668 3.094 0 6.164.118 9.223.286v-7.692zm0 0" fill="#ff8354"/><path d="M284.715 60.293h31.137a202.609 202.609 0 0 0-60.43-9.223c-62.262 0-120.621 28.813-158.902 76.106l2.03 11.515c38.298-45.82 95.708-73.625 156.872-73.625 5.281 0 10.52.239 15.719.645 3.543-3.352 8.312-5.418 13.574-5.418zm0 0" fill="#ffac8c"/><path d="M492.215 234h-207.5c-10.926 0-19.781-8.86-19.781-19.785V80.075c0-10.927 8.855-19.782 19.78-19.782h207.5c10.927 0 19.786 8.855 19.786 19.781v134.14c0 10.927-8.86 19.786-19.785 19.786zm0 0" fill="#6770e6"/><path d="M87.063 193.969a18.004 18.004 0 0 1-10.325-3.254 17.985 17.985 0 0 1-7.402-11.617l-13.098-74.286c-1.726-9.789 4.809-19.124 14.602-20.851 9.789-1.723 19.125 4.812 20.851 14.601l9.97 56.555 56.558-9.972c9.789-1.72 19.125 4.812 20.851 14.601 1.727 9.79-4.808 19.125-14.601 20.852l-74.281 13.097c-1.04.184-2.083.274-3.126.274zm0 0" fill="#ff8354"/><path d="M70.637 183.492c.015-.035.031-.07.047-.11a17.92 17.92 0 0 1-.786-2.042c.207.73.446 1.453.739 2.152zM69.18 178.2l.156.898c.012.05.027.101.035.156zm4.304-80.24c8.114-1.366 15.914 2.481 19.692 9.02l-1.486-8.42c-1.726-9.79-11.066-16.325-20.851-14.598-9.793 1.727-16.328 11.062-14.602 20.852l1.758 9.984c.418-8.207 6.688-15.348 15.488-16.836zm0 0" fill="#ffac8c"/><path d="M432.46 319.219c-8.995-4.227-19.722-.367-23.948 8.633-27.614 58.722-87.364 96.668-152.223 96.668-3.09 0-6.16-.118-9.223-.286v36.07c3.063.137 6.137.216 9.223.216 78.742 0 151.281-46.063 184.8-117.352 4.231-8.996.368-19.719-8.628-23.95zm0 0" fill="#ff8354"/><path d="M256.29 446.52c-3.087 0-6.161-.079-9.224-.22v14.005c3.063.136 6.137.215 9.223.215 62.258 0 120.617-28.817 158.902-76.11l-2.03-11.512c-38.298 45.817-95.708 73.622-156.872 73.622zm0 0" fill="#e0734a"/><path d="M438.016 428.316c-8.57 0-16.168-6.144-17.707-14.875l-9.973-56.554-56.555 9.972c-9.789 1.73-19.125-4.812-20.851-14.601-1.727-9.79 4.808-19.125 14.601-20.852l74.281-13.097c9.79-1.723 19.125 4.808 20.852 14.597l13.098 74.285c1.726 9.79-4.809 19.125-14.602 20.852a18.36 18.36 0 0 1-3.144.273zm0 0" fill="#ff8354"/><path d="M455.762 407.188l-.86-4.883c-2.289 5.914-7.886 10.566-15.12 11.734a21.912 21.912 0 0 1-3.438.274c-7.555 0-14.41-4-17.664-10.13l1.629 9.254c1.543 8.731 9.136 14.875 17.707 14.875 1.039 0 2.09-.09 3.148-.277 9.79-1.723 16.324-11.058 14.598-20.848zm0 0" fill="#e0734a"/><path d="M492.215 234h-207.5c-10.926 0-19.781-8.86-19.781-19.785V80.075c0-10.927 8.855-19.782 19.78-19.782h207.5c10.927 0 19.786 8.855 19.786 19.781v134.14c0 10.927-8.86 19.786-19.785 19.786zm0 0" fill="#6770e6"/><path d="M492.215 60.293h-207.5c-10.926 0-19.781 8.855-19.781 19.781v9.055c0-10.926 8.855-19.781 19.78-19.781h207.5c10.927 0 19.786 8.855 19.786 19.78v-9.054c0-10.926-8.86-19.781-19.785-19.781zm0 0" fill="#8f95e6"/><g fill="#d476e2"><path d="M469.414 210.871H307.516c-13.414 0-24.293-10.875-24.293-24.293v-51.812a8.005 8.005 0 0 1 8.007-8.004h194.473a8.005 8.005 0 0 1 8.008 8.004v51.812c-.004 13.418-10.879 24.293-24.297 24.293zM324.754 98.258c-10.07 0-18.234-8.164-18.234-18.238V59.883a6.34 6.34 0 0 1 6.34-6.34h23.792c3.5 0 6.34 2.84 6.34 6.34V80.02c-.004 10.07-8.168 18.238-18.238 18.238zm127.426 0c-10.075 0-18.239-8.164-18.239-18.238V59.883c0-3.5 2.84-6.34 6.34-6.34h23.793a6.34 6.34 0 0 1 6.34 6.34V80.02c0 10.07-8.164 18.238-18.234 18.238zm0 0"/><path d="M460.566 53.547h-16.78c0-20.274-16.493-36.766-36.763-36.766h-37.117c-20.27 0-36.761 16.492-36.761 36.766h-16.782C316.363 24.02 340.383 0 369.906 0h37.117c29.524 0 53.543 24.02 53.543 53.547zm0 0"/></g><path d="M369.906 9.055h37.117c26.438 0 48.446 19.261 52.766 44.492h.781C460.566 24.02 436.547 0 407.023 0h-37.117c-29.523 0-53.543 24.02-53.543 53.547h.782c4.316-25.227 26.324-44.492 52.761-44.492zm98.004 158.504H309.023c-14.25 0-25.8-11.551-25.8-25.797v-6.598c0-4.64 3.765-8.402 8.406-8.402h193.676c4.64 0 8.406 3.761 8.406 8.402v6.598c-.004 14.246-11.555 25.797-25.8 25.797zm0 0" fill="#ea82fa"/><path d="M403.68 177.71h-30.426a4.806 4.806 0 0 1-4.805-4.804v-11.613a4.806 4.806 0 0 1 4.805-4.805h30.426a4.806 4.806 0 0 1 4.804 4.805v11.613a4.806 4.806 0 0 1-4.804 4.805zM227.285 512h-207.5C8.86 512 0 503.14 0 492.215v-134.14c0-10.927 8.86-19.782 19.785-19.782h207.5c10.926 0 19.781 8.855 19.781 19.781v134.14c0 10.927-8.855 19.786-19.78 19.786zm0 0" fill="#6770e6"/><path d="M227.285 338.293h-207.5C8.86 338.293 0 347.148 0 358.074v9.055c0-10.926 8.86-19.781 19.785-19.781h207.5c10.926 0 19.781 8.855 19.781 19.78v-9.054c0-10.926-8.855-19.781-19.78-19.781zm0 0" fill="#8f95e6"/><path d="M204.484 488.871H42.586c-13.418 0-24.293-10.875-24.293-24.293v-51.812a8.002 8.002 0 0 1 8.004-8.004h194.476a8.002 8.002 0 0 1 8.004 8.004v51.812c0 13.418-10.879 24.293-24.293 24.293zm0 0" fill="#5fd4e3"/><path d="M59.82 376.258c-10.07 0-18.234-8.164-18.234-18.238v-20.133a6.34 6.34 0 0 1 6.34-6.34h23.793a6.337 6.337 0 0 1 6.34 6.34v20.133c0 10.07-8.164 18.238-18.239 18.238zm127.426 0c-10.07 0-18.234-8.164-18.234-18.238v-20.133a6.337 6.337 0 0 1 6.34-6.34h23.793a6.34 6.34 0 0 1 6.34 6.34v20.133c-.005 10.07-8.169 18.238-18.239 18.238zm0 0" fill="#69ebfc"/><path d="M195.637 331.547h-16.782c0-20.274-16.492-36.766-36.761-36.766h-37.117c-20.27 0-36.762 16.492-36.762 36.766H51.434c0-29.527 24.02-53.547 53.543-53.547h37.117c29.523 0 53.543 24.02 53.543 53.547zm0 0" fill="#69ebfc"/><path d="M104.977 287.055h37.117c26.437 0 48.445 19.261 52.765 44.492h.782C195.637 302.02 171.617 278 142.094 278h-37.117c-29.524 0-53.543 24.02-53.543 53.547h.78c4.317-25.227 26.325-44.492 52.763-44.492zm0 0" fill="#a1f1fc"/><path d="M202.977 445.559H44.09c-14.246 0-25.797-11.551-25.797-25.797v-6.598a8.403 8.403 0 0 1 8.406-8.402h193.672a8.403 8.403 0 0 1 8.406 8.402v6.598c0 14.246-11.55 25.797-25.8 25.797zm0 0" fill="#69ebfc"/><path d="M138.746 455.71H108.32a4.806 4.806 0 0 1-4.804-4.804v-11.613a4.806 4.806 0 0 1 4.804-4.805h30.426a4.806 4.806 0 0 1 4.805 4.805v11.613a4.806 4.806 0 0 1-4.805 4.805zm0 0" fill="#6770e6"/></svg>