<svg height="512pt" viewBox="0 0 512.002 512" width="512pt" xmlns="http://www.w3.org/2000/svg"><path d="M256 460.105c-96.535 0-180.633-68.546-199.957-162.992-1.996-9.738 4.285-19.25 14.023-21.242 9.739-1.992 19.25 4.285 21.246 14.027 15.915 77.766 85.176 134.207 164.692 134.207 64.86 0 124.61-37.945 152.223-96.667 4.226-9 14.953-12.86 23.945-8.63 8.996 4.227 12.863 14.95 8.633 23.946C407.28 414.043 334.742 460.105 256 460.105zm0 0" fill="#ff8354"/><path d="M412.871 372.488c-38.297 45.817-95.707 73.617-156.871 73.617-95.21 0-178.277-66.699-199.082-159.14a17.897 17.897 0 0 0-.879 10.148C75.367 391.56 159.461 460.105 256 460.105c62.258 0 120.617-28.812 158.898-76.105zm28.934-42.265a18.487 18.487 0 0 0-.73-2.13c-.016.036-.032.071-.044.106.293.653.555 1.324.774 2.024zm0 0" fill="#e0734a"/><path d="M437.727 427.906c-8.57 0-16.168-6.144-17.707-14.879l-9.973-56.55-56.555 9.968c-9.785 1.73-19.125-4.808-20.851-14.597-1.727-9.79 4.812-19.125 14.601-20.852l74.281-13.098c9.79-1.726 19.125 4.809 20.852 14.598l13.098 74.281c1.726 9.793-4.809 19.13-14.598 20.852a18.06 18.06 0 0 1-3.148.277zm0 0" fill="#ff8354"/><path d="M455.473 406.773l-.86-4.878c-2.289 5.914-7.886 10.562-15.12 11.73a21.462 21.462 0 0 1-3.438.277c-7.555 0-14.41-4-17.664-10.132l1.632 9.253c1.54 8.735 9.133 14.88 17.704 14.88 1.039 0 2.09-.09 3.148-.278 9.79-1.723 16.324-11.059 14.598-20.852zm0 0" fill="#e0734a"/><path d="M264.934 80.078c0-10.926 8.859-19.785 19.785-19.785h30.011c-18.793-5.719-38.62-8.809-59.02-8.809-78.741 0-151.28 46.059-184.8 117.348-4.23 8.996-.367 19.719 8.63 23.95 8.991 4.226 19.718.366 23.948-8.63 27.61-58.726 87.364-96.668 152.223-96.668 3.09 0 6.16.114 9.219.282v-7.688zm0 0" fill="#ff8354"/><path d="M284.719 60.293h31.133a202.57 202.57 0 0 0-60.43-9.223c-62.258 0-120.617 28.817-158.899 76.106l2.028 11.515c38.297-45.82 95.707-73.62 156.87-73.62 5.282 0 10.52.238 15.72.64 3.543-3.352 8.312-5.418 13.578-5.418zm0 0" fill="#ffac8c"/><path d="M492.219 234h-207.5c-10.926 0-19.785-8.855-19.785-19.785V80.078c0-10.926 8.859-19.785 19.785-19.785h207.5c10.926 0 19.781 8.86 19.781 19.785v134.137c0 10.93-8.855 19.785-19.781 19.785zm0 0" fill="#6770e6"/><path d="M87.063 193.973a18.007 18.007 0 0 1-17.727-14.875l-13.098-74.282c-1.726-9.793 4.813-19.129 14.602-20.855 9.789-1.723 19.125 4.812 20.851 14.601l9.973 56.555 56.555-9.969c9.789-1.722 19.125 4.809 20.851 14.598 1.727 9.79-4.808 19.125-14.597 20.852L90.19 193.695a18.019 18.019 0 0 1-3.129.278zm0 0" fill="#ff8354"/><path d="M70.64 183.496c.016-.039.028-.074.044-.11a17.96 17.96 0 0 1-.782-2.046c.207.73.442 1.453.739 2.156zm-1.46-5.296l.156.898c.012.054.027.101.039.156zm4.308-80.24c8.11-1.366 15.91 2.481 19.688 9.024l-1.485-8.421C89.965 88.77 80.63 82.237 70.84 83.96c-9.79 1.727-16.328 11.062-14.602 20.852L58 114.796c.418-8.207 6.684-15.348 15.488-16.836zm0 0" fill="#ffac8c"/><path d="M492.219 234h-207.5c-10.926 0-19.785-8.855-19.785-19.785V80.078c0-10.926 8.859-19.785 19.785-19.785h207.5c10.926 0 19.781 8.86 19.781 19.785v134.137c0 10.93-8.855 19.785-19.781 19.785zm0 0" fill="#6770e6"/><path d="M492.219 60.293h-207.5c-10.926 0-19.785 8.86-19.785 19.785v9.05c0-10.925 8.859-19.78 19.785-19.78h207.5c10.926 0 19.781 8.855 19.781 19.78v-9.05c0-10.926-8.855-19.785-19.781-19.785zm0 0" fill="#8f95e6"/><g fill="#d476e2"><path d="M469.418 210.871H307.52c-13.418 0-24.293-10.875-24.293-24.289v-51.816a8.002 8.002 0 0 1 8.003-8.004h194.477a8.002 8.002 0 0 1 8.004 8.004v51.816c0 13.414-10.879 24.29-24.293 24.29zM324.754 98.258c-10.07 0-18.234-8.164-18.234-18.238V59.887a6.342 6.342 0 0 1 6.34-6.344h23.792a6.34 6.34 0 0 1 6.34 6.344V80.02c0 10.07-8.164 18.238-18.238 18.238zm127.426 0c-10.07 0-18.235-8.164-18.235-18.238V59.887a6.34 6.34 0 0 1 6.34-6.344h23.793c3.5 0 6.34 2.84 6.34 6.344V80.02c-.004 10.07-8.168 18.238-18.238 18.238zm0 0"/><path d="M460.57 53.547h-16.78c0-20.274-16.493-36.766-36.767-36.766H369.91c-20.273 0-36.765 16.492-36.765 36.766h-16.782C316.367 24.02 340.387 0 369.91 0h37.113c29.528 0 53.547 24.02 53.547 53.547zm0 0"/></g><path d="M369.91 9.055h37.113c26.438 0 48.45 19.265 52.766 44.492h.781C460.57 24.02 436.55 0 407.023 0H369.91c-29.527 0-53.547 24.02-53.547 53.547h.782C321.46 28.32 343.473 9.055 369.91 9.055zm98 158.504H309.023c-14.246 0-25.796-11.551-25.796-25.797v-6.594a8.404 8.404 0 0 1 8.406-8.406h193.672a8.404 8.404 0 0 1 8.406 8.406v6.594c0 14.246-11.55 25.797-25.8 25.797zm0 0" fill="#ea82fa"/><path d="M403.68 177.71h-30.426a4.804 4.804 0 0 1-4.805-4.804v-11.613a4.806 4.806 0 0 1 4.805-4.805h30.426a4.806 4.806 0 0 1 4.804 4.805v11.613a4.804 4.804 0 0 1-4.804 4.805zm0 0" fill="#6770e6"/><path d="M204.723 512H20.243C8.417 512-.888 501.906.07 490.121l18.375-226.21a5.75 5.75 0 0 1 5.73-5.286h176.618a5.75 5.75 0 0 1 5.73 5.285l18.375 226.211c.957 11.785-8.347 21.879-20.175 21.879zm0 0" fill="#69ebfc"/><path d="M22.605 268.137h179.758c1.914 0 3.621.902 4.696 2.312l-.532-6.539a5.753 5.753 0 0 0-5.734-5.285H24.176a5.75 5.75 0 0 0-5.73 5.285l-.536 6.54a5.892 5.892 0 0 1 4.695-2.313zm0 0" fill="#a1f1fc"/><path d="M224.574 486.11c-1.793 9.257-9.922 16.382-19.851 16.382H20.243c-9.927 0-18.055-7.125-19.848-16.383l-.329 4.012C-.887 501.906 8.418 512 20.242 512h184.48c11.829 0 21.133-10.094 20.176-21.879zm0 0" fill="#5fd4e3"/><path d="M65.48 296.332c0 6.246-5.062 11.313-11.312 11.313s-11.313-5.067-11.313-11.313c0-6.25 5.063-11.316 11.313-11.316s11.312 5.066 11.312 11.316zm116.633 0c0 6.246-5.066 11.313-11.312 11.313-6.25 0-11.317-5.067-11.317-11.313 0-6.25 5.067-11.316 11.317-11.316 6.246 0 11.312 5.066 11.312 11.316zm0 0" fill="#ffefe4"/><path d="M170.52 290.156a6.86 6.86 0 0 0-6.86 6.86v50.062c0 28.25-22.558 51.692-50.808 51.965-28.528.277-51.82-22.848-51.82-51.309V297.02a6.862 6.862 0 0 0-13.723 0v49.882c0 35.805 28.59 65.516 64.394 65.864 36.156.347 65.68-28.957 65.68-65.032V297.02a6.868 6.868 0 0 0-6.863-6.864zm0 0" fill="#ffefe4"/></svg>