<svg height="511pt" viewBox="0 1 511 512" width="511pt" xmlns="http://www.w3.org/2000/svg"><path d="M27.105 256l30.72 196.59c5.343 34.2 34.8 59.41 69.41 59.41h258.527c34.613 0 64.07-25.21 69.41-59.41L485.895 256zm126.262 179.172c0 9.953-8.066 18.023-18.02 18.023s-18.019-8.07-18.019-18.023v-95.34c0-9.95 8.067-18.02 18.02-18.02s18.02 8.07 18.02 18.02zm80.77 0c0 9.953-8.07 18.023-18.02 18.023-9.953 0-18.02-8.07-18.02-18.023v-95.34c0-9.95 8.067-18.02 18.02-18.02 9.95 0 18.02 8.07 18.02 18.02zm80.765 0c0 9.953-8.066 18.023-18.02 18.023-9.948 0-18.019-8.07-18.019-18.023v-95.34c0-9.95 8.07-18.02 18.02-18.02 9.953 0 18.02 8.07 18.02 18.02zm80.77 0c0 9.953-8.067 18.023-18.02 18.023s-18.02-8.07-18.02-18.023v-95.34c0-9.95 8.067-18.02 18.02-18.02s18.02 8.07 18.02 18.02zm0 0" fill="#ff8354"/><path d="M390.055 498h-267.11c-26.347 0-49.793-13.695-62.523-34.582C69.66 491.973 96.395 512 127.234 512h258.528c30.843 0 57.574-20.027 66.816-48.582C439.852 484.305 416.406 498 390.055 498zm0 0" fill="#e0734a"/><path d="M484.156 256H28.844C13.19 256 .5 243.309.5 227.656s12.691-28.34 28.344-28.34h455.312c15.653 0 28.34 12.688 28.34 28.34C512.5 243.31 499.81 256 484.156 256zm0 0" fill="#ff8354"/><path d="M30.23 276h452.54l3.125-20H27.105zm0 0" fill="#e0734a"/><g fill="#5861c7"><path d="M184.734 227.93c0 19.304-15.648 34.953-34.949 34.953-19.305 0-34.953-15.649-34.953-34.953 0-19.305 15.648-34.953 34.953-34.953 19.3 0 34.95 15.648 34.95 34.953zm0 0"/><path d="M149.777 245.938a17.94 17.94 0 0 1-6.992-1.426c-9.16-3.864-13.453-14.422-9.586-23.582l88.606-209.926c3.867-9.156 14.425-13.45 23.582-9.582 9.16 3.867 13.449 14.422 9.586 23.582L166.367 234.93c-2.902 6.87-9.574 11.007-16.59 11.007zm248.391-18.008c0 19.304-15.648 34.953-34.953 34.953-19.3 0-34.95-15.649-34.95-34.953 0-19.305 15.65-34.953 34.95-34.953 19.305 0 34.953 15.648 34.953 34.953zm0 0"/><path d="M363.223 245.938c-7.02 0-13.688-4.133-16.59-11.008L258.027 25.004c-3.867-9.16.426-19.715 9.586-23.582 9.16-3.867 19.715.422 23.582 9.582l88.606 209.926c3.863 9.16-.426 19.718-9.586 23.582a17.94 17.94 0 0 1-6.992 1.425zm0 0"/></g><path d="M383.098 227.93c0 10.98-8.903 19.882-19.883 19.882-10.98 0-19.883-8.902-19.883-19.882 0-10.98 8.902-19.883 19.883-19.883 10.98 0 19.883 8.902 19.883 19.883zM245.387 1.422c-9.157-3.867-19.715.426-23.582 9.582l-5.278 12.508c4.336-8.117 14.22-11.739 22.86-8.09 9.16 3.867 13.449 14.422 9.586 23.582l6-14c3.863-9.16-.426-19.719-9.586-23.582zm0 0" fill="#6770e6"/><path d="M264.027 39.004c-3.867-9.16.426-19.715 9.586-23.582 8.64-3.649 18.524-.027 22.856 8.082l-5.274-12.5c-3.867-9.16-14.422-13.45-23.582-9.582-9.16 3.867-13.453 14.422-9.586 23.582zM169.664 227.93c0 10.98-8.898 19.882-19.879 19.882-10.98 0-19.883-8.902-19.883-19.882 0-10.98 8.903-19.883 19.883-19.883 10.98 0 19.88 8.902 19.88 19.883zm0 0" fill="#6770e6"/></svg>