<svg height="512pt" viewBox="0 0 512.002 512" width="512pt" xmlns="http://www.w3.org/2000/svg"><path d="M301.367 512H29.801C12.39 512-1.31 497.145.1 479.793l27.047-332.996a8.468 8.468 0 0 1 8.438-7.781h259.992a8.465 8.465 0 0 1 8.438 7.78l27.046 332.997c1.41 17.352-12.289 32.207-29.695 32.207zm0 0" fill="#6770e6"/><path d="M33.277 153.016h264.614a8.663 8.663 0 0 1 6.91 3.41l-.781-9.63a8.472 8.472 0 0 0-8.442-7.78H35.586a8.465 8.465 0 0 0-8.438 7.78l-.78 9.63a8.657 8.657 0 0 1 6.91-3.41zm0 0" fill="#8f95e6"/><path d="M330.586 473.887C327.946 487.516 315.98 498 301.367 498H29.801C15.187 498 3.223 487.516.578 473.887l-.48 5.906C-1.31 497.145 12.395 512 29.8 512h271.566c17.406 0 31.106-14.855 29.695-32.207zm0 0" fill="#5861c7"/><g fill="#69ebfc"><path d="M96.39 199.469c0 9.199-7.456 16.656-16.652 16.656-9.199 0-16.656-7.457-16.656-16.656 0-9.196 7.457-16.653 16.656-16.653 9.196 0 16.653 7.457 16.653 16.653zm171.692 0c0 9.199-7.457 16.656-16.656 16.656-9.196 0-16.653-7.457-16.653-16.656 0-9.196 7.457-16.653 16.653-16.653 9.199 0 16.656 7.457 16.656 16.653zm0 0"/><path d="M251.012 208.559c-5.575 0-10.098-4.524-10.098-10.098V96.703c0-41.59-33.207-76.098-74.793-76.5-41.992-.406-76.285 33.633-76.285 75.535v102.719c0 5.578-4.52 10.098-10.098 10.098s-10.097-4.52-10.097-10.098v-101.5C69.64 44.25 111.73.516 164.434.004c53.218-.516 96.68 42.629 96.68 95.734v102.719c0 5.578-4.524 10.102-10.102 10.102zm0 0"/></g><path d="M164.43.004C111.727.516 69.64 44.25 69.64 96.96v10c0-52.711 42.087-96.445 94.79-96.953 53.222-.516 96.683 42.629 96.683 95.73v-10c0-53.101-43.46-96.25-96.683-95.734zm0 0" fill="#a1f1fc"/><path d="M512 462.82V360.5c-27.16 0-49.18-22.02-49.18-49.18H227.816c0 27.164-22.02 49.18-49.183 49.18v102.32c27.164 0 49.183 22.02 49.183 49.18H462.82c0-27.164 22.02-49.18 49.18-49.18zm0 0" fill="#339"/><path d="M462.82 311.32H227.816c0 27.164-22.02 49.18-49.183 49.18v14c27.164 0 59.183-22.02 59.183-49.18H454.82c0 27.164 30.02 49.18 57.18 49.18v-14c-27.16 0-49.18-22.02-49.18-49.18zm0 0" fill="#5861c7"/><path d="M462.82 512H227.816c0-27.164-22.02-49.18-49.183-49.18v-14c27.164 0 59.183 22.02 59.183 49.18H454.82c0-27.164 30.02-49.18 57.18-49.18v14c-27.16 0-49.18 22.016-49.18 49.18zm0 0" fill="#29297a"/><path d="M273.91 377.29c0-4.29.824-8.333 2.48-12.13 1.653-3.797 3.919-7.14 6.801-10.02 2.875-2.874 6.278-5.144 10.2-6.8 3.921-1.652 8.207-2.477 12.867-2.477 4.656 0 8.972.825 12.957 2.477 3.984 1.656 7.414 3.926 10.293 6.8 2.879 2.88 5.148 6.223 6.8 10.02 1.657 3.8 2.485 7.84 2.485 12.13 0 4.288-.828 8.362-2.484 12.222-1.653 3.863-3.922 7.203-6.801 10.02-2.88 2.816-6.309 5.05-10.293 6.706-3.98 1.653-8.3 2.48-12.957 2.48-4.66 0-8.945-.827-12.867-2.48-3.922-1.656-7.325-3.89-10.2-6.707-2.882-2.82-5.148-6.16-6.8-10.02-1.657-3.859-2.48-7.933-2.48-12.222zm19.664 0c0 4.042 1.227 7.292 3.68 9.741 2.45 2.453 5.45 3.676 9.004 3.676 3.554 0 6.554-1.223 9.008-3.676 2.449-2.449 3.675-5.699 3.675-9.742 0-4.043-1.226-7.289-3.675-9.742-2.454-2.45-5.454-3.676-9.008-3.676-3.555 0-6.555 1.223-9.004 3.676-2.453 2.453-3.68 5.7-3.68 9.742zm8.54 83.17l71.878-107.331a8.744 8.744 0 0 1 12.137-2.399 8.744 8.744 0 0 1 2.394 12.125l-71.882 107.333a8.74 8.74 0 0 1-12.133 2.398 8.74 8.74 0 0 1-2.395-12.125zm49.726-14.429c0-4.289.828-8.332 2.484-12.129 1.653-3.797 3.918-7.136 6.801-10.015 2.875-2.88 6.277-5.149 10.2-6.801 3.921-1.656 8.21-2.484 12.866-2.484s8.973.828 12.957 2.484c3.98 1.652 7.414 3.922 10.293 6.8 2.88 2.88 5.145 6.22 6.801 10.016 1.653 3.801 2.48 7.84 2.48 12.13s-.827 8.363-2.48 12.222c-1.656 3.863-3.922 7.203-6.8 10.016-2.88 2.82-6.313 5.058-10.294 6.71-3.984 1.657-8.3 2.48-12.957 2.48s-8.945-.823-12.867-2.48c-3.922-1.652-7.324-3.89-10.199-6.71-2.883-2.817-5.148-6.153-6.8-10.016-1.657-3.86-2.485-7.934-2.485-12.223zm19.668 0c0 4.043 1.222 7.293 3.68 9.742 2.449 2.454 5.449 3.68 9.003 3.68 3.551 0 6.555-1.226 9.008-3.68 2.45-2.449 3.676-5.699 3.676-9.742s-1.227-7.289-3.676-9.742c-2.453-2.45-5.453-3.676-9.008-3.676-3.554 0-6.554 1.227-9.004 3.676-2.457 2.453-3.68 5.7-3.68 9.742zm0 0" fill="#ffefe4"/></svg>