<svg height="512pt" viewBox="0 0 512.003 512" width="512pt" xmlns="http://www.w3.org/2000/svg"><path d="M502.14 334.395H9.86c-6.93 0-11.692-6.97-9.18-13.426l23.914-61.39a9.867 9.867 0 0 0 0-7.153l-23.91-61.39c-2.516-6.462 2.246-13.43 9.18-13.43H502.14c6.933 0 11.695 6.968 9.183 13.43l-23.914 61.39a9.856 9.856 0 0 0 0 7.148l23.914 61.395c2.512 6.457-2.254 13.426-9.183 13.426zm0 0" fill="#e0734a"/><path d="M275.055 56.695c8.523-21 39.777-14.785 39.613 7.88-.133 18.464 22.246 27.734 35.207 14.581 15.91-16.14 42.406 1.563 33.582 22.442-7.187 17.004 9.941 34.132 26.95 26.945 20.874-8.824 38.581 17.672 22.437 33.586-13.149 12.957-3.88 35.34 14.582 35.203 22.668-.164 28.883 31.094 7.879 39.617-17.106 6.942-17.106 31.164 0 38.106 21.004 8.52 14.789 39.777-7.88 39.613-18.46-.133-27.73 22.246-14.581 35.207 16.144 15.91-1.563 42.406-22.438 33.582-17.008-7.187-34.136 9.941-26.949 26.945 8.824 20.88-17.672 38.582-33.582 22.442-12.96-13.149-35.34-3.88-35.207 14.582.164 22.664-31.09 28.883-39.613 7.879-6.942-17.106-31.164-17.106-38.106 0-8.523 21.004-39.777 14.785-39.613-7.88.133-18.46-22.246-27.73-35.207-14.581-15.914 16.14-42.41-1.563-33.586-22.442 7.187-17.004-9.938-34.132-26.945-26.945-20.88 8.824-38.582-17.672-22.438-33.582 13.145-12.96 3.88-35.34-14.582-35.207-22.668.164-28.883-31.094-7.883-39.613 17.11-6.942 17.11-31.164 0-38.106-21-8.523-14.785-39.781 7.883-39.617 18.461.137 27.73-22.246 14.582-35.203-16.144-15.914 1.559-42.41 22.438-33.586 17.007 7.187 34.132-9.941 26.945-26.945-8.824-20.88 17.672-38.582 33.586-22.442 12.96 13.149 35.34 3.883 35.207-14.582-.164-22.664 31.09-28.879 39.613-7.879 6.938 17.11 31.164 17.11 38.106 0zm0 0" fill="#ff8354"/><path d="M101.598 369.46c-12.41 5.247-23.703-1.995-27.426-12.07-5.895 15.391 9.601 33.606 27.426 26.07 11.75-4.968 23.547 1.673 27.355 11.86 6.035-16.64-10.71-32.898-27.355-25.86zm248.277 49.384c-12.96-13.149-35.34-3.88-35.207 14.582.164 22.668-31.09 28.883-39.613 7.883-6.942-17.11-31.164-17.11-38.106 0-8.523 21-39.777 14.785-39.613-7.883.133-18.461-22.246-27.73-35.207-14.582-11.734 11.902-29.203 5.394-34.043-7.207-7.3 20.328 18.445 37.031 34.043 21.207 12.96-13.149 35.34-3.88 35.207 14.582-.164 22.668 31.09 28.883 39.613 7.883 6.942-17.11 31.164-17.11 38.106 0 8.523 21 39.777 14.785 39.613-7.883-.133-18.461 22.246-27.73 35.207-14.582 15.594 15.824 41.34-.88 34.043-21.207-4.84 12.601-22.313 19.11-34.043 7.207zm60.531-49.384c-16.644-7.038-33.39 9.22-27.36 25.86 3.81-10.187 15.614-16.824 27.36-11.86 17.824 7.536 33.32-10.679 27.426-26.07-3.727 10.075-15.016 17.317-27.426 12.07zm0 0" fill="#c96742"/><path d="M162.125 93.16c12.96 13.149 35.34 3.88 35.207-14.586-.164-22.664 31.094-28.879 39.613-7.879 6.942 17.11 31.164 17.11 38.106 0 8.523-21 39.781-14.785 39.617 7.88-.137 18.464 22.246 27.734 35.203 14.585 11.734-11.902 29.203-5.398 34.043 7.207 7.3-20.328-18.445-37.035-34.043-21.207-12.957 13.149-35.34 3.88-35.203-14.586.164-22.664-31.094-28.879-39.617-7.879-6.942 17.11-31.164 17.11-38.106 0-8.52-21-39.777-14.785-39.613 7.88.133 18.464-22.246 27.734-35.207 14.585-15.594-15.824-41.34.88-34.04 21.207 4.84-12.605 22.31-19.113 34.04-7.207zm248.277 49.383c12.41-5.246 23.703 1.996 27.426 12.07 5.895-15.39-9.601-33.605-27.426-26.07-11.746 4.965-23.547-1.672-27.355-11.86-6.031 16.637 10.715 32.895 27.355 25.86zm-308.804 0c16.644 7.035 33.39-9.223 27.355-25.86-3.808 10.188-15.61 16.825-27.355 11.86-17.828-7.535-33.325 10.68-27.426 26.07 3.723-10.074 15.012-17.316 27.426-12.07zm0 0" fill="#ffac8c"/><path d="M414.695 256c0 87.648-71.05 158.7-158.695 158.7S97.305 343.647 97.305 256c0-87.645 71.05-158.695 158.695-158.695S414.695 168.355 414.695 256zm0 0" fill="#e0734a"/><path d="M141.395 213.277h2.582c3.625 0 6.98 1.899 8.847 5.008l31.363 52.278h.954l-.953-16.473v-33.176a7.641 7.641 0 0 1 7.64-7.637h.715a7.638 7.638 0 0 1 7.637 7.637v67.496c0 5.695-4.618 10.317-10.313 10.317h-.793a10.32 10.32 0 0 1-8.847-5.012l-33.274-55.496H146l.953 16.469v36.402a7.639 7.639 0 0 1-7.64 7.637h-.594a7.635 7.635 0 0 1-7.637-7.637v-67.496c0-5.7 4.617-10.317 10.313-10.317zm88.155 15.278v19.808h26.614a7.639 7.639 0 1 1 0 15.277h-26.613v19.81h30.43a7.641 7.641 0 0 1 7.64 7.636 7.642 7.642 0 0 1-7.64 7.64h-36.227c-5.7 0-10.317-4.62-10.317-10.316v-64.82c0-5.695 4.618-10.313 10.317-10.313h36.226a7.641 7.641 0 0 1 7.641 7.637 7.642 7.642 0 0 1-7.64 7.64zm54.555-15.278c3.715 0 6.965 2.5 7.918 6.09l11.63 43.793 1.91 9.192h.957l2.503-9.192 10-31.254a10.314 10.314 0 1 1 19.637-.027l10.106 31.281 2.386 9.07h.953l1.79-9.07 10.867-43.668a8.193 8.193 0 0 1 7.949-6.215h.012c5.379 0 9.3 5.098 7.918 10.293l-17.907 67.489a10.316 10.316 0 0 1-9.968 7.668h-.086c-4.47 0-8.43-2.88-9.809-7.133l-11.05-34.043-2.508-9.426h-.954l-2.507 9.426-11.051 34.043a10.316 10.316 0 0 1-9.809 7.133h-.172a10.32 10.32 0 0 1-9.941-7.567l-18.668-67.508c-1.445-5.218 2.48-10.375 7.894-10.375zm0 0" fill="#ffefe4"/><path d="M74.586 70.328l29.98-9.52c6.09-1.93 6.09-10.546 0-12.48l-29.98-9.52a6.544 6.544 0 0 1-4.262-4.257L60.81 4.566c-1.934-6.086-10.547-6.086-12.48 0l-9.52 29.985a6.544 6.544 0 0 1-4.262 4.258l-29.98 9.52c-6.09 1.929-6.09 10.546 0 12.48l29.98 9.52a6.544 6.544 0 0 1 4.262 4.257l9.52 29.984c1.929 6.086 10.546 6.086 12.48 0l9.52-29.984a6.53 6.53 0 0 1 4.257-4.258zm370.535 412.551l22.5-7.145c4.57-1.449 4.57-7.918 0-9.367l-22.5-7.144a4.905 4.905 0 0 1-3.195-3.2l-7.145-22.5c-1.449-4.566-7.918-4.566-9.367 0l-7.144 22.5a4.922 4.922 0 0 1-3.196 3.2l-22.5 7.144c-4.57 1.45-4.57 7.914 0 9.367l22.5 7.145a4.924 4.924 0 0 1 3.196 3.195l7.144 22.5c1.45 4.57 7.914 4.57 9.367 0l7.145-22.5a4.891 4.891 0 0 1 3.195-3.195zm-301.016-344.16l22.5-7.145c4.57-1.449 4.57-7.918 0-9.367l-22.5-7.144a4.908 4.908 0 0 1-3.195-3.196l-7.144-22.5c-1.453-4.57-7.918-4.57-9.371 0l-7.141 22.5a4.922 4.922 0 0 1-3.2 3.195l-22.5 7.145c-4.566 1.45-4.566 7.914 0 9.367l22.5 7.145a4.922 4.922 0 0 1 3.2 3.195l7.14 22.5c1.454 4.57 7.918 4.57 9.372 0l7.144-22.5a4.891 4.891 0 0 1 3.195-3.195zm0 0" fill="#69ebfc"/></svg>