<svg height="512pt" viewBox="0 0 512 512" width="512pt" xmlns="http://www.w3.org/2000/svg"><path d="M25.371 512h399.254c14.012 0 25.371-11.36 25.371-25.371V52.793c0-14.012-11.36-25.371-25.371-25.371H25.371C11.36 27.422 0 38.782 0 52.793v433.836C0 500.64 11.36 512 25.371 512zm0 0" fill="#ffefe4"/><path d="M424.629 27.422H25.37C11.36 27.422 0 38.782 0 52.793v10.625c0-14.016 11.36-25.375 25.371-25.375H424.63c14.012 0 25.371 11.36 25.371 25.375V52.793c0-14.012-11.36-25.371-25.371-25.371zm0 0" fill="#fff7f2"/><path d="M424.629 490.758H25.37C11.36 490.758 0 479.395 0 465.383v21.242C0 500.641 11.36 512 25.371 512H424.63c14.01 0 25.37-11.36 25.37-25.371v-21.246c0 14.012-11.36 25.375-25.371 25.375zm0 0" fill="#edd4c2"/><path d="M359.813 340.45H159.108c-5.8 0-10.496-4.7-10.496-10.497s4.7-10.496 10.496-10.496h200.703c5.797 0 10.497 4.7 10.497 10.496s-4.7 10.496-10.497 10.496zm0 84.6H159.108c-5.8 0-10.496-4.698-10.496-10.495 0-5.797 4.7-10.496 10.496-10.496h200.703c5.797 0 10.497 4.699 10.497 10.496 0 5.797-4.7 10.496-10.497 10.496zm0 0" fill="#6770e6"/><path d="M66.855 52.898c0 6.336-5.136 11.477-11.476 11.477-6.336 0-11.477-5.14-11.477-11.477 0-6.34 5.141-11.476 11.477-11.476 6.34 0 11.476 5.137 11.476 11.476zm0 0" fill="#edd4c2"/><path d="M55.379 56.086a6.883 6.883 0 0 1-6.883-6.883V6.883a6.883 6.883 0 0 1 13.766 0v42.32a6.88 6.88 0 0 1-6.883 6.883zm0 0" fill="#6770e6"/><path d="M55.379 0a6.883 6.883 0 0 0-6.883 6.883v10.62a6.883 6.883 0 0 1 13.766 0V6.884A6.88 6.88 0 0 0 55.379 0zm0 0" fill="#8f95e6"/><path d="M151.664 52.898c0 6.336-5.137 11.477-11.473 11.477-6.34 0-11.476-5.14-11.476-11.477 0-6.34 5.137-11.476 11.476-11.476 6.336 0 11.473 5.137 11.473 11.476zm0 0" fill="#edd4c2"/><path d="M140.191 56.086a6.883 6.883 0 0 1-6.882-6.883V6.883A6.883 6.883 0 0 1 140.191 0a6.883 6.883 0 0 1 6.88 6.883v42.32a6.88 6.88 0 0 1-6.88 6.883zm0 0" fill="#6770e6"/><path d="M140.191 0a6.883 6.883 0 0 0-6.882 6.883v10.62a6.88 6.88 0 1 1 13.761 0V6.884a6.883 6.883 0 0 0-6.879-6.883zm0 0" fill="#8f95e6"/><path d="M321.285 52.898c0 6.336-5.137 11.477-11.476 11.477-6.336 0-11.473-5.14-11.473-11.477 0-6.34 5.137-11.476 11.473-11.476 6.34 0 11.476 5.137 11.476 11.476zm0 0" fill="#edd4c2"/><path d="M309.809 56.086a6.883 6.883 0 0 1-6.88-6.883V6.883A6.883 6.883 0 0 1 309.809 0c3.8 0 6.882 3.082 6.882 6.883v42.32c0 3.8-3.082 6.883-6.882 6.883zm0 0" fill="#6770e6"/><path d="M309.809 0a6.883 6.883 0 0 0-6.88 6.883v10.62a6.88 6.88 0 1 1 13.762 0V6.884a6.883 6.883 0 0 0-6.882-6.883zm0 0" fill="#8f95e6"/><path d="M236.477 52.898c0 6.336-5.137 11.477-11.477 11.477s-11.477-5.14-11.477-11.477c0-6.34 5.137-11.476 11.477-11.476s11.477 5.137 11.477 11.476zm0 0" fill="#edd4c2"/><path d="M225 56.086a6.883 6.883 0 0 1-6.883-6.883V6.883a6.883 6.883 0 0 1 13.766 0v42.32c0 3.8-3.082 6.883-6.883 6.883zm0 0" fill="#6770e6"/><path d="M225 0a6.883 6.883 0 0 0-6.883 6.883v10.62a6.883 6.883 0 0 1 13.766 0V6.884A6.884 6.884 0 0 0 225 0zm0 0" fill="#8f95e6"/><path d="M406.098 52.898c0 6.336-5.141 11.477-11.477 11.477-6.34 0-11.476-5.14-11.476-11.477 0-6.34 5.136-11.476 11.476-11.476 6.336 0 11.477 5.137 11.477 11.476zm0 0" fill="#edd4c2"/><path d="M394.621 56.086a6.883 6.883 0 0 1-6.883-6.883V6.883a6.883 6.883 0 0 1 13.766 0v42.32c0 3.8-3.082 6.883-6.883 6.883zm0 0" fill="#6770e6"/><path d="M394.617 0a6.883 6.883 0 0 0-6.883 6.883v10.62a6.883 6.883 0 0 1 13.766 0V6.884A6.878 6.878 0 0 0 394.617 0zm0 0" fill="#8f95e6"/><path d="M512 454.984h-45.273V140.926H512zm0 0" fill="#ff8354"/><path d="M512 466.652h-45.273v-11.664H512zm0 0" fill="#ffefe4"/><path d="M466.727 466.648H512v22.715C512 501.867 501.867 512 489.363 512c-12.5 0-22.636-10.133-22.636-22.637zm0 0" fill="#6770e6"/><path d="M489.363 492c-12.5 0-22.636-10.133-22.636-22.637v20c0 12.504 10.136 22.637 22.636 22.637C501.867 512 512 501.867 512 489.363v-20C512 481.867 501.867 492 489.363 492zm0 0" fill="#5861c7"/><path d="M466.727 140.906l20.964-58.492c.563-1.57 2.782-1.57 3.344 0L512 140.906zm0 0" fill="#edd4c2"/><path d="M478.043 109.328h22.637l-9.645-26.914c-.562-1.57-2.785-1.57-3.347 0zm0 0" fill="#5861c7"/><path d="M478.043 109.328h22.637l-9.645-26.914c-.562-1.57-2.785-1.57-3.347 0zm0 0" fill="#5861c7"/><path d="M486.883 92.414c.836-1.57 4.125-1.57 4.957 0l8.558 16.121-9.363-26.12c-.562-1.571-2.781-1.571-3.344 0l-9.359 26.112zm0 0" fill="#8f95e6"/><path d="M259.707 140.906s16.938-22.62 13.14-32.37c-3.367-8.641-16.831-6.509-23.566 0-6.734 6.507-3.953-13.255-24.281-13.255s-17.547 19.762-24.281 13.254c-6.735-6.508-20.2-8.64-23.567 0-3.797 9.75 13.141 32.371 13.141 32.371s-38.629 40.547-38.629 78.785c0 23.364 10.89 50.02 73.336 50.02s73.336-26.656 73.336-50.02c0-38.238-38.629-78.785-38.629-78.785zm0 0" fill="#6770e6"/><path d="M265.316 146.906h-80.632a6.001 6.001 0 0 1 0-12h80.632c3.313 0 6 2.688 6 6s-2.687 6-6 6zm0 0" fill="#69ebfc"/><path d="M221.953 233.445c-3.824-.562-7.223-2.039-10.21-4.437-1.74-1.399-3.188-3.149-4.345-5.258-1.402-2.559-.304-5.773 2.395-6.879 2.148-.875 4.664-.133 5.863 1.856.387.636.828 1.25 1.328 1.828 1.375 1.61 3.032 2.718 4.97 3.328v-14.528l-.684-.308a34.49 34.49 0 0 1-5.317-2.524c-1.656-.968-3.11-2.09-4.355-3.363a15.03 15.03 0 0 1-2.985-4.32c-.742-1.61-1.117-3.403-1.117-5.395 0-1.832.336-3.566.996-5.199a13.431 13.431 0 0 1 2.871-4.36c1.25-1.273 2.762-2.331 4.551-3.171 1.781-.844 3.793-1.387 6.035-1.645v-3.172a3.403 3.403 0 0 1 3.406-3.402 3.403 3.403 0 0 1 3.403 3.402v3.329c2.043.304 3.816.84 5.316 1.609a18.296 18.296 0 0 1 3.903 2.637c.425.379.84.828 1.23 1.316 1.93 2.418.95 6.031-1.879 7.293-1.933.863-4.164.32-5.59-1.246a9.203 9.203 0 0 0-2.98-2.203v13.687a65.798 65.798 0 0 1 5.969 2.832c1.78.97 3.308 2.063 4.585 3.29a12.503 12.503 0 0 1 2.903 4.163c.668 1.56.996 3.356.996 5.395 0 2.293-.395 4.336-1.18 6.113-.797 1.785-1.847 3.317-3.18 4.59a15.647 15.647 0 0 1-4.624 3.063 22.937 22.937 0 0 1-5.47 1.601v3.328a3.403 3.403 0 0 1-3.402 3.403 3.403 3.403 0 0 1-3.406-3.403v-3.25zm-5.043-39.996c0 1.223.395 2.281 1.184 3.172.793.895 2.078 1.8 3.86 2.719v-11.164c-1.532.406-2.747 1.066-3.669 1.984-.922.922-1.375 2.016-1.375 3.29zm16.52 24.625c0-1.324-.36-2.426-1.078-3.289-.711-.867-1.907-1.734-3.59-2.601v11.699c1.379-.453 2.5-1.184 3.367-2.176.86-.996 1.3-2.207 1.3-3.633zm0 0" fill="#ffefe4"/><path d="M100.395 329.95c0 5.796-4.7 10.495-10.497 10.495-5.796 0-10.496-4.699-10.496-10.496s4.7-10.496 10.496-10.496c5.797 0 10.497 4.7 10.497 10.496zm0 84.605c0 5.797-4.7 10.496-10.497 10.496-5.796 0-10.496-4.7-10.496-10.496 0-5.797 4.7-10.496 10.496-10.496 5.797 0 10.497 4.699 10.497 10.496zm0 0" fill="#6770e6"/></svg>