<svg height="512pt" viewBox="-37 0 512 512" width="512pt" xmlns="http://www.w3.org/2000/svg"><path d="M437.68 218.84c0 120.863-97.977 218.84-218.84 218.84S0 339.703 0 218.84 97.977 0 218.84 0s218.84 97.977 218.84 218.84zm0 0" fill="#ff8354"/><path d="M218.84 14c118.52 0 215.02 94.219 218.715 211.84.074-2.324.125-4.656.125-7C437.68 97.977 339.703 0 218.84 0S0 97.977 0 218.84c0 2.344.05 4.676.125 7C3.82 108.219 100.32 14 218.84 14zm0 0" fill="#ffac8c"/><path d="M218.84 423.68C100.32 423.68 3.82 329.46.125 211.84a219.159 219.159 0 0 0-.125 7c0 120.863 97.977 218.84 218.84 218.84s218.84-97.977 218.84-218.84c0-2.344-.051-4.676-.125-7-3.696 117.62-100.196 211.84-218.715 211.84zm0 0" fill="#e0734a"/><path d="M418.52 346.414c-7.5 0-13.583 6.082-13.583 13.582v-12.633c0-7.5-6.082-13.582-13.582-13.582s-13.582 6.082-13.582 13.582v-9.152c0-7.504-6.082-13.582-13.582-13.582s-13.582 6.082-13.582 13.582V254.34c0-7.5-6.082-13.582-13.582-13.582s-13.582 6.082-13.582 13.582v105.07c-1.011-8.176-7.992-14.637-16.593-14.637a3.166 3.166 0 0 0-2.957 2.024l-12.336 31.879a41.255 41.255 0 0 0-2.778 14.883v35.175a41.24 41.24 0 0 0 11.035 28.082l29.614 31.856V512h84.656v-36.148h.61l12.933-25.805a42.167 42.167 0 0 0 4.476-18.914v-71.137c-.003-7.5-6.085-13.582-13.585-13.582zm0 0" fill="#ffefe4"/><path d="M414.078 511.441v-15.57h-84.933l.28.3v15.27zm0 0" fill="#ffe4d1"/><path d="M257.574 333.262c-3.238 0-6.441-.88-9.25-2.543-5.52-3.266-8.953-9.266-8.953-15.66 0-.512.031-1.012.078-1.512a18.01 18.01 0 0 1 3.043-8.68h-54.668l-1.117 1.668a18.2 18.2 0 0 1 1.922 5.871 19.466 19.466 0 0 1 .207 2.293l.004.356c0 2.75-.613 5.414-1.824 7.918a18.324 18.324 0 0 1-1.977 3.195 18.17 18.17 0 0 1-1.531 1.762 18.22 18.22 0 0 1-4.192 3.129 17.881 17.881 0 0 1-3.27 1.382 18.173 18.173 0 0 1-14.66-1.727c-5.519-3.265-8.952-9.265-8.952-15.66 0-.511.027-1.011.078-1.511.379-4.836 2.726-9.238 6.3-12.305-1.886-1.097-3.425-2.445-4.601-4.039-2.738-3.707-3.395-8.515-1.844-13.55 1.63-5.301 4.996-10.024 10.035-14.09-2.8-1.957-5.023-4.73-6.257-8.008l-31.676-83.86a6.632 6.632 0 0 0-3.25-3.601l-2.32-1.16c-.82.195-1.657.297-2.504.297H99.16a10.686 10.686 0 0 1-10.551-8.91l-.035-.22a10.516 10.516 0 0 1-.125-1.581c0-1.786.45-3.551 1.293-5.11.164-.3.344-.594.535-.875a10.7 10.7 0 0 1 8.883-4.73h17.235a10.709 10.709 0 0 1 9.418 5.601c.152.285.292.57.414.864l2.328 1.164a22.98 22.98 0 0 1 11.168 12.265l.082.2 5.316 14.074h154.164c1.766 0 3.356.437 4.746 1.258.422.253.77.5 1.098.765l.125.086.46.438c.145.14.282.289.419.437l.422.492c.097.121.21.285.324.453.058.082.125.176.187.274.215.344.395.668.551 1.004l.063.125.078.203c.074.164.18.441.27.723l.1.335c.075.278.13.5.173.731l.066.398c.035.246.063.496.074.75a7.615 7.615 0 0 1-.004 1.168l-.015.278c-.05.46-.113.824-.2 1.187l-14.85 62.38a17.167 17.167 0 0 1-16.759 13.237h-80.441c-9.344 1.696-24.488 7.11-27.82 14.918 1.41.387 4.21.864 9.476.864h101.813c4.52 0 8.199 3.675 8.199 8.191 0 4.52-3.68 8.2-8.2 8.2h-4.488l-1.34 1.991a18.201 18.201 0 0 1 1.754 5.547c.059.399.11.793.141 1.192.023.234.04.484.05.746l.02.05v.66c0 2.75-.613 5.41-1.824 7.915a18.088 18.088 0 0 1-1.98 3.2c-.52.675-1.02 1.25-1.528 1.757a18.236 18.236 0 0 1-4.191 3.133 18.06 18.06 0 0 1-3.274 1.379c-1.742.55-3.558.828-5.406.828zm19.04-76.953a.821.821 0 0 0 .812-.641l4.558-19.14H257.18l-2.38 19.785h21.813zm-38.321 0l2.383-19.786h-29.793l2.785 19.786zm-66.813-.543c.122.316.45.543.786.543h24.851l-2.781-19.786H164.21zm114.407-35.633l4.23-17.77h-28.824l-2.14 17.77zm-43.239 0l2.141-17.77h-38.71l2.5 17.77zm-50.62 0l-2.5-17.77h-38.22l6.712 17.77zm30.964-63.59l38.93-49.559c2.973-3.785.273-9.336-4.54-9.336h-23.37V74.445c0-8.59-6.965-15.558-15.555-15.558a15.52 15.52 0 0 0-11 4.558 15.499 15.499 0 0 0-4.555 10.996v23.204h-23.37c-4.813 0-7.512 5.55-4.54 9.335l38.93 49.56c2.305 2.94 6.762 2.94 9.07.003zm0 0" fill="#69ebfc"/></svg>