<svg height="512pt" viewBox="0 0 512.001 512" width="512pt" xmlns="http://www.w3.org/2000/svg"><path d="M437.727 235.672c-8.372 0-15.872-5.875-17.614-14.395C404.2 143.512 334.938 87.07 255.418 87.07c-64.855 0-124.61 37.942-152.219 96.668-4.23 8.996-14.957 12.856-23.949 8.63-8.996-4.231-12.86-14.954-8.629-23.95C104.141 97.128 176.676 51.07 255.418 51.07c96.543 0 180.637 68.547 199.96 162.993 1.997 9.738-4.288 19.25-14.023 21.242a18.332 18.332 0 0 1-3.628.367zm0 0" fill="#ff8354"/><path d="M86.773 193.559a17.999 17.999 0 0 1-17.727-14.875L55.95 104.402c-1.726-9.789 4.809-19.125 14.602-20.851 9.789-1.723 19.125 4.808 20.851 14.601l9.973 56.555 56.555-9.973c9.789-1.722 19.125 4.809 20.851 14.602 1.727 9.789-4.808 19.125-14.601 20.851l-74.282 13.098a17.921 17.921 0 0 1-3.125.274zm0 0" fill="#ff8354"/><path d="M69.613 180.926a18.2 18.2 0 0 0 .735 2.156c.02-.039.03-.074.047-.11a17.96 17.96 0 0 1-.782-2.046zm385.77 33.137C436.055 119.617 351.96 51.07 255.422 51.07c-62.258 0-120.617 28.813-158.899 76.106l2.028 11.511c38.297-45.816 95.707-73.617 156.87-73.617 95.216 0 178.282 66.7 199.083 159.14a17.891 17.891 0 0 0 .879-10.148zM68.887 177.79l.16.894c.008.054.023.105.035.156zM73.2 97.547c8.109-1.367 15.91 2.48 19.687 9.023l-1.485-8.418c-1.726-9.793-11.066-16.324-20.851-14.601-9.793 1.726-16.328 11.062-14.602 20.851l1.762 9.989c.414-8.211 6.684-15.356 15.488-16.844zm0 0" fill="#ffac8c"/><path d="M256 460.105c-96.535 0-180.633-68.546-199.957-162.992-1.996-9.738 4.285-19.25 14.023-21.242 9.739-1.992 19.25 4.285 21.246 14.027 15.915 77.766 85.176 134.207 164.692 134.207 64.86 0 124.61-37.945 152.223-96.667 4.226-9 14.953-12.86 23.945-8.63 8.996 4.227 12.863 14.95 8.633 23.946C407.28 414.043 334.742 460.105 256 460.105zm0 0" fill="#ff8354"/><path d="M412.871 372.488c-38.297 45.817-95.707 73.617-156.871 73.617-95.21 0-178.277-66.699-199.082-159.14a17.897 17.897 0 0 0-.879 10.148C75.367 391.56 159.461 460.105 256 460.105c62.258 0 120.617-28.812 158.898-76.105zm28.934-42.265a18.487 18.487 0 0 0-.73-2.13c-.016.036-.032.071-.044.106.293.653.555 1.324.774 2.024zm0 0" fill="#e0734a"/><path d="M437.727 427.906c-8.57 0-16.168-6.144-17.707-14.879l-9.973-56.55-56.555 9.968c-9.785 1.73-19.125-4.808-20.851-14.597-1.727-9.79 4.812-19.125 14.601-20.852l74.281-13.098c9.79-1.726 19.125 4.809 20.852 14.598l13.098 74.281c1.726 9.793-4.809 19.13-14.598 20.852a18.06 18.06 0 0 1-3.148.277zm0 0" fill="#ff8354"/><path d="M455.473 406.773l-.86-4.878c-2.289 5.914-7.886 10.562-15.12 11.73a21.462 21.462 0 0 1-3.438.277c-7.555 0-14.41-4-17.664-10.132l1.632 9.253c1.54 8.735 9.133 14.88 17.704 14.88 1.039 0 2.09-.09 3.148-.278 9.79-1.723 16.324-11.059 14.598-20.852zm0 0" fill="#e0734a"/><path d="M491.758 253.375H307.28c-11.828 0-21.133-10.094-20.176-21.879L305.48 5.286A5.747 5.747 0 0 1 311.21 0h176.618a5.75 5.75 0 0 1 5.73 5.285l18.376 226.211c.957 11.785-8.352 21.879-20.176 21.879zm0 0" fill="#d476e2"/><path d="M309.64 9.512h179.758c1.91 0 3.622.906 4.692 2.316l-.531-6.543A5.75 5.75 0 0 0 487.829 0H311.21a5.75 5.75 0 0 0-5.73 5.285l-.532 6.543a5.876 5.876 0 0 1 4.692-2.316zm0 0" fill="#ea82fa"/><path d="M511.61 227.484c-1.798 9.258-9.923 16.383-19.852 16.383h-184.48c-9.93 0-18.055-7.125-19.852-16.383l-.324 4.012c-.957 11.785 8.351 21.879 20.175 21.879h184.477c11.828 0 21.133-10.094 20.176-21.879zm0 0" fill="#b665c2"/><path d="M352.52 37.707c0 6.25-5.067 11.313-11.317 11.313s-11.312-5.063-11.312-11.313 5.062-11.312 11.312-11.312 11.317 5.062 11.317 11.312zm116.628 0c0 6.25-5.062 11.313-11.312 11.313s-11.313-5.063-11.313-11.313 5.063-11.312 11.313-11.312 11.312 5.062 11.312 11.312zm0 0" fill="#ffefe4"/><path d="M457.555 31.531a6.862 6.862 0 0 0-6.86 6.864v50.058c0 28.25-22.558 51.695-50.808 51.969-28.528.273-51.825-22.848-51.825-51.313V38.395c0-3.79-3.07-6.86-6.859-6.86s-6.86 3.07-6.86 6.86v49.882c0 35.809 28.59 65.516 64.395 65.864 36.153.351 65.676-28.957 65.676-65.032V38.395a6.864 6.864 0 0 0-6.86-6.864zm0 0" fill="#ffefe4"/><path d="M204.723 512H20.243C8.417 512-.888 501.906.07 490.121l18.375-226.21a5.75 5.75 0 0 1 5.73-5.286h176.618a5.75 5.75 0 0 1 5.73 5.285l18.375 226.211c.957 11.785-8.347 21.879-20.175 21.879zm0 0" fill="#69ebfc"/><path d="M22.605 268.133h179.758a5.89 5.89 0 0 1 4.696 2.316l-.532-6.539a5.753 5.753 0 0 0-5.734-5.285H24.176a5.75 5.75 0 0 0-5.73 5.285l-.536 6.54a5.895 5.895 0 0 1 4.695-2.317zm0 0" fill="#a1f1fc"/><path d="M224.574 486.11c-1.793 9.257-9.922 16.382-19.851 16.382H20.243c-9.927 0-18.055-7.125-19.848-16.383l-.329 4.012C-.887 501.906 8.418 512 20.242 512h184.48c11.829 0 21.133-10.094 20.176-21.879zm0 0" fill="#5fd4e3"/><path d="M65.48 296.332c0 6.246-5.062 11.313-11.312 11.313s-11.313-5.067-11.313-11.313c0-6.25 5.063-11.316 11.313-11.316s11.312 5.066 11.312 11.316zm116.633 0c0 6.246-5.066 11.313-11.312 11.313-6.25 0-11.317-5.067-11.317-11.313 0-6.25 5.067-11.316 11.317-11.316 6.246 0 11.312 5.066 11.312 11.316zm0 0" fill="#ffefe4"/><path d="M170.52 290.156a6.86 6.86 0 0 0-6.86 6.86v50.062c0 28.25-22.558 51.692-50.808 51.965-28.528.277-51.82-22.848-51.82-51.309V297.02a6.862 6.862 0 0 0-13.723 0v49.882c0 35.805 28.59 65.516 64.394 65.864 36.156.347 65.68-28.957 65.68-65.032V297.02a6.868 6.868 0 0 0-6.863-6.864zm0 0" fill="#ffefe4"/></svg>