<svg height="512pt" viewBox="-32 0 512 512" width="512pt" xmlns="http://www.w3.org/2000/svg"><path d="M406.805 512H40.585C18.173 512 0 493.828 0 471.414V40.586C0 18.172 18.172 0 40.586 0h366.219c22.414 0 40.586 18.172 40.586 40.586v430.828c0 22.414-18.168 40.586-40.586 40.586zm0 0" fill="#6770e6"/><path d="M406.809 0H40.586C18.172 0 0 18.172 0 40.586v14C0 32.172 18.172 14 40.586 14h366.219c22.414 0 40.586 18.172 40.586 40.586v-14C447.39 18.172 429.223 0 406.809 0zm0 0" fill="#8f95e6"/><path d="M40.586 512h366.219c22.414 0 40.586-18.172 40.586-40.586v-14c0 22.414-18.172 40.586-40.586 40.586H40.585C18.173 498 0 479.828 0 457.414v14C0 493.828 18.172 512 40.586 512zm0 0" fill="#5861c7"/><path d="M375.602 140.86H71.789c-15.238 0-27.59-12.352-27.59-27.59V69.64c0-15.238 12.352-27.59 27.59-27.59h303.813c15.238 0 27.59 12.352 27.59 27.59v43.63c0 15.238-12.352 27.59-27.59 27.59zm0 0" fill="#69ebfc"/><path d="M119.3 200.336c0 20.738-16.812 37.55-37.55 37.55s-37.55-16.812-37.55-37.55c0-20.738 16.812-37.55 37.55-37.55s37.55 16.812 37.55 37.55zm0 0" fill="#ff8354"/><path d="M199.328 215.086h-45.531c-8.063 0-14.602-6.54-14.602-14.606v-.289c0-8.066 6.54-14.601 14.602-14.601h45.531c8.063 0 14.602 6.535 14.602 14.601v.29c0 8.066-6.54 14.605-14.602 14.605zm94.629 0H248.43c-8.063 0-14.602-6.54-14.602-14.606v-.289c0-8.066 6.54-14.601 14.602-14.601h45.53c8.063 0 14.602 6.535 14.602 14.601v.29c-.003 8.066-6.539 14.605-14.605 14.605zm94.633 0h-45.531c-8.063 0-14.602-6.54-14.602-14.606v-.289c0-8.066 6.54-14.601 14.602-14.601h45.53c8.063 0 14.602 6.535 14.602 14.601v.29c0 8.066-6.539 14.605-14.601 14.605zM107.676 316.23H55.824c-6.422 0-11.625-5.203-11.625-11.62v-27.294c0-6.418 5.203-11.62 11.625-11.62h51.852c6.422 0 11.625 5.202 11.625 11.62v27.293c0 6.418-5.203 11.621-11.625 11.621zm94.812 0h-51.851c-6.418 0-11.621-5.203-11.621-11.62v-27.294c0-6.418 5.203-11.62 11.62-11.62h51.852c6.422 0 11.625 5.202 11.625 11.62v27.293c0 6.418-5.203 11.621-11.625 11.621zm94.633 0H245.27c-6.422 0-11.625-5.203-11.625-11.62v-27.294c0-6.418 5.203-11.62 11.625-11.62h51.851c6.418 0 11.621 5.202 11.621 11.62v27.293c0 6.418-5.203 11.621-11.62 11.621zm94.629 0h-51.852c-6.421 0-11.625-5.203-11.625-11.62v-27.294c0-6.418 5.204-11.62 11.625-11.62h51.852c6.422 0 11.625 5.202 11.625 11.62v27.293c0 6.418-5.203 11.621-11.625 11.621zm-284.074 76.235H55.824c-6.422 0-11.625-5.203-11.625-11.625v-27.29c0-6.421 5.203-11.624 11.625-11.624h51.852c6.422 0 11.625 5.203 11.625 11.625v27.289c0 6.422-5.203 11.625-11.625 11.625zm94.812 0h-51.851c-6.418 0-11.621-5.203-11.621-11.625v-27.29c0-6.421 5.203-11.624 11.62-11.624h51.852c6.422 0 11.625 5.203 11.625 11.625v27.289c0 6.422-5.203 11.625-11.625 11.625zm94.633 0H245.27c-6.422 0-11.625-5.203-11.625-11.625v-27.29c0-6.421 5.203-11.624 11.625-11.624h51.851c6.418 0 11.621 5.203 11.621 11.625v27.289c0 6.422-5.203 11.625-11.62 11.625zm-189.445 76.23H55.824c-6.422 0-11.625-5.203-11.625-11.625v-27.289c0-6.418 5.203-11.625 11.625-11.625h51.852c6.422 0 11.625 5.207 11.625 11.625v27.29c0 6.421-5.203 11.624-11.625 11.624zm94.812 0h-51.851c-6.418 0-11.621-5.203-11.621-11.625v-27.289c0-6.418 5.203-11.625 11.62-11.625h51.852c6.422 0 11.625 5.207 11.625 11.625v27.29c0 6.421-5.203 11.624-11.625 11.624zm94.633 0H245.27c-6.422 0-11.625-5.203-11.625-11.625v-27.289c0-6.418 5.203-11.625 11.625-11.625h51.851c6.418 0 11.621 5.207 11.621 11.625v27.29c0 6.421-5.203 11.624-11.62 11.624zm94.629 0h-51.852c-6.421 0-11.625-5.203-11.625-11.625V353.55c0-6.421 5.204-11.624 11.625-11.624h51.852c6.422 0 11.625 5.203 11.625 11.625v103.52c0 6.421-5.203 11.624-11.625 11.624zm0 0" fill="#ea82fa"/></svg>