<svg height="512pt" viewBox="0 0 512 512" width="512pt" xmlns="http://www.w3.org/2000/svg"><path d="M271.098 295.07H96.238c-5.511 0-9.984-4.468-9.984-9.984V88.129c0-5.512 4.469-9.984 9.984-9.984h174.864V295.07zm0 0" fill="#ff8354"/><path d="M271.098 295.07h132.328c5.511 0 9.984-4.468 9.984-9.984V88.129c0-5.512-4.469-9.984-9.984-9.984H271.098zm0 0" fill="#e0734a"/><path d="M96.238 78.145c-5.511 0-9.98 4.468-9.98 9.984v18c0-5.512 4.469-9.984 9.98-9.984h174.864v-18zm0 0" fill="#ffac8c"/><path d="M403.426 78.145H271.098v18h132.328c5.511 0 9.984 4.468 9.984 9.984v-18a9.983 9.983 0 0 0-9.984-9.984zm0 0" fill="#ff8354"/><path d="M168.508 95.09v183.035h-65.305V95.09zm0 0" fill="#e0734a"/><path d="M149.75 185.516h-28.938a5.932 5.932 0 1 1 0-11.864h28.938a5.932 5.932 0 0 1 0 11.863zm0 0" fill="#ffac8c"/><path d="M254.152 95.09v183.035h-67.004V95.09zm0 0" fill="#e0734a"/><path d="M234.273 185.516h-28.937a5.932 5.932 0 1 1 0-11.864h28.937a5.932 5.932 0 0 1 0 11.864zm-97.98 98.944h-.879a5.492 5.492 0 0 1-5.492-5.491V89.684a5.492 5.492 0 0 1 5.492-5.493h.879a5.492 5.492 0 0 1 5.492 5.493v189.285a5.49 5.49 0 0 1-5.492 5.492zm0 0" fill="#ffac8c"/><path d="M136.293 84.195h-.879a5.492 5.492 0 0 0-5.492 5.493v6.457h11.863v-6.457a5.49 5.49 0 0 0-5.492-5.493zm0 0" fill="#ffcdba"/><path d="M220.648 284.46a5.932 5.932 0 0 1-5.93-5.929V90.125a5.932 5.932 0 1 1 11.864 0v188.406a5.932 5.932 0 0 1-5.934 5.93zm0 0" fill="#ffac8c"/><path d="M221.09 84.195h-.88a5.492 5.492 0 0 0-5.491 5.493v6.457h11.863v-6.457a5.49 5.49 0 0 0-5.492-5.493zm0 0" fill="#ffcdba"/><path d="M275.102 123.445h-8.004a7.146 7.146 0 1 1 0-14.293h8.004c3.945 0 7.144 3.2 7.144 7.145s-3.2 7.148-7.144 7.148zm0 140.618h-8.004a7.145 7.145 0 0 1 0-14.29h8.004a7.145 7.145 0 0 1 0 14.29zM90.258 109.152h-4.004v14.293h4.004a7.146 7.146 0 0 0 7.144-7.148 7.148 7.148 0 0 0-7.144-7.145zm0 140.621h-4.004v14.29h4.004c3.945 0 7.144-3.2 7.144-7.149a7.147 7.147 0 0 0-7.144-7.14zm0 0" fill="#ffac8c"/><path d="M184.844 512H9.984A9.983 9.983 0 0 1 0 502.016V305.055c0-5.512 4.469-9.985 9.984-9.985h174.864V512zm0 0" fill="#6770e6"/><path d="M184.844 512h132.328c5.512 0 9.984-4.469 9.984-9.984V305.055c0-5.512-4.469-9.985-9.984-9.985H184.844zM82.254 312.02v183.03H16.949V312.02zm0 0" fill="#5861c7"/><path d="M63.496 402.445H34.56a5.933 5.933 0 1 1 0-11.867h28.937a5.933 5.933 0 1 1 0 11.867zm0 0" fill="#8f95e6"/><path d="M167.895 312.02v183.03h-67V312.02zm0 0" fill="#5861c7"/><g fill="#8f95e6"><path d="M148.02 402.445h-28.942a5.932 5.932 0 0 1-5.93-5.933 5.932 5.932 0 0 1 5.93-5.934h28.942a5.932 5.932 0 0 1 5.93 5.934 5.932 5.932 0 0 1-5.93 5.933zM50.04 501.39h-.88a5.492 5.492 0 0 1-5.492-5.492V306.613a5.49 5.49 0 0 1 5.492-5.492h.88a5.492 5.492 0 0 1 5.491 5.492v189.285a5.49 5.49 0 0 1-5.492 5.493zm0 0"/><path d="M134.395 501.39a5.932 5.932 0 0 1-5.93-5.933V307.051a5.932 5.932 0 0 1 11.863 0v188.406a5.933 5.933 0 0 1-5.933 5.934zm54.453-161.019h-8.004a7.145 7.145 0 0 1-7.145-7.144 7.15 7.15 0 0 1 7.145-7.149h8.004a7.149 7.149 0 0 1 7.144 7.149 7.145 7.145 0 0 1-7.144 7.144zm0 140.621h-8.004a7.145 7.145 0 0 1-7.145-7.144c0-3.95 3.2-7.149 7.145-7.149h8.004c3.945 0 7.144 3.2 7.144 7.149a7.145 7.145 0 0 1-7.144 7.144zM4.004 326.082H0v14.29h4.004a7.143 7.143 0 0 0 7.144-7.145 7.148 7.148 0 0 0-7.144-7.145zm0 140.618H0v14.288h4.004a7.143 7.143 0 0 0 7.144-7.144 7.148 7.148 0 0 0-7.144-7.145zm0 0"/></g><path d="M369.688 512h-174.86a9.983 9.983 0 0 1-9.984-9.984V305.055c0-5.512 4.469-9.985 9.984-9.985h174.86zm0 0" fill="#d476e2"/><path d="M184.844 484.016v18c0 5.511 4.469 9.984 9.984 9.984h174.863v-18H194.828a9.983 9.983 0 0 1-9.984-9.984zm0 0" fill="#b665c2"/><path d="M369.688 512h132.328c5.511 0 9.984-4.469 9.984-9.984V305.055c0-5.512-4.469-9.985-9.984-9.985H369.687zm0 0" fill="#b665c2"/><path d="M502.016 494H369.687v18h132.329c5.511 0 9.984-4.469 9.984-9.984v-18a9.983 9.983 0 0 1-9.984 9.984zm0 0" fill="#a65db3"/><path d="M267.098 312.02v183.03h-65.305V312.02zm0 0" fill="#b665c2"/><path d="M248.34 402.445h-28.938a5.933 5.933 0 1 1 0-11.867h28.938a5.933 5.933 0 1 1 0 11.867zm0 0" fill="#ea82fa"/><path d="M352.742 312.02v183.03h-67.004V312.02zm0 0" fill="#b665c2"/><path d="M332.863 402.445h-28.937a5.933 5.933 0 1 1 0-11.867h28.937a5.932 5.932 0 0 1 5.93 5.934 5.932 5.932 0 0 1-5.93 5.933zm-97.98 98.945h-.88a5.492 5.492 0 0 1-5.491-5.492V306.613a5.49 5.49 0 0 1 5.492-5.492h.879a5.492 5.492 0 0 1 5.492 5.492v189.285a5.49 5.49 0 0 1-5.492 5.493zm0 0" fill="#ea82fa"/><path d="M228.516 494v1.898a5.492 5.492 0 0 0 5.492 5.493h.879a5.492 5.492 0 0 0 5.492-5.493V494zm0 0" fill="#d476e2"/><path d="M319.238 501.39a5.932 5.932 0 0 1-5.93-5.933V307.051a5.932 5.932 0 0 1 11.864 0v188.406a5.933 5.933 0 0 1-5.934 5.934zm0 0" fill="#ea82fa"/><path d="M313.309 494v1.898a5.492 5.492 0 0 0 5.492 5.493h.879a5.492 5.492 0 0 0 5.492-5.493V494zm0 0" fill="#d476e2"/><path d="M373.691 340.371h-8.004a7.145 7.145 0 0 1-7.144-7.144 7.15 7.15 0 0 1 7.145-7.149h8.003a7.149 7.149 0 0 1 7.145 7.149c0 3.945-3.2 7.144-7.145 7.144zm0 140.621h-8.004a7.145 7.145 0 0 1-7.144-7.144c0-3.95 3.2-7.149 7.145-7.149h8.003a7.147 7.147 0 0 1 0 14.293zm-184.843-154.91h-4.004v14.29h4.004a7.145 7.145 0 0 0 0-14.29zm0 140.618h-4.004v14.288h4.004a7.145 7.145 0 0 0 0-14.29zm0 0" fill="#ea82fa"/><path d="M0 484.016v18A9.983 9.983 0 0 0 9.984 512h174.864v-18H9.984A9.983 9.983 0 0 1 0 484.016zm0 0" fill="#5861c7"/><path d="M43.668 494v1.898a5.492 5.492 0 0 0 5.492 5.493h.88a5.492 5.492 0 0 0 5.491-5.493V494zm84.797 0v1.898a5.492 5.492 0 0 0 5.492 5.493h.879a5.492 5.492 0 0 0 5.492-5.493V494zm0 0" fill="#6770e6"/><path d="M464.555 210.984l-44.977 31.145-44.976-31.145a110.164 110.164 0 0 1-47.446-90.57V40l92.422-40L512 40v80.414a110.17 110.17 0 0 1-47.445 90.57zm0 0" fill="#69ebfc"/><path d="M419.578 0l-92.422 40v14l92.422-40L512 54V40zm0 0" fill="#a1f1fc"/><path d="M385.984 194.543a90.2 90.2 0 0 1-38.828-74.129V53.137l72.422-31.344L492 53.137v67.277a90.175 90.175 0 0 1-38.836 74.125l-33.586 23.262zm0 0" fill="#5fd4e3"/><path d="M407.445 164.926a15.995 15.995 0 0 1-9.937-3.457l-23.164-18.317c-6.95-5.496-8.13-15.582-2.637-22.527 5.496-6.95 15.582-8.129 22.527-2.637l10.77 8.516 37.426-45.93c5.593-6.867 15.695-7.898 22.562-2.3 6.867 5.593 7.899 15.695 2.305 22.562l-47.41 58.184c-3.164 3.886-7.782 5.906-12.442 5.906zm0 0" fill="#ffefe4"/></svg>