<svg height="512pt" viewBox="0 0 512 512" width="512pt" xmlns="http://www.w3.org/2000/svg"><path d="M336.727 429.316H175.273c-9.207 0-16.671-7.464-16.671-16.671V273.754h194.8v138.89c-.004 9.208-7.468 16.672-16.675 16.672zm0 0" fill="#5861c7"/><path d="M355.637 235.535H156.363c-5.129 0-9.285 4.16-9.285 9.29v19.644a9.284 9.284 0 0 0 9.285 9.285h199.274c5.129 0 9.289-4.156 9.289-9.285v-19.645c0-5.129-4.16-9.289-9.29-9.289zm0 0" fill="#6770e6"/><path d="M355.637 235.535H156.363c-5.129 0-9.285 4.16-9.285 9.29v9.398a9.284 9.284 0 0 1 9.285-9.286h199.274c5.129 0 9.289 4.157 9.289 9.286v-9.399c0-5.129-4.16-9.289-9.29-9.289zm0 0" fill="#8f95e6"/><path d="M291.129 313.598H220.87c-5.047 0-9.14-4.094-9.14-9.141a9.14 9.14 0 0 1 9.14-9.14h70.258a9.14 9.14 0 0 1 9.14 9.14 9.141 9.141 0 0 1-9.14 9.14zm0 0" fill="#339"/><path d="M384.738 359.105c-19.566 22.176-49.57 65.422-61.312 65.422-5.356 0-21.903-3.03-38.309-6.328 27.36-7.633 55.028-20.035 59.809-24.816 7.12-7.117-6.23-16.02-31.149-16.02-24.918 0-40.047 6.817-70.304 6.817-30.258 0-29.516-12.93-57.922-12.93s-57.543 25.855-57.543 25.855H76.539v72.266h64.418s56.852 19.918 78.05 19.918h102.075c28.781 0 97.57-118.445 106.703-130.184 9.133-11.742-23.48-22.175-43.047 0zm0 0" fill="#ffefe4"/><path d="M426.121 349.688c-13.816 20.234-77.605 127.859-105.039 127.859H219.008c-21.2 0-78.051-19.918-78.051-19.918H76.539v11.742h64.418s56.852 19.918 78.05 19.918h102.075c28.781 0 97.57-118.445 106.703-130.184 2.758-3.55 1.688-6.972-1.664-9.418zm0 0" fill="#edd4c2"/><path d="M44.242 383.617H76.54V489.29H44.242zm0 0" fill="#69ebfc"/><path d="M44.242 477.547H76.54v11.742H44.242zm0 0" fill="#5fd4e3"/><path d="M44.242 512H0V360.906h44.242zm0 0" fill="#6770e6"/><path d="M0 500.258h44.242V512H0zm0 0" fill="#5861c7"/><path d="M324.922 81.977l62.547 14.082 47.773-48.137-87.648-38.555c-1.383-.61-2.707-1.328-4.024-2.058-23.277-12.91-64.55-8.41-82.078 11.074l-42.832 47.62a16.176 16.176 0 0 0-4.152 10.825v41.531h-.082v3.075a30.854 30.854 0 0 0 11.883 24.336l16 12.464a8.613 8.613 0 0 0 6.058 1.793 8.61 8.61 0 0 0 5.73-2.816l2.36-2.613a20.643 20.643 0 0 0 1.555-1.985l7.215 5.621a8.633 8.633 0 0 0 11.71-1.023l2.356-2.613a20.407 20.407 0 0 0 4.742-9.192l9.977 7.606a7.773 7.773 0 0 0 10.422-.91l2.074-2.254c6.133-6.649 6.21-16.871.176-23.614l-7.047-7.875.047-14.546zm0 0" fill="#ffefe4"/><path d="M354.43 132.266c0 39.402-31.946 71.347-71.348 71.347-39.406 0-71.352-31.945-71.352-71.347 0-39.407 31.946-71.352 71.352-71.352 39.402 0 71.348 31.945 71.348 71.352zm0 0" fill="#69ebfc"/><path d="M332.477 132.266c0 27.277-22.118 49.394-49.395 49.394-27.281 0-49.398-22.117-49.398-49.394 0-27.282 22.117-49.399 49.398-49.399 27.277 0 49.395 22.117 49.395 49.399zm0 0" fill="#5fd4e3"/><path d="M279.465 164.977c-4.672-.684-8.824-2.493-12.469-5.422-2.129-1.707-3.894-3.848-5.308-6.426-1.72-3.125-.38-7.055 2.921-8.402 2.625-1.075 5.7-.16 7.164 2.265a16.196 16.196 0 0 0 1.625 2.235c1.68 1.964 3.7 3.32 6.067 4.066v-17.75l-.832-.379a42.107 42.107 0 0 1-6.496-3.082c-2.02-1.18-3.797-2.555-5.325-4.11a18.384 18.384 0 0 1-3.644-5.277c-.906-1.965-1.36-4.156-1.36-6.59 0-2.238.407-4.359 1.215-6.355a16.37 16.37 0 0 1 3.512-5.32c1.524-1.559 3.375-2.856 5.559-3.88 2.176-1.03 4.633-1.695 7.375-2.01v-3.88a4.16 4.16 0 0 1 8.316 0v4.067c2.492.37 4.66 1.027 6.492 1.964a22.45 22.45 0 0 1 4.77 3.223 12.661 12.661 0 0 1 1.5 1.606c2.363 2.953 1.164 7.37-2.29 8.914-2.366 1.054-5.089.39-6.835-1.528-.914-1.004-2.117-1.996-3.64-2.691v16.726c2.683 1.125 5.105 2.278 7.292 3.461 2.176 1.184 4.043 2.52 5.606 4.016 1.558 1.492 2.738 3.195 3.543 5.09.816 1.902 1.218 4.101 1.218 6.59 0 2.8-.48 5.297-1.441 7.472-.973 2.184-2.258 4.051-3.883 5.61a19.047 19.047 0 0 1-5.652 3.738 27.637 27.637 0 0 1-6.684 1.96v4.067a4.158 4.158 0 0 1-8.316 0zm-6.156-48.872c0 1.497.48 2.79 1.441 3.88.969 1.09 2.54 2.199 4.715 3.32V109.66c-1.867.496-3.356 1.305-4.477 2.426-1.129 1.125-1.68 2.465-1.68 4.02zm20.18 30.09c0-1.62-.438-2.96-1.317-4.015-.871-1.063-2.332-2.121-4.39-3.184v14.297c1.687-.559 3.058-1.445 4.12-2.664 1.051-1.215 1.586-2.691 1.586-4.434zm0 0" fill="#a1f1fc"/><path d="M264.094 70.617H366.28l68.965-22.695h17.215v96.27h-53.586a77.37 77.37 0 0 1-47.895-16.606l-13.539-10.668a36.315 36.315 0 0 0-22.468-7.79h-50.88c-10.636 0-19.257-8.62-19.257-19.253 0-10.637 8.621-19.258 19.258-19.258zm0 0" fill="#ffefe4"/><path d="M214.426 121.434c0 .472.058.937.082 1.41v-4.485h-.082zm220.82-73.512l-5.707-2.508-81.945-36.047c-1.383-.61-2.707-1.328-4.024-2.058-23.277-12.91-64.55-8.41-82.078 11.074l-42.832 47.62a16.195 16.195 0 0 0-4.152 10.825v14c0-4 1.48-7.851 4.152-10.824l42.832-47.621c17.528-19.485 58.801-23.985 82.078-11.074 1.317.73 2.64 1.453 4.024 2.058l77.98 34.301 9.672 3.984h17.215v-13.73zm0 0" fill="#fff7f2"/><path d="M467.633 149.047h-32.39V43.07h32.39zm0 0" fill="#69ebfc"/><path d="M435.246 43.07h32.387v11.774h-32.387zm0 0" fill="#a1f1fc"/><path d="M467.633 20.293H512V171.82h-44.367zm0 0" fill="#6770e6"/><path d="M467.633 20.293H512v11.773h-44.367zm0 0" fill="#8f95e6"/></svg>