<svg height="512pt" viewBox="0 0 512 512" width="512pt" xmlns="http://www.w3.org/2000/svg"><path d="M384.738 359.105c-19.566 22.176-49.57 65.422-61.312 65.422-5.356 0-21.903-3.03-38.309-6.328 27.36-7.633 55.028-20.035 59.809-24.816 7.12-7.117-6.23-16.02-31.149-16.02-24.918 0-40.047 6.817-70.304 6.817-30.258 0-29.516-12.93-57.922-12.93s-57.543 25.855-57.543 25.855H76.539v72.266h64.418s56.852 19.918 78.05 19.918h102.075c28.781 0 97.57-118.445 106.703-130.184 9.133-11.742-23.48-22.175-43.047 0zm0 0" fill="#ffefe4"/><path d="M426.121 349.688c-13.816 20.234-77.605 127.859-105.039 127.859H219.008c-21.2 0-78.051-19.918-78.051-19.918H76.539v11.742h64.418s56.852 19.918 78.05 19.918h102.075c28.781 0 97.57-118.445 106.703-130.184 2.758-3.55 1.688-6.972-1.664-9.418zm0 0" fill="#edd4c2"/><path d="M44.242 383.617H76.54V489.29H44.242zm0 0" fill="#69ebfc"/><path d="M44.242 477.547H76.54v11.742H44.242zm0 0" fill="#5fd4e3"/><path d="M44.242 512H0V360.906h44.242zm0 0" fill="#6770e6"/><path d="M0 500.258h44.242V512H0zm0 0" fill="#5861c7"/><path d="M324.922 81.977l62.547 14.082 47.773-48.137-87.648-38.555c-1.383-.61-2.707-1.328-4.024-2.058-23.277-12.91-64.55-8.41-82.078 11.074l-42.832 47.62a16.176 16.176 0 0 0-4.152 10.825v41.531h-.082v3.075a30.854 30.854 0 0 0 11.883 24.336l16 12.464a8.613 8.613 0 0 0 6.058 1.793 8.61 8.61 0 0 0 5.73-2.816l2.36-2.613a20.643 20.643 0 0 0 1.555-1.985l7.215 5.621a8.633 8.633 0 0 0 11.71-1.023l2.356-2.613a20.407 20.407 0 0 0 4.742-9.192l9.977 7.606a7.773 7.773 0 0 0 10.422-.91l2.074-2.254c6.133-6.649 6.21-16.871.176-23.614l-7.047-7.875.047-14.546zm0 0" fill="#ffefe4"/><path d="M109.809 249.867L316.839 42.84l119.537 119.53-207.032 207.032zm0 0" fill="#d476e2"/><path d="M342.293 97.926l38.996 38.996c-14.055 14.055-14.055 36.848 0 50.902L254.797 314.316c-14.055-14.058-36.844-14.058-50.902 0l-38.993-38.996c14.055-14.054 14.055-36.847 0-50.902L291.391 97.926c14.058 14.054 36.847 14.054 50.902 0zm0 0" fill="#b665c2"/><path d="M295.809 234.988c-4.184 3.117-8.836 4.95-13.973 5.508-2.996.328-6.05.035-9.168-.871-3.781-1.098-5.805-5.219-4.281-8.848 1.215-2.886 4.328-4.578 7.367-3.824.976.242 1.984.402 3.016.477 2.843.222 5.484-.297 7.914-1.567l-13.864-13.867-.949.36a46.706 46.706 0 0 1-7.48 2.664c-2.504.66-4.965.972-7.368.949a20.202 20.202 0 0 1-6.972-1.274c-2.242-.828-4.313-2.187-6.211-4.086-1.75-1.75-3.086-3.722-4.012-5.91a18.01 18.01 0 0 1-1.418-6.902c-.027-2.406.406-4.863 1.313-7.371.894-2.504 2.297-4.946 4.191-7.328l-3.031-3.032a4.595 4.595 0 0 1 0-6.496 4.595 4.595 0 0 1 6.496 0l3.176 3.176c2.238-1.66 4.445-2.84 6.605-3.539a24.933 24.933 0 0 1 6.246-1.207c.77-.047 1.594-.012 2.43.082 4.152.465 6.664 4.852 5.172 8.75-1.028 2.676-3.668 4.285-6.531 4.148-1.5-.074-3.211.094-4.946.743l13.067 13.062c2.976-1.219 5.765-2.21 8.398-2.992 2.625-.777 5.129-1.191 7.52-1.242 2.382-.055 4.632.355 6.742 1.203 2.125.851 4.152 2.254 6.097 4.2 2.188 2.19 3.762 4.515 4.711 6.964.946 2.46 1.399 4.93 1.348 7.41-.05 2.484-.543 4.926-1.492 7.336a30.871 30.871 0 0 1-3.695 6.75l3.175 3.176a4.595 4.595 0 0 1 0 6.496 4.595 4.595 0 0 1-6.496 0zm-42.985-33.363c1.172 1.172 2.555 1.805 4.156 1.902 1.614.098 3.704-.265 6.278-1.09l-10.656-10.656c-1.07 1.848-1.602 3.64-1.602 5.395-.004 1.758.61 3.234 1.824 4.449zm39.27 7.742c-1.262-1.265-2.653-1.976-4.164-2.113-1.512-.149-3.477.164-5.914.945l11.168 11.168c.878-1.754 1.257-3.52 1.136-5.297-.129-1.77-.867-3.343-2.226-4.703zm0 0" fill="#ea82fa"/><path d="M264.094 70.617H366.28l68.965-22.695h17.215v96.27h-53.586a77.37 77.37 0 0 1-47.895-16.606l-13.539-10.668a36.315 36.315 0 0 0-22.468-7.79h-50.88c-10.636 0-19.257-8.62-19.257-19.253 0-10.637 8.621-19.258 19.258-19.258zm0 0" fill="#ffefe4"/><path d="M214.426 121.434c0 .472.058.937.082 1.41v-4.485h-.082zm220.82-73.512l-5.707-2.512-81.945-36.043c-1.383-.61-2.707-1.328-4.024-2.058-23.277-12.91-64.55-8.41-82.078 11.074l-42.832 47.62a16.195 16.195 0 0 0-4.152 10.825v14c0-4 1.48-7.851 4.152-10.824l42.832-47.621c17.528-19.485 58.801-23.985 82.078-11.074 1.317.73 2.64 1.453 4.024 2.058l77.98 34.301 9.672 3.984h17.215v-13.73zm0 0" fill="#fff7f2"/><path d="M467.633 149.047h-32.39V43.07h32.39zm0 0" fill="#69ebfc"/><path d="M435.246 43.07h32.387v11.774h-32.387zm0 0" fill="#a1f1fc"/><path d="M467.633 20.293H512V171.82h-44.367zm0 0" fill="#6770e6"/><path d="M467.633 20.293H512v11.773h-44.367zm0 0" fill="#8f95e6"/></svg>