<svg height="512pt" viewBox="0 0 512 512" width="512pt" xmlns="http://www.w3.org/2000/svg"><path d="M477.695 117.16h-227.39c-7.899 0-14.305-6.402-14.305-14.305v-88.55C236 6.402 242.402 0 250.305 0h227.39C485.598 0 492 6.402 492 14.305v88.55c0 7.899-6.402 14.305-14.305 14.305zm0 0" fill="#d476e2"/><path d="M477.695 0h-227.39C242.402 0 236 6.402 236 14.305v14C236 20.402 242.402 14 250.305 14h227.39C485.594 14 492 20.402 492 28.305v-14C492 6.402 485.598 0 477.695 0zm0 0" fill="#ea82fa"/><path d="M256 86.39V30.77c0-5.95 4.82-10.77 10.77-10.77h194.46c5.95 0 10.77 4.82 10.77 10.77v55.62c0 5.95-4.82 10.77-10.77 10.77H266.77c-5.95 0-10.77-4.82-10.77-10.77zm0 0" fill="#69ebfc"/><path d="M336.703 117.16h54.594v34.594h-54.594zm0 0" fill="#b665c2"/><path d="M472.39 151.754H39.61c-10.829 0-19.61 8.777-19.61 19.61v106.042h472V171.363c0-10.832-8.781-19.61-19.61-19.61zm0 0" fill="#d476e2"/><path d="M472.39 151.75H39.61c-10.829 0-19.61 8.781-19.61 19.61v14c0-10.829 8.781-19.61 19.61-19.61h432.78c10.829 0 19.61 8.781 19.61 19.61v-14c0-10.829-8.781-19.61-19.61-19.61zm0 0" fill="#ea82fa"/><path d="M20 277.406h472v130.59H20zm0 0" fill="#b665c2"/><path d="M502.672 407.992H9.328c-5.148 0-9.328 4.18-9.328 9.332v85.348C0 507.82 4.18 512 9.328 512h493.344c5.148 0 9.328-4.18 9.328-9.328v-85.348c0-5.152-4.18-9.332-9.328-9.332zm0 0" fill="#6770e6"/><path d="M502.672 498H9.328C4.18 498 0 493.82 0 488.672v14C0 507.82 4.18 512 9.328 512h493.344c5.148 0 9.328-4.18 9.328-9.328v-14c0 5.148-4.18 9.328-9.328 9.328zm0 0" fill="#5861c7"/><path d="M20 487.371v-54.746a4.63 4.63 0 0 1 4.629-4.633H487.37a4.632 4.632 0 0 1 4.629 4.633v54.746A4.629 4.629 0 0 1 487.37 492H24.63a4.626 4.626 0 0 1-4.63-4.629zm0 0" fill="#5861c7"/><path d="M212.734 230.5H74.07c-8.793 0-15.922-7.129-15.922-15.922s7.13-15.922 15.922-15.922h138.664c8.793 0 15.922 7.13 15.922 15.922s-7.129 15.922-15.922 15.922zm0 0" fill="#b665c2"/><path d="M191.86 57.074l-16.153 19.012-16.152-19.012-16.153 19.012-16.152-19.012-16.148 19.012-16.153-19.012-16.152 19.012v138.492h129.21V76.086zm0 0" fill="#ffefe4"/><path d="M191.86 57.074l-16.153 19.012-16.152-19.012-16.153 19.012-16.152-19.012-16.148 19.012-16.153-19.012-16.152 19.012v14l16.152-19.012 16.153 19.012 16.148-19.012 16.152 19.012 16.153-19.012 16.152 19.012 16.152-19.012 16.149 19.012v-14zm0 0" fill="#fff7f2"/><path d="M461.23 248.625H266.77c-5.95 0-10.77-4.82-10.77-10.77v-46.554c0-5.95 4.82-10.77 10.77-10.77h194.46c5.95 0 10.77 4.82 10.77 10.77v46.554c0 5.95-4.82 10.77-10.77 10.77zm0 0" fill="#69ebfc"/><path d="M268.629 459.996c0 6.977-5.656 12.629-12.629 12.629s-12.629-5.652-12.629-12.629c0-6.973 5.656-12.625 12.629-12.625s12.629 5.652 12.629 12.625zm0 0" fill="#6770e6"/><path d="M201.34 311.785v-16.5a4.393 4.393 0 0 1 4.39-4.394h18.403a4.396 4.396 0 0 1 4.394 4.394v16.5a4.396 4.396 0 0 1-4.394 4.395H205.73a4.393 4.393 0 0 1-4.39-4.395zm41.066 0v-16.5a4.393 4.393 0 0 1 4.39-4.394h18.407a4.396 4.396 0 0 1 4.395 4.394v16.5a4.396 4.396 0 0 1-4.395 4.395h-18.406a4.393 4.393 0 0 1-4.39-4.395zm41.067 0v-16.5a4.396 4.396 0 0 1 4.394-4.394h18.403a4.393 4.393 0 0 1 4.39 4.394v16.5a4.393 4.393 0 0 1-4.39 4.395h-18.403a4.396 4.396 0 0 1-4.394-4.395zM201.34 350.95v-16.5a4.393 4.393 0 0 1 4.39-4.395h18.403a4.396 4.396 0 0 1 4.394 4.394v16.5a4.396 4.396 0 0 1-4.394 4.395H205.73a4.393 4.393 0 0 1-4.39-4.395zm41.066 0v-16.5a4.393 4.393 0 0 1 4.39-4.395h18.407a4.396 4.396 0 0 1 4.395 4.394v16.5a4.396 4.396 0 0 1-4.395 4.395h-18.406a4.393 4.393 0 0 1-4.39-4.395zm41.067 0v-16.5a4.396 4.396 0 0 1 4.394-4.395h18.403a4.393 4.393 0 0 1 4.39 4.394v16.5a4.393 4.393 0 0 1-4.39 4.395h-18.403a4.396 4.396 0 0 1-4.394-4.395zm-82.133 39.167v-16.504a4.39 4.39 0 0 1 4.39-4.39h18.403a4.393 4.393 0 0 1 4.394 4.39v16.504a4.393 4.393 0 0 1-4.394 4.39H205.73a4.392 4.392 0 0 1-4.39-4.39zm41.066 0v-16.504a4.39 4.39 0 0 1 4.39-4.39h18.407a4.393 4.393 0 0 1 4.395 4.39v16.504a4.393 4.393 0 0 1-4.395 4.39h-18.406a4.392 4.392 0 0 1-4.39-4.39zm41.067 0v-16.504a4.393 4.393 0 0 1 4.394-4.39h18.403a4.39 4.39 0 0 1 4.39 4.39v16.504a4.39 4.39 0 0 1-4.39 4.39h-18.403a4.395 4.395 0 0 1-4.394-4.39zm0 0" fill="#69ebfc"/><path d="M81.148 302.395c0 6.351-5.148 11.5-11.5 11.5-6.351 0-11.503-5.149-11.503-11.5 0-6.352 5.152-11.504 11.503-11.504 6.352 0 11.5 5.152 11.5 11.504zm82.649 6.539H99.473c-3.61 0-6.54-2.93-6.54-6.54s2.93-6.539 6.54-6.539h64.324a6.54 6.54 0 1 1 0 13.078zM81.148 342.7c0 6.35-5.148 11.503-11.5 11.503-6.351 0-11.503-5.152-11.503-11.504 0-6.351 5.152-11.5 11.503-11.5 6.352 0 11.5 5.149 11.5 11.5zm82.649 6.538H99.473c-3.61 0-6.54-2.93-6.54-6.539s2.93-6.539 6.54-6.539h64.324c3.61 0 6.539 2.93 6.539 6.54s-2.93 6.538-6.54 6.538zm-82.649 32.727c0 6.355-5.148 11.504-11.5 11.504-6.351 0-11.503-5.149-11.503-11.504 0-6.352 5.152-11.5 11.503-11.5 6.352 0 11.5 5.148 11.5 11.5zm82.649 6.539H99.473a6.538 6.538 0 0 1 0-13.074h64.324a6.537 6.537 0 1 1-.001 13.074zm0 0" fill="#ea82fa"/><path d="M344.738 290.895h123.98a3.28 3.28 0 0 1 3.282 3.28v11.52H341.457v-11.52a3.28 3.28 0 0 1 3.281-3.28zm0 0" fill="#ffefe4"/><path d="M341.457 305.695H472v14.801H341.457zm0 0" fill="#edd4c2"/><path d="M341.457 320.496H472v14.8H341.457zm0 0" fill="#ffefe4"/><path d="M341.457 335.297H472v14.805H341.457zm0 0" fill="#edd4c2"/><path d="M341.457 350.102H472v14.8H341.457zm0 0" fill="#ffefe4"/><path d="M341.457 364.902H472v14.801H341.457zm0 0" fill="#edd4c2"/><path d="M341.457 379.703H472v11.524a3.28 3.28 0 0 1-3.281 3.28h-123.98a3.28 3.28 0 0 1-3.282-3.28zm0 0" fill="#ffefe4"/><path d="M326.59 222.473h-39.77a7.893 7.893 0 1 1 0-15.786h39.77a7.892 7.892 0 1 1 0 15.786zm95.558 0h-59.77a7.893 7.893 0 1 1 0-15.786h59.77c4.364 0 7.895 3.532 7.895 7.891s-3.531 7.895-7.895 7.895zM326.59 66.477h-39.77a7.895 7.895 0 0 1 0-15.79h39.77a7.895 7.895 0 0 1 0 15.79zm95.558 0h-59.77a7.895 7.895 0 0 1 0-15.79h59.77c4.364 0 7.895 3.536 7.895 7.895s-3.531 7.895-7.895 7.895zM138.996 189.043c-5.523-.809-10.437-2.941-14.75-6.41-2.512-2.02-4.605-4.551-6.277-7.598-2.028-3.695-.446-8.344 3.46-9.937 3.102-1.27 6.743-.192 8.47 2.68a20.04 20.04 0 0 0 1.921 2.644c1.985 2.32 4.375 3.926 7.176 4.805v-20.993l-.984-.445a50.203 50.203 0 0 1-7.684-3.648c-2.39-1.395-4.492-3.02-6.293-4.86a21.687 21.687 0 0 1-4.312-6.246c-1.075-2.32-1.61-4.918-1.61-7.793 0-2.648.48-5.152 1.438-7.515a19.234 19.234 0 0 1 4.152-6.293c1.8-1.84 3.988-3.375 6.574-4.586 2.575-1.22 5.485-2.008 8.723-2.38v-4.585a4.92 4.92 0 0 1 4.918-4.918 4.92 4.92 0 0 1 4.918 4.918v4.808c2.95.438 5.516 1.215 7.68 2.32a26.598 26.598 0 0 1 5.64 3.813 15.51 15.51 0 0 1 1.778 1.903c2.789 3.492 1.37 8.718-2.711 10.539-2.797 1.25-6.02.464-8.082-1.801-1.082-1.192-2.504-2.36-4.305-3.184v19.781c3.176 1.329 6.039 2.692 8.621 4.09 2.574 1.403 4.785 2.985 6.633 4.754 1.844 1.766 3.238 3.778 4.191 6.02.965 2.25 1.438 4.847 1.438 7.793 0 3.312-.567 6.261-1.703 8.84-1.149 2.578-2.672 4.789-4.594 6.629-1.918 1.847-4.14 3.32-6.684 4.425a33.12 33.12 0 0 1-7.902 2.317v4.804a4.918 4.918 0 0 1-4.922 4.918 4.917 4.917 0 0 1-4.918-4.918zm-7.281-57.797c0 1.77.566 3.297 1.707 4.586 1.144 1.293 3.004 2.602 5.574 3.926v-16.133c-2.207.59-3.969 1.543-5.297 2.867-1.332 1.332-1.984 2.914-1.984 4.754zm23.867 35.59c0-1.914-.516-3.504-1.555-4.754-1.03-1.258-2.757-2.504-5.191-3.762v16.907c1.992-.66 3.613-1.707 4.867-3.149 1.246-1.437 1.879-3.183 1.879-5.242zm0 0" fill="#6770e6"/></svg>