<svg height="512pt" viewBox="0 0 512 512" width="512pt" xmlns="http://www.w3.org/2000/svg"><path d="M33.672 0C15.07 0 0 15.07 0 33.672v59.004h67.34V33.672C67.34 15.07 52.262 0 33.672 0zm0 0" fill="#edd4c2"/><path d="M409.852 0H33.664c18.602 0 33.672 15.074 33.672 33.672V512h376.187V33.672C443.523 15.074 428.437 0 409.852 0zm0 0" fill="#ffefe4"/><path d="M67.336 492h376.187v20H67.336zm0 0" fill="#edd4c2"/><path d="M409.852 0H33.664c13.73 0 25.531 8.219 30.773 20h345.415c18.586 0 33.671 15.074 33.671 33.672v-20C443.523 15.074 428.437 0 409.852 0zm0 0" fill="#fff7f2"/><path d="M272.828 171.715c0 40.316-32.68 73-73 73-40.316 0-73-32.684-73-73s32.684-73 73-73c40.32 0 73 32.683 73 73zm0 0" fill="#8f95e6"/><path d="M182.574 196.934h34.512v14.597h-34.512zm0 0" fill="#5fd4e3"/><path d="M243.242 209.598a2.996 2.996 0 0 1-.18-.043l-26.89-6.063h-32.684l-26.89 6.063a2.996 2.996 0 0 1-.18.043c-5.285 1.23-9.773 4.386-12.824 8.656 13.386 16.16 33.61 26.457 56.234 26.457 22.629 0 42.852-10.297 56.238-26.457-3.05-4.27-7.539-7.426-12.824-8.656zm0 0" fill="#5fd4e3"/><path d="M205.8 226.133h-11.94l-2.657-14.602h17.254zm0 0" fill="#6770e6"/><path d="M191.844 244.27c2.62.285 5.285.445 7.984.445 2.703 0 5.367-.16 7.988-.445l-2.015-18.137h-11.946zm0 0" fill="#5861c7"/><path d="M219.422 126.336c-.832-3.219-4.383-7.781-17.844-7.781-20.793 0-23.754 3.078-29.289-2.239-4.668-4.488-7.41 17.11-1.184 23.965-2.628 9.715-.527 19.442-.527 19.442h58.504s4.91-22.727-9.66-33.387zm0 0" fill="#339"/><path d="M176.484 160.742s-2.52-4.617-7.562-4.617c-5.047 0-8.621 22.176 7.562 18.48zm46.692 0s2.52-4.617 7.562-4.617c5.047 0 8.621 22.176-7.562 18.48zm-10.082 21.594H186.57v17.976l13.258 11.22 13.274-11.231zm0 0" fill="#ffe4d1"/><path d="M199.828 131.023c-38.644 0-31.258 63.383 0 63.383 31.262 0 38.649-63.383 0-63.383zm0 0" fill="#ffefe4"/><path d="M199.828 127.574s-26.285-3.707-26.285 30.02c0 0 3.312-13.942 10.906-17.742 3.535-1.77 4.832 2.714 15.383 2.714s11.848-4.484 15.383-2.714c7.594 3.8 10.906 17.742 10.906 17.742-.004-33.727-26.293-30.02-26.293-30.02zm0 0" fill="#339"/><path d="M229.031 206.223l-17.254 18.582-11.949-13.274 17.258-14.597zm-58.402 0l17.254 18.582 11.945-13.274-17.254-14.597zm0 0" fill="#69ebfc"/><path d="M330.309 78.715H139.352c-6.914 0-12.524-5.606-12.524-12.524 0-6.914 5.61-12.52 12.524-12.52h190.957c6.914 0 12.52 5.606 12.52 12.52 0 6.918-5.606 12.524-12.52 12.524zm0 0" fill="#ffac8c"/><path d="M376.832 304.242H178.027c-5.078 0-9.199-4.117-9.199-9.195a9.2 9.2 0 0 1 9.2-9.2h198.8c5.082 0 9.2 4.118 9.2 9.2.003 5.078-4.118 9.195-9.196 9.195zm0 48.208H178.027c-5.078 0-9.199-4.122-9.199-9.2s4.121-9.2 9.2-9.2h198.8c5.082 0 9.2 4.122 9.2 9.2.003 5.078-4.118 9.2-9.196 9.2zm0 48.198H178.027c-5.078 0-9.199-4.117-9.199-9.195a9.2 9.2 0 0 1 9.2-9.2h198.8c5.082 0 9.2 4.118 9.2 9.2.003 5.078-4.118 9.195-9.196 9.195zm0 48.204H178.027a9.2 9.2 0 0 1-9.199-9.2c0-5.078 4.121-9.195 9.2-9.195h198.8c5.082 0 9.2 4.117 9.2 9.195.003 5.082-4.118 9.2-9.196 9.2zM147.23 295.047a9.2 9.2 0 0 1-9.199 9.2c-5.082 0-9.203-4.118-9.203-9.2s4.121-9.2 9.203-9.2c5.078 0 9.2 4.118 9.2 9.2zm0 48.199c0 5.082-4.12 9.203-9.199 9.203a9.204 9.204 0 0 1-9.203-9.203c0-5.078 4.121-9.2 9.203-9.2 5.078 0 9.2 4.122 9.2 9.2zm0 48.207c0 5.078-4.12 9.2-9.199 9.2-5.082 0-9.203-4.122-9.203-9.2 0-5.082 4.121-9.2 9.203-9.2 5.078 0 9.2 4.118 9.2 9.2zm0 48.199c0 5.082-4.12 9.203-9.199 9.203a9.204 9.204 0 0 1-9.203-9.203c0-5.078 4.121-9.199 9.203-9.199 5.078 0 9.2 4.121 9.2 9.2zm204.801-304.683h-51.203a8 8 0 0 1 0-16h51.203a8 8 0 0 1 0 16zm24 47.898h-75.203a8 8 0 0 1 0-16h75.203a8 8 0 0 1 0 16zm-24 48.203h-51.203a8 8 0 0 1 0-16h51.203a8 8 0 0 1 0 16zm0 0" fill="#edd4c2"/><path d="M463.129 349.031s21.43-28.625 16.625-40.957c-4.262-10.933-21.3-8.23-29.817 0-8.523 8.235-5-16.77-30.722-16.77-25.719 0-22.2 25.005-30.719 16.77-8.52-8.23-25.559-10.933-29.816 0-4.805 12.336 16.62 40.957 16.62 40.957s-48.866 51.301-48.866 99.684c0 29.562 13.773 63.285 92.785 63.285C498.227 512 512 478.277 512 448.715c0-48.383-48.871-99.684-48.871-99.684zm0 0" fill="#6770e6"/><path d="M388.496 322.074c8.52 8.235 5-16.77 30.719-16.77 25.723 0 22.2 25.005 30.723 16.77 8.054-7.789 23.722-10.61 29-1.636 1.511-4.708 2.085-9.106.816-12.364-4.262-10.933-21.3-8.234-29.82 0-8.52 8.235-5-16.77-30.72-16.77-25.722 0-22.198 25.005-30.722 16.77-8.52-8.234-25.555-10.933-29.812 0-1.274 3.258-.7 7.656.812 12.364 5.281-8.973 20.945-6.153 29.004 1.636zm0 0" fill="#8f95e6"/><path d="M419.215 498c-72.469 0-90.043-28.371-92.461-55.879-.191 2.2-.324 4.399-.324 6.594 0 29.562 13.777 63.285 92.785 63.285S512 478.277 512 448.715c0-2.195-.133-4.395-.324-6.594C509.262 469.63 491.684 498 419.215 498zm0 0" fill="#5861c7"/><path d="M470.227 356.625H368.203a7.591 7.591 0 0 1-7.59-7.594 7.59 7.59 0 0 1 7.59-7.59h102.024a7.588 7.588 0 0 1 7.59 7.59 7.589 7.589 0 0 1-7.59 7.594zm0 0" fill="#69ebfc"/><path d="M415.36 466.113c-4.84-.71-9.141-2.578-12.915-5.61-2.203-1.769-4.035-3.987-5.5-6.655-1.773-3.235-.39-7.305 3.028-8.703 2.718-1.11 5.902-.165 7.418 2.347a17.28 17.28 0 0 0 1.683 2.317c1.739 2.035 3.832 3.437 6.285 4.207v-18.38l-.867-.39c-2.383-.902-4.629-1.96-6.722-3.195-2.094-1.223-3.934-2.645-5.512-4.254a18.883 18.883 0 0 1-3.778-5.465c-.94-2.035-1.41-4.305-1.41-6.824 0-2.32.422-4.516 1.258-6.578a17.008 17.008 0 0 1 3.637-5.516c1.578-1.61 3.492-2.953 5.758-4.016 2.254-1.066 4.8-1.757 7.636-2.082v-4.015a4.305 4.305 0 0 1 8.61 0v4.21c2.582.384 4.828 1.063 6.726 2.032a23.348 23.348 0 0 1 4.938 3.34 13.006 13.006 0 0 1 1.555 1.664c2.445 3.058 1.203 7.633-2.372 9.226-2.449 1.094-5.273.41-7.078-1.578-.945-1.043-2.187-2.066-3.77-2.785v17.32a85.006 85.006 0 0 1 7.555 3.582c2.254 1.227 4.188 2.614 5.801 4.16 1.617 1.548 2.836 3.31 3.672 5.27.848 1.973 1.262 4.246 1.262 6.824 0 2.903-.5 5.489-1.496 7.743-1.004 2.257-2.336 4.195-4.02 5.804a19.68 19.68 0 0 1-5.851 3.871 28.852 28.852 0 0 1-6.922 2.032v4.207a4.306 4.306 0 0 1-8.614 0v-4.11zm-6.38-50.605c0 1.55.5 2.887 1.497 4.015 1.003 1.133 2.628 2.278 4.882 3.438v-14.125c-1.933.516-3.476 1.351-4.64 2.512-1.164 1.164-1.739 2.55-1.739 4.16zm20.899 31.16c0-1.676-.45-3.066-1.36-4.16-.902-1.098-2.414-2.196-4.546-3.293v14.805c1.746-.579 3.164-1.5 4.261-2.758 1.09-1.258 1.645-2.79 1.645-4.594zm0 0" fill="#ffefe4"/></svg>