<svg height="512pt" viewBox="0 0 512 512" width="512pt" xmlns="http://www.w3.org/2000/svg"><path d="M9.746 128h492v384h-492zm0 0" fill="#ffefe4"/><path d="M9.746 498h492v14h-492zm0 0" fill="#edd4c2"/><path d="M36.57 200C16.375 200 0 183.625 0 163.43V128h73.14v35.43c0 20.195-16.37 36.57-36.57 36.57zm0 0" fill="#e0734a"/><path d="M109.715 200c-20.2 0-36.574-16.375-36.574-36.57V128h73.144v35.43c0 20.195-16.375 36.57-36.57 36.57zm0 0" fill="#edd4c2"/><path d="M182.86 200c-20.2 0-36.575-16.375-36.575-36.57V128h73.145v35.43c0 20.195-16.375 36.57-36.57 36.57zm0 0" fill="#e0734a"/><path d="M256 200c-20.2 0-36.57-16.375-36.57-36.57V128h73.14v35.43c0 20.195-16.37 36.57-36.57 36.57zm0 0" fill="#edd4c2"/><path d="M329.145 200c-20.2 0-36.575-16.375-36.575-36.57V128h73.145v35.43c0 20.195-16.375 36.57-36.57 36.57zm0 0" fill="#e0734a"/><path d="M402.285 200c-20.195 0-36.57-16.375-36.57-36.57V128h73.14v35.43c.004 20.195-16.37 36.57-36.57 36.57zm0 0" fill="#edd4c2"/><path d="M475.43 200c-20.2 0-36.575-16.375-36.575-36.57V128h73.141v35.43C512 183.625 495.625 200 475.43 200zm0 0" fill="#e0734a"/><path d="M141.14 0H89.599c-4.735 0-9.141 2.41-11.696 6.395L0 128h73.14zm0 0" fill="#ff8354"/><path d="M194.285 0h-53.144l-68 128h73.144zm0 0" fill="#ffefe4"/><path d="M235.43 0h-41.145l-48 128h73.145zm135.43 0h51.546c4.73 0 9.14 2.41 11.692 6.395L512 128h-73.14zm0 0" fill="#ff8354"/><path d="M317.715 0h53.144l68 128h-73.144zm0 0" fill="#ffefe4"/><path d="M276.285 0h41.43l48 128H292.57zm0 0" fill="#ff8354"/><path d="M276.285 0H235.43L220 124.344V128h72v-3.656zm0 0" fill="#ffefe4"/><path d="M129.14 393.648a7.982 7.982 0 0 1-5.156-1.882 8.008 8.008 0 0 1-.953-11.278l126.602-150a8.014 8.014 0 0 1 6.113-2.84 8.016 8.016 0 0 1 6.117 2.84l126.602 150a8 8 0 1 1-12.227 10.32L255.746 248.056 135.258 390.809a7.983 7.983 0 0 1-6.117 2.84zm0 0" fill="#5861c7"/><path d="M448.578 470.156H63.422c-11.692 0-21.168-9.476-21.168-21.168V332.156c0-11.691 9.476-21.168 21.168-21.168h385.156c11.695 0 21.168 9.477 21.168 21.168v116.832c0 11.696-9.476 21.168-21.168 21.168zm0 0" fill="#d476e2"/><path d="M70.89 450.16a8.637 8.637 0 0 1-8.636-8.637V339.625c0-4.77 3.867-8.64 8.637-8.64h370.218a8.637 8.637 0 0 1 8.637 8.636V441.52a8.637 8.637 0 0 1-8.637 8.636H70.891zm184.856-188.617c-12.45 0-22.637-10.184-22.637-22.637 0-12.449 10.188-22.636 22.637-22.636 12.453 0 22.64 10.183 22.64 22.636s-10.187 22.637-22.64 22.637zm0 0" fill="#b665c2"/><path d="M438.969 14l-4.871-7.605A13.892 13.892 0 0 0 422.402 0h-51.547l7.438 14zm0 0" fill="#ffac8c"/><path d="M378.293 14l-7.434-14h-53.144l5.25 14zm0 0" fill="#fff7f2"/><path d="M322.965 14l-5.25-14h-41.43l1.781 14zm0 0" fill="#ffac8c"/><path d="M278.055 14l-1.77-14H235.43l-1.739 14zm0 0" fill="#fff7f2"/><path d="M233.68 14l1.75-14h-41.145l-5.25 14zm0 0" fill="#ffac8c"/><path d="M189.035 14l5.25-14h-53.14l-7.438 14zm0 0" fill="#fff7f2"/><path d="M77.902 6.395L73.032 14h60.675l7.438-14H89.598c-4.735 0-9.141 2.41-11.696 6.395zm0 0" fill="#ffac8c"/><path d="M134.496 409.004c2.711 2.57 2.469 6.91-.437 9.258a32.648 32.648 0 0 1-6.711 4.18c-4.493 2.09-9.512 3.132-15.063 3.132-4.996 0-9.629-.902-13.898-2.71-4.274-1.81-7.977-4.278-11.09-7.395-3.121-3.117-5.582-6.817-7.395-11.09-1.808-4.27-2.71-8.875-2.71-13.805 0-4.926.898-9.531 2.71-13.8 1.817-4.274 4.274-7.973 7.395-11.09 3.113-3.118 6.816-5.586 11.09-7.395 4.27-1.809 8.902-2.715 13.898-2.715 5.36 0 10.09.938 14.172 2.809 2 .914 3.89 2.031 5.672 3.347 3.023 2.239 3.285 6.676.586 9.293l-.09.09c-2.215 2.14-5.602 2.207-8.07.371a23.817 23.817 0 0 0-2.965-1.87c-2.59-1.372-5.656-2.06-9.215-2.06-3.121 0-6.055.548-8.797 1.637-2.75 1.094-5.133 2.637-7.156 4.633-2.027 1.996-3.633 4.414-4.82 7.25-1.192 2.84-1.778 6.008-1.778 9.5 0 3.496.586 6.66 1.778 9.496 1.187 2.84 2.793 5.258 4.82 7.254 2.023 1.996 4.406 3.543 7.156 4.633 2.742 1.09 5.676 1.637 8.797 1.637 3.738 0 7.066-.762 9.969-2.293a22.738 22.738 0 0 0 4.086-2.758c2.316-1.95 5.773-1.711 7.968.371zm19.68-51.934h.652a5.99 5.99 0 0 1 5.988 5.993v49.035h22.368a5.989 5.989 0 0 1 0 11.976H154.68a6.496 6.496 0 0 1-6.496-6.496v-54.515a5.99 5.99 0 0 1 5.992-5.993zm75.472 68.5c-4.988 0-9.617-.898-13.89-2.71-4.281-1.81-7.977-4.294-11.098-7.438-3.113-3.152-5.566-6.863-7.344-11.14-1.78-4.27-2.664-8.84-2.664-13.708 0-4.867.883-9.437 2.664-13.71 1.778-4.274 4.227-7.989 7.344-11.137 3.121-3.149 6.817-5.63 11.098-7.438 4.27-1.809 8.898-2.719 13.89-2.719 4.997 0 9.625.907 13.899 2.72 4.27 1.808 7.973 4.288 11.086 7.437 3.125 3.152 5.57 6.863 7.351 11.136 1.774 4.274 2.664 8.844 2.664 13.711 0 4.867-.89 9.438-2.664 13.707-1.78 4.278-4.226 7.989-7.351 11.14-3.113 3.15-6.817 5.63-11.086 7.438-4.274 1.813-8.902 2.711-13.899 2.711zm0-11.976c3.122 0 6.04-.559 8.75-1.684 2.72-1.125 5.086-2.68 7.114-4.68 2.027-1.996 3.617-4.414 4.777-7.25 1.149-2.84 1.727-5.972 1.727-9.406 0-3.43-.578-6.562-1.727-9.406-1.16-2.836-2.75-5.254-4.777-7.254-2.028-1.996-4.395-3.555-7.114-4.68-2.71-1.12-5.628-1.683-8.75-1.683-3.113 0-6.03.562-8.75 1.683-2.71 1.125-5.082 2.684-7.105 4.68-2.035 2-3.629 4.418-4.777 7.254-1.157 2.84-1.727 5.973-1.727 9.406 0 3.43.57 6.563 1.727 9.406 1.148 2.836 2.742 5.254 4.777 7.25 2.023 2 4.394 3.555 7.105 4.68 2.72 1.125 5.637 1.684 8.75 1.684zm62.902 11.976c-2.87 0-5.609-.406-8.238-1.21a23.74 23.74 0 0 1-7.203-3.653c-2.187-1.621-4.082-3.602-5.707-5.941a24.78 24.78 0 0 1-1.007-1.582c-1.946-3.313-.325-7.594 3.25-9 2.882-1.137 6.226-.067 7.765 2.62a16.66 16.66 0 0 0 2.63 3.47c2.175 2.214 5.05 3.32 8.605 3.32 1.308 0 2.574-.168 3.793-.516a11.342 11.342 0 0 0 3.273-1.496 7.28 7.28 0 0 0 2.293-2.477c.562-1 .836-2.152.836-3.464 0-1.246-.215-2.371-.652-3.368-.434-1-1.168-1.933-2.196-2.808-1.027-.875-2.375-1.719-4.027-2.528-1.653-.812-3.695-1.652-6.13-2.527l-4.112-1.496c-1.813-.621-3.641-1.465-5.477-2.523a23.87 23.87 0 0 1-5.004-3.84c-1.5-1.496-2.734-3.258-3.703-5.29-.969-2.027-1.445-4.316-1.445-6.878 0-2.617.511-5.067 1.539-7.344a18.038 18.038 0 0 1 4.402-5.992c1.903-1.711 4.18-3.055 6.832-4.024 2.649-.968 5.598-1.449 8.84-1.449 3.375 0 6.281.453 8.75 1.36 2.469.902 4.555 2.054 6.27 3.46.613.5 1.472 1.36 2.378 2.422 2.704 3.18 1.493 8.09-2.355 9.707a6.179 6.179 0 0 1-7-1.566c-2.625-2.941-5.684-3.777-7.852-3.777-2.75 0-5.027.64-6.832 1.922-1.812 1.277-2.718 2.945-2.718 5.003 0 2 .875 3.696 2.62 5.102 1.75 1.402 4.524 2.758 8.333 4.07l4.21 1.407c2.68.93 5.134 2.007 7.352 3.222 2.207 1.219 4.11 2.672 5.703 4.356a17.637 17.637 0 0 1 3.649 5.758c.844 2.152 1.262 4.628 1.262 7.433 0 3.496-.7 6.504-2.102 9.031-1.402 2.532-3.195 4.602-5.383 6.223-2.187 1.629-4.644 2.84-7.387 3.652-2.75.805-5.433 1.211-8.054 1.211zm44.7-56.523v15.539h20.867a5.986 5.986 0 0 1 5.988 5.984v.004a5.987 5.987 0 0 1-5.988 5.989H337.25v15.535h23.86a5.989 5.989 0 0 1 5.988 5.988v.004a5.988 5.988 0 0 1-5.989 5.984h-29.996a6.493 6.493 0 0 1-6.496-6.496V363.57a6.493 6.493 0 0 1 6.496-6.496h29.996a5.989 5.989 0 0 1 0 11.977H337.25zm39.977-5.477a6.493 6.493 0 0 1 6.496-6.496h16.144c5.309 0 10.074.813 14.317 2.434 4.242 1.62 7.867 3.914 10.859 6.879 2.992 2.965 5.285 6.504 6.879 10.62 1.594 4.118 2.383 8.641 2.383 13.571 0 4.992-.79 9.547-2.383 13.66-1.594 4.117-3.883 7.645-6.879 10.575-2.992 2.933-6.617 5.21-10.86 6.832-4.242 1.625-9.007 2.433-14.316 2.433h-16.144a6.493 6.493 0 0 1-6.496-6.492zm22.086 48.528c3.675 0 6.921-.516 9.73-1.543 2.805-1.032 5.14-2.48 7.016-4.352 1.875-1.875 3.273-4.133 4.21-6.789.938-2.648 1.41-5.598 1.41-8.84 0-3.246-.472-6.191-1.41-8.847-.933-2.649-2.335-4.91-4.21-6.782-1.875-1.875-4.211-3.324-7.016-4.351-2.809-1.031-6.055-1.547-9.73-1.547h-9.454v43.05zm0 0" fill="#ffefe4"/></svg>