<svg height="512pt" viewBox="0 0 512 512.002" width="512pt" xmlns="http://www.w3.org/2000/svg"><path d="M512 256c0 141.387-114.613 256-256 256C114.617 512 0 397.387 0 256S114.617 0 256 0c141.387 0 256 114.613 256 256zm0 0" fill="#8f95e6"/><path d="M291.117 255.957h-70.5c-23.262 0-42.699-17.7-44.875-40.86l-6.164-65.69h172.578l-6.168 65.69c-2.172 23.16-21.61 40.86-44.87 40.86zm0 0" fill="#339"/><path d="M256 492C117.969 492 5.469 382.746.215 246A255.26 255.26 0 0 0 0 256c0 141.383 114.617 256 256 256 141.387 0 256-114.617 256-256 0-3.352-.082-6.68-.21-10C506.53 382.746 394.034 492 256 492zm0 0" fill="#6770e6"/><path d="M256 20c138.035 0 250.531 109.254 255.79 246 .128-3.32.21-6.648.21-10C512 114.617 397.387 0 256 0 114.617 0 0 114.617 0 256c0 3.352.086 6.68.215 10C5.469 129.254 117.969 20 256 20zm0 0" fill="#9fa5ff"/><path d="M369.895 327.824l-58.024-19.066h-111.75l-58.168 19.078c-19.168 6.289-32.129 24.18-32.129 44.355v93.98c40.547 28.255 89.656 45.071 142.656 45.786h7.04c52.925-.715 101.968-17.484 142.484-45.664v-94.121c0-20.168-12.95-38.055-32.11-44.348zm0 0" fill="#ff8354"/><path d="M402.004 446.293C360.594 475.102 310.274 492 256 492c-54.348 0-104.734-16.945-146.176-45.828v20s.004.004.008.004a257.345 257.345 0 0 0 15.602 10.054 254.105 254.105 0 0 0 16.351 8.922 254.775 254.775 0 0 0 17.035 7.743c28.942 11.882 60.54 18.617 93.66 19.066h7.043c26.461-.36 51.954-4.73 75.895-12.531a257.629 257.629 0 0 0 17.644-6.485c.008 0 .016-.004.024-.007a258.296 258.296 0 0 0 17.016-7.723 255.652 255.652 0 0 0 16.312-8.89 256.296 256.296 0 0 0 15.59-10.031h.004v-20.001zm0 0" fill="#e0734a"/><path d="M209.398 291.883h93.204v39.43h-93.204zm0 0" fill="#5fd4e3"/><path d="M192.95 194.14s-6.81-12.476-20.434-12.476-23.274 59.899 20.433 49.914zm126.1 0s6.813-12.476 20.438-12.476c13.621 0 23.274 59.899-20.437 49.914zm-27.234 58.32h-71.632v48.548L256 331.313l35.848-30.333zm0 0" fill="#ffe4d1"/><path d="M256 113.879c-104.379 0-84.418 171.183 0 171.183 84.422.004 104.379-171.183 0-171.183zm0 0" fill="#ffefe4"/><path d="M334.863 316.977l-46.601 50.183L256 331.313l46.602-39.43zm-157.726 0l46.601 50.183L256 331.313l-46.602-39.43zm0 0" fill="#69ebfc"/><path d="M334.738 152.383c0-69.547-50.047-78.113-78.87-78.113-28.829 0-78.872 8.566-78.872 78.113 0 0-1.883 51.074 8.008 51.074 9.894 0 18.043-54.879 18.043-54.879s22.394-15.574 52.82-15.574c30.426 0 52.82 15.574 52.82 15.574s8.149 54.879 18.043 54.879c9.891 0 8.008-51.074 8.008-51.074zm0 0" fill="#339"/><path d="M169.578 149.406s0-90.281 86.172-90.281c86.852 0 86.406 90.281 86.406 90.281zm0 0" fill="#ff8354"/><path d="M256.016 128.086c-70.278 0-86.438 21.32-86.438 21.32s-.516 21.828 20.527 30.703c12.625 5.325 33.012-4.418 65.93-4.418 30.57 0 50.297 10.325 63.02 5.536 23.804-8.957 23.101-31.82 23.101-31.82s-15.86-21.321-86.14-21.321zm0 0" fill="#e0734a"/><path d="M365.574 381.824H146.461c-7.656 0-13.867 6.207-13.867 13.864v84.644c36.601 20.176 78.66 31.672 123.406 31.672 44.762 0 86.832-11.5 123.438-31.691v-84.625c0-7.657-6.208-13.864-13.864-13.864zm0 0" fill="#f7ddca"/><path d="M379.438 400.02H132.594v-4.333c0-7.656 6.207-13.863 13.863-13.863h219.117c7.656 0 13.86 6.207 13.86 13.863v4.333zm0 0" fill="#ffefe4"/><path d="M275.555 439.96h-9.504l-8.781-5.726-7.274 5.727-7.273-5.727-6.243 5.727v-58.137h39.075zm0 0" fill="#ff8354"/><path d="M236.48 381.824h39.075v18.196H236.48zm0 0" fill="#ffac8c"/><path d="M379.438 460.285C342.832 480.48 300.77 492 256 492c-44.754 0-86.805-11.516-123.406-31.7v20.005c.21.117.414.242.625.355.504.278 1.023.54 1.531.813a250.95 250.95 0 0 0 6.188 3.234c.789.398 1.585.785 2.382 1.176a256.711 256.711 0 0 0 8.106 3.808c1.96.88 3.937 1.735 5.922 2.563.82.344 1.636.695 2.46 1.027.958.39 1.919.766 2.876 1.145 1.238.484 2.484.957 3.73 1.422.984.367 1.965.742 2.953 1.093a246.179 246.179 0 0 0 9.101 3.067 209.373 209.373 0 0 0 7.023 2.125c1.032.293 2.072.578 3.107.86 1.238.339 2.476.679 3.722 1 .93.237 1.864.456 2.797.683a257.74 257.74 0 0 0 7.14 1.633c.876.187 1.75.378 2.634.554 1.41.285 2.824.563 4.242.824.808.149 1.62.29 2.437.434a258.69 258.69 0 0 0 15.004 2.168c.7.082 1.399.164 2.102.238 1.582.168 3.172.325 4.765.461.633.055 1.266.102 1.899.153a264.045 264.045 0 0 0 17.855.812h5.606c.472-.004.945-.015 1.418-.023 2.844-.047 5.672-.137 8.492-.278.387-.02.777-.035 1.164-.054 3.066-.164 6.121-.375 9.156-.649l.196-.011a257.693 257.693 0 0 0 19.18-2.458c.011-.003.023-.003.03-.007a254.016 254.016 0 0 0 8.864-1.649c.504-.101 1.004-.21 1.504-.316a244.27 244.27 0 0 0 7.394-1.668c.617-.149 1.235-.297 1.848-.45a258.1 258.1 0 0 0 7.226-1.917c.532-.149 1.063-.29 1.59-.442 2.852-.82 5.684-1.676 8.492-2.59l.07-.023a252.16 252.16 0 0 0 8.813-3.055c.16-.058.32-.125.485-.183 2.574-.953 5.129-1.95 7.668-2.98.714-.294 1.43-.598 2.144-.9a250.003 250.003 0 0 0 5.945-2.566 569.81 569.81 0 0 0 2.493-1.132 279.022 279.022 0 0 0 5.562-2.649c.82-.402 1.64-.8 2.457-1.21a243.696 243.696 0 0 0 5.934-3.098c.597-.32 1.199-.625 1.793-.95.242-.133.476-.277.715-.41v-20zm0 0" fill="#edd4c2"/></svg>