<svg height="512pt" viewBox="0 0 512 512.108" width="512pt" xmlns="http://www.w3.org/2000/svg"><path d="M462.535 512.11H49.575c-27.348 0-49.52-22.173-49.52-49.52V224.855c0-27.347 22.172-49.52 49.52-49.52h412.96c27.348 0 49.52 22.173 49.52 49.52V462.59c0 27.347-22.172 49.52-49.52 49.52zm0 0" fill="#6770e6"/><path d="M462.535 175.336H49.575c-27.348 0-49.52 22.172-49.52 49.52v18.882c0-27.347 22.172-49.52 49.52-49.52h412.96c27.348 0 49.52 22.173 49.52 49.52v-18.883c0-27.347-22.172-49.52-49.52-49.52zm0 0" fill="#8f95e6"/><path d="M49.574 512.11h412.957c27.352 0 49.524-22.173 49.524-49.52v-18.887c0 27.352-22.172 49.52-49.524 49.52H49.574c-27.351 0-49.52-22.168-49.52-49.52v18.887c0 27.347 22.169 49.52 49.52 49.52zm0 0" fill="#5861c7"/><path d="M89.688 233.031c-1.399 0-2.579 1.184-2.579 2.582v50.059c0 1.398 1.18 2.582 2.579 2.582h24.203c1.402 0 2.582-1.184 2.582-2.582v-50.059c0-1.398-1.18-2.582-2.582-2.582zm-32.575 13.731H77.34v27.765H57.113zm69.129 0h20.227v27.765h-20.227zm0 0" fill="#69ebfc"/><path d="M126.242 284.297v1.379c0 6.808-5.539 12.347-12.351 12.347H89.687c-6.808 0-12.347-5.539-12.347-12.347v-1.38H57.113v7.505c0 10.812 8.762 19.578 19.575 19.578h50.203c10.812 0 19.578-8.766 19.578-19.578v-7.504zm.648-74.391H76.688c-10.812 0-19.574 8.766-19.574 19.578v7.504H77.34v-1.375c0-6.812 5.535-12.351 12.347-12.351h24.204c6.808 0 12.347 5.539 12.347 12.351v1.375h20.227v-7.504c0-10.808-8.762-19.578-19.574-19.578zm0 0" fill="#69ebfc"/><path d="M130.809 369.672h-58.04c-8.613 0-15.656-7.047-15.656-15.66s7.043-15.657 15.657-15.657h58.039c8.613 0 15.66 7.043 15.66 15.657-.004 8.613-7.047 15.66-15.66 15.66zm52.867 83.074H72.77c-8.614 0-15.657-7.043-15.657-15.656s7.043-15.656 15.657-15.656h110.906c8.61 0 15.656 7.043 15.656 15.656s-7.047 15.656-15.656 15.656zm49.976-83.074h-58.039c-8.61 0-15.656-7.047-15.656-15.66s7.047-15.657 15.656-15.657h58.04c8.613 0 15.66 7.043 15.66 15.657-.004 8.613-7.047 15.66-15.66 15.66zm102.844 0h-58.039c-8.613 0-15.66-7.047-15.66-15.66s7.047-15.657 15.66-15.657h58.04c8.612 0 15.655 7.043 15.655 15.657s-7.047 15.66-15.656 15.66zm102.844 0h-58.043c-8.61 0-15.656-7.047-15.656-15.66s7.046-15.657 15.656-15.657h58.043c8.61 0 15.656 7.043 15.656 15.657s-7.047 15.66-15.656 15.66zm0 0" fill="#8f95e6"/><path d="M406.031 437.094c0 22.336-18.11 40.441-40.445 40.441-22.336 0-40.445-18.105-40.445-40.441 0-22.34 18.109-40.446 40.445-40.446s40.445 18.106 40.445 40.446zm0 0" fill="#ff8354"/><path d="M454.996 437.094c0 22.336-18.11 40.441-40.445 40.441-22.336 0-40.442-18.105-40.442-40.441 0-22.34 18.106-40.446 40.442-40.446s40.445 18.106 40.445 40.446zm0 0" fill="#69ebfc"/><path d="M374.11 437.094c0 13.12 6.273 24.746 15.956 32.136 9.688-7.39 15.961-19.015 15.961-32.136 0-13.125-6.273-24.75-15.96-32.14-9.68 7.39-15.958 19.015-15.958 32.14zm0 0" fill="#d476e2"/><path d="M493.516 243.738h-147.77c-10.234 0-18.535-8.297-18.535-18.535v-113.71c0-10.24 8.3-18.54 18.535-18.54h147.77c10.238 0 18.539 8.3 18.539 18.54v113.71c0 10.238-8.301 18.535-18.54 18.535zM419.633 0c-35.895 0-65.094 29.203-65.094 65.098v10c0-35.895 29.2-65.098 65.094-65.098 35.89 0 65.094 29.203 65.094 65.098v-10C484.727 29.203 455.523 0 419.633 0zm0 0" fill="#69ebfc"/><path d="M449.145 149.512c0-16.301-13.211-29.512-29.512-29.512-16.301 0-29.516 13.21-29.516 29.512 0 11.261 6.313 21.043 15.582 26.02l-13.594 41.163h55.051l-13.594-41.164c9.274-4.976 15.583-14.758 15.583-26.02zM378.54 92.953V75.098c0-22.66 18.433-41.098 41.093-41.098 22.656 0 41.094 18.438 41.094 41.098v17.855h24V75.098c0-35.895-29.204-65.098-65.094-65.098-35.895 0-65.094 29.203-65.094 65.098v17.855zm0 0" fill="#5fd4e3"/></svg>