<svg height="512pt" viewBox="0 0 512 512.042" width="512pt" xmlns="http://www.w3.org/2000/svg"><path d="M477.746 0h-443.7C15.255 0 .02 15.234.02 34.023v99.801c0 18.79 15.234 34.024 34.027 34.024h310.219v35.87c0 5.66 6.843 8.493 10.843 4.493l40.364-40.363h82.273c18.79 0 34.024-15.235 34.024-34.024v-99.8C511.77 15.233 496.535 0 477.746 0zm0 0" fill="#69ebfc"/><path d="M34.047 0h443.7c18.788 0 34.023 15.23 34.023 34.023v14.223c0-18.789-15.235-34.023-34.024-34.023h-443.7C15.255 14.223.02 29.457.02 48.246V34.023C.02 15.23 15.254 0 34.047 0zm0 0" fill="#a1f1fc"/><path d="M300.324 219.89c-1.922-7.425-10.113-17.949-41.168-17.949-47.972 0-54.8 7.102-67.57-5.164-10.77-10.351-17.098 39.465-2.734 55.286-6.063 22.41-1.215 44.851-1.215 44.851h134.972s11.329-52.426-22.285-77.023zm0 0" fill="#339"/><path d="M201.27 299.273s-5.82-10.66-17.458-10.66-19.878 51.164 17.458 42.633zm107.71 0s5.82-10.66 17.458-10.66 19.878 51.164-17.458 42.633zm0 0" fill="#ffe4d1"/><path d="M255.125 230.71c-89.156 0-72.11 146.227 0 146.227 72.113 0 89.156-146.226 0-146.226zm0 0" fill="#ffefe4"/><path d="M255.125 222.754s-60.645-8.559-60.645 69.254c0 0 7.637-32.16 25.157-40.934 8.16-4.086 11.144 6.266 35.488 6.266s27.332-10.352 35.488-6.266c17.52 8.774 25.157 40.934 25.157 40.934 0-77.809-60.645-69.254-60.645-69.254zm0 0" fill="#339"/><path d="M289.777 385.215l-.195-22.125c-9.16 8.246-20.559 13.355-33.887 13.473-13.332.117-24.816-4.793-34.12-12.872l.187 21.348a12.688 12.688 0 0 1-8.735 12.168l-54.765 17.965c-16.407 5.379-27.496 20.687-27.496 37.95v58.921h250v-58.938c0-17.253-11.079-32.558-27.47-37.945l-54.792-18.004a12.692 12.692 0 0 1-8.727-11.941zm0 0" fill="#ff8354"/><path d="M253.816 445.102c28.094 0 52.055-17.637 61.457-42.434l-16.765-5.512a12.682 12.682 0 0 1-8.727-11.941l-.195-22.125c-9.16 8.242-20.559 13.355-33.89 13.469-13.329.12-24.817-4.79-34.118-12.872l.188 21.348a12.694 12.694 0 0 1-8.735 12.172l-20.21 6.629c9.702 24.184 33.343 41.266 60.995 41.266zm0 0" fill="#ffe4d1"/><path d="M130.77 498h250v14h-250zm0 0" fill="#e0734a"/><path d="M54.059 104.457l20.476 10.766c2.39 1.254 5.184-.774 4.727-3.434l-3.914-22.805 16.57-16.148c1.93-1.883.863-5.164-1.805-5.555L67.22 63.953 56.977 43.207c-1.196-2.422-4.645-2.422-5.84 0L40.898 63.953 18 67.281c-2.672.39-3.738 3.672-1.805 5.555l16.57 16.148-3.913 22.805c-.454 2.66 2.336 4.688 4.726 3.434zm100.855 0l20.48 10.766c2.387 1.254 5.18-.774 4.723-3.434l-3.914-22.805 16.57-16.148c1.93-1.883.868-5.164-1.804-5.555l-22.895-3.328-10.242-20.746c-1.191-2.422-4.644-2.422-5.84 0l-10.238 20.746-22.899 3.328c-2.671.39-3.738 3.672-1.8 5.555l16.566 16.148-3.91 22.805c-.457 2.66 2.336 4.688 4.723 3.434zm100.856 0l20.48 10.766c2.39 1.254 5.18-.774 4.723-3.434l-3.91-22.805 16.566-16.148c1.934-1.883.867-5.164-1.805-5.555l-22.894-3.328-10.242-20.746c-1.192-2.422-4.645-2.422-5.84 0l-10.239 20.746-22.894 3.328c-2.676.39-3.738 3.672-1.805 5.555l16.567 16.148-3.91 22.805c-.458 2.66 2.335 4.688 4.722 3.434zm100.855 0l20.48 10.766c2.391 1.254 5.18-.774 4.723-3.434l-3.91-22.805 16.566-16.148c1.934-1.883.868-5.164-1.804-5.555l-22.895-3.328-10.238-20.746c-1.195-2.422-4.649-2.422-5.844 0l-10.238 20.746-22.895 3.328c-2.672.39-3.738 3.672-1.804 5.555l16.566 16.148-3.91 22.805c-.457 2.66 2.336 4.688 4.723 3.434zm100.855 0l20.48 10.766c2.392 1.254 5.185-.774 4.724-3.434l-3.91-22.805 16.566-16.148c1.933-1.883.867-5.164-1.805-5.555l-22.894-3.328-10.239-20.746c-1.195-2.422-4.648-2.422-5.84 0L444.32 63.953l-22.894 3.328c-2.672.39-3.738 3.672-1.805 5.555l16.567 16.148-3.91 22.805c-.458 2.66 2.335 4.688 4.722 3.434zm0 0" fill="#ff8354"/></svg>