<svg height="512pt" viewBox="0 0 512.002 512" width="512pt" xmlns="http://www.w3.org/2000/svg"><path d="M281.535 512H41.57C18.613 512 0 493.39 0 470.43V41.574C0 18.614 18.613 0 41.57 0h239.965c22.957 0 41.57 18.613 41.57 41.574v428.852C323.11 493.39 304.496 512 281.535 512zm0 0" fill="#6770e6"/><path d="M281.535 0H41.57C18.613 0 0 18.613 0 41.574v14C0 32.614 18.613 14 41.57 14h239.965c22.957 0 41.57 18.613 41.57 41.574v-14C323.11 18.614 304.496 0 281.535 0zm0 0" fill="#8f95e6"/><path d="M41.57 512h239.965c22.957 0 41.57-18.61 41.57-41.57v-14c0 22.96-18.613 41.57-41.57 41.57H41.57C18.613 498 0 479.39 0 456.43v14C0 493.39 18.613 512 41.57 512zm0 0" fill="#5861c7"/><path d="M41.57 492C29.68 492 20 482.324 20 470.43V67.574C20 55.68 29.68 46 41.57 46h239.965c11.895 0 21.57 9.68 21.57 21.574V470.43c0 11.894-9.675 21.57-21.57 21.57zm0 0" fill="#a1f1fc"/><path d="M202.828 31.828H90.281c-4.972 0-9-4.027-9-9a9 9 0 0 1 9-9h112.547a9 9 0 1 1 0 18zm39-9a9 9 0 0 1-9 9 9 9 0 1 1 0-18c4.969 0 9 4.031 9 9zm0 0" fill="#5861c7"/><path d="M259.672 354.117l-41.848-13.75H105.41L63.457 354.13c-16.504 5.41-27.66 20.812-27.66 38.183v99.274h251.512v-99.29c.003-17.362-11.145-32.757-27.637-38.179zm0 0" fill="#5fd4e3"/><path d="M121.316 322.41h80.473v34.043h-80.473zm0 0" fill="#5fd4e3"/><path d="M175.48 390.5h-27.855l-6.188-34.047h40.235zm0 0" fill="#6770e6"/><path d="M93.46 344.074l40.24 43.332 27.855-30.953-40.239-34.043zm0 0" fill="#69ebfc"/><path d="M182.957 491.59L175.48 390.5h-27.855l-7.473 101.09zm0 0" fill="#5861c7"/><path d="M207.238 157.777c-1.937-7.504-10.222-18.14-41.61-18.14-48.487 0-55.394 7.18-68.3-5.223-10.887-10.465-17.281 39.895-2.762 55.887-6.129 22.648-1.226 45.336-1.226 45.336h136.43s11.449-52.992-22.532-77.86zm0 0" fill="#339"/><path d="M97.328 146.86c12.906 12.402 19.809 5.222 68.3 5.222 31.388 0 39.673 10.637 41.61 18.145 18.032 13.191 23.27 34.304 24.215 51.218.942-17.492-1.36-46.941-24.215-63.664-1.937-7.508-10.222-18.144-41.61-18.144-48.487 0-55.394 7.18-68.3-5.219-7.172-6.895-12.39 12.598-10.973 31.277 1.04-13.68 5.422-24.172 10.973-18.836zm0 0" fill="#5861c7"/><path d="M192.477 288.371h-61.848v41.918l30.926 26.164 30.949-26.187zm-85.36-50.351s-5.883-10.774-17.644-10.774c-11.762 0-20.098 51.715 17.644 43.094zm108.875 0s5.883-10.774 17.645-10.774 20.093 51.715-17.645 43.094zm0 0" fill="#ffe4d1"/><path d="M161.555 168.719c-90.121 0-72.89 147.804 0 147.804s90.12-147.804 0-147.804zm0 0" fill="#ffefe4"/><path d="M160.906 160.543s-61.011-8.606-61.011 69.676c0 0 7.68-32.36 25.304-41.184 8.207-4.11 11.215 6.305 35.707 6.305s27.496-10.414 35.707-6.305c17.621 8.824 25.305 41.184 25.305 41.184 0-78.281-61.012-69.676-61.012-69.676zm0 0" fill="#339"/><path d="M161.555 160.672s-61.297-8.649-61.297 70.004c0 0 7.715-32.508 25.426-41.371 8.246-4.133 11.265 6.332 35.87 6.332 24.606 0 27.63-10.461 35.876-6.332 17.707 8.863 25.425 41.37 25.425 41.37-.003-78.652-61.3-70.003-61.3-70.003zm0 0" fill="#339"/><path d="M229.645 344.074l-40.235 43.332-27.855-30.953 40.234-34.043zm0 0" fill="#69ebfc"/><path d="M243.227 281.016h-19.352a3.318 3.318 0 0 1-3.32-3.32V220.8a3.318 3.318 0 0 1 3.32-3.32h19.352a3.32 3.32 0 0 1 3.32 3.32v56.894a3.32 3.32 0 0 1-3.32 3.32zm0 0" fill="#d476e2"/><path d="M245.969 265.766v-33.04c5.613 0 10.164 4.551 10.164 10.169v12.707a10.16 10.16 0 0 1-10.164 10.164zm-172.829 0c-5.613 0-10.167-4.551-10.167-10.164v-12.707c0-5.618 4.554-10.168 10.168-10.168zm0 0" fill="#b665c2"/><path d="M95.813 281.016H76.46a3.318 3.318 0 0 1-3.32-3.32V220.8a3.318 3.318 0 0 1 3.32-3.32h19.352a3.32 3.32 0 0 1 3.32 3.32v56.894a3.32 3.32 0 0 1-3.32 3.32zm0 0" fill="#d476e2"/><path d="M237.848 217.477h-9.176c0-35.309-28.727-64.036-64.035-64.036h-9.875c-35.313 0-64.04 28.727-64.04 64.036h-9.175c0-40.368 32.844-73.211 73.21-73.211h9.88c40.367 0 73.21 32.843 73.21 73.21zm-9.172 63.539c0 18.492-15.047 33.539-33.54 33.539h-4.73a7.841 7.841 0 0 0-6.375-3.278h-11.77c-4.34 0-7.863 3.524-7.863 7.868s3.52 7.863 7.864 7.863h11.77a7.836 7.836 0 0 0 6.374-3.278h4.73c23.552 0 42.712-19.16 42.712-42.71h-9.172zm0 0" fill="#b665c2"/><path d="M477.758 61.59H302.69c-18.91 0-34.242 15.332-34.242 34.246V236.28c0 18.91 15.332 34.242 34.242 34.242h25.973v36.106c0 5.695 6.887 8.547 10.914 4.52l40.625-40.626h97.555c18.914 0 34.246-15.332 34.246-34.242V95.836C512 76.922 496.668 61.59 477.758 61.59zm0 0" fill="#d476e2"/><path d="M302.691 61.59h175.067c18.91 0 34.242 15.332 34.242 34.246v14.316c0-18.914-15.332-34.246-34.242-34.246H302.69c-18.91 0-34.242 15.332-34.242 34.246V95.836c0-18.914 15.332-34.246 34.242-34.246zm0 0" fill="#ea82fa"/><path d="M348.504 191.219c0-1.899.762-3.723 2.113-5.055 2.524-2.488 4.89-4.836 7.102-7.047l3.636-3.637c1.239-1.238 2.391-2.394 3.465-3.464 1.07-1.07 2.028-2.043 2.875-2.918a66.975 66.975 0 0 0 1.942-2.07 502.873 502.873 0 0 0 2.41-2.876c.707-.843 1.27-1.675 1.691-2.492s.746-1.637.973-2.453a10.09 10.09 0 0 0 .336-2.664c0-1.86-.735-3.48-2.195-4.863-1.47-1.38-3.47-2.07-6.004-2.07-1.864 0-4.809 1.066-6.922 3.632-1.528 1.856-4.106 2.465-6.324 1.547-3.438-1.414-4.512-5.742-2.16-8.621.996-1.223 1.968-2.148 2.644-2.688 1.574-1.27 3.45-2.312 5.621-3.128 2.168-.817 4.606-1.227 7.313-1.227 2.93 0 5.578.438 7.945 1.309 2.37.875 4.37 2.074 6.004 3.593a16.12 16.12 0 0 1 3.804 5.371c.903 2.059 1.352 4.27 1.352 6.637 0 3.61-.887 6.918-2.664 9.934a43.61 43.61 0 0 1-6.469 8.414l-7.27 7.27a808.917 808.917 0 0 1-6.507 6.425l.336.508h18.558a4.861 4.861 0 1 1 0 9.723h-26.511a7.09 7.09 0 0 1-7.094-7.09zm0 0" fill="#ffefe4"/><path d="M413.688 193.152v-5.496H393.84a6.87 6.87 0 0 1-5.703-10.699l22.207-33.016a7.835 7.835 0 0 1 14.332 4.375v29.028h2.113a5.156 5.156 0 0 1 0 10.312h-2.113v5.496a5.156 5.156 0 0 1-5.156 5.157h-.676a5.154 5.154 0 0 1-5.156-5.157zm0-36.183h-.676l-13.782 20.375h14.458zm0 0" fill="#ffefe4"/><path d="M390.223 95.043c-40.625 0-73.676 33.05-73.676 73.676 0 9.863 1.914 19.433 5.695 28.457a4.996 4.996 0 0 0 6.547 2.676 4.998 4.998 0 0 0 2.676-6.543c-3.262-7.79-4.918-16.063-4.918-24.59 0-35.114 28.566-63.676 63.676-63.676 35.113 0 63.68 28.566 63.68 63.676 0 35.113-28.567 63.68-63.68 63.68-14.946 0-29.012-5.087-40.356-14.434l13.38.058h.026a5 5 0 0 0 .024-10l-24.774-.109h-.023a4.997 4.997 0 0 0-5 4.977l-.113 24.77a5.002 5.002 0 0 0 4.976 5.023h.024a4.998 4.998 0 0 0 5-4.98l.054-12.075c13.137 10.855 29.446 16.766 46.782 16.766 40.625 0 73.675-33.055 73.675-73.68s-33.046-73.672-73.675-73.672zm0 0" fill="#ffefe4"/></svg>