<svg height="512pt" viewBox="0 0 512 512.001" width="512pt" xmlns="http://www.w3.org/2000/svg"><path d="M119.813 429H392.19c14.852 0 26.895-12.043 26.895-26.895V26.895C419.086 12.043 407.043 0 392.19 0H119.813c-14.856 0-26.899 12.043-26.899 26.895v375.21c0 14.852 12.043 26.895 26.898 26.895zm0 0" fill="#6770e6"/><path d="M392.191 0H119.813c-14.856 0-26.899 12.043-26.899 26.895v14C92.914 26.043 104.957 14 119.812 14h272.38c14.851 0 26.894 12.043 26.894 26.895v-14C419.086 12.043 407.043 0 392.19 0zm0 0" fill="#8f95e6"/><path d="M135.191 105.207h241.621c7.887 0 14.282-6.398 14.282-14.285V40.195c0-7.89-6.395-14.285-14.281-14.285H135.19c-7.89 0-14.285 6.395-14.285 14.285v50.727c0 7.887 6.395 14.285 14.285 14.285zm0 0" fill="#5861c7"/><path d="M209.012 64.09c0 8.11-6.575 14.683-14.684 14.683S179.645 72.2 179.645 64.09s6.574-14.684 14.683-14.684 14.684 6.574 14.684 14.684zm0 0" fill="#ff8354"/><path d="M352.918 72.898H244.254c-4.867 0-8.813-3.941-8.813-8.808s3.946-8.809 8.813-8.809h108.664a8.808 8.808 0 0 1 8.809 8.809 8.808 8.808 0 0 1-8.809 8.808zm0 0" fill="#6770e6"/><path d="M135.191 25.91h15.082v79.293h-15.082c-7.886 0-14.285-6.394-14.285-14.281V40.195c0-7.89 6.395-14.285 14.285-14.285zm0 0" fill="#d476e2"/><path d="M135.191 204.5h241.621c7.887 0 14.282-6.395 14.282-14.285v-50.727c0-7.886-6.395-14.281-14.281-14.281H135.19c-7.89 0-14.285 6.395-14.285 14.281v50.727c0 7.89 6.395 14.285 14.285 14.285zm0 0" fill="#5861c7"/><path d="M209.012 163.383c0 8.11-6.575 14.683-14.684 14.683s-14.683-6.574-14.683-14.683c0-8.11 6.574-14.684 14.683-14.684s14.684 6.574 14.684 14.684zm0 0" fill="#ff8354"/><path d="M352.918 172.195H244.254a8.812 8.812 0 0 1-8.813-8.812c0-4.863 3.946-8.809 8.813-8.809h108.664a8.81 8.81 0 0 1 0 17.621zm0 0" fill="#6770e6"/><path d="M135.191 125.207h15.082V204.5h-15.082c-7.886 0-14.285-6.395-14.285-14.285v-50.727c0-7.886 6.395-14.281 14.285-14.281zm0 0" fill="#d476e2"/><path d="M135.191 303.793h241.621c7.887 0 14.282-6.395 14.282-14.281v-50.727c0-7.89-6.395-14.285-14.281-14.285H135.19c-7.89 0-14.285 6.395-14.285 14.285v50.727c0 7.886 6.395 14.281 14.285 14.281zm0 0" fill="#5861c7"/><path d="M209.012 262.68c0 8.11-6.575 14.683-14.684 14.683s-14.683-6.574-14.683-14.683c0-8.11 6.574-14.688 14.683-14.688s14.684 6.578 14.684 14.688zm0 0" fill="#ff8354"/><path d="M352.918 271.488H244.254c-4.867 0-8.813-3.941-8.813-8.808 0-4.868 3.946-8.809 8.813-8.809h108.664a8.808 8.808 0 0 1 8.809 8.809 8.81 8.81 0 0 1-8.809 8.808zm0 0" fill="#6770e6"/><path d="M135.191 224.5h15.082v79.293h-15.082c-7.886 0-14.285-6.395-14.285-14.281v-50.727c0-7.89 6.395-14.285 14.285-14.285zm0 0" fill="#d476e2"/><path d="M135.191 403.09h241.621c7.887 0 14.282-6.395 14.282-14.285v-50.723c0-7.89-6.395-14.285-14.281-14.285H135.19c-7.89 0-14.285 6.394-14.285 14.285v50.723c0 7.89 6.395 14.285 14.285 14.285zm0 0" fill="#5861c7"/><path d="M209.012 361.973c0 8.109-6.575 14.683-14.684 14.683s-14.683-6.574-14.683-14.683 6.574-14.684 14.683-14.684 14.684 6.574 14.684 14.684zm0 0" fill="#ff8354"/><path d="M352.918 370.785H244.254a8.812 8.812 0 0 1-8.813-8.812c0-4.864 3.946-8.809 8.813-8.809h108.664a8.81 8.81 0 0 1 0 17.621zm0 0" fill="#6770e6"/><path d="M135.191 323.793h15.082v79.297h-15.082c-7.886 0-14.285-6.399-14.285-14.285v-50.727c0-7.887 6.395-14.285 14.285-14.285zm0 0" fill="#d476e2"/><path d="M44.242 383.617H76.54V489.29H44.242zm0 0" fill="#69ebfc"/><path d="M443.55 405.406c-26.12.621-82.152 15.434-111.542 18.383-13.418 1.344-26.555-10.336-37.84-11.672 17.926-5.05 59.297-3.3 72.781-10.27 20.074-10.378-19.183-22.066-34.031-24.816-14.844-2.754-57.441-2.82-79.516-3-22.078-.183-41.386-13.437-64.578-11.828-23.191 1.613-45.648 15.543-62.722 31.735-16.325 2.414-33.125 2.953-49.567 3.253v72.93c18.442-.351 44.367 3.387 67.375 3.027 21.645 1.36 54.574 4.086 75.223 2.739 20.644-1.352 83.402 9.91 90.402 10.254 19.3.949 147.313-40.735 171.04-51.29 23.718-10.558-10.907-30.062-37.024-29.445zm0 0" fill="#ffefe4"/><path d="M480.574 424.852c-23.722 10.554-151.738 52.234-171.039 51.289-7-.34-69.758-11.602-90.402-10.254-20.649 1.347-53.578-1.38-75.223-2.739-23.008.36-48.933-3.378-67.375-3.027v10c18.442-.351 44.367 3.387 67.375 3.027 21.645 1.36 54.574 4.086 75.223 2.739 20.644-1.352 83.402 9.91 90.402 10.254 19.3.949 147.313-40.735 171.04-51.29 8.718-3.882 9.534-8.968 5.808-13.824-1.285 1.356-3.168 2.649-5.809 3.825zm0 0" fill="#edd4c2"/><path d="M44.242 477.547H76.54v11.742H44.242zm0 0" fill="#5fd4e3"/><path d="M44.242 512H0V360.906h44.242zm0 0" fill="#6770e6"/><path d="M0 500.262h44.242V512H0zm0 0" fill="#5861c7"/><path d="M512 78c0 43.078-34.922 78-78 78s-78-34.922-78-78 34.922-78 78-78 78 34.922 78 78zm0 0" fill="#d476e2"/><path d="M433.863 7.96c41.797-.073 75.969 32.743 78.035 74.04.07-1.371.106-2.746.102-4.137C511.926 34.785 476.941-.074 433.863 0S355.926 35.059 356 78.137a77.43 77.43 0 0 0 .105 3.824c2.079-41.16 36.067-73.926 77.758-74zm0 0" fill="#ea82fa"/><path d="M480.652 67.477h-8.28a39.393 39.393 0 0 0-4.15-9.75l5.739-5.739a3.117 3.117 0 0 0 0-4.41l-10.004-10.004a3.117 3.117 0 0 0-4.41 0l-5.879 5.88a39.64 39.64 0 0 0-9.805-3.966v-8.136a3.12 3.12 0 0 0-3.117-3.122h-14.148a3.12 3.12 0 0 0-3.118 3.122v8.332a39.356 39.356 0 0 0-9.718 4.129l-5.774-5.774a3.117 3.117 0 0 0-4.41 0l-10.004 10.004a3.117 3.117 0 0 0 0 4.41l5.899 5.899a39.382 39.382 0 0 0-3.977 9.785h-8.144a3.12 3.12 0 0 0-3.118 3.12v14.145a3.12 3.12 0 0 0 3.118 3.121h8.308a39.573 39.573 0 0 0 4.125 9.743l-5.746 5.746a3.124 3.124 0 0 0 0 4.41l10.004 10.004a3.117 3.117 0 0 0 4.41 0l5.86-5.856a39.461 39.461 0 0 0 9.828 3.996v8.082a3.12 3.12 0 0 0 3.117 3.122h14.148a3.122 3.122 0 0 0 3.117-3.122v-8.253a39.51 39.51 0 0 0 9.778-4.145l5.71 5.71a3.117 3.117 0 0 0 4.41 0l10.005-10.003a3.117 3.117 0 0 0 0-4.41l-5.84-5.84a39.672 39.672 0 0 0 3.988-9.844h8.078a3.122 3.122 0 0 0 3.118-3.12V70.597a3.122 3.122 0 0 0-3.118-3.121zm-46.629 32.18c-11.941 0-21.62-9.684-21.62-21.626s9.679-21.625 21.62-21.625c11.946 0 21.625 9.684 21.625 21.625 0 11.946-9.68 21.625-21.625 21.625zm0 0" fill="#fff7f2"/></svg>