<svg height="512pt" viewBox="-47 0 511 512" width="512pt" xmlns="http://www.w3.org/2000/svg"><path d="M282.035 512H42.07C19.113 512 .5 493.387.5 470.43V41.57C.5 18.613 19.113 0 42.07 0h239.965c22.957 0 41.57 18.613 41.57 41.57v428.856c.004 22.96-18.609 41.574-41.57 41.574zm0 0" fill="#6770e6"/><path d="M282.035 0H42.07C19.113 0 .5 18.613.5 41.57v14C.5 32.613 19.113 14 42.07 14h239.965c22.957 0 41.57 18.613 41.57 41.57v-14C323.61 18.613 304.996 0 282.035 0zm0 0" fill="#8f95e6"/><path d="M42.07 512h239.965c22.957 0 41.57-18.613 41.57-41.57v-14c0 22.957-18.613 41.57-41.57 41.57H42.07C19.113 498 .5 479.387.5 456.43v14C.5 493.387 19.113 512 42.07 512zm0 0" fill="#5861c7"/><path d="M42.07 492c-11.89 0-21.57-9.68-21.57-21.57V67.57C20.5 55.68 30.18 46 42.07 46h239.965c11.895 0 21.57 9.68 21.57 21.57v402.86c0 11.89-9.675 21.57-21.57 21.57zm0 0" fill="#a1f1fc"/><path d="M203.328 31.828H90.781a9 9 0 0 1 0-18h112.547c4.969 0 9 4.031 9 9s-4.031 9-9 9zm39-9c0 4.969-4.031 9-9 9s-9-4.031-9-9 4.031-9 9-9 9 4.031 9 9zm0 0" fill="#5861c7"/><g fill="#5fd4e3"><path d="M106.043 468.281c-23.688 0-45.02-13.183-55.676-34.406-1.984-3.945-.39-8.754 3.559-10.738s8.758-.39 10.738 3.558c7.926 15.782 23.781 25.586 41.379 25.586 18.613 0 35.344-11.101 42.625-28.285 1.723-4.066 6.422-5.965 10.488-4.242a8 8 0 0 1 4.246 10.484c-9.793 23.11-32.304 38.043-57.359 38.043zM56.047 120.883a7.948 7.948 0 0 1-3.117-.637 8 8 0 0 1-4.246-10.484c9.793-23.11 32.304-38.043 57.359-38.043 20.687 0 39.98 10.265 51.61 27.465a8.007 8.007 0 0 1-2.145 11.109c-3.66 2.477-8.633 1.512-11.11-2.148-8.648-12.79-22.988-20.426-38.355-20.426-18.613 0-35.348 11.101-42.625 28.285a8.006 8.006 0 0 1-7.371 4.879zm0 0"/><path d="M106.043 430.277c-13.402 0-24.262-10.863-24.262-24.261V133.984c0-13.398 10.86-24.261 24.262-24.261 13.398 0 24.262 10.863 24.262 24.261V406.02c0 13.394-10.864 24.257-24.262 24.257zm0 0"/></g><path d="M106.043 144.23h312.012v241.993H106.043zm0 0" fill="#d476e2"/><path d="M336.531 174.23H106.043v181.993h230.488c0-28.453 23.067-51.524 51.524-51.524v-78.945c-28.457 0-51.524-23.066-51.524-51.524zm0 0" fill="#b665c2"/><path d="M249.219 272.398c-2.996-3.796-6.95-6.59-11.864-8.378v-1.07c3.665-1.79 6.723-4.403 9.184-7.845 2.457-3.44 3.688-7.71 3.688-12.804 0-3.489-.762-6.75-2.282-9.785-1.52-3.04-3.597-5.7-6.234-7.98-2.637-2.278-5.742-4.067-9.316-5.364-1.157-.418-2.348-.742-3.555-1.027V207.44a8.314 8.314 0 0 0-8.313-8.312h-1.472a8.314 8.314 0 0 0-8.313 8.312v9.79h-9.316v-9.79a8.314 8.314 0 0 0-8.313-8.312h-1.472a8.314 8.314 0 0 0-8.313 8.312v9.79h-11.734a8.314 8.314 0 0 0-8.313 8.312 8.314 8.314 0 0 0 8.313 8.312h11.734v62.747h-11.734a8.311 8.311 0 0 0 0 16.621h11.734v9.789a8.314 8.314 0 0 0 8.313 8.312h1.472a8.314 8.314 0 0 0 8.313-8.312v-9.79h9.316v9.79a8.314 8.314 0 0 0 8.313 8.312h1.472a8.314 8.314 0 0 0 8.313-8.312v-10.313a36.446 36.446 0 0 0 5.633-1.351c3.8-1.25 7.129-3.04 9.988-5.364a25.598 25.598 0 0 0 6.77-8.379c1.652-3.261 2.48-6.953 2.48-11.062 0-5.629-1.5-10.344-4.492-14.145zm-47.797-38.945h18.637c3.93 0 7.015 1.117 9.25 3.352 2.234 2.234 3.351 4.914 3.351 8.043s-1.137 5.832-3.418 8.113c-2.277 2.277-5.52 3.418-9.719 3.418h-18.097v-22.926zm30.566 59.73c-2.414 2.278-5.898 3.419-10.457 3.419h-20.11V271.93h19.575c4.824 0 8.469 1.187 10.93 3.554 2.457 2.371 3.687 5.34 3.687 8.914-.004 3.579-1.21 6.504-3.625 8.786zm0 0" fill="#ea82fa"/></svg>