<svg height="512pt" viewBox="0 0 512 512" width="512pt" xmlns="http://www.w3.org/2000/svg"><path d="M497.77 395.148H14.23c-7.859 0-14.23-6.37-14.23-14.234V14.23C0 6.371 6.371 0 14.23 0h483.536c7.859 0 14.23 6.371 14.23 14.23v366.684c.004 7.863-6.367 14.234-14.226 14.234zm0 0" fill="#6770e6"/><path d="M497.77 0H14.23C6.371 0 0 6.371 0 14.23v14C0 20.371 6.371 14 14.23 14h483.54c7.859 0 14.23 6.371 14.23 14.23v-14C512 6.371 505.629 0 497.77 0zm0 0" fill="#8f95e6"/><path d="M30 349.824v-304.5C30 36.864 36.86 30 45.324 30H466.68c8.46 0 15.324 6.86 15.324 15.324v304.5c0 8.465-6.863 15.324-15.324 15.324H45.324C36.86 365.148 30 358.29 30 349.824zm0 0" fill="#69ebfc"/><path d="M196.277 395.148h121.895v76.872H196.277zm0 0" fill="#5861c7"/><path d="M375.809 512H139.207c-11.039 0-19.988-8.95-19.988-19.988 0-11.043 8.949-19.992 19.988-19.992h236.602c11.043 0 19.992 8.949 19.992 19.992 0 11.039-8.95 19.988-19.992 19.988zm0 0" fill="#6770e6"/><path d="M375.809 498H139.207c-8.574 0-15.863-5.406-18.703-12.988a19.814 19.814 0 0 0-1.29 7c0 11.039 8.95 19.988 19.993 19.988h236.602c11.039 0 19.988-8.95 19.988-19.988a19.9 19.9 0 0 0-1.285-7c-2.836 7.582-10.13 12.988-18.703 12.988zm0 0" fill="#5861c7"/><path d="M261.031 238.535H152.082c-8.402 0-14.922-7.344-13.922-15.687l12.11-101.106a4.564 4.564 0 0 1 4.53-4.023h103.512a4.571 4.571 0 0 1 4.536 4.023l12.105 101.106c1 8.343-5.515 15.687-13.922 15.687zm0 0" fill="#6770e6"/><path d="M238.434 144.91a6 6 0 0 1-6-6v-31.879c0-14.27-11.61-25.879-25.88-25.879-14.265 0-25.874 11.61-25.874 25.88v31.878c0 3.313-2.688 6-6 6s-6-2.687-6-6v-31.879c0-20.886 16.992-37.879 37.875-37.879 20.886 0 37.879 16.993 37.879 37.88v31.878c0 3.313-2.684 6-6 6zm0 0" fill="#fff7f2"/><path d="M356.18 238.535h-99.457c-10.82 0-19.11-9.62-17.512-20.324l10.82-72.399a4.804 4.804 0 0 1 4.75-4.093h103.34a4.807 4.807 0 0 1 4.75 4.094l10.82 72.398c1.602 10.703-6.687 20.324-17.511 20.324zm0 0" fill="#d476e2"/><path d="M306.453 211.168c-15.441 0-28-12.559-28-28v-22a6 6 0 0 1 12 0v22c0 8.82 7.176 16 16 16 8.82 0 16-7.18 16-16v-22a6 6 0 0 1 12 0v22c0 15.441-12.562 28-28 28zm0 0" fill="#fff7f2"/><path d="M332.129 318.77H179.87c-13.23 0-23.957-10.727-23.957-23.958s10.727-23.957 23.957-23.957h152.26c13.23 0 23.957 10.727 23.957 23.957S345.36 318.77 332.13 318.77zm0 0" fill="#d476e2"/><path d="M354.535 327.3l19.645-3.655c2.445-.458 2.836-3.797.554-4.801l-58.203-25.625c-2.113-.93-4.261 1.222-3.336 3.336l25.625 58.207c1 2.273 4.344 1.886 4.801-.559l3.387-18.2 19.523 18.677a5.729 5.729 0 0 0 3.969 1.593 5.714 5.714 0 0 0 4.152-1.777 5.741 5.741 0 0 0-.18-8.121zm0 0" fill="#fff7f2"/></svg>