<svg height="512pt" viewBox="0 0 512 512" width="512pt" xmlns="http://www.w3.org/2000/svg"><path d="M497.77 395.148H14.23c-7.859 0-14.23-6.37-14.23-14.234V14.23C0 6.371 6.371 0 14.23 0h483.536c7.859 0 14.23 6.371 14.23 14.23v366.684c.004 7.863-6.367 14.234-14.226 14.234zm0 0" fill="#6770e6"/><path d="M497.77 0H14.23C6.371 0 0 6.371 0 14.23v14C0 20.371 6.371 14 14.23 14h483.54c7.859 0 14.23 6.371 14.23 14.23v-14C512 6.371 505.629 0 497.77 0zm0 0" fill="#8f95e6"/><path d="M30 350.914V49.191C30 38.594 38.594 30 49.191 30H462.81C473.406 30 482 38.594 482 49.191v301.723c0 7.863-6.371 14.234-14.23 14.234H44.23c-7.859 0-14.23-6.37-14.23-14.234zm0 0" fill="#69ebfc"/><path d="M196.277 395.148h121.895v76.872H196.277zm0 0" fill="#5861c7"/><path d="M375.809 512H139.207c-11.039 0-19.988-8.95-19.988-19.988 0-11.043 8.949-19.992 19.988-19.992h236.602c11.043 0 19.992 8.949 19.992 19.992 0 11.039-8.95 19.988-19.992 19.988zm0 0" fill="#6770e6"/><path d="M375.809 498H139.207c-8.574 0-15.863-5.406-18.703-12.988a19.814 19.814 0 0 0-1.29 7c0 11.039 8.95 19.988 19.993 19.988h236.602c11.039 0 19.988-8.95 19.988-19.988a19.9 19.9 0 0 0-1.285-7c-2.836 7.582-10.13 12.988-18.703 12.988zm0 0" fill="#5861c7"/><path d="M423.215 319.762H88.735c-9.95 0-18.016-8.067-18.016-18.016v-122.2c0-9.948 8.066-18.015 18.015-18.015h334.48c9.95 0 18.016 8.067 18.016 18.016v122.2c0 9.948-8.066 18.015-18.015 18.015zm0 0" fill="#d476e2"/><path d="M103.121 319.762H88.734c-9.949 0-18.015-8.067-18.015-18.016v-122.2c0-9.948 8.066-18.015 18.015-18.015h14.387zm0 0" fill="#b665c2"/><path d="M148.691 279.465c-5.464-.805-10.328-2.914-14.593-6.344-2.489-2-4.559-4.504-6.211-7.52-2.008-3.656-.442-8.253 3.422-9.831 3.07-1.254 6.668-.192 8.382 2.652a18.99 18.99 0 0 0 1.903 2.617c1.96 2.297 4.328 3.883 7.097 4.754v-20.77l-.976-.441a49.629 49.629 0 0 1-7.598-3.61c-2.367-1.378-4.449-2.988-6.23-4.808a21.415 21.415 0 0 1-4.266-6.176c-1.062-2.297-1.594-4.867-1.594-7.71 0-2.626.48-5.102 1.422-7.438a19.18 19.18 0 0 1 4.11-6.23c1.785-1.82 3.949-3.337 6.504-4.54 2.55-1.203 5.425-1.98 8.632-2.351v-4.535a4.865 4.865 0 1 1 9.73 0v4.754c2.919.437 5.458 1.203 7.602 2.296a26.358 26.358 0 0 1 5.582 3.778c.61.539 1.2 1.183 1.758 1.879 2.762 3.457 1.36 8.625-2.683 10.43-2.77 1.234-5.957.46-7.996-1.786-1.07-1.176-2.477-2.332-4.262-3.148v19.57c3.14 1.316 5.976 2.664 8.535 4.05 2.547 1.388 4.734 2.95 6.559 4.704 1.828 1.746 3.207 3.734 4.152 5.953.953 2.227 1.422 4.797 1.422 7.711 0 3.281-.563 6.2-1.692 8.746-1.132 2.555-2.64 4.742-4.539 6.563a22.218 22.218 0 0 1-6.613 4.375 32.492 32.492 0 0 1-7.82 2.293v4.757c0 2.688-2.18 4.864-4.868 4.864s-4.867-2.176-4.867-4.864v-4.644zm-7.207-57.188c0 1.75.563 3.262 1.692 4.536 1.133 1.28 2.969 2.574 5.52 3.886v-15.965c-2.188.582-3.93 1.528-5.247 2.84-1.316 1.317-1.965 2.883-1.965 4.703zm23.618 35.211c0-1.894-.508-3.465-1.54-4.703-1.019-1.242-2.726-2.476-5.136-3.719v16.727c1.972-.652 3.574-1.691 4.816-3.113 1.235-1.422 1.86-3.153 1.86-5.192zM341.793 218H203.648c-4.07 0-7.37-3.3-7.37-7.375 0-4.07 3.3-7.371 7.37-7.371h138.145c4.07 0 7.371 3.3 7.371 7.371a7.368 7.368 0 0 1-7.371 7.375zm56.75 29.277H203.648a7.375 7.375 0 0 1-7.37-7.375c0-4.074 3.3-7.375 7.37-7.375h194.895a7.374 7.374 0 0 1 7.375 7.375c.004 4.07-3.3 7.375-7.375 7.375zm0 30.766H203.648a7.375 7.375 0 0 1 0-14.75h194.895a7.376 7.376 0 0 1 7.375 7.375c.004 4.07-3.3 7.375-7.375 7.375zm0 0" fill="#ffefe4"/><path d="M83.45 87.715v14.21h19.6a4.961 4.961 0 0 1 4.966 4.962v1.027a4.965 4.965 0 0 1-4.965 4.965H83.449v14.21h22.344a4.965 4.965 0 0 1 4.965 4.966v1.027a4.965 4.965 0 0 1-4.965 4.965H75.578a3.69 3.69 0 0 1-3.687-3.692v-53.91a3.687 3.687 0 0 1 3.687-3.687h30.211a4.961 4.961 0 0 1 4.965 4.96v1.028a4.965 4.965 0 0 1-4.965 4.965H83.45zm41.515 18.832h19.09a4.965 4.965 0 0 1 4.965 4.965 4.961 4.961 0 0 1-4.965 4.96h-19.09a4.961 4.961 0 0 1-4.965-4.96 4.965 4.965 0 0 1 4.965-4.965zm84.387 17.663c2.441 2.317 2.37 6.302-.243 8.427a29.557 29.557 0 0 1-6.25 3.914c-4.105 1.91-8.703 2.867-13.78 2.867-4.567 0-8.802-.828-12.712-2.484-3.91-1.657-7.293-3.907-10.144-6.762-2.852-2.852-5.11-6.234-6.762-10.145-1.656-3.906-2.484-8.117-2.484-12.625 0-4.507.828-8.715 2.484-12.625 1.652-3.91 3.91-7.293 6.762-10.144 2.851-2.852 6.234-5.11 10.144-6.762 3.91-1.656 8.145-2.484 12.711-2.484 4.906 0 9.23.855 12.969 2.566a29.264 29.264 0 0 1 5.129 3.024c2.797 2.058 3.031 6.18.535 8.597-1.973 1.91-5.05 2.149-7.238.492a21.153 21.153 0 0 0-2.88-1.84c-2.37-1.253-5.179-1.882-8.433-1.882-2.851 0-5.535.504-8.047 1.5-2.511 1-4.691 2.41-6.547 4.238-1.855 1.824-3.324 4.035-4.41 6.633-1.082 2.597-1.625 5.492-1.625 8.687 0 3.2.543 6.094 1.625 8.692 1.086 2.597 2.555 4.804 4.41 6.633 1.856 1.828 4.036 3.238 6.547 4.238s5.196 1.496 8.047 1.496c3.426 0 6.465-.7 9.117-2.098a20.86 20.86 0 0 0 3.551-2.363c2.219-1.824 5.426-1.773 7.512.207zm18.421-47.452h1.625a4.961 4.961 0 0 1 4.965 4.96v19.52h25.77v-19.52a4.961 4.961 0 0 1 4.965-4.96h1.625a4.961 4.961 0 0 1 4.965 4.96v51.364a4.965 4.965 0 0 1-4.965 4.965h-1.625a4.965 4.965 0 0 1-4.965-4.965v-20.883h-25.77v20.887a4.964 4.964 0 0 1-4.965 4.96h-1.625a4.964 4.964 0 0 1-4.964-4.96V81.723a4.965 4.965 0 0 1 4.964-4.965zm67.797 10.957v14.21h19.602a4.961 4.961 0 0 1 4.965 4.962v1.027a4.965 4.965 0 0 1-4.965 4.965H295.57v14.21h22.344a4.965 4.965 0 0 1 4.965 4.966v1.027a4.965 4.965 0 0 1-4.965 4.965h-30.21a3.688 3.688 0 0 1-3.688-3.692v-53.91a3.684 3.684 0 0 1 3.687-3.687h30.211a4.961 4.961 0 0 1 4.965 4.96v1.028a4.965 4.965 0 0 1-4.965 4.965H295.57zm85.582 36.495c2.446 2.317 2.371 6.302-.242 8.427a29.53 29.53 0 0 1-6.246 3.914c-4.11 1.91-8.703 2.867-13.781 2.867-4.57 0-8.809-.828-12.711-2.484-3.91-1.653-7.293-3.907-10.145-6.762-2.855-2.852-5.109-6.234-6.761-10.145-1.66-3.906-2.485-8.117-2.485-12.625 0-4.507.824-8.715 2.485-12.625 1.652-3.91 3.906-7.293 6.761-10.144 2.852-2.852 6.235-5.11 10.145-6.762 3.906-1.656 8.14-2.484 12.71-2.484 4.907 0 9.231.855 12.97 2.566a29.09 29.09 0 0 1 5.125 3.024c2.8 2.058 3.035 6.18.539 8.597-1.973 1.91-5.051 2.149-7.239.489a21.51 21.51 0 0 0-2.879-1.836c-2.367-1.254-5.18-1.883-8.433-1.883-2.856 0-5.531.504-8.043 1.5-2.516 1-4.695 2.41-6.55 4.238-1.856 1.824-3.325 4.035-4.407 6.633-1.086 2.597-1.63 5.492-1.63 8.687 0 3.2.544 6.094 1.63 8.692 1.082 2.597 2.555 4.804 4.406 6.633 1.856 1.828 4.035 3.238 6.55 4.238 2.513 1 5.188 1.496 8.044 1.496 3.426 0 6.465-.7 9.12-2.098a20.83 20.83 0 0 0 3.548-2.363c2.219-1.824 5.426-1.773 7.512.203zm18.426-47.452h1.629a4.961 4.961 0 0 1 4.965 4.96v21.317h.683l20.938-24.539a4.97 4.97 0 0 1 3.777-1.742l1.996.117c3.938.23 5.887 4.887 3.293 7.856l-15.796 18.05 19.312 27.825c2.184 3.14-.066 7.445-3.895 7.445a9.704 9.704 0 0 1-7.957-4.152l-15.335-21.958-7.016 8.133v13.008a4.965 4.965 0 0 1-4.965 4.965h-1.629a4.965 4.965 0 0 1-4.965-4.965V81.723a4.965 4.965 0 0 1 4.965-4.965zm0 0" fill="#d476e2"/></svg>