<svg height="512pt" viewBox="0 0 512 512" width="512pt" xmlns="http://www.w3.org/2000/svg"><path d="M437.727 235.672c-8.375 0-15.872-5.875-17.618-14.395-15.914-77.765-85.175-134.21-164.691-134.21-64.86 0-124.61 37.945-152.223 96.667-4.23 8.996-14.957 12.86-23.949 8.633-8.992-4.23-12.86-14.953-8.629-23.949 33.52-71.29 106.059-117.352 184.801-117.352 96.539 0 180.633 68.551 199.96 162.993 1.993 9.742-4.288 19.25-14.026 21.246-1.215.246-2.43.367-3.625.367zm0 0" fill="#ff8354"/><path d="M86.773 193.559a17.994 17.994 0 0 1-17.726-14.875l-13.098-74.282c-1.726-9.789 4.809-19.125 14.598-20.851 9.793-1.727 19.129 4.808 20.851 14.597l9.973 56.559 56.559-9.973c9.789-1.722 19.125 4.809 20.851 14.602 1.727 9.789-4.812 19.125-14.601 20.851l-74.282 13.098a17.921 17.921 0 0 1-3.125.274zm0 0" fill="#ff8354"/><path d="M69.61 180.926c.206.73.44 1.453.738 2.152a.91.91 0 0 0 .043-.11 18.362 18.362 0 0 1-.782-2.042zm385.769 33.133C436.055 119.617 351.957 51.066 255.422 51.066c-62.262 0-120.621 28.817-158.902 76.11l2.03 11.511c38.298-45.816 95.708-73.62 156.872-73.62 95.215 0 178.277 66.703 199.082 159.144a17.901 17.901 0 0 0 .875-10.152zM68.887 177.79l.156.894c.012.054.027.105.035.156zm4.308-80.243c8.114-1.367 15.914 2.48 19.688 9.023l-1.485-8.422c-1.722-9.789-11.062-16.324-20.851-14.597-9.79 1.726-16.328 11.062-14.598 20.851l1.758 9.985c.418-8.207 6.684-15.352 15.488-16.84zm0 0" fill="#ffac8c"/><path d="M256 460.105c-96.54 0-180.633-68.546-199.96-162.992-1.993-9.738 4.288-19.25 14.026-21.242 9.735-1.992 19.25 4.285 21.243 14.024 15.914 77.765 85.175 134.21 164.695 134.21 64.86 0 124.61-37.945 152.219-96.667 4.23-9 14.957-12.86 23.949-8.633 8.996 4.23 12.86 14.953 8.629 23.949C407.28 414.043 334.742 460.105 256 460.105zm0 0" fill="#ff8354"/><path d="M412.871 372.484c-38.3 45.82-95.71 73.621-156.871 73.621-95.215 0-178.281-66.699-199.086-159.14a17.931 17.931 0 0 0-.875 10.148c19.328 94.446 103.422 162.992 199.957 162.992 62.262 0 120.621-28.812 158.902-76.105zm28.929-42.265a17.711 17.711 0 0 0-.73-2.125.928.928 0 0 1-.043.105c.293.653.559 1.324.774 2.02zm0 0" fill="#e0734a"/><path d="M263.828 380.086C263.828 452.94 204.77 512 131.914 512 59.06 512 0 452.941 0 380.086c0-72.856 59.059-131.914 131.914-131.914 72.856 0 131.914 59.058 131.914 131.914zm0 0" fill="#69ebfc"/><path d="M131.914 267.27c69.64 0 126.633 53.972 131.531 122.367.227-3.16.383-6.336.383-9.551 0-72.856-59.058-131.914-131.914-131.914C59.06 248.172 0 307.23 0 380.086c0 3.215.156 6.39.383 9.55C5.28 321.243 62.277 267.27 131.914 267.27zm0 0" fill="#a1f1fc"/><path d="M131.914 492.902c-69.64 0-126.633-53.972-131.531-122.367-.227 3.16-.383 6.336-.383 9.55C0 452.942 59.059 512 131.914 512c72.856 0 131.914-59.059 131.914-131.914 0-3.215-.156-6.39-.383-9.55-4.898 68.394-61.89 122.366-131.53 122.366zm0 0" fill="#5fd4e3"/><path d="M223.238 380.086c0 50.437-40.886 91.324-91.324 91.324S40.59 430.523 40.59 380.086s40.887-91.324 91.324-91.324 91.324 40.886 91.324 91.324zm0 0" fill="#5fd4e3"/><path d="M125.23 440.563c-8.632-1.266-16.316-4.602-23.054-10.02-3.934-3.156-7.203-7.117-9.817-11.879-3.171-5.777-.695-13.043 5.407-15.535 4.851-1.984 10.539-.3 13.246 4.187a30.114 30.114 0 0 0 3.004 4.137c3.101 3.629 6.84 6.137 11.214 7.512v-32.82l-1.539-.696c-4.261-1.61-8.27-3.504-12.007-5.703-3.743-2.18-7.028-4.719-9.844-7.594a33.818 33.818 0 0 1-6.742-9.761c-1.676-3.63-2.52-7.688-2.52-12.184 0-4.14.758-8.059 2.25-11.746a30.273 30.273 0 0 1 6.488-9.844c2.82-2.879 6.239-5.273 10.282-7.172 4.023-1.902 8.57-3.136 13.632-3.715v-7.167a7.69 7.69 0 0 1 15.38 0v7.511c4.609.688 8.617 1.903 12.007 3.63 3.403 1.73 6.313 3.741 8.82 5.96.961.856 1.895 1.875 2.774 2.973 4.363 5.465 2.148 13.629-4.238 16.48-4.375 1.95-9.41.73-12.633-2.82-1.692-1.86-3.91-3.688-6.73-4.977v30.926c4.96 2.078 9.44 4.211 13.48 6.399 4.023 2.187 7.48 4.66 10.363 7.425 2.887 2.758 5.067 5.903 6.559 9.41 1.508 3.524 2.246 7.579 2.246 12.184 0 5.184-.887 9.793-2.664 13.816-1.797 4.036-4.18 7.489-7.18 10.368-3.004 2.882-6.473 5.187-10.45 6.918a51.47 51.47 0 0 1-12.359 3.62v7.512a7.687 7.687 0 0 1-7.687 7.688 7.687 7.687 0 0 1-7.688-7.688zm-11.382-90.352c0 2.766.886 5.156 2.664 7.168 1.793 2.02 4.695 4.066 8.718 6.14v-25.222c-3.453.922-6.203 2.414-8.28 4.484-2.083 2.078-3.102 4.555-3.102 7.43zm37.308 55.633c0-2.996-.8-5.477-2.43-7.43-1.609-1.96-4.312-3.918-8.117-5.879v26.43c3.121-1.031 5.653-2.672 7.614-4.922 1.945-2.246 2.933-4.98 2.933-8.2zm0 0" fill="#a1f1fc"/><path d="M512 131.914c0 72.856-59.059 131.914-131.914 131.914-72.856 0-131.914-59.058-131.914-131.914C248.172 59.06 307.23 0 380.086 0 452.94 0 512 59.059 512 131.914zm0 0" fill="#d476e2"/><path d="M380.086 19.098c69.64 0 126.633 53.972 131.531 122.367.227-3.16.383-6.336.383-9.55C512 59.058 452.941 0 380.086 0 307.23 0 248.172 59.059 248.172 131.914c0 3.215.156 6.39.383 9.55 4.898-68.394 61.89-122.366 131.53-122.366zm0 0" fill="#ea82fa"/><path d="M380.086 244.73c-69.64 0-126.633-53.972-131.531-122.367-.227 3.16-.383 6.336-.383 9.551 0 72.856 59.058 131.914 131.914 131.914C452.94 263.828 512 204.77 512 131.914c0-3.215-.156-6.39-.383-9.55-4.898 68.394-61.894 122.366-131.531 122.366zm0 0" fill="#b665c2"/><path d="M471.41 131.914c0 50.438-40.887 91.324-91.324 91.324s-91.324-40.886-91.324-91.324 40.886-91.324 91.324-91.324 91.324 40.887 91.324 91.324zm0 0" fill="#b665c2"/><path d="M331.871 110.934h8.594c1.98-5.727 4.734-10.93 8.258-15.618 3.523-4.68 7.629-8.699 12.312-12.058 4.68-3.36 9.91-5.95 15.695-7.77 5.782-1.816 11.977-2.722 18.586-2.722 5.34 0 10.442.75 15.305 2.257 6.086 1.883 8.86 8.93 5.668 14.442a10.655 10.655 0 0 1-12.11 4.914l-.19-.055c-2.59-.715-5.427-1.07-8.509-1.07-6.605 0-12.695 1.543-18.253 4.625-5.567 3.086-9.942 7.433-13.137 13.055h25.61a7.763 7.763 0 0 1 7.765 7.765 7.768 7.768 0 0 1-7.766 7.766h-30.566c-.11.77-.192 1.652-.246 2.644a47.5 47.5 0 0 0-.086 2.805c0 .992.027 1.984.086 2.977.054.992.136 1.816.246 2.476h30.566a7.765 7.765 0 0 1 7.766 7.766 7.765 7.765 0 0 1-7.766 7.765h-25.61c3.196 5.622 7.571 9.973 13.138 13.055 5.558 3.086 11.648 4.625 18.253 4.625 4.184 0 7.793-.492 10.825-1.484.129-.043.257-.086.39-.133 4.977-1.688 10.434.422 12.735 5.148 2.73 5.61-.121 12.375-6.063 14.278a50.41 50.41 0 0 1-3.347.945c-4.739 1.156-9.641 1.734-14.704 1.734-6.609 0-12.804-.91-18.59-2.726-5.78-1.817-11.015-4.403-15.695-7.766-4.683-3.36-8.785-7.379-12.308-12.062-3.528-4.68-6.278-9.883-8.262-15.614h-8.59a7.765 7.765 0 0 1-7.766-7.765 7.763 7.763 0 0 1 7.766-7.766h5.617a31.092 31.092 0 0 1-.25-2.644 51.122 51.122 0 0 1-.082-2.813c0-.879.028-1.816.082-2.805.055-.992.137-1.875.25-2.644h-5.617a7.765 7.765 0 0 1-7.766-7.766 7.762 7.762 0 0 1 7.766-7.761zm0 0" fill="#ea82fa"/><path d="M437.723 427.902c-8.57 0-16.164-6.14-17.703-14.875l-9.973-56.554-56.555 9.972c-9.789 1.73-19.125-4.808-20.851-14.597-1.727-9.793 4.808-19.13 14.597-20.856l74.285-13.097c9.79-1.723 19.125 4.812 20.852 14.601l13.098 74.281c1.726 9.79-4.813 19.125-14.602 20.852-1.058.184-2.11.273-3.148.273zm0 0" fill="#ff8354"/><path d="M455.473 406.773l-.86-4.878c-2.293 5.914-7.886 10.562-15.12 11.73a21.474 21.474 0 0 1-3.442.277c-7.555 0-14.41-4.004-17.664-10.132l1.633 9.253c1.539 8.735 9.132 14.875 17.707 14.875 1.039 0 2.09-.09 3.148-.273 9.785-1.727 16.324-11.062 14.598-20.852zm0 0" fill="#e0734a"/></svg>