<svg height="512pt" viewBox="0 0 512 512" width="512pt" xmlns="http://www.w3.org/2000/svg"><path d="M347.457 461.3H41.473c-12.188 0-22.067-9.878-22.067-22.066V199.328h328.051zm0 0" fill="#5861c7"/><path d="M347.457 461.3h142.48c12.184 0 22.063-9.878 22.063-22.066v-63.601a22.06 22.06 0 0 0-1.906-8.977L460.105 254.43a22.072 22.072 0 0 0-20.156-13.086h-92.488V461.3zm0 0" fill="#d476e2"/><path d="M463.387 261.805h-82.422c-6.211 0-11.25 5.035-11.25 11.246v80.09c0 6.214 5.039 11.25 11.25 11.25h128.113zm35.801 165.047H512V387.82h-12.813c-10.78 0-19.515 8.739-19.515 19.516 0 10.777 8.734 19.516 19.515 19.516zm-466.965 0H19.41V387.82h12.813c10.78 0 19.515 8.739 19.515 19.516 0 10.777-8.738 19.516-19.515 19.516zm0 0" fill="#69ebfc"/><path d="M167.11 461.3c0 28-22.7 50.7-50.704 50.7-28 0-50.699-22.7-50.699-50.7s22.7-50.698 50.7-50.698c28.003 0 50.702 22.699 50.702 50.699zm0 0" fill="#339"/><path d="M142.543 461.3c0 14.434-11.703 26.134-26.137 26.134s-26.133-11.7-26.133-26.133c0-14.434 11.7-26.137 26.133-26.137s26.137 11.703 26.137 26.137zm0 0" fill="#6770e6"/><path d="M471.117 461.3c0 28-22.699 50.7-50.703 50.7-28 0-50.7-22.7-50.7-50.7s22.7-50.698 50.7-50.698c28.004 0 50.703 22.699 50.703 50.699zm0 0" fill="#339"/><path d="M116.406 500c-25.969 0-47.363-19.531-50.332-44.7a51.548 51.548 0 0 0-.367 6c0 28 22.7 50.7 50.7 50.7s50.702-22.7 50.702-50.7c0-2.03-.136-4.03-.367-6-2.969 25.169-24.363 44.7-50.336 44.7zm304.008 0c-25.969 0-47.363-19.531-50.332-44.7a51.548 51.548 0 0 0-.367 6c0 28 22.7 50.7 50.7 50.7s50.702-22.7 50.702-50.7c0-2.03-.137-4.03-.367-6-2.969 25.169-24.363 44.7-50.336 44.7zm0 0" fill="#29297a"/><path d="M446.55 461.3c0 14.434-11.702 26.134-26.136 26.134-14.43 0-26.133-11.7-26.133-26.133 0-14.434 11.703-26.137 26.133-26.137 14.434 0 26.137 11.703 26.137 26.137zm-95.323-326.34H15.64C7.004 134.96 0 141.966 0 150.606v33.083c0 8.636 7.004 15.64 15.64 15.64h335.587c8.636 0 15.64-7.004 15.64-15.64v-33.083c0-8.64-7.004-15.644-15.64-15.644zm0 0" fill="#6770e6"/><path d="M351.227 134.96H15.64C7.004 134.96 0 141.966 0 150.606v15.833c0-8.641 7.004-15.645 15.64-15.645h335.587c8.636 0 15.64 7.004 15.64 15.644v-15.832c0-8.64-7.004-15.644-15.64-15.644zm0 0" fill="#8f95e6"/><path d="M242.594 266.422H124.277c-8.5 0-15.394-6.895-15.394-15.395s6.894-15.39 15.394-15.39h118.317c8.5 0 15.39 6.89 15.39 15.39 0 8.504-6.89 15.395-15.39 15.395zm0 0" fill="#339"/><path d="M102.965 21.313h21.3v26.644h-21.3zm93.953 64.91l-15.063-15.07 16.579-16.587a3.176 3.176 0 0 1 4.5 0l10.562 10.567a3.183 3.183 0 0 1 0 4.5zm-166.605 0l15.066-15.07L28.8 54.565a3.18 3.18 0 0 0-4.504 0L13.734 65.133a3.183 3.183 0 0 0 0 4.5zm0 0" fill="#5fd4e3"/><path d="M227.23 152.746c0-62.777-50.867-113.672-113.613-113.672C50.867 39.074 0 89.97 0 152.746c0 62.781 50.867 113.676 113.617 113.676 62.746 0 113.613-50.895 113.613-113.676zm0 0" fill="#69ebfc"/><path d="M206.816 152.746c0-51.496-41.726-93.246-93.199-93.246-51.472 0-93.203 41.75-93.203 93.246 0 51.5 41.73 93.25 93.203 93.25 51.473 0 93.2-41.75 93.2-93.25zm0 0" fill="#ffefe4"/><path d="M133.512 21.313H93.719a3.184 3.184 0 0 1-3.184-3.184V3.184A3.187 3.187 0 0 1 93.72 0h39.793a3.184 3.184 0 0 1 3.183 3.184v14.949a3.183 3.183 0 0 1-3.183 3.18zm0 0" fill="#69ebfc"/><path d="M133.512 0H93.719a3.18 3.18 0 0 0-3.18 3.184v10.41a3.184 3.184 0 0 1 3.18-3.188h39.793a3.187 3.187 0 0 1 3.183 3.188V3.184A3.184 3.184 0 0 0 133.512 0zm0 0" fill="#a1f1fc"/><path d="M113.617 152.746V72.891c-44.082 0-79.816 35.754-79.816 79.855 0 44.106 35.734 79.86 79.816 79.86 22.047 0 42.008-8.946 56.45-23.407zm0 0" fill="#ff8354"/></svg>