<svg height="512pt" viewBox="0 0 512 512" width="512pt" xmlns="http://www.w3.org/2000/svg"><path d="M483.246 512H28.754C12.875 512 0 499.125 0 483.246V28.754C0 12.875 12.875 0 28.754 0h454.488C499.125 0 512 12.875 512 28.754v454.488C512 499.125 499.125 512 483.246 512zm0 0" fill="#f7ddca"/><path d="M483.246 498H28.754C12.875 498 0 485.125 0 469.246v14C0 499.125 12.875 512 28.754 512h454.488c15.883 0 28.754-12.875 28.754-28.754v-14C512 485.125 499.125 498 483.246 498zm0 0" fill="#dbc4b4"/><path d="M483.246 0H28.754C12.875 0 0 12.875 0 28.754v14C0 26.875 12.875 14 28.754 14h454.488C499.125 14 512 26.875 512 42.754v-14C512 12.875 499.125 0 483.246 0zm0 0" fill="#ffefe4"/><path d="M296.523 80.586H276.81L258.602 68.71l-15.09 11.875-15.086-11.875-12.95 11.875V0h81.047zm0 0" fill="#ff8354"/><path d="M215.477 0h81.046v14h-81.046zm0 0" fill="#ffac8c"/><path d="M26.203 414.34h142.223v51.848H26.203zm0 0" fill="#fff7f2"/><path d="M152.996 429.77v20.984H41.636V429.77zm0 0" fill="#edd4c2"/><path d="M283.469 130.777l-16.785 32.72h25.566l-47.258 72.769 14.696-55.07H230.3l15.734-50.419h-64.68v95.551c0 37.106 27.079 67.871 62.547 73.652v57.047h-32.816v24.192h89.828v-24.192h-32.816V299.98c35.468-5.78 62.547-36.546 62.547-73.652v-95.55zm0 0" fill="#ff8354"/></svg>