<svg height="512pt" viewBox="0 0 512 512" width="512pt" xmlns="http://www.w3.org/2000/svg"><path d="M200.898 90.898l-9.578 7.403c-4.582-4.68-7.8-9.742-9.082-15.32-1.597-6.88-.078-13.782 4.524-20.52a13.577 13.577 0 0 0 9.976 6.66c-2.718 3.957-3.636 7.617-2.816 11.16.84 3.598 3.34 7.16 6.976 10.617zm0 0" fill="#6770e6"/><path d="M286.14 144.238l-11 4.782c-2.46-5.66-20.3-14.2-34.64-21.06-18.781-8.98-38.02-18.198-49.18-29.66l9.578-7.402c10.082 9.641 28.864 18.622 44.782 26.243 20.242 9.68 36.218 17.34 40.46 27.097zm32.462-6.098l-8.32 8.66a821.26 821.26 0 0 1-5.923-5.84c-34.64-34.401-61.418-57.179-80.078-68.14-6.5-3.82-12.02-6.199-16.543-7.12-1.816-.4-3.457-.54-4.957-.462-2.84.16-4.101 1.32-4.883 2.301a24.93 24.93 0 0 0-1.16 1.582 13.577 13.577 0 0 1-9.976-6.66c.539-.8 1.117-1.582 1.738-2.36 3.262-4.14 7.96-6.5 13.578-6.84 3.063-.183 6.442.239 10.043 1.239 6.36 1.719 13.5 5.14 21.117 9.8 24.5 15 54.043 42.802 79.582 68.141 2.442 2.438 4.399 4.38 5.782 5.7zm0 0" fill="#6770e6"/><path d="M347.457 461.3H41.473c-12.188 0-22.067-9.878-22.067-22.066V199.328h328.051zm0 0" fill="#5861c7"/><path d="M347.457 461.3h142.48c12.184 0 22.063-9.878 22.063-22.066v-63.601a22.06 22.06 0 0 0-1.906-8.977L460.105 254.43a22.072 22.072 0 0 0-20.156-13.086h-92.488V461.3zm0 0" fill="#d476e2"/><path d="M463.387 261.805h-82.422c-6.211 0-11.25 5.035-11.25 11.246v80.09c0 6.214 5.039 11.25 11.25 11.25h128.113zm35.801 165.047H512V387.82h-12.813c-10.78 0-19.515 8.739-19.515 19.516 0 10.777 8.734 19.516 19.515 19.516zm-466.965 0H19.41V387.82h12.813c10.78 0 19.515 8.739 19.515 19.516 0 10.777-8.738 19.516-19.515 19.516zm0 0" fill="#69ebfc"/><path d="M167.11 461.3c0 28-22.7 50.7-50.704 50.7-28 0-50.699-22.7-50.699-50.7s22.7-50.698 50.7-50.698c28.003 0 50.702 22.699 50.702 50.699zm0 0" fill="#339"/><path d="M142.543 461.3c0 14.434-11.703 26.134-26.137 26.134s-26.133-11.7-26.133-26.133c0-14.434 11.7-26.137 26.133-26.137s26.137 11.703 26.137 26.137zm0 0" fill="#6770e6"/><path d="M471.117 461.3c0 28-22.699 50.7-50.703 50.7-28 0-50.7-22.7-50.7-50.7s22.7-50.698 50.7-50.698c28.004 0 50.703 22.699 50.703 50.699zm0 0" fill="#339"/><path d="M116.406 500c-25.969 0-47.363-19.531-50.332-44.7a51.548 51.548 0 0 0-.367 6c0 28 22.7 50.7 50.7 50.7s50.702-22.7 50.702-50.7c0-2.03-.136-4.03-.367-6-2.969 25.169-24.363 44.7-50.336 44.7zm304.008 0c-25.969 0-47.363-19.531-50.332-44.7a51.548 51.548 0 0 0-.367 6c0 28 22.7 50.7 50.7 50.7s50.702-22.7 50.702-50.7c0-2.03-.137-4.03-.367-6-2.969 25.169-24.363 44.7-50.336 44.7zm0 0" fill="#29297a"/><path d="M446.55 461.3c0 14.434-11.702 26.134-26.136 26.134-14.43 0-26.133-11.7-26.133-26.133 0-14.434 11.703-26.137 26.133-26.137 14.434 0 26.137 11.703 26.137 26.137zm-95.323-326.34H15.64C7.004 134.96 0 141.966 0 150.606v33.083c0 8.636 7.004 15.64 15.64 15.64h335.587c8.636 0 15.64-7.004 15.64-15.64v-33.083c0-8.64-7.004-15.644-15.64-15.644zm0 0" fill="#6770e6"/><path d="M351.227 134.96H15.64C7.004 134.96 0 141.966 0 150.606v15.833c0-8.641 7.004-15.645 15.64-15.645h335.587c8.636 0 15.64 7.004 15.64 15.644v-15.832c0-8.64-7.004-15.644-15.64-15.644zm0 0" fill="#8f95e6"/><path d="M242.594 266.422H124.277c-8.5 0-15.394-6.895-15.394-15.395s6.894-15.39 15.394-15.39h118.317c8.5 0 15.39 6.89 15.39 15.39 0 8.504-6.89 15.395-15.39 15.395zm0 0" fill="#339"/><path d="M228.82 41.941l-48.1-37.18A22.915 22.915 0 0 0 166.739 0H19.678C8.802 0 0 8.8 0 19.68v71.922c0 10.859 8.8 19.68 19.68 19.68h147.058c5.063 0 9.98-1.68 13.98-4.782l10.602-8.2c-4.582-4.679-7.8-9.741-9.082-15.32-1.597-6.878-.078-13.78 4.524-20.52-1.184-2-1.84-4.339-1.84-6.82 0-7.538 6.098-13.64 13.637-13.64 7.14 0 13 5.5 13.562 12.5.04.379.059.762.059 1.14 0 3.981-1.72 7.579-4.442 10.06a13.534 13.534 0 0 1-9.18 3.562 11.29 11.29 0 0 1-1.82-.14c-2.718 3.956-3.636 7.616-2.816 11.16.84 3.597 3.34 7.16 6.976 10.616l23.383-18.078 4.54-3.5a17.469 17.469 0 0 0 4.417-5.02c4.16-7.222 2.684-16.859-4.418-22.359zm0 0" fill="#ff8354"/><path d="M26.91 32.945h21.543a4.06 4.06 0 0 1 4.059 4.059 4.06 4.06 0 0 1-4.059 4.059h-16.16V52.09h14.133a4.06 4.06 0 0 1 4.058 4.058 4.06 4.06 0 0 1-4.058 4.059H32.293v13.848c0 2.363-1.914 4.277-4.277 4.277s-4.278-1.918-4.278-4.277V36.12a3.17 3.17 0 0 1 3.172-3.176zm32.195 3.176a3.176 3.176 0 0 1 3.176-3.176h13.367c2.282 0 4.356.356 6.211 1.078 1.86.72 3.454 1.707 4.786 2.977s2.351 2.781 3.074 4.535c.719 1.754 1.078 3.668 1.078 5.735 0 1.523-.25 2.945-.762 4.277a12.846 12.846 0 0 1-2.09 3.613 15.578 15.578 0 0 1-3.105 2.856 16.054 16.054 0 0 1-3.742 1.93l-.067.44 7.871 11.278c1.875 2.684.067 6.379-3.199 6.547a4.165 4.165 0 0 1-3.648-1.8L71.648 61.28h-3.992v12.77a4.276 4.276 0 0 1-4.277 4.277 4.279 4.279 0 0 1-4.277-4.277V36.12zm16.485 17.3c1.937 0 3.535-.597 4.781-1.776 1.246-1.18 1.871-2.68 1.871-4.504a6.87 6.87 0 0 0-.414-2.34 5.798 5.798 0 0 0-1.234-2.031c-.547-.59-1.235-1.063-2.059-1.426-.828-.364-1.765-.535-2.824-.535h-8.047v12.613zm31.37-12.362v10.52h14.134a4.058 4.058 0 1 1 0 8.116H106.96V70.22h16.16a4.06 4.06 0 0 1 4.059 4.058 4.06 4.06 0 0 1-4.059 4.059h-21.543a3.178 3.178 0 0 1-3.176-3.176v-39.04a3.176 3.176 0 0 1 3.176-3.176h21.543a4.06 4.06 0 0 1 4.059 4.059 4.06 4.06 0 0 1-4.059 4.059h-16.16zm36.638 0v10.52h14.129a4.058 4.058 0 1 1 0 8.116h-14.13V70.22h16.157a4.06 4.06 0 0 1 4.059 4.058 4.06 4.06 0 0 1-4.06 4.059h-21.538a3.178 3.178 0 0 1-3.176-3.176v-39.04a3.176 3.176 0 0 1 3.176-3.176h21.543a4.06 4.06 0 0 1 0 8.117h-16.16zm0 0" fill="#ffefe4"/><path d="M19.68 10h147.058c5.063 0 9.98 1.68 13.98 4.762l48.102 37.18a17.19 17.19 0 0 1 5.977 8.699c1.965-6.567-.02-14.09-5.977-18.7l-48.1-37.18A22.915 22.915 0 0 0 166.739 0H19.678C8.802 0 0 8.8 0 19.68v10C0 18.8 8.8 10 19.68 10zm0 0" fill="#ffac8c"/></svg>