<svg height="512pt" viewBox="0 0 512 512.001" width="512pt" xmlns="http://www.w3.org/2000/svg"><path d="M470.5 397.992V151.613c0-14.851-12.043-26.894-26.895-26.894H68.398c-14.855 0-26.898 12.043-26.898 26.894v246.38c0 14.855 12.043 26.898 26.898 26.898h375.207c14.852 0 26.895-12.043 26.895-26.899zm0 0" fill="#d476e2"/><path d="M443.605 124.719H68.398c-14.855 0-26.898 12.043-26.898 26.894v14c0-14.851 12.043-26.894 26.898-26.894h375.207c14.852 0 26.895 12.043 26.895 26.894v-14c0-14.851-12.043-26.894-26.895-26.894zm0 0" fill="#ea82fa"/><path d="M132.79 124.719h20.155v296.308H132.79zm0 0" fill="#5fd4e3"/><path d="M132.79 124.719h20.155v14H132.79zm0 0" fill="#69ebfc"/><path d="M470.5 226.86v20.16h-429v-20.16zm0 0" fill="#5fd4e3"/><path d="M44.242 383.617H76.54V489.29H44.242zm0 0" fill="#69ebfc"/><path d="M443.547 405.406c-26.117.621-82.149 15.434-111.54 18.383-13.417 1.344-26.554-10.336-37.839-11.672 17.926-5.05 59.297-3.3 72.781-10.27 20.074-10.378-19.183-22.066-34.031-24.816-14.844-2.754-57.441-2.82-79.516-3-22.078-.183-41.386-13.437-64.578-11.828-23.195 1.613-45.648 15.543-62.722 31.735-16.325 2.414-33.125 2.953-49.567 3.253v72.93c18.442-.351 44.367 3.387 67.375 3.027 21.645 1.36 54.574 4.086 75.219 2.739 20.648-1.352 83.406 9.91 90.406 10.254 19.3.949 147.313-40.735 171.04-51.29 23.718-10.558-10.907-30.062-37.028-29.445zm0 0" fill="#ffefe4"/><path d="M480.574 424.852c-23.722 10.554-151.738 52.234-171.039 51.289-7-.34-69.758-11.602-90.406-10.254-20.645 1.347-53.574-1.38-75.219-2.739-23.008.36-48.933-3.378-67.375-3.027v10c18.442-.351 44.367 3.387 67.375 3.027 21.645 1.36 54.574 4.086 75.219 2.739 20.648-1.352 83.406 9.91 90.406 10.254 19.3.949 147.313-40.735 171.04-51.29 8.718-3.882 9.534-8.968 5.808-13.824-1.285 1.356-3.168 2.649-5.809 3.825zm0 0" fill="#edd4c2"/><path d="M44.242 477.547H76.54v11.742H44.242zm0 0" fill="#5fd4e3"/><path d="M44.242 512H0V360.906h44.242zm0 0" fill="#6770e6"/><path d="M0 500.262h44.242V512H0zm0 0" fill="#5861c7"/><g fill="#69ebfc"><path d="M193.844 183.367c6.332 0 12.285 2.93 16.332 8.031 2.336 2.946 5.953 9.172 3.941 17.77-1.832 7.824-7.828 13.824-15.652 15.656l-32.918 7.703 7.703-32.918c1.828-7.824 7.828-13.824 15.652-15.656a21.71 21.71 0 0 1 4.942-.582zm-.004-16.914c-2.871 0-5.817.328-8.793 1.024a37.917 37.917 0 0 0-28.274 28.273l-13.906 59.45 59.45-13.907a37.917 37.917 0 0 0 28.273-28.273c5.707-24.395-13.192-46.57-36.75-46.567zm0 0"/><path d="M91.895 183.367c1.625 0 3.289.196 4.937.582 7.828 1.832 13.824 7.832 15.656 15.656l7.7 32.918-32.918-7.703c-7.825-1.832-13.825-7.832-15.653-15.656-2.012-8.598 1.606-14.82 3.942-17.766 4.046-5.101 10-8.03 16.336-8.03zm0-16.914c-23.56 0-42.457 22.172-36.747 46.567a37.906 37.906 0 0 0 28.27 28.273l59.45 13.906-13.911-59.449a37.906 37.906 0 0 0-28.27-28.273 38.619 38.619 0 0 0-8.792-1.024zm0 0"/><path d="M79.477 302.898a9.996 9.996 0 0 1-9.422-6.66c-1.848-5.207.875-10.922 6.082-12.77 42.586-15.1 57.34-49.98 57.48-50.331a10 10 0 0 1 13.051-5.45c5.11 2.098 7.55 7.942 5.45 13.047-.727 1.774-18.384 43.532-69.298 61.586-1.11.39-2.234.578-3.343.578zm0 0"/><path d="M206.258 302.898c-1.11 0-2.238-.187-3.344-.578-50.91-18.054-68.57-59.812-69.297-61.582-2.097-5.11.34-10.953 5.45-13.05 5.097-2.09 10.93.332 13.038 5.417.247.583 15.434 35.45 57.497 50.368 5.207 1.847 7.93 7.562 6.082 12.765-1.454 4.102-5.313 6.66-9.426 6.66zm0 0"/></g><path d="M165.547 236.938c0 12.527-10.152 22.683-22.68 22.683-12.527 0-22.683-10.156-22.683-22.684s10.156-22.68 22.683-22.68c12.528 0 22.68 10.153 22.68 22.68zm0 0" fill="#8cf2ff"/><path d="M334.984 295.48h98.141a7.376 7.376 0 0 0 0-14.75h-98.14a7.379 7.379 0 0 0-7.376 7.375 7.373 7.373 0 0 0 7.375 7.375zm-56.75 29.278h154.891a7.376 7.376 0 0 0 0-14.75h-154.89a7.374 7.374 0 0 0-7.376 7.375c-.004 4.07 3.301 7.375 7.375 7.375zm0 30.762h154.891a7.374 7.374 0 1 0 0-14.747h-154.89a7.373 7.373 0 0 0-7.376 7.372c-.004 4.074 3.301 7.375 7.375 7.375zm0 0" fill="#b665c2"/><path d="M477.977 0H304.039c-18.789 0-34.023 15.234-34.023 34.023v99.801c0 18.79 15.234 34.024 34.023 34.024h25.805v35.87c0 5.66 6.844 8.493 10.844 4.493l40.363-40.363h96.926c18.789 0 34.023-15.235 34.023-34.024v-99.8C512 15.233 496.766 0 477.977 0zm0 0" fill="#69ebfc"/><path d="M304.04 0h173.937C496.77 0 512 15.23 512 34.023v14.223c0-18.789-15.23-34.023-34.023-34.023H304.039c-18.793 0-34.023 15.234-34.023 34.023V34.023C270.016 15.23 285.246 0 304.039 0zm0 0" fill="#a1f1fc"/><path d="M386.035 130.734c-6.238-.914-11.785-3.328-16.656-7.238-2.84-2.281-5.203-5.14-7.09-8.582-2.293-4.176-.504-9.422 3.906-11.223 3.504-1.433 7.614-.218 9.567 3.024a22.005 22.005 0 0 0 2.168 2.988c2.242 2.621 4.941 4.434 8.105 5.426V91.426l-1.113-.504a56.452 56.452 0 0 1-8.676-4.117c-2.703-1.575-5.074-3.41-7.11-5.489a24.6 24.6 0 0 1-4.87-7.05c-1.211-2.621-1.817-5.555-1.817-8.801 0-2.992.547-5.82 1.625-8.485a21.7 21.7 0 0 1 4.688-7.109c2.035-2.078 4.504-3.812 7.425-5.18 2.907-1.375 6.188-2.265 9.848-2.683v-5.18a5.55 5.55 0 0 1 5.555-5.55 5.553 5.553 0 0 1 5.555 5.55v5.43c3.332.496 6.222 1.37 8.671 2.62a30.06 30.06 0 0 1 6.371 4.306c.7.617 1.372 1.351 2.004 2.144 3.153 3.95 1.555 9.848-3.058 11.902-3.16 1.41-6.797.528-9.125-2.035-1.223-1.343-2.828-2.664-4.863-3.593v22.34c3.585 1.5 6.816 3.038 9.738 4.62 2.906 1.579 5.402 3.368 7.484 5.368 2.086 1.992 3.66 4.261 4.738 6.793 1.09 2.547 1.625 5.476 1.625 8.8 0 3.747-.644 7.075-1.925 9.985-1.297 2.914-3.02 5.406-5.188 7.484-2.168 2.082-4.676 3.75-7.543 4.996a37.247 37.247 0 0 1-8.93 2.617v5.426a5.554 5.554 0 1 1-11.109 0zm-8.226-65.27c0 1.997.64 3.724 1.925 5.177 1.297 1.46 3.391 2.937 6.301 4.433V56.855c-2.496.668-4.48 1.747-5.984 3.243-1.504 1.504-2.242 3.289-2.242 5.367zm26.953 40.188c0-2.164-.582-3.957-1.754-5.367-1.164-1.418-3.113-2.828-5.863-4.246v19.094c2.253-.746 4.082-1.934 5.5-3.559 1.402-1.62 2.117-3.597 2.117-5.922zm0 0" fill="#6770e6"/></svg>