<svg height="512pt" viewBox="0 0 512 512" width="512pt" xmlns="http://www.w3.org/2000/svg"><path d="M292.734 140.8c0-19.85-15.77-35.98-35.457-36.648 5.86-6.504 9.457-15.086 9.457-24.53 0-20.278-16.437-36.716-36.71-36.716a37.19 37.19 0 0 0-3.692.188c.363-2.078.594-4.203.594-6.383C226.926 16.438 210.488 0 190.215 0c-20.274 0-36.711 16.438-36.711 36.71 0 2.185.223 4.31.59 6.388a36.043 36.043 0 0 0-3.692-.188c-20.273 0-36.71 16.438-36.71 36.711 0 9.445 3.597 18.027 9.456 24.535-19.687.664-35.457 16.797-35.457 36.649 0 18.23 13.305 33.316 30.73 36.18-3 5.32-4.73 11.449-4.73 17.992 0 20.273 16.438 36.71 36.711 36.71 1.97 0 3.887-.199 5.774-.496a36.506 36.506 0 0 0-2.672 13.704c0 20.277 16.434 36.714 36.71 36.714 20.274 0 36.712-16.437 36.712-36.714a36.59 36.59 0 0 0-2.672-13.704c1.883.297 3.8.496 5.77.496 20.273 0 36.71-16.433 36.71-36.71a36.503 36.503 0 0 0-4.726-17.993c17.422-2.863 30.726-17.949 30.726-36.183zm0 0" fill="#d476e2"/><path d="M243.445 135.203a7.447 7.447 0 0 0-10.53 0l-35.259 35.254V50.176a7.446 7.446 0 0 0-14.89 0v55.398L158.78 81.586a7.448 7.448 0 0 0-10.535 0 7.452 7.452 0 0 0 0 10.527l34.524 34.52V256a7.446 7.446 0 0 0 14.89 0v-64.48l45.79-45.786a7.454 7.454 0 0 0-.005-10.53zm0 0" fill="#b665c2"/><path d="M150.402 56.91c1.246 0 2.477.067 3.692.188-.367-2.078-.594-4.203-.594-6.387C153.504 30.438 169.938 14 190.215 14c20.273 0 36.71 16.438 36.71 36.71 0 2.185-.226 4.31-.59 6.388a35.91 35.91 0 0 1 3.688-.188c17.887 0 32.77 12.797 36.032 29.73.441-2.269.68-4.617.68-7.019 0-20.273-16.434-36.71-36.712-36.71a37.05 37.05 0 0 0-3.687.187c.363-2.078.59-4.203.59-6.387C226.926 16.438 210.488 0 190.215 0c-20.274 0-36.711 16.438-36.711 36.71 0 2.185.223 4.31.59 6.388a36.043 36.043 0 0 0-3.692-.188c-20.273 0-36.71 16.438-36.71 36.711 0 2.406.238 4.75.683 7.02 3.262-16.934 18.14-29.73 36.027-29.73zm0 0" fill="#ea82fa"/><path d="M351.945 281.605H512V80.027C512 35.828 476.172 0 431.973 0c-44.2 0-80.028 35.828-80.028 80.027zm0 0" fill="#edd4c2"/><path d="M431.973 0c-44.2 0-80.028 35.828-80.028 80.027v14c0-44.199 35.828-80.027 80.028-80.027C476.172 14 512 49.828 512 94.027v-14C512 35.828 476.172 0 431.973 0zm0 0" fill="#ffefe4"/><path d="M372.7 354.133V237.078c0-46.867-40.56-47.168-40.56-93.52l-3.546-97.503h-52.63l-3.542 97.504c0 46.351-40.563 46.652-40.563 93.52v117.054zm0 0" fill="#6770e6"/><path d="M333.91 67.742h-63.262a4.163 4.163 0 0 1-4.164-4.164V33.43a8.956 8.956 0 0 1 8.957-8.957h53.676c4.945 0 8.953 4.011 8.953 8.957v30.152a4.156 4.156 0 0 1-4.16 4.16zm0 0" fill="#d476e2"/><path d="M329.117 24.473h-53.676a8.956 8.956 0 0 0-8.957 8.957v11.824a8.954 8.954 0 0 1 8.957-8.957h53.676a8.953 8.953 0 0 1 8.953 8.957V33.43a8.953 8.953 0 0 0-8.953-8.957zm0 0" fill="#ea82fa"/><path d="M282.477 58.934a4.33 4.33 0 0 1-4.329-4.329V37.613a4.328 4.328 0 1 1 8.656 0v16.992a4.328 4.328 0 0 1-4.327 4.329zm19.8 0a4.328 4.328 0 0 1-4.328-4.329V37.613a4.328 4.328 0 1 1 8.656 0v16.992a4.325 4.325 0 0 1-4.328 4.329zm19.801 0a4.327 4.327 0 0 1-4.324-4.329V37.613a4.327 4.327 0 1 1 8.652 0v16.992a4.328 4.328 0 0 1-4.328 4.329zm0 0" fill="#b665c2"/><path d="M88.824 177.191a7.446 7.446 0 0 1-6.938-10.14c.141-.363 9.368-24.817 1.376-41.41-3.137-6.508-8.535-10.895-16.5-13.403a7.45 7.45 0 0 1-4.867-9.34 7.441 7.441 0 0 1 9.335-4.863c11.961 3.766 20.532 10.899 25.473 21.203 10.79 22.5-.457 51.965-.937 53.207a7.452 7.452 0 0 1-6.942 4.746zm0 0" fill="#5861c7"/><path d="M71.23 104.035c11.961 3.766 20.532 10.899 25.473 21.203 3.012 6.285 4.309 13.11 4.598 19.715.336-8.36-.66-17.5-4.598-25.715-4.941-10.304-13.512-17.437-25.473-21.203a7.438 7.438 0 0 0-9.335 4.863c-.567 1.805-.387 3.649.324 5.247 1.508-3.426 5.355-5.262 9.011-4.11zm0 0" fill="#6770e6"/><path d="M137.441 132.758c-28.468 0-28.414 10.308-44.035 10.308s-15.57-10.308-44.035-10.308C20.902 132.758 0 149.387 0 188.086c0 38.695 21.48 94.344 63.375 94.344 19.785 0 20.488-5.82 30.027-5.82 9.543 0 10.246 5.82 30.032 5.82 41.894 0 63.375-55.649 63.375-94.344 0-38.7-20.907-55.328-49.368-55.328zm0 0" fill="#ff8354"/><path d="M49.371 146.758c28.465 0 28.414 10.308 44.031 10.308 15.621 0 15.57-10.308 44.035-10.308 26.715 0 46.77 14.648 49.133 48.445.157-2.422.239-4.805.239-7.121 0-38.695-20.907-55.324-49.371-55.324s-28.415 10.308-44.036 10.308-15.566-10.308-44.03-10.308C20.901 132.758 0 149.387 0 188.086c0 2.312.082 4.695.234 7.117 2.368-33.793 22.418-48.445 49.137-48.445zm0 0" fill="#ffac8c"/><path d="M447.418 512H64.582C28.914 512 0 483.086 0 447.418V232h512v215.418C512 483.086 483.086 512 447.418 512zm0 0" fill="#ffefe4"/><path d="M447.418 492H64.582C28.914 492 0 463.086 0 427.418v20C0 483.086 28.914 512 64.582 512h382.836C483.086 512 512 483.086 512 447.418v-20C512 463.086 483.086 492 447.418 492zm0 0" fill="#edd4c2"/><g fill="#d476e2"><path d="M358.496 280.594c0 9.195-7.453 16.652-16.652 16.652s-16.653-7.457-16.653-16.652c0-9.2 7.454-16.656 16.653-16.656s16.652 7.457 16.652 16.656zm-171.687 0c0 9.195-7.454 16.652-16.653 16.652s-16.652-7.457-16.652-16.652c0-9.2 7.453-16.656 16.652-16.656s16.653 7.457 16.653 16.656zm0 0"/><path d="M170.57 271.508c5.578 0 10.098 4.52 10.098 10.097v41.758c0 41.586 33.207 76.094 74.793 76.496 41.992.41 76.285-33.632 76.285-75.535v-42.719c0-5.578 4.524-10.097 10.098-10.097 5.578 0 10.097 4.52 10.097 10.097v41.5c0 52.707-42.086 96.442-94.793 96.95-53.218.515-96.68-42.625-96.68-95.73v-42.72c0-5.578 4.524-10.097 10.102-10.097zm0 0"/></g><path d="M474.46 119.125h-84.98c-6.964 0-12.613-5.648-12.613-12.613s5.649-12.614 12.613-12.614h84.98c6.97 0 12.614 5.649 12.614 12.614.004 6.965-5.644 12.613-12.613 12.613zm0 75.848h-84.98c-6.964 0-12.613-5.649-12.613-12.614 0-6.968 5.649-12.617 12.613-12.617h84.98c6.97 0 12.614 5.649 12.614 12.617.004 6.965-5.644 12.614-12.613 12.614zm0 0" fill="#edc09f"/></svg>