<svg height="512pt" viewBox="-1 0 512 512" width="512pt" xmlns="http://www.w3.org/2000/svg"><path d="M152.703 211.105h283.875v208.098H152.703zm0 0" fill="#edd4c2"/><path d="M319.059 283.77h-11.88l-10.972-7.157-9.094 7.157-9.09-7.157-7.8 7.157v-72.665h48.836zm0 0" fill="#ff8354"/><path d="M333.973 211.227h-181.27V91.98a8.868 8.868 0 0 1 8.867-8.867h172.403c4.894 0 8.863 3.973 8.863 8.867v110.38c0 4.898-3.969 8.867-8.863 8.867zm0 0" fill="#f7ddca"/><path d="M152.703 91.98v5.133h190.133V91.98c0-4.894-3.969-8.867-8.863-8.867H161.57a8.868 8.868 0 0 0-8.867 8.867zm0 0" fill="#ffefe4"/><path d="M262.805 127.848h-7.317l-6.754-4.407-5.597 4.407-5.598-4.407-4.8 4.407V83.113h30.066zm0 0" fill="#ff8354"/><path d="M232.738 83.113h30.067v14h-30.067zm0 0" fill="#ffac8c"/><path d="M321.813 360.45h92.164v33.597h-92.164zm0 0" fill="#fff7f2"/><path d="M403.977 370.45v13.597h-72.164v-13.598zm0 0" fill="#edd4c2"/><path d="M117.941 164.281l-.191-33.847-47.73-22.79 11.203-23.46 62.433 29.804.285 50.14zm370.954 297.551h-307.97v-44h307.97c12.148 0 22 9.852 22 22s-9.852 22-22 22zm0 0" fill="#d476e2"/><path d="M488.895 447.832h-307.97v14h307.97c12.148 0 22-9.852 22-22 0-2.45-.418-4.797-1.157-7-2.93 8.715-11.144 15-20.843 15zm0 0" fill="#b665c2"/><path d="M152.703 22v440.316h-44V22c0-12.148 9.852-22 22-22s22 9.852 22 22zm0 0" fill="#d476e2"/><path d="M130.703 0c-12.148 0-22 9.852-22 22v14c0-12.148 9.852-22 22-22s22 9.852 22 22V22c0-12.148-9.851-22-22-22zm0 0" fill="#ea82fa"/><path d="M202.996 439.95c0 39.792-32.258 72.05-72.05 72.05-39.794 0-72.051-32.258-72.051-72.05s32.257-72.055 72.05-72.055 72.051 32.261 72.051 72.054zm0 0" fill="#6770e6"/><g fill="#5861c7"><path d="M130.945 498c-37.43 0-68.187-28.543-71.707-65.05a72.723 72.723 0 0 0-.343 7c0 39.792 32.257 72.05 72.05 72.05s72.051-32.258 72.051-72.05a72.59 72.59 0 0 0-.344-7c-3.52 36.507-34.277 65.05-71.707 65.05zm0 0"/><path d="M169.559 439.95c0 21.323-17.29 38.609-38.614 38.609-21.324 0-38.613-17.286-38.613-38.61s17.29-38.613 38.613-38.613c21.325 0 38.614 17.289 38.614 38.613zM75.605 117.918c-3.18 0-6.406-.691-9.46-2.152L12.527 90.168C1.563 84.934-3.082 71.801 2.152 60.836 7.387 49.87 20.52 45.226 31.484 50.46l53.618 25.598c10.964 5.238 15.609 18.37 10.375 29.332-3.778 7.906-11.657 12.527-19.872 12.527zm0 0"/></g><path d="M2.152 74.836C7.391 63.87 20.523 59.226 31.484 64.46l53.618 25.598c5.593 2.671 9.53 7.406 11.363 12.851 3.504-10.394-1.215-22.004-11.363-26.851L31.484 50.46c-10.96-5.23-24.093-.586-29.332 10.379C-.41 66.207-.59 72.094 1.164 77.316c.281-.836.598-1.664.988-2.48zm0 0" fill="#6770e6"/></svg>