<svg height="512pt" viewBox="0 0 512 512" width="512pt" xmlns="http://www.w3.org/2000/svg"><path d="M497.77 395.148H14.23c-7.859 0-14.23-6.37-14.23-14.234V14.23C0 6.371 6.371 0 14.23 0h483.536c7.859 0 14.23 6.371 14.23 14.23v366.684c.004 7.863-6.367 14.234-14.226 14.234zm0 0" fill="#6770e6"/><path d="M497.77 0H14.23C6.371 0 0 6.371 0 14.23v14C0 20.371 6.371 14 14.23 14h483.54c7.859 0 14.23 6.371 14.23 14.23v-14C512 6.371 505.629 0 497.77 0zm0 0" fill="#8f95e6"/><path d="M30 350.914V49.191C30 38.594 38.594 30 49.191 30H462.81C473.406 30 482 38.594 482 49.191v301.723c0 7.863-6.371 14.234-14.23 14.234H44.23c-7.859 0-14.23-6.37-14.23-14.234zm0 0" fill="#69ebfc"/><path d="M196.277 395.148h121.895v76.872H196.277zm0 0" fill="#5861c7"/><path d="M375.809 512H139.207c-11.039 0-19.988-8.95-19.988-19.988 0-11.043 8.949-19.992 19.988-19.992h236.602c11.043 0 19.992 8.949 19.992 19.992 0 11.039-8.95 19.988-19.992 19.988zm0 0" fill="#6770e6"/><path d="M375.809 498H139.207c-8.574 0-15.863-5.406-18.703-12.988a19.814 19.814 0 0 0-1.29 7c0 11.039 8.95 19.988 19.993 19.988h236.602c11.039 0 19.988-8.95 19.988-19.988a19.9 19.9 0 0 0-1.285-7c-2.836 7.582-10.13 12.988-18.703 12.988zm0 0" fill="#5861c7"/><path d="M199.832 323.664H77.523a8.311 8.311 0 0 1-8.312-8.312v-131.41a8.314 8.314 0 0 1 8.312-8.313h122.309a8.311 8.311 0 0 1 8.313 8.312v131.41a8.309 8.309 0 0 1-8.313 8.313zm0 0" fill="#edd4c2"/><path d="M150.395 210.492h-5.7l-5.265-3.43-4.364 3.43-4.359-3.43-3.746 3.43V175.63h23.434zm0 0" fill="#ff8354"/><path d="M83.246 290.05h55.274v20.15H83.246zm0 0" fill="#fff7f2"/><path d="M132.523 296.047v8.156h-43.28v-8.156zm0 0" fill="#edd4c2"/><path d="M184.902 175.629H92.453a5.847 5.847 0 0 1-5.848-5.848V77.332a5.847 5.847 0 0 1 5.848-5.848h92.45a5.847 5.847 0 0 1 5.847 5.848v92.45a5.844 5.844 0 0 1-5.848 5.847zm0 0" fill="#f7ddca"/><path d="M146.922 96.012h-4.012l-3.703-2.414-3.07 2.414-3.067-2.414-2.632 2.414V71.48h16.484zm0 0" fill="#ff8354"/><path d="M94.344 147.71h38.886v14.177H94.344zm0 0" fill="#fff7f2"/><path d="M129.012 151.93v5.738h-30.45v-5.738zm0 0" fill="#edd4c2"/><path d="M293.156 135.715H245.06a8.066 8.066 0 0 1-8.067-8.067V79.551a8.069 8.069 0 0 1 8.067-8.067h48.097a8.066 8.066 0 0 1 8.067 8.067v48.097a8.066 8.066 0 0 1-8.067 8.067zm0 0" fill="#ffefe4"/><path d="M265.434 121.754a7.662 7.662 0 0 1-4.77-1.66l-9.488-7.504a7.704 7.704 0 0 1-1.266-10.813 7.7 7.7 0 0 1 10.813-1.261l3.539 2.796L278.89 85.36a7.696 7.696 0 0 1 10.828-1.105 7.697 7.697 0 0 1 1.105 10.832l-19.418 23.828a7.668 7.668 0 0 1-5.972 2.84zm167.366-8.957h-92.374a9.199 9.199 0 0 1 0-18.395H432.8a9.198 9.198 0 0 1 9.199 9.2c0 5.078-4.117 9.195-9.2 9.195zm0 0" fill="#6770e6"/><path d="M293.156 229.434H245.06a8.069 8.069 0 0 1-8.067-8.067V173.27a8.07 8.07 0 0 1 8.067-8.07h48.097a8.067 8.067 0 0 1 8.067 8.07v48.093c0 4.457-3.61 8.07-8.067 8.07zm0 0" fill="#ffefe4"/><path d="M265.434 215.473a7.662 7.662 0 0 1-4.77-1.66l-9.488-7.504a7.705 7.705 0 0 1-1.266-10.813 7.7 7.7 0 0 1 10.813-1.266l3.539 2.801 14.629-17.953a7.696 7.696 0 0 1 10.828-1.105 7.693 7.693 0 0 1 1.105 10.828l-19.418 23.832a7.668 7.668 0 0 1-5.972 2.84zm167.366-8.957h-92.374a9.197 9.197 0 0 1-9.2-9.2c0-5.078 4.118-9.195 9.2-9.195H432.8c5.082 0 9.199 4.117 9.199 9.195s-4.117 9.2-9.2 9.2zm0 0" fill="#6770e6"/><path d="M293.156 323.664H245.06a8.066 8.066 0 0 1-8.067-8.066v-48.094a8.07 8.07 0 0 1 8.067-8.07h48.097a8.067 8.067 0 0 1 8.067 8.07v48.094a8.064 8.064 0 0 1-8.067 8.066zm0 0" fill="#ffefe4"/><path d="M265.434 309.703a7.662 7.662 0 0 1-4.77-1.66l-9.488-7.504a7.704 7.704 0 0 1-1.266-10.812 7.7 7.7 0 0 1 10.813-1.262l3.539 2.797 14.629-17.953a7.697 7.697 0 1 1 11.934 9.727l-19.419 23.831a7.676 7.676 0 0 1-5.972 2.836zm167.366-8.957h-92.374a9.199 9.199 0 0 1 0-18.395H432.8a9.198 9.198 0 0 1 9.199 9.2c0 5.078-4.117 9.195-9.2 9.195zm0 0" fill="#6770e6"/></svg>