<svg height="512pt" viewBox="0 0 512 512" width="512pt" xmlns="http://www.w3.org/2000/svg"><path d="M33.672 0C15.07 0 0 15.07 0 33.672v59.004h67.34V33.672C67.34 15.07 52.262 0 33.672 0zm0 0" fill="#edd4c2"/><path d="M409.852 0H33.668c18.598 0 33.668 15.074 33.668 33.672V512h376.187V33.672C443.523 15.074 428.438 0 409.852 0zm0 0" fill="#ffefe4"/><path d="M67.336 492h376.187v20H67.336zm0 0" fill="#edd4c2"/><path d="M409.852 0H33.668c13.727 0 25.527 8.219 30.77 20h345.414c18.586 0 33.671 15.074 33.671 33.672v-20C443.523 15.074 428.438 0 409.852 0zm0 0" fill="#fff7f2"/><path d="M250.309 78.715H139.352c-6.915 0-12.524-5.606-12.524-12.524 0-6.914 5.61-12.52 12.524-12.52h110.957c6.914 0 12.52 5.606 12.52 12.52 0 6.918-5.606 12.524-12.52 12.524zm0 0" fill="#6770e6"/><path d="M214.832 127.11h-78.805c-5.078 0-9.199-4.118-9.199-9.196a9.2 9.2 0 0 1 9.2-9.2h78.8c5.082 0 9.2 4.118 9.2 9.2.003 5.078-4.118 9.195-9.196 9.195zm40 48.203H136.027c-5.078 0-9.199-4.118-9.199-9.196 0-5.082 4.121-9.199 9.2-9.199h118.8c5.082 0 9.2 4.117 9.2 9.2.003 5.077-4.118 9.195-9.196 9.195zm62.523 241.949H136.027c-5.078 0-9.199-4.121-9.199-9.2 0-5.082 4.121-9.199 9.2-9.199h181.324a9.197 9.197 0 0 1 9.199 9.2c0 5.078-4.117 9.199-9.196 9.199zM214.832 465.46h-78.805c-5.078 0-9.199-4.116-9.199-9.194a9.2 9.2 0 0 1 9.2-9.2h78.8c5.082 0 9.2 4.118 9.2 9.2.003 5.078-4.118 9.195-9.196 9.195zm0 0" fill="#edd4c2"/><path d="M386.031 224.512H126.828v-9.2c0-5.078 4.121-9.195 9.2-9.195h240.8c5.082 0 9.2 4.117 9.2 9.196v9.199zm0 0" fill="#6770e6"/><path d="M126.828 224.512v138.613a9.2 9.2 0 0 0 9.2 9.2h240.8c5.082 0 9.2-4.118 9.2-9.2V224.512zm0 0" fill="#fff7f2"/><path d="M251.55 341.879c-6.116-.899-11.562-3.262-16.34-7.102-2.784-2.238-5.1-5.043-6.952-8.418-2.246-4.093-.492-9.242 3.832-11.007 3.437-1.407 7.465-.211 9.383 2.964.62 1.024 1.328 2 2.129 2.934 2.199 2.57 4.847 4.348 7.949 5.32v-23.254l-1.094-.496a55.16 55.16 0 0 1-8.508-4.039c-2.648-1.543-4.98-3.344-6.976-5.383a24.091 24.091 0 0 1-4.778-6.918c-1.187-2.57-1.78-5.445-1.78-8.632 0-2.934.534-5.711 1.593-8.325a21.404 21.404 0 0 1 4.597-6.976c1.997-2.035 4.418-3.738 7.282-5.078 2.851-1.348 6.074-2.223 9.664-2.633v-5.078a5.446 5.446 0 1 1 10.894 0v5.324c3.27.484 6.11 1.348 8.508 2.57a29.413 29.413 0 0 1 6.25 4.223c.684.605 1.344 1.328 1.969 2.105 3.09 3.872 1.52 9.66-3.004 11.676-3.102 1.387-6.668.52-8.953-1.992-1.195-1.32-2.77-2.617-4.77-3.527v21.91c3.52 1.476 6.692 2.984 9.555 4.535 2.852 1.55 5.3 3.305 7.344 5.266 2.043 1.953 3.59 4.18 4.644 6.664 1.07 2.496 1.594 5.37 1.594 8.633 0 3.671-.629 6.94-1.89 9.792-1.27 2.86-2.958 5.305-5.087 7.344-2.128 2.043-4.585 3.68-7.402 4.903a36.509 36.509 0 0 1-8.758 2.566v5.324a5.449 5.449 0 1 1-10.898 0v-5.195zm-8.07-64.027c0 1.96.633 3.656 1.891 5.082 1.274 1.43 3.328 2.878 6.18 4.347v-17.87c-2.446.651-4.395 1.71-5.867 3.179-1.477 1.469-2.204 3.222-2.204 5.262zm26.442 39.421c0-2.12-.57-3.878-1.723-5.261-1.14-1.39-3.054-2.778-5.754-4.168v18.726c2.211-.726 4.004-1.894 5.395-3.484 1.383-1.594 2.082-3.531 2.082-5.813zm0 0" fill="#6770e6"/><path d="M512 78c0 43.078-34.922 78-78 78s-78-34.922-78-78 34.922-78 78-78 78 34.922 78 78zm0 0" fill="#d476e2"/><path d="M433.863 7.96c41.793-.073 75.965 32.743 78.032 74.04.07-1.371.109-2.746.105-4.137C511.926 34.785 476.941-.074 433.863 0S355.926 35.059 356 78.137a77.43 77.43 0 0 0 .105 3.824c2.079-41.16 36.067-73.926 77.758-74zm0 0" fill="#ea82fa"/><path d="M424.836 114.176a14.159 14.159 0 0 1-8.8-3.063l-17.5-13.84c-6.15-4.863-7.192-13.793-2.329-19.941 4.86-6.148 13.79-7.195 19.941-2.328l6.528 5.16 26.972-33.11c4.957-6.077 13.899-6.992 19.977-2.038s6.988 13.898 2.035 19.972l-35.812 43.957a14.177 14.177 0 0 1-11.012 5.23zm0 0" fill="#fff7f2"/></svg>