<svg height="512pt" viewBox="0 0 512 512" width="512pt" xmlns="http://www.w3.org/2000/svg"><path d="M457.11 220.191H54.89c-13.331 0-24.136-10.808-24.136-24.136 0-13.332 10.805-24.137 24.137-24.137h402.222c13.328 0 24.133 10.805 24.133 24.137 0 13.328-10.805 24.136-24.137 24.136zm0 0" fill="#d476e2"/><path d="M163.457 220.191h185.086v48.27H163.457zm0 0" fill="#b665c2"/><path d="M468.457 512H43.543c-31.535 0-52.59-32.516-39.684-61.293l70.215-156.55a43.498 43.498 0 0 1 39.688-25.696h284.476a43.498 43.498 0 0 1 39.688 25.695l70.215 156.551C521.047 479.484 499.992 512 468.457 512zm0 0" fill="#d476e2"/><path d="M468.457 498H43.543c-22.504 0-39.66-16.563-42.957-36.504C-3.672 487.036 15.91 512 43.543 512h424.914c27.633 0 47.215-24.965 42.957-50.504C508.117 481.437 490.961 498 468.457 498zm0 0" fill="#b665c2"/><path d="M256 306.887c-63.508 0-120.895 26.152-162.016 68.261l100.805 98.426c15.535-15.914 37.215-25.8 61.211-25.8s45.676 9.886 61.21 25.8l100.806-98.426C376.895 333.04 319.508 306.887 256 306.887zm0 0" fill="#ffefe4"/><path d="M284.824 447.707c0 15.918-12.902 28.824-28.824 28.824s-28.824-12.906-28.824-28.824c0-15.922 12.902-28.828 28.824-28.828s28.824 12.906 28.824 28.828zm0 0" fill="#ff8354"/><path d="M256 459.707c-6.625 0-12-5.371-12-12v-88.289c0-6.625 5.375-12 12-12s12 5.375 12 12v88.289c0 6.629-5.375 12-12 12zm0 0" fill="#ff8354"/><path d="M256 306.887c-2.824 0-5.637.07-8.438.172v16.836a8 8 0 0 0 16 0v-16.868c-2.511-.082-5.03-.14-7.562-.14zm-64.371 26.758a8.006 8.006 0 0 0 9.797 5.656 7.998 7.998 0 0 0 5.656-9.797l-4.367-16.297a226.192 226.192 0 0 0-15.414 4.297zm-51.504 23.895a7.99 7.99 0 0 0 6.934 4 7.92 7.92 0 0 0 3.992-1.075c3.828-2.207 5.137-7.102 2.93-10.926l-8.13-14.082a226.016 226.016 0 0 0-13.695 8.281zm220.23 1.866a7.92 7.92 0 0 0 3.993 1.074 7.99 7.99 0 0 0 6.933-4l7.684-13.304a224.869 224.869 0 0 0-13.727-8.23l-7.812 13.534c-2.207 3.825-.899 8.72 2.93 10.926zm-40.789-26.308l4.25-15.871a225.575 225.575 0 0 0-15.425-4.243l-4.278 15.973a7.998 7.998 0 0 0 7.73 10.07 7.998 7.998 0 0 0 7.723-5.93zm0 0" fill="#edd4c2"/><path d="M387.504 171.918H123.62c-7.992 0-14.469-6.477-14.469-14.469V33.906h292.82V157.45c0 7.992-6.48 14.469-14.468 14.469zm0 0" fill="#5861c7"/><path d="M403.957 0H107.168a8.24 8.24 0 0 0-8.238 8.238v17.43a8.237 8.237 0 0 0 8.238 8.238h296.789a8.237 8.237 0 0 0 8.238-8.238V8.238A8.24 8.24 0 0 0 403.957 0zm0 0" fill="#6770e6"/><path d="M403.957 0H107.168a8.24 8.24 0 0 0-8.238 8.238v8.34a8.237 8.237 0 0 1 8.238-8.238h296.789a8.24 8.24 0 0 1 8.238 8.238v-8.34A8.24 8.24 0 0 0 403.957 0zm0 0" fill="#8f95e6"/><path d="M286.727 69.254h-62.329a8.11 8.11 0 0 1-8.109-8.11c0-4.476 3.633-8.105 8.11-8.105h62.328a8.106 8.106 0 0 1 8.109 8.106 8.107 8.107 0 0 1-8.11 8.109zm0 0" fill="#339"/></svg>