<svg height="512pt" viewBox="0 0 512 512" width="512pt" xmlns="http://www.w3.org/2000/svg"><path d="M451.707 0h-308.23C110.18 0 83.184 26.992 83.184 60.293v176.852c0 33.296 26.996 60.292 60.293 60.292h180.671V361c0 10.031 12.125 15.05 19.22 7.96l71.523-71.526h36.816c33.3 0 60.293-26.993 60.293-60.293V60.293C512 26.993 485.008 0 451.707 0zm0 0" fill="#ff8354"/><path d="M175.266 98.21h.972c4.926 0 8.918 3.993 8.918 8.915v73.012h33.301a8.916 8.916 0 0 1 8.914 8.914c0 4.926-3.992 8.918-8.914 8.918H175.43a9.082 9.082 0 0 1-9.082-9.082v-81.762c0-4.922 3.992-8.914 8.918-8.914zm73.898 0h.977a8.916 8.916 0 0 1 8.914 8.915v81.926c0 4.926-3.993 8.918-8.914 8.918h-.977a8.917 8.917 0 0 1-8.918-8.918v-81.926c0-4.922 3.992-8.914 8.918-8.914zm30.129 0h1.371a8.918 8.918 0 0 1 8.434 6.02l18.55 54.032 3.625 12.816h1.114l3.902-12.816 19.344-54.137a8.912 8.912 0 0 1 8.394-5.918h1.32c6.188 0 10.497 6.156 8.376 11.973l-28.63 78.543a14.065 14.065 0 0 1-13.21 9.242 14.055 14.055 0 0 1-13.258-9.375l-27.738-78.496c-2.051-5.797 2.254-11.883 8.406-11.883zm105.097 17.833v23.129h31.07c4.923 0 8.915 3.992 8.915 8.918 0 4.926-3.992 8.918-8.914 8.918h-31.07v23.125h35.527a8.917 8.917 0 0 1 8.918 8.918c0 4.922-3.992 8.914-8.918 8.914H374.66c-5.012 0-9.078-4.067-9.078-9.078v-81.598c0-5.012 4.066-9.078 9.078-9.078h45.258c4.926 0 8.918 3.992 8.918 8.914a8.917 8.917 0 0 1-8.918 8.918zm0 0" fill="#fff7f2"/><path d="M451.707 0h-308.23C110.18 0 83.184 26.992 83.184 60.293v14c0-33.3 26.996-60.293 60.293-60.293h308.23C485.007 14 512 40.992 512 74.293v-14C512 26.993 485.008 0 451.707 0zm0 0" fill="#ffac8c"/><path d="M223.875 414.531l-41.848-13.75H69.617L27.66 414.543C11.156 419.953 0 435.355 0 452.723V512h251.516v-59.293c0-17.36-11.149-32.758-27.641-38.176zm0 0" fill="#5fd4e3"/><path d="M85.523 382.82h80.47v34.047h-80.47zm0 0" fill="#5fd4e3"/><path d="M139.688 450.91h-27.86l-6.187-34.043h40.234zm0 0" fill="#6770e6"/><path d="M57.664 404.484l40.238 43.332 27.856-30.949-40.235-34.047zm0 0" fill="#69ebfc"/><path d="M147.156 512l-7.469-61.09h-27.859L104.355 512zm0 0" fill="#5861c7"/><path d="M171.445 218.191c-1.941-7.507-10.226-18.144-41.61-18.144-48.491 0-55.394 7.18-68.3-5.223-10.89-10.46-17.281 39.895-2.765 55.887-6.13 22.652-1.227 45.336-1.227 45.336h136.43s11.449-52.992-22.528-77.856zm0 0" fill="#339"/><path d="M61.535 207.273c12.903 12.403 19.809 5.22 68.3 5.22 31.384 0 39.669 10.636 41.61 18.144 18.028 13.191 23.266 34.304 24.211 51.218.946-17.488-1.36-46.94-24.21-63.664-1.942-7.504-10.227-18.144-41.61-18.144-48.492 0-55.395 7.18-68.3-5.219-7.173-6.89-12.395 12.602-10.977 31.281 1.039-13.683 5.421-24.175 10.976-18.836zm0 0" fill="#5861c7"/><path d="M156.68 348.785H94.836V390.7l30.922 26.168 30.949-26.187zm-85.36-50.351s-5.882-10.778-17.644-10.778-20.098 51.719 17.644 43.098zm108.875 0s5.88-10.778 17.645-10.778c11.762 0 20.094 51.719-17.645 43.098zm0 0" fill="#ffe4d1"/><path d="M125.758 229.129c-90.121 0-72.89 147.805 0 147.805s90.12-147.805 0-147.805zm0 0" fill="#ffefe4"/><path d="M125.11 220.953s-61.012-8.605-61.012 69.676c0 0 7.683-32.356 25.304-41.18 8.211-4.11 11.215 6.301 35.707 6.301s27.496-10.41 35.707-6.3c17.625 8.823 25.305 41.179 25.305 41.179 0-78.281-61.012-69.676-61.012-69.676zm0 0" fill="#339"/><path d="M125.758 221.086S64.46 212.437 64.46 291.09c0 0 7.719-32.512 25.426-41.375 8.246-4.13 11.265 6.332 35.875 6.332 24.605 0 27.625-10.461 35.87-6.332 17.712 8.863 25.427 41.375 25.427 41.375-.004-78.653-61.301-70.004-61.301-70.004zm0 0" fill="#339"/><path d="M193.852 404.484l-40.239 43.332-27.855-30.949 40.234-34.047zm0 0" fill="#69ebfc"/><path d="M0 498h251.516v14H0zm0 0" fill="#58c3d1"/><path d="M106.066 498l-1.71 14h42.8l-1.71-14zm0 0" fill="#5058b5"/><path d="M209.43 344.469h-19.356a3.317 3.317 0 0 1-3.316-3.32v-56.895a3.317 3.317 0 0 1 3.316-3.32h19.356a3.317 3.317 0 0 1 3.316 3.32v56.894a3.317 3.317 0 0 1-3.316 3.32zm0 0" fill="#d476e2"/><path d="M212.172 329.219v-33.04c5.613 0 10.168 4.551 10.168 10.169v12.707c0 5.613-4.555 10.164-10.168 10.164zm-172.828 0c-5.614 0-10.164-4.551-10.164-10.164v-12.707c0-5.618 4.55-10.168 10.164-10.168zm0 0" fill="#b665c2"/><path d="M62.016 344.469H42.664a3.318 3.318 0 0 1-3.32-3.32v-56.895a3.318 3.318 0 0 1 3.32-3.32h19.352a3.318 3.318 0 0 1 3.32 3.32v56.894a3.32 3.32 0 0 1-3.32 3.32zm0 0" fill="#d476e2"/><path d="M204.05 280.93h-9.175c0-35.309-28.727-64.035-64.035-64.035h-9.88c-35.308 0-64.034 28.726-64.034 64.035H47.75c0-40.368 32.844-73.211 73.21-73.211h9.88c40.367 0 73.21 32.844 73.21 73.21zm-9.175 63.539c0 18.492-15.047 33.539-33.535 33.539h-4.73a7.843 7.843 0 0 0-6.38-3.278h-11.765c-4.344 0-7.863 3.524-7.863 7.868s3.52 7.863 7.863 7.863h11.765a7.849 7.849 0 0 0 6.38-3.277h4.73c23.547 0 42.707-19.16 42.707-42.711h-9.172zm0 0" fill="#b665c2"/></svg>