<svg height="512pt" viewBox="0 0 512 512" width="512pt" xmlns="http://www.w3.org/2000/svg"><path d="M0 137.066l170.664-40v374.66L0 511.727zm170.664-40l170.672 40v374.66l-170.672-40zm170.672 40l170.664-40v374.66l-170.664 40zm0 0" fill="#ffefe4"/><path d="M0 511.727l170.664-40v-14L0 497.727zm170.664-40l170.672 40v-14l-170.672-40zm170.672 40l170.664-40v-14l-170.664 40zm0 0" fill="#edd4c2"/><path d="M30 473.727v-314.66l140.664-32 170.672 40 140.664-34v314.66l-140.664 34-170.672-40zm0 0" fill="#5861c7"/><path d="M170.664 127.066v314.66l170.672 40v-314.66zm0 0" fill="#6770e6"/><path d="M341.336 221.926l-31.035-62.13-68.762-14.593 99.797 159.195zm0 0" fill="#a1f1fc"/><path d="M315.98 296.543c0-13.754-26.851-24.906-59.98-24.906s-59.98 11.152-59.98 24.906c0 13.758 26.851 24.91 59.98 24.91s59.98-11.152 59.98-24.91zm0 0" fill="#8f95e6"/><path d="M370.586 108.387c4.453 88.168-85.371 167.027-108.977 186.172a8.844 8.844 0 0 1-11.183-.016c-22.985-18.82-109.172-95.055-109.172-179.797C141.254 51.38 192.617.012 255.98 0c61.204-.012 111.516 47.262 114.606 108.387zm0 0" fill="#d476e2"/><path d="M255.98 19.758c60.06-.012 109.633 45.515 114.38 104.98.413-5.406.503-10.86.226-16.351C367.496 47.262 317.184-.012 255.98 0c-63.363.012-114.726 51.379-114.726 114.746 0 3.363.148 6.715.41 10.047 4.934-58.82 54.223-105.023 114.316-105.035zm0 0" fill="#ea82fa"/><path d="M326.492 114.848c0 38.93-31.558 70.492-70.492 70.492s-70.492-31.563-70.492-70.492c0-38.934 31.558-70.496 70.492-70.496s70.492 31.562 70.492 70.496zm0 0" fill="#b665c2"/><path d="M30 382.516l140.664-36.192v59.942L30 450.453zm0 0" fill="#5fd4e3"/><path d="M170.664 346.324L340.57 373.47l.766 70.543-170.672-37.746zm0 0" fill="#a1f1fc"/><path d="M340.57 373.469L482 315.793v68.21l-140.664 60.009zm.766-151.543l126.789 99.523-61 24.875-65.79-41.926zm0 0" fill="#5fd4e3"/></svg>