<svg height="512pt" viewBox="0 -11 512 512" width="512pt" xmlns="http://www.w3.org/2000/svg"><path d="M464.027 402.066H47.973C21.48 402.066 0 380.59 0 354.094V47.973C0 21.477 21.48 0 47.973 0h416.05C490.52 0 512 21.477 512 47.973v306.12c0 26.497-21.48 47.973-47.973 47.973zm0 0" fill="#d476e2"/><path d="M464.027 0H47.973C21.48 0 0 21.477 0 47.973v14C0 35.477 21.48 14 47.973 14h416.05C490.52 14 512 35.477 512 61.973v-14C512 21.477 490.52 0 464.027 0zm0 0" fill="#ea82fa"/><path d="M461.648 108.969a8.138 8.138 0 0 0-2.195-2.192 8.054 8.054 0 0 0-4.539-1.39h-58.453l22.988-5.375a29.754 29.754 0 0 0 22.196-22.2 30.26 30.26 0 0 0 .617-3.546v-.004c.015-.137.008-.27.023-.407.098-1.003.16-2.003.16-2.992 0-.406-.047-.8-.066-1.203-.027-.71-.05-1.422-.133-2.117-.055-.45-.148-.89-.219-1.332-.105-.633-.199-1.266-.343-1.883-.106-.46-.247-.906-.375-1.355-.168-.586-.329-1.168-.528-1.739-.16-.453-.344-.886-.523-1.328a29.84 29.84 0 0 0-.703-1.62c-.207-.434-.434-.852-.66-1.274a27.44 27.44 0 0 0-.864-1.512c-.25-.41-.52-.809-.789-1.203a29.56 29.56 0 0 0-1.012-1.399c-.293-.378-.597-.75-.906-1.113a32.762 32.762 0 0 0-2.172-2.297 32.932 32.932 0 0 0-1.289-1.148 30.977 30.977 0 0 0-1.105-.906 29.992 29.992 0 0 0-1.418-1.016c-.39-.266-.778-.535-1.18-.781a31.257 31.257 0 0 0-1.55-.871c-.41-.22-.813-.446-1.235-.645a28.156 28.156 0 0 0-1.691-.719c-.418-.168-.832-.351-1.262-.5-.61-.21-1.23-.379-1.856-.55-.414-.118-.82-.25-1.238-.348-.703-.16-1.422-.27-2.144-.379-.36-.055-.711-.137-1.075-.176a29.007 29.007 0 0 0-6.742.004 30.707 30.707 0 0 0-3.484.606 30.263 30.263 0 0 0-5.918 2.063 29.904 29.904 0 0 0-9.738 7.363 29.745 29.745 0 0 0-5.297 8.761 29.869 29.869 0 0 0-1.243 4.012l-4.695 20.082c-.11-.047-.207-.106-.316-.149a14.973 14.973 0 0 0-2.848-.886 15.51 15.51 0 0 0-6.121 0c-.988.203-1.941.5-2.852.886-.105.043-.207.102-.312.149l-4.7-20.082a29.76 29.76 0 0 0-22.195-22.2c-.175-.038-.347-.05-.523-.09-2.156-.464-4.293-.714-6.379-.714-1.125 0-2.23.07-3.324.195-.352.04-.692.117-1.04.172-.73.11-1.464.219-2.179.383-.41.094-.805.226-1.207.336-.637.176-1.273.347-1.89.562-.419.145-.82.325-1.231.489-.582.23-1.16.464-1.723.73-.41.195-.804.418-1.207.633-.53.285-1.066.57-1.582.887-.394.242-.77.504-1.152.765-.492.332-.977.672-1.445 1.035a26.2 26.2 0 0 0-1.086.887c-.45.379-.887.766-1.309 1.172-.34.32-.672.656-.996.996a30.512 30.512 0 0 0-2.066 2.395c-.36.46-.696.937-1.028 1.418-.265.39-.527.78-.777 1.18-.309.5-.594 1.015-.875 1.534-.223.418-.445.829-.652 1.254-.258.54-.48 1.09-.707 1.645-.176.433-.36.863-.516 1.305-.203.578-.367 1.171-.535 1.765-.125.442-.262.88-.367 1.328-.149.63-.247 1.274-.352 1.914-.07.438-.16.864-.21 1.305-.083.711-.11 1.438-.138 2.164-.02.387-.062.766-.062 1.156 0 1.024.058 2.067.168 3.11.008.097.004.191.015.289v.008a30.99 30.99 0 0 0 .614 3.55 29.76 29.76 0 0 0 22.195 22.2l22.992 5.375h-58.453c-1.68 0-3.246.511-4.543 1.39a8.103 8.103 0 0 0-3.582 6.734v11.083a8.124 8.124 0 0 0 8.125 8.125h1.45v139.812c0 7.39 5.988 13.383 13.378 13.383H440.07c7.387 0 13.38-5.992 13.38-13.383V132.72h1.445a8.124 8.124 0 0 0 8.125-8.125v-11.082a7.942 7.942 0 0 0-1.372-4.543zm-32.933-34.184c-1.438 6.145-6.145 10.856-12.29 12.293l-25.843 6.047 6.043-25.848c1.438-6.144 6.148-10.851 12.293-12.293 1.293-.3 2.598-.453 3.879-.453 4.973 0 9.648 2.297 12.824 6.305 1.832 2.312 4.672 7.2 3.094 13.95zm-111.883 0c-1.578-6.75 1.262-11.637 3.094-13.95 3.18-4.007 7.855-6.304 12.828-6.304 1.277 0 2.582.153 3.875.453 6.144 1.442 10.855 6.149 12.293 12.293l6.047 25.848-25.848-6.047c-6.14-1.437-10.851-6.148-12.289-12.293zM44.242 361.633H76.54v105.672H44.242zm0 0" fill="#69ebfc"/><path d="M443.547 383.426c-26.117.617-82.149 15.433-111.54 18.379-13.417 1.347-26.554-10.332-37.839-11.672 17.926-5.047 59.297-3.297 72.781-10.27 20.074-10.379-19.183-22.062-34.031-24.816-14.844-2.75-57.441-2.817-79.516-3-22.078-.18-41.386-13.438-64.578-11.824-23.195 1.613-45.648 15.543-62.722 31.734-16.325 2.41-33.125 2.95-49.567 3.25v72.934c18.438-.356 44.367 3.382 67.375 3.027 21.64 1.36 54.574 4.086 75.219 2.734 20.648-1.347 83.406 9.914 90.406 10.258 19.3.945 147.313-40.734 171.04-51.293 23.718-10.554-10.907-30.058-37.028-29.441zm0 0" fill="#ffefe4"/><path d="M480.574 402.867c-23.722 10.559-151.738 52.238-171.039 51.293-7-.344-69.758-11.605-90.406-10.258-20.645 1.352-53.578-1.379-75.219-2.734-23.008.355-48.937-3.383-67.375-3.027v10c18.438-.356 44.367 3.382 67.375 3.027 21.64 1.36 54.574 4.086 75.219 2.734 20.648-1.347 83.406 9.914 90.406 10.258 19.3.945 147.313-40.734 171.04-51.293 8.718-3.879 9.534-8.969 5.808-13.824-1.285 1.36-3.168 2.648-5.809 3.824zm0 0" fill="#edd4c2"/><path d="M44.242 455.566H76.54v11.739H44.242zm0 0" fill="#5fd4e3"/><path d="M44.242 490.02H0V338.922h44.242zm0 0" fill="#6770e6"/><path d="M0 478.277h44.242v11.743H0zm0 0" fill="#5861c7"/><path d="M105.574 168.457l20.477 10.766c2.39 1.254 5.183-.774 4.726-3.434l-3.914-22.805 16.57-16.148c1.93-1.883.864-5.164-1.804-5.555l-22.899-3.328-10.238-20.746c-1.195-2.422-4.644-2.422-5.84 0l-10.238 20.746-22.898 3.328c-2.672.39-3.739 3.672-1.805 5.555l16.57 16.148-3.914 22.805c-.453 2.66 2.336 4.688 4.727 3.434zm100.856 0l20.48 10.766c2.387 1.254 5.18-.774 4.723-3.434l-3.914-22.805 16.57-16.148c1.93-1.883.867-5.164-1.805-5.555l-22.894-3.328-10.242-20.746c-1.192-2.422-4.645-2.422-5.84 0l-10.238 20.746-22.899 3.328c-2.672.39-3.738 3.672-1.8 5.555l16.566 16.148-3.914 22.805c-.453 2.66 2.336 4.688 4.726 3.434zM105.574 271.5l20.477 10.766c2.39 1.254 5.183-.774 4.726-3.434l-3.914-22.805 16.57-16.148c1.93-1.883.864-5.168-1.804-5.555l-22.899-3.328-10.238-20.746c-1.195-2.422-4.644-2.422-5.84 0l-10.238 20.746-22.898 3.328c-2.672.387-3.739 3.672-1.805 5.555l16.57 16.148-3.914 22.805c-.453 2.66 2.336 4.688 4.727 3.434zm0 0" fill="#69ebfc"/><path d="M206.43 271.5l20.48 10.766c2.387 1.254 5.18-.774 4.723-3.434l-3.914-22.805 16.57-16.148c1.93-1.883.867-5.168-1.805-5.555l-22.894-3.328-10.242-20.746c-1.192-2.422-4.645-2.422-5.84 0l-10.238 20.746-22.899 3.328c-2.672.387-3.738 3.672-1.8 5.555l16.566 16.148-3.914 22.805c-.453 2.66 2.336 4.688 4.726 3.434zM317 176.695c0-3.347.645-6.507 1.938-9.476a25.207 25.207 0 0 1 5.312-7.824c2.25-2.247 4.906-4.02 7.969-5.31 3.062-1.292 6.41-1.94 10.05-1.94 3.637 0 7.008.648 10.118 1.94 3.113 1.29 5.793 3.063 8.043 5.31a25.32 25.32 0 0 1 5.312 7.824c1.29 2.969 1.938 6.129 1.938 9.476 0 3.352-.649 6.532-1.938 9.551-1.293 3.012-3.066 5.621-5.312 7.82-2.25 2.204-4.93 3.95-8.043 5.243-3.11 1.293-6.48 1.937-10.117 1.937-3.641 0-6.989-.644-10.051-1.937-3.063-1.293-5.719-3.04-7.969-5.243-2.25-2.199-4.02-4.808-5.312-7.82-1.293-3.02-1.938-6.2-1.938-9.55zm15.36 0c0 3.16.956 5.696 2.87 7.61 1.915 1.914 4.258 2.87 7.036 2.87 2.773 0 5.12-.956 7.035-2.87 1.914-1.914 2.87-4.45 2.87-7.61 0-3.156-.956-5.691-2.87-7.605-1.918-1.914-4.262-2.875-7.035-2.875-2.778 0-5.121.96-7.036 2.875-1.914 1.914-2.87 4.45-2.87 7.605zm6.667 64.965l56.145-83.832a6.827 6.827 0 1 1 11.348 7.598l-56.145 83.832a6.826 6.826 0 0 1-9.477 1.87 6.83 6.83 0 0 1-1.87-9.468zm38.844-11.273c0-3.348.645-6.508 1.938-9.473a25.162 25.162 0 0 1 5.312-7.824c2.246-2.25 4.902-4.024 7.969-5.313 3.062-1.293 6.41-1.937 10.047-1.937s7.011.644 10.125 1.937c3.105 1.29 5.789 3.063 8.039 5.313a25.229 25.229 0 0 1 5.312 7.824c1.293 2.965 1.938 6.125 1.938 9.473 0 3.351-.645 6.535-1.938 9.55s-3.066 5.622-5.312 7.825c-2.25 2.203-4.93 3.945-8.04 5.238-3.113 1.293-6.488 1.938-10.124 1.938s-6.985-.645-10.047-1.938c-3.067-1.293-5.723-3.04-7.969-5.238-2.25-2.203-4.02-4.809-5.312-7.825-1.293-3.015-1.938-6.199-1.938-9.55zm15.36 0c0 3.16.957 5.699 2.874 7.61 1.915 1.917 4.258 2.87 7.032 2.87 2.777 0 5.12-.953 7.039-2.87 1.914-1.915 2.87-4.45 2.87-7.61 0-3.157-.956-5.692-2.87-7.606-1.918-1.914-4.262-2.875-7.04-2.875-2.773 0-5.12.961-7.03 2.875-1.918 1.914-2.876 4.45-2.876 7.606zm0 0" fill="#ffefe4"/></svg>