<svg height="512pt" viewBox="0 0 512 512" width="512pt" xmlns="http://www.w3.org/2000/svg"><path d="M147.375 0h218.527v91.934H147.375zm0 0" fill="#5fd4e3"/><path d="M147.375 0h218.527v14H147.375zm0 0" fill="#69ebfc"/><path d="M512 512H0V78.887l71.781-20L256.562 92.55l184.782-33.664 70.656 20zm0 0" fill="#5fd4e3"/><path d="M71.781 58.953l.07-.055-.07-.011L0 78.887v14l80.05-22.305zm369.563-.066l-.07.011.07.055-9.906 13.934 80.562 20v-14zm0 0" fill="#69ebfc"/><path d="M0 498h512v14H0zM234.23 92.55h44.813v329.048H234.23zm0 0" fill="#58c3d1"/><path d="M71.781 58.953l109.188 153.59 75.594-119.992L147.375 0zm0 0" fill="#69ebfc"/><path d="M441.344 58.953l-109.188 153.59-75.594-119.992L365.755 0zm0 0" fill="#69ebfc"/><path d="M365.754 14l69.187 53.96 6.403-9.007L365.754 0 256.563 92.55l5.75 9.126zm-218.379 0L78.187 67.96l-6.406-9.007L147.375 0l109.188 92.55-5.75 9.126zm0 0" fill="#a1f1fc"/><path d="M479.543 394.828l-71.68 40-71.683-40V256h143.363zm-299.883 0l-71.68 40-71.683-40V256H179.66zm0 0" fill="#58c3d1"/><path d="M336.18 256h143.363v29.441H336.18zm-299.883 0H179.66v29.441H36.297zm0 0" fill="#69ebfc"/><path d="M270.445 147.566c0 7.63-6.18 13.809-13.808 13.809-7.625 0-13.809-6.18-13.809-13.809 0-7.625 6.184-13.804 13.809-13.804 7.629 0 13.808 6.18 13.808 13.804zm0 78.786c0 7.625-6.18 13.804-13.808 13.804-7.625 0-13.809-6.18-13.809-13.804 0-7.63 6.184-13.809 13.809-13.809 7.629 0 13.808 6.18 13.808 13.809zm0 78.777c0 7.629-6.18 13.808-13.808 13.808-7.625 0-13.809-6.18-13.809-13.808 0-7.625 6.184-13.809 13.809-13.809 7.629 0 13.808 6.184 13.808 13.809zm0 78.781c0 7.63-6.18 13.809-13.808 13.809-7.625 0-13.809-6.18-13.809-13.809 0-7.625 6.184-13.805 13.809-13.805 7.629 0 13.808 6.18 13.808 13.805zm0 0" fill="#5fd4e3"/></svg>