<svg height="512pt" viewBox="0 0 512.424 512" width="512pt" xmlns="http://www.w3.org/2000/svg"><path d="M43.469 244.352c-.77 41.601-6.98 88.128-8.422 98.457 10.07 3.07 15.473 29.312 42.508 29.312 33.156 0 88-51.906 111.668-60.844-2.125-9.226-5.399-23.953-7.172-34.468C179.277 260.406 195.289.21 195.289.21H26.891s17.453 197.023 16.578 244.14zm0 0" fill="#ffefe4"/><path d="M194.438 14.21c.535-8.862.851-14 .851-14H26.891s.46 5.173 1.218 14zm0 0" fill="#fff7f2"/><path d="M36.215 114.523c3.996 52.227 7.668 107.579 7.258 129.832-.77 41.602-6.98 88.13-8.422 98.454 10.07 3.07 15.472 29.316 42.504 29.316 33.156 0 88.004-51.91 111.668-60.844-2.121-9.226-5.395-23.957-7.172-34.469-1.512-8.964 2.586-90.347 6.61-162.289zm0 0" fill="#69ebfc"/><path d="M210.957 311.383s-17.61-46.508-37.48-40.856c-24.563 6.989-32.786 47.57-29.79 69.891zm0 0" fill="#5861c7"/><path d="M173.477 284.527c13.289-3.78 25.554 15.758 32.23 29.121l5.25-2.265s-17.61-46.508-37.484-40.856c-23.578 6.703-32.094 44.368-30.086 67.118 1.695-21.73 10.914-47.665 30.09-53.118zm0 0" fill="#6770e6"/><path d="M.512 449.262s-5.98-70.883 22.957-101.078c20.39-21.282 18.617 23.937 54.086 23.937 35.465 0 95.757-59.406 116.148-62.066 20.395-2.66 53.2 14.187 101.078 34.582s74.48 36.351 109.059 39.898c34.578 3.543 79.797-6.207 98.418 33.692l-43.446 39.011-189.742 17.73-253.582-9.753zm0 0" fill="#6770e6"/><path d="M23.469 362.184c20.39-21.282 18.617 23.941 54.086 23.941 35.465 0 95.757-59.406 116.148-62.066 20.395-2.657 53.2 14.187 101.078 34.578 47.88 20.394 74.48 36.351 109.059 39.898 31.613 3.242 72.11-4.605 93.05 24.512l5.368-4.82c-18.621-39.899-63.84-30.145-98.418-33.692s-61.18-19.504-109.059-39.898c-47.879-20.39-80.683-37.239-101.078-34.578s-80.683 62.066-116.148 62.066c-35.47 0-33.692-45.219-54.086-23.941C.609 372.039-.457 421.258.102 440.887c.632-23.41 4.843-59.38 23.367-78.703zm0 0" fill="#8f95e6"/><path d="M502.254 418.227c-18.621-39.899-63.84-30.145-98.418-33.692-34.578-3.547-61.18-19.504-109.059-39.898-47.879-20.39-80.683-37.239-101.078-34.578-6.894.898-18.36 8.293-31.875 17.675 37.95 14.414 157.63 60.254 179.946 73.649 26.601 15.96 31.652 63.836 31.652 63.836l93.77-15.508zm0 0" fill="#d476e2"/><path d="M193.703 324.059c20.39-2.66 53.195 14.183 101.078 34.578 47.88 20.394 74.477 36.351 109.055 39.898 31.617 3.242 72.113-4.605 93.055 24.512l5.363-4.82c-18.617-39.899-63.836-30.145-98.418-33.692-34.574-3.547-61.176-19.504-109.055-39.898-47.883-20.39-80.683-37.239-101.078-34.578-6.898.898-18.36 8.293-31.879 17.675 3.715 1.41 8.219 3.125 13.328 5.079 7.653-4.833 14.07-8.172 18.551-8.754zm0 0" fill="#ea82fa"/><path d="M.512 449.262h324.414c109.058 0 167.16-31.035 177.328-31.035 10.168 0 10.168 28.375 10.168 39.011 0 10.64-84.645 54.973-185.723 54.973H25.242c-16.847 0-24.73-16.844-24.73-62.95zm0 0" fill="#ffefe4"/><path d="M325.094 498.21H21.027c-7.804 0-13.695-3.565-17.789-11.87 3.602 18.445 10.828 25.87 22 25.87H326.7c101.074 0 185.723-44.331 185.723-54.972 0-3.136-.004-7.828-.266-12.87-5.222 12.308-88.379 53.843-187.062 53.843zm0 0" fill="#edd4c2"/><path d="M219.027 327.965a8.07 8.07 0 0 1-16.136 0 8.07 8.07 0 1 1 16.136 0zm0 0" fill="#b665c2"/><path d="M247.773 345.152a6.963 6.963 0 0 1-4.05-1.297 6.998 6.998 0 0 1-1.649-9.761l12.98-18.254a6.998 6.998 0 0 1 9.762-1.649 6.997 6.997 0 0 1 1.649 9.762l-12.98 18.254a6.993 6.993 0 0 1-5.712 2.945zm27.497 13.293a7.004 7.004 0 0 1-5.7-11.059l13.535-19.027a6.998 6.998 0 0 1 9.762-1.648 7 7 0 0 1 1.649 9.762L280.98 355.5a6.988 6.988 0 0 1-5.71 2.945zm29.09 13.317a7.004 7.004 0 0 1-5.7-11.059l14.102-19.824a6.997 6.997 0 0 1 9.761-1.649 7 7 0 0 1 1.645 9.762l-14.098 19.824a6.982 6.982 0 0 1-5.71 2.946zm31.773 11.976a7.004 7.004 0 0 1-5.7-11.059l10.403-14.628a7.004 7.004 0 0 1 9.762-1.649 7.005 7.005 0 0 1 1.648 9.762l-10.402 14.629a7.003 7.003 0 0 1-5.711 2.945zm0 0" fill="#69ebfc"/><path d="M60.328 170.438a6.337 6.337 0 0 1-6.34-6.34v-49.575h12.68v49.575c0 3.5-2.84 6.34-6.34 6.34zm34.613 0a6.337 6.337 0 0 1-6.34-6.34v-49.575h12.68v49.575c0 3.5-2.84 6.34-6.34 6.34zm34.614 0a6.337 6.337 0 0 1-6.34-6.34v-49.575h12.68v49.575a6.344 6.344 0 0 1-6.34 6.34zm34.609 0a6.34 6.34 0 0 1-6.34-6.34v-49.575h12.68v49.575a6.34 6.34 0 0 1-6.34 6.34zm0 0" fill="#5fd4e3"/></svg>