<svg height="512pt" viewBox="-94 0 512 512" width="512pt" xmlns="http://www.w3.org/2000/svg"><path d="M281.535 512H41.57C18.613 512 0 493.387 0 470.43V41.57C0 18.613 18.613 0 41.57 0h239.965c22.957 0 41.57 18.613 41.57 41.57v428.856c.004 22.96-18.609 41.574-41.57 41.574zm0 0" fill="#6770e6"/><path d="M281.535 0H41.57C18.613 0 0 18.613 0 41.57v14C0 32.613 18.613 14 41.57 14h239.965c22.957 0 41.57 18.613 41.57 41.57v-14C323.11 18.613 304.496 0 281.535 0zm0 0" fill="#8f95e6"/><path d="M41.57 512h239.965c22.957 0 41.57-18.613 41.57-41.57v-14c0 22.957-18.613 41.57-41.57 41.57H41.57C18.613 498 0 479.387 0 456.43v14C0 493.387 18.613 512 41.57 512zm0 0" fill="#5861c7"/><path d="M41.57 492C29.68 492 20 482.32 20 470.43V67.57C20 55.68 29.68 46 41.57 46h239.965c11.895 0 21.57 9.68 21.57 21.57v402.86c0 11.89-9.675 21.57-21.57 21.57zm0 0" fill="#a1f1fc"/><path d="M202.828 31.828H90.281a9 9 0 0 1 0-18h112.547c4.969 0 9 4.031 9 9s-4.031 9-9 9zm39-9c0 4.969-4.031 9-9 9s-9-4.031-9-9 4.031-9 9-9 9 4.031 9 9zm0 0" fill="#5861c7"/><path d="M166.613 300.535H57.66c-8.402 0-14.922-7.344-13.922-15.687l12.11-101.106a4.567 4.567 0 0 1 4.53-4.023h103.517a4.564 4.564 0 0 1 4.53 4.023l12.11 101.106c1 8.343-5.52 15.687-13.922 15.687zm0 0" fill="#6770e6"/><path d="M144.016 206.91c-3.317 0-6-2.687-6-6v-31.879c0-14.27-11.61-25.879-25.88-25.879s-25.878 11.61-25.878 25.88v31.878c0 3.313-2.688 6-6 6s-6-2.687-6-6v-31.879c0-20.886 16.992-37.879 37.879-37.879s37.879 16.993 37.879 37.88v31.878c0 3.313-2.688 6-6 6zm0 0" fill="#fff7f2"/><path d="M261.762 300.535h-99.457c-10.82 0-19.11-9.62-17.512-20.324l10.82-72.399a4.804 4.804 0 0 1 4.75-4.093H263.7a4.8 4.8 0 0 1 4.75 4.094l10.82 72.398c1.602 10.703-6.687 20.324-17.507 20.324zm0 0" fill="#d476e2"/><path d="M212.031 273.168c-15.437 0-28-12.559-28-28v-22c0-3.313 2.688-6 6-6 3.317 0 6 2.687 6 6v22c0 8.82 7.18 16 16 16 8.824 0 16-7.18 16-16v-22c0-3.313 2.688-6 6-6 3.317 0 6 2.687 6 6v22c0 15.441-12.558 28-28 28zm0 0" fill="#fff7f2"/><path d="M237.707 380.77H85.453c-13.23 0-23.957-10.727-23.957-23.958s10.727-23.957 23.957-23.957h152.258c13.23 0 23.953 10.727 23.953 23.957s-10.723 23.958-23.957 23.958zm0 0" fill="#d476e2"/><path d="M260.113 397.816l19.649-3.66c2.445-.453 2.832-3.797.554-4.797l-58.207-25.625c-2.113-.93-4.261 1.223-3.332 3.332l25.621 58.207c1.004 2.278 4.344 1.891 4.801-.554l3.39-18.2 19.52 18.672a5.718 5.718 0 0 0 3.97 1.594 5.734 5.734 0 0 0 4.155-1.773 5.75 5.75 0 0 0-.18-8.125zm0 0" fill="#fff7f2"/></svg>