<svg height="512pt" viewBox="-94 0 512 512" width="512pt" xmlns="http://www.w3.org/2000/svg"><path d="M281.535 512H41.57C18.613 512 0 493.387 0 470.43V41.57C0 18.613 18.613 0 41.57 0h239.965c22.957 0 41.57 18.613 41.57 41.57v428.856c.004 22.96-18.609 41.574-41.57 41.574zm0 0" fill="#6770e6"/><path d="M281.535 0H41.57C18.613 0 0 18.613 0 41.57v14C0 32.613 18.613 14 41.57 14h239.965c22.957 0 41.57 18.613 41.57 41.57v-14C323.11 18.613 304.496 0 281.535 0zm0 0" fill="#8f95e6"/><path d="M41.57 512h239.965c22.957 0 41.57-18.613 41.57-41.57v-14c0 22.957-18.613 41.57-41.57 41.57H41.57C18.613 498 0 479.387 0 456.43v14C0 493.387 18.613 512 41.57 512zm0 0" fill="#5861c7"/><path d="M41.57 492C29.68 492 20 482.32 20 470.43V67.57C20 55.68 29.68 46 41.57 46h239.965c11.895 0 21.57 9.68 21.57 21.57v402.86c0 11.89-9.675 21.57-21.57 21.57zm0 0" fill="#a1f1fc"/><path d="M202.828 31.828H90.281a9 9 0 0 1 0-18h112.547c4.969 0 9 4.031 9 9s-4.031 9-9 9zm39-9c0 4.969-4.031 9-9 9s-9-4.031-9-9 4.031-9 9-9 9 4.031 9 9zm0 0" fill="#5861c7"/><path d="M34.395 46h45.597l-12.027 58.633H7.559l15.476-50.246A11.888 11.888 0 0 1 34.395 46zm0 0" fill="#ff8354"/><path d="M79.996 46h54.379l-6.016 58.633H67.965zm0 0" fill="#fff7f2"/><path d="M134.375 46h54.375l6.016 58.633h-66.407zm0 0" fill="#ff8354"/><path d="M188.75 46h54.379l12.027 58.633h-60.39zm0 0" fill="#fff7f2"/><path d="M243.129 46h45.594c5.218 0 9.828 3.406 11.363 8.395l15.45 50.238h-60.38zm0 0" fill="#ff8354"/><path d="M37.777 142.95h-.035c-16.672 0-30.187-13.516-30.187-30.188v-8.13h60.41v8.13c0 16.672-13.516 30.187-30.188 30.187zm0 0" fill="#e0734a"/><path d="M98.188 142.95h-.036c-16.672 0-30.187-13.516-30.187-30.188v-8.13h60.41v8.13c0 16.672-13.516 30.187-30.188 30.187zm126.796 0h-.03c-16.673 0-30.188-13.516-30.188-30.188v-8.13h60.41v8.13c0 16.672-13.52 30.187-30.192 30.187zm0 0" fill="#ffefe4"/><path d="M285.363 142.95c-16.672 0-30.187-13.516-30.187-30.188v-8.13h60.375v8.13c0 16.672-13.516 30.187-30.188 30.187zm-120.785 0h-6.016c-16.671 0-30.187-13.516-30.187-30.188v-8.13h66.39v8.13c0 16.672-13.515 30.187-30.187 30.187zm0 0" fill="#e0734a"/><path d="M207.96 413.379c-3.241 0-6.44-.875-9.25-2.54-5.519-3.269-8.952-9.269-8.952-15.663 0-.512.031-1.012.078-1.512a17.97 17.97 0 0 1 3.043-8.68H138.21l-1.117 1.668a18.285 18.285 0 0 1 1.922 5.875c.058.387.105.785.14 1.188.031.344.055.719.067 1.101l.004.36c0 2.75-.614 5.41-1.829 7.914a18.073 18.073 0 0 1-1.972 3.195 18.72 18.72 0 0 1-1.531 1.762 18.236 18.236 0 0 1-4.192 3.133 18.26 18.26 0 0 1-3.27 1.379 18.198 18.198 0 0 1-14.66-1.723c-5.52-3.27-8.953-9.27-8.953-15.664 0-.512.028-1.012.075-1.512.382-4.836 2.73-9.238 6.304-12.305-1.886-1.093-3.426-2.445-4.601-4.039-2.739-3.703-3.395-8.515-1.844-13.546 1.629-5.305 4.996-10.028 10.035-14.094-2.8-1.957-5.023-4.73-6.258-8.004l-31.676-83.863a6.632 6.632 0 0 0-3.25-3.602l-2.32-1.16c-.82.195-1.656.297-2.504.297H49.543c-4.656 0-8.75-2.977-10.184-7.407a9.896 9.896 0 0 1-.367-1.5l-.035-.222a10.996 10.996 0 0 1-.121-1.582 10.741 10.741 0 0 1 1.824-5.985c2-2.96 5.32-4.726 8.883-4.726h17.238c3.563 0 6.88 1.762 8.88 4.719a10.264 10.264 0 0 1 .952 1.742l2.325 1.164a22.994 22.994 0 0 1 11.167 12.265l.086.2 5.317 14.078h154.16c1.77 0 3.355.433 4.746 1.258.422.25.774.5 1.098.765l.125.082.46.438c.145.14.286.289.423.437l.421.492c.098.125.207.29.325.454.054.086.12.18.183.273.215.344.399.668.551 1.004l.063.129.078.2c.074.163.18.44.27.726l.1.332c.075.277.13.504.176.73l.063.399c.04.246.062.496.074.75.012.109.024.289.024.468.004.196-.008.446-.028.7l-.015.277c-.051.46-.11.824-.196 1.187l-14.851 62.38a17.171 17.171 0 0 1-16.762 13.238h-80.441c-9.34 1.699-24.489 7.113-27.82 14.918 1.41.386 4.21.863 9.476.863h101.816c4.52 0 8.196 3.676 8.196 8.195 0 4.516-3.676 8.195-8.196 8.195h-4.492l-1.34 1.993a18.242 18.242 0 0 1 1.895 6.738c.023.234.043.484.05.746l.02.05v.661c0 2.75-.613 5.41-1.824 7.918a18.18 18.18 0 0 1-1.977 3.195 17.899 17.899 0 0 1-1.53 1.758 18.124 18.124 0 0 1-7.462 4.512 17.795 17.795 0 0 1-5.406.828zm19.04-76.95a.82.82 0 0 0 .813-.644l4.558-19.14h-24.805l-2.379 19.785zm-38.32 0l2.379-19.788h-29.79l2.786 19.789zm-66.813-.546c.117.316.45.547.785.547h24.852l-2.785-19.79h-30.121zm114.406-35.63l4.23-17.773H211.68l-2.14 17.774zm-43.238 0l2.14-17.773h-38.71l2.5 17.774zm-50.62 0l-2.5-17.773h-38.22l6.711 17.774zm0 0" fill="#6770e6"/><path d="M298.008 256c0 22.395-18.156 40.547-40.551 40.547S216.91 278.395 216.91 256s18.153-40.547 40.547-40.547 40.55 18.152 40.55 40.547zm0 0" fill="#d476e2"/><path d="M274.61 248.723h-9.876v-9.875c0-4.02-3.257-7.278-7.277-7.278s-7.277 3.258-7.277 7.278v9.875h-9.875c-4.02 0-7.278 3.257-7.278 7.277s3.258 7.277 7.278 7.277h9.875v9.875c0 4.02 3.257 7.278 7.277 7.278s7.277-3.258 7.277-7.278v-9.875h9.875c4.02 0 7.278-3.257 7.278-7.277s-3.258-7.277-7.278-7.277zm0 0" fill="#fff7f2"/></svg>