<svg height="512pt" viewBox="0 -22 512.002 512" width="512pt" xmlns="http://www.w3.org/2000/svg"><path d="M310.543 366.797l-40.2 27.836a22.429 22.429 0 0 1-25.53 0l-40.2-27.836c-47.425-32.844-75.722-86.86-75.722-144.543v-85.492a22.43 22.43 0 0 1 13.515-20.582l106.262-45.993a22.453 22.453 0 0 1 17.816 0l106.262 45.993a22.427 22.427 0 0 1 13.52 20.582v85.492c.004 57.684-28.297 111.7-75.723 144.543zm0 0" fill="#69ebfc"/><path d="M210.805 337.215A125.58 125.58 0 0 1 156.738 234v-93.676l100.84-43.644 100.84 43.644V234c0 41.184-20.215 79.766-54.074 103.215l-46.766 32.387zm0 0" fill="#5fd4e3"/><path d="M249.152 308.195c-10.57-1.547-19.968-5.632-28.218-12.261-4.809-3.864-8.813-8.707-12.012-14.536-3.883-7.07-.852-15.964 6.617-19.015 5.934-2.426 12.899-.363 16.207 5.125a37.326 37.326 0 0 0 3.676 5.062c3.797 4.442 8.375 7.512 13.73 9.192v-40.164l-1.89-.852c-5.211-1.969-10.117-4.289-14.692-6.976-4.578-2.668-8.601-5.778-12.047-9.297a41.428 41.428 0 0 1-8.25-11.946c-2.054-4.441-3.078-9.41-3.078-14.91 0-5.066.922-9.86 2.75-14.375 1.848-4.504 4.473-8.527 7.942-12.047 3.445-3.52 7.633-6.453 12.578-8.773 4.926-2.332 10.488-3.84 16.687-4.547v-8.773a9.41 9.41 0 1 1 18.82 0v9.195c5.645.844 10.548 2.332 14.692 4.445 4.168 2.113 7.727 4.578 10.797 7.293 1.18 1.047 2.32 2.293 3.398 3.637 5.34 6.683 2.625 16.68-5.187 20.168-5.352 2.39-11.516.89-15.461-3.45-2.066-2.277-4.79-4.511-8.238-6.09v37.845c6.074 2.543 11.554 5.152 16.5 7.832 4.925 2.675 9.152 5.703 12.683 9.09 3.531 3.374 6.2 7.222 8.024 11.515 1.847 4.309 2.75 9.273 2.75 14.91 0 6.34-1.09 11.985-3.266 16.91-2.195 4.938-5.11 9.164-8.781 12.684-3.676 3.531-7.922 6.352-12.79 8.469a63.115 63.115 0 0 1-15.124 4.433v9.192a9.407 9.407 0 0 1-9.41 9.41 9.41 9.41 0 0 1-9.41-9.41v-8.985zM235.22 197.617c0 3.387 1.086 6.313 3.261 8.778 2.196 2.472 5.747 4.972 10.672 7.511V183.04c-4.226 1.129-7.593 2.957-10.136 5.488-2.547 2.547-3.797 5.57-3.797 9.09zm45.664 68.086c0-3.664-.988-6.7-2.977-9.09-1.969-2.402-5.273-4.793-9.933-7.195v32.344c3.816-1.262 6.914-3.274 9.316-6.024 2.383-2.746 3.594-6.093 3.594-10.035zm0 0" fill="#a1f1fc"/><path d="M472.621 270.215c-8.5-2.063-17.098 3.164-19.16 11.683-22.055 90.961-102.895 154.489-196.586 154.489-58.863 0-114.7-25.59-153.191-70.207-22.246-25.785-36.442-58.403-41.176-93.785l1.648 1.648a15.821 15.821 0 0 0 11.219 4.648c4.063 0 8.121-1.55 11.219-4.648 6.199-6.195 6.199-16.242 0-22.441L56.84 221.848c-6.195-6.196-16.242-6.196-22.442 0l-29.75 29.757c-6.195 6.196-6.195 16.243 0 22.442 6.196 6.195 16.247 6.195 22.442 0l3.285-3.285c4.703 43.68 21.758 84.242 49.281 116.148 44.528 51.613 109.121 81.215 177.219 81.215 53.547 0 103.938-17.61 145.73-50.922 40.532-32.308 69.547-77.707 81.7-127.832 2.062-8.512-3.168-17.094-11.684-19.156zm34.734-76.133c-6.199-6.195-16.246-6.195-22.445 0l-3.281 3.281c-4.703-43.68-21.758-84.242-49.281-116.148C387.82 29.602 323.227 0 255.128 0c-53.55 0-103.94 17.61-145.73 50.922-40.53 32.312-69.546 77.71-81.699 127.832-2.066 8.516 3.164 17.094 11.684 19.16 8.512 2.059 17.094-3.168 19.16-11.684 22.05-90.964 102.89-154.492 196.582-154.492 58.863 0 114.695 25.59 153.188 70.207 22.246 25.79 36.445 58.403 41.18 93.785l-1.65-1.648c-6.198-6.195-16.241-6.195-22.445 0-6.195 6.195-6.195 16.242 0 22.441l29.754 29.754c3.102 3.098 7.16 4.649 11.223 4.649s8.121-1.551 11.223-4.649l29.754-29.754c6.199-6.199 6.199-16.246.003-22.441zm0 0" fill="#6770e6"/><path d="M109.402 60.922C151.192 27.609 201.582 10 255.13 10c68.098 0 132.691 29.602 177.223 81.215 27.523 31.906 44.574 72.469 49.277 116.148l3.281-3.281c6.2-6.195 16.246-6.195 22.445 0a15.823 15.823 0 0 1 3.829 6.219c1.824-5.516.562-11.832-3.829-16.219-6.199-6.195-16.242-6.195-22.445 0l-3.281 3.281c-4.703-43.68-21.754-84.242-49.277-116.148C387.82 29.602 323.227 0 255.129 0 201.582 0 151.19 17.605 109.402 50.922c-40.535 32.312-69.55 77.71-81.703 127.832a15.745 15.745 0 0 0 .356 8.664c12.34-49.59 41.172-94.477 81.347-126.496zm0 0" fill="#8f95e6"/><path d="M446.023 192.535c-6.21-4.582-14.996-4.078-20.62 1.543-4.102 4.656-5.653 10.703-3.825 16.223a15.792 15.792 0 0 1 3.828-6.223c6.2-6.195 16.242-6.195 22.446 0l3.644 3.649a192.439 192.439 0 0 0-2-11.965c-1.117-1.055-2.273-2.168-3.473-3.227zm0 0" fill="#8f95e6"/><g fill="#5861c7"><path d="M402.59 407.203c-41.79 33.313-92.18 50.922-145.727 50.922-68.101 0-132.695-29.602-177.222-81.215-27.524-31.906-44.578-72.469-49.278-116.148l-3.285 3.285c-6.195 6.195-16.242 6.195-22.441 0a15.792 15.792 0 0 1-3.828-6.223c-1.829 5.516-.563 11.832 3.828 16.223 6.195 6.195 16.242 6.195 22.441 0l3.285-3.285c4.7 43.68 21.754 84.242 49.278 116.148 44.527 51.613 109.12 81.215 177.222 81.215 53.547 0 103.938-17.605 145.727-50.922 40.535-32.308 69.55-77.707 81.703-127.832a15.783 15.783 0 0 0-.355-8.664c-12.344 49.594-41.176 94.477-81.348 126.496zm0 0"/><path d="M65.965 275.59c6.21 4.582 14.996 4.078 20.62-1.543 4.106-4.652 5.653-10.703 3.825-16.219a15.805 15.805 0 0 1-3.828 6.219c-6.195 6.195-16.242 6.195-22.441 0l-3.649-3.649a194.89 194.89 0 0 0 2 11.965c1.121 1.055 2.278 2.168 3.473 3.227zm0 0"/></g></svg>