<svg height="512pt" viewBox="-12 0 512 512.001" width="512pt" xmlns="http://www.w3.org/2000/svg"><path d="M39.324 172.875H472.68v250.21H39.324zm0 0" fill="#d476e2"/><path d="M39.324 172.875H472.68v14H39.324zm0 0" fill="#ea82fa"/><path d="M441.66 257.164v81.629c-29.422 0-53.273 23.852-53.273 53.273H123.613c0-29.421-23.851-53.273-53.273-53.273v-81.629c29.422 0 53.273-23.852 53.273-53.273h264.774c0 29.421 23.851 53.273 53.273 53.273zm0 0" fill="#b665c2"/><path d="M249.91 351.965c-7.637-1.117-14.43-4.07-20.39-8.86-3.477-2.796-6.368-6.296-8.68-10.507-2.809-5.11-.617-11.535 4.777-13.739 4.293-1.754 9.32-.265 11.715 3.704a26.71 26.71 0 0 0 2.656 3.656c2.746 3.21 6.051 5.426 9.922 6.644V303.84l-1.363-.617c-3.766-1.426-7.313-3.102-10.617-5.043-3.309-1.926-6.215-4.172-8.707-6.72a29.97 29.97 0 0 1-5.961-8.632c-1.485-3.207-2.227-6.797-2.227-10.773 0-3.664.668-7.125 1.988-10.387a26.73 26.73 0 0 1 5.743-8.707c2.492-2.543 5.515-4.664 9.09-6.34 3.562-1.684 7.578-2.773 12.058-3.281v-6.344a6.798 6.798 0 0 1 6.8-6.797 6.798 6.798 0 0 1 6.802 6.797v6.645c4.078.609 7.62 1.683 10.617 3.21 3.012 1.528 5.586 3.31 7.8 5.274.852.754 1.676 1.652 2.454 2.629 3.86 4.828 1.898 12.05-3.746 14.57-3.871 1.727-8.325.645-11.172-2.492-1.492-1.645-3.461-3.262-5.953-4.398v27.347c4.39 1.836 8.347 3.723 11.921 5.656 3.563 1.938 6.618 4.122 9.168 6.57 2.551 2.442 4.477 5.22 5.797 8.321 1.336 3.113 1.989 6.703 1.989 10.774 0 4.582-.786 8.66-2.36 12.218-1.586 3.567-3.691 6.625-6.347 9.168-2.653 2.551-5.723 4.59-9.239 6.117a45.457 45.457 0 0 1-10.93 3.204v6.644c0 3.758-3.042 6.8-6.8 6.8a6.798 6.798 0 0 1-6.8-6.8v-6.488zm-10.066-79.906c0 2.449.785 4.562 2.355 6.34 1.586 1.789 4.153 3.597 7.715 5.43v-22.306c-3.059.817-5.488 2.137-7.328 3.97-1.84 1.835-2.742 4.023-2.742 6.566zm32.996 49.203c0-2.649-.715-4.844-2.153-6.57-1.421-1.739-3.812-3.465-7.175-5.2v23.371c2.758-.91 4.996-2.367 6.73-4.351 1.723-1.989 2.598-4.407 2.598-7.25zm0 0" fill="#ea82fa"/><path d="M44.242 383.617H76.54V489.29H44.242zm0 0" fill="#69ebfc"/><path d="M443.547 405.406c-26.117.621-82.149 15.434-111.54 18.383-13.417 1.344-26.554-10.336-37.839-11.672 17.926-5.05 59.297-3.3 72.781-10.27 20.074-10.378-19.183-22.066-34.031-24.816-14.844-2.754-57.441-2.82-79.516-3-22.078-.183-41.386-13.437-64.578-11.828-23.195 1.613-45.648 15.543-62.722 31.735-16.325 2.414-33.125 2.953-49.567 3.253v72.93c18.442-.351 44.367 3.387 67.375 3.027 21.645 1.36 54.574 4.086 75.219 2.739 20.648-1.352 83.406 9.91 90.406 10.254 19.3.949 147.313-40.735 171.04-51.29 23.718-10.558-10.907-30.062-37.028-29.445zm0 0" fill="#ffefe4"/><path d="M480.574 424.852c-23.722 10.554-151.738 52.234-171.039 51.289-7-.34-69.758-11.602-90.406-10.254-20.645 1.347-53.574-1.38-75.219-2.739-23.008.36-48.933-3.378-67.375-3.027v10c18.442-.351 44.367 3.387 67.375 3.027 21.645 1.36 54.574 4.086 75.219 2.739 20.648-1.352 83.406 9.91 90.406 10.254 19.3.949 147.313-40.735 171.04-51.29 8.718-3.882 9.534-8.968 5.808-13.824-1.285 1.356-3.168 2.649-5.809 3.825zm0 0" fill="#edd4c2"/><path d="M44.242 477.547H76.54v11.742H44.242zm0 0" fill="#5fd4e3"/><path d="M44.242 512H0V360.906h44.242zm0 0" fill="#6770e6"/><path d="M0 500.262h44.242V512H0zm0 0" fill="#5861c7"/><path d="M225.5 100.605c0 32.332-26.21 58.543-58.547 58.543-32.332 0-58.543-26.21-58.543-58.543s26.211-58.543 58.543-58.543c32.336 0 58.547 26.211 58.547 58.543zm0 0" fill="#69ebfc"/><path d="M166.953 50.54c30.906 0 56.203 23.952 58.375 54.308.102-1.403.172-2.813.172-4.239 0-32.332-26.21-58.546-58.547-58.546-32.332 0-58.543 26.21-58.543 58.546 0 1.426.07 2.836.172 4.239 2.172-30.356 27.465-54.309 58.371-54.309zm0 0" fill="#a1f1fc"/><path d="M207.484 100.605c0 22.383-18.144 40.532-40.53 40.532-22.384 0-40.528-18.149-40.528-40.532 0-22.382 18.144-40.53 40.527-40.53 22.387 0 40.531 18.148 40.531 40.53zm0 0" fill="#5fd4e3"/><path d="M163.988 127.445c-3.832-.562-7.242-2.043-10.234-4.445-1.742-1.402-3.195-3.156-4.356-5.273-1.406-2.563-.308-5.79 2.399-6.895 2.152-.879 4.68-.133 5.879 1.86.387.64.832 1.253 1.332 1.835 1.379 1.614 3.035 2.727 4.98 3.336v-14.566l-.683-.309a34.465 34.465 0 0 1-5.328-2.527 20.74 20.74 0 0 1-4.372-3.371 15.111 15.111 0 0 1-2.992-4.332c-.742-1.613-1.113-3.414-1.113-5.406 0-1.84.332-3.579.996-5.215a13.404 13.404 0 0 1 2.879-4.367c1.25-1.278 2.77-2.34 4.563-3.184 1.789-.844 3.804-1.39 6.05-1.648v-3.18a3.413 3.413 0 1 1 6.825 0v3.332c2.046.305 3.828.844 5.328 1.613a18.48 18.48 0 0 1 3.914 2.645c.43.379.843.832 1.23 1.316 1.938 2.426.957 6.05-1.879 7.313-1.941.867-4.176.324-5.605-1.25a9.205 9.205 0 0 0-2.988-2.207v13.722a65.882 65.882 0 0 1 5.984 2.844c1.785.969 3.32 2.066 4.601 3.293a12.63 12.63 0 0 1 2.91 4.176c.669 1.562.997 3.367.997 5.406 0 2.3-.395 4.348-1.184 6.133-.797 1.789-1.855 3.324-3.187 4.601a15.676 15.676 0 0 1-4.637 3.07 22.834 22.834 0 0 1-5.484 1.606v3.336a3.412 3.412 0 1 1-6.824 0zm-5.05-40.097c0 1.226.394 2.289 1.183 3.183.797.895 2.082 1.805 3.871 2.723V82.059c-1.535.41-2.754 1.074-3.676 1.992-.925.922-1.379 2.02-1.379 3.297zm16.558 24.691c0-1.328-.36-2.43-1.082-3.297-.715-.87-1.91-1.738-3.601-2.61v11.731c1.382-.457 2.507-1.187 3.378-2.183.868-1 1.305-2.215 1.305-3.64zm0 0" fill="#a1f1fc"/><path d="M403.59 58.543c0 32.336-26.211 58.547-58.543 58.547s-58.543-26.211-58.543-58.547C286.504 26.211 312.714 0 345.047 0s58.543 26.21 58.543 58.543zm0 0" fill="#69ebfc"/><path d="M345.047 8.477c30.906 0 56.2 23.953 58.375 54.304.098-1.402.168-2.812.168-4.238C403.59 26.211 377.379 0 345.047 0s-58.543 26.21-58.543 58.543c0 1.426.07 2.836.168 4.238 2.176-30.351 27.469-54.304 58.375-54.304zm0 0" fill="#a1f1fc"/><path d="M385.578 58.543c0 22.387-18.148 40.531-40.531 40.531s-40.531-18.144-40.531-40.531c0-22.383 18.148-40.527 40.53-40.527s40.532 18.144 40.532 40.527zm0 0" fill="#5fd4e3"/><path d="M342.082 85.383c-3.832-.563-7.242-2.04-10.234-4.445-1.746-1.403-3.196-3.157-4.356-5.274-1.41-2.562-.308-5.789 2.399-6.894 2.152-.88 4.68-.133 5.879 1.859.386.64.828 1.254 1.332 1.836 1.375 1.613 3.035 2.726 4.976 3.336V61.234l-.683-.304a35.017 35.017 0 0 1-5.329-2.532 20.714 20.714 0 0 1-4.367-3.37 15.034 15.034 0 0 1-2.992-4.333c-.746-1.613-1.117-3.414-1.117-5.406 0-1.84.336-3.578 1-5.215a13.342 13.342 0 0 1 2.879-4.367c1.25-1.277 2.77-2.34 4.562-3.184 1.785-.843 3.805-1.39 6.051-1.648v-3.18a3.412 3.412 0 1 1 6.824 0v3.332c2.043.309 3.824.844 5.328 1.614a18.529 18.529 0 0 1 3.914 2.644c.426.38.84.832 1.23 1.32 1.938 2.422.954 6.047-1.878 7.31-1.941.866-4.18.323-5.605-1.25a9.248 9.248 0 0 0-2.989-2.208v13.727c2.2.921 4.188 1.867 5.985 2.84 1.785.968 3.316 2.066 4.597 3.292 1.282 1.227 2.25 2.621 2.91 4.176.672 1.563 1 3.367 1 5.406 0 2.301-.394 4.348-1.187 6.133-.793 1.79-1.852 3.324-3.184 4.602-1.332 1.277-2.87 2.305-4.636 3.07s-3.594 1.3-5.485 1.606v3.336a3.414 3.414 0 0 1-3.414 3.41 3.41 3.41 0 0 1-3.41-3.41zm-5.055-40.098c0 1.227.395 2.285 1.184 3.18.797.898 2.086 1.805 3.871 2.726V39.996c-1.535.41-2.754 1.07-3.676 1.988-.922.926-1.379 2.024-1.379 3.301zm16.559 24.688c0-1.328-.356-2.43-1.078-3.293-.715-.871-1.914-1.739-3.602-2.61V75.8c1.383-.456 2.508-1.187 3.375-2.183.867-1 1.305-2.215 1.305-3.644zm0 0" fill="#a1f1fc"/></svg>