<svg height="512pt" viewBox="0 0 512 512" width="512pt" xmlns="http://www.w3.org/2000/svg"><path d="M497.77 395.148H14.23c-7.859 0-14.23-6.37-14.23-14.234V14.23C0 6.371 6.371 0 14.23 0h483.536c7.859 0 14.23 6.371 14.23 14.23v366.684c.004 7.863-6.367 14.234-14.226 14.234zm0 0" fill="#6770e6"/><path d="M497.77 0H14.23C6.371 0 0 6.371 0 14.23v14C0 20.371 6.371 14 14.23 14h483.54c7.859 0 14.23 6.371 14.23 14.23v-14C512 6.371 505.629 0 497.77 0zm0 0" fill="#8f95e6"/><path d="M30 350.914V49.191C30 38.594 38.594 30 49.191 30H462.81C473.406 30 482 38.594 482 49.191v301.723c0 7.863-6.371 14.234-14.23 14.234H44.23c-7.859 0-14.23-6.37-14.23-14.234zm0 0" fill="#69ebfc"/><path d="M196.277 395.148h121.895v76.872H196.277zm0 0" fill="#5861c7"/><path d="M375.809 512H139.207c-11.039 0-19.988-8.95-19.988-19.988 0-11.043 8.949-19.992 19.988-19.992h236.602c11.043 0 19.992 8.949 19.992 19.992 0 11.039-8.95 19.988-19.992 19.988zm0 0" fill="#6770e6"/><path d="M375.809 498H139.207c-8.574 0-15.863-5.406-18.703-12.988a19.814 19.814 0 0 0-1.29 7c0 11.039 8.95 19.988 19.993 19.988h236.602c11.039 0 19.988-8.95 19.988-19.988a19.9 19.9 0 0 0-1.285-7c-2.836 7.582-10.13 12.988-18.703 12.988zm0 0" fill="#5861c7"/><path d="M302.336 327.863h-.707V317.5c0-17.52-14.2-31.719-31.719-31.719H96.246c-17.516 0-31.715 14.2-31.715 31.719v10.363h-.707a8.851 8.851 0 0 0-8.851 8.852c0 4.887 3.964 8.848 8.851 8.848h238.512c4.887 0 8.851-3.961 8.851-8.848a8.851 8.851 0 0 0-8.851-8.852zm0 0" fill="#b665c2"/><path d="M263.426 268.078H102.734a6.743 6.743 0 0 0-6.742 6.742v10.961h174.172v-10.96a6.74 6.74 0 0 0-6.738-6.743zm0 0" fill="#d476e2"/><path d="M342.219 139.746l-17.215 17.219-66.117-66.117 17.215-17.22zm-68.289 68.289l-17.22 17.219-66.116-66.117 17.219-17.219zm0 0" fill="#b665c2"/><path d="M328.93 169.078l-42.89 42.89a5.79 5.79 0 0 1-8.185 0l-73.976-73.976a5.79 5.79 0 0 1 0-8.183l42.89-42.891a5.783 5.783 0 0 1 8.184 0l73.977 73.977a5.783 5.783 0 0 1 0 8.183zm-64.735 78.91c4.211-4.21 4.211-11.039 0-15.25l-81.09-81.086c-4.21-4.21-11.039-4.21-15.25 0-4.21 4.211-4.21 11.04 0 15.25l81.09 81.086c4.211 4.215 11.04 4.215 15.25 0zM364.953 147.23c4.211-4.21 4.211-11.039 0-15.25l-81.09-81.09c-4.21-4.21-11.039-4.21-15.25 0-4.21 4.215-4.21 11.044 0 15.25l81.09 81.09c4.207 4.215 11.035 4.215 15.25 0zm0 0" fill="#d476e2"/><path d="M457.219 342.055c-8.914 8.918-23.461 8.62-32.008-.653L296.383 201.625l20.406-20.406 139.777 128.828c9.278 8.547 9.57 23.09.653 32.008zm0 0" fill="#b665c2"/></svg>