<svg height="512pt" viewBox="-49 0 512 512" width="512pt" xmlns="http://www.w3.org/2000/svg"><path d="M389.059 235.672c-8.371 0-15.871-5.875-17.614-14.395-15.914-77.765-85.175-134.21-164.691-134.21-64.86 0-124.613 37.945-152.223 96.667-4.23 8.996-14.957 12.86-23.949 8.633-8.996-4.23-12.86-14.953-8.629-23.949 33.52-71.29 106.059-117.352 184.8-117.352 96.54 0 180.634 68.551 199.958 162.993 1.996 9.742-4.285 19.25-14.024 21.246-1.218.246-2.43.367-3.628.367zm0 0" fill="#ff8354"/><path d="M38.105 193.559a17.999 17.999 0 0 1-17.727-14.875L7.282 104.402c-1.726-9.789 4.813-19.125 14.602-20.851 9.789-1.727 19.125 4.808 20.851 14.597l9.973 56.559 56.555-9.973c9.789-1.722 19.125 4.809 20.851 14.602 1.727 9.789-4.808 19.125-14.597 20.851L41.23 193.286a17.921 17.921 0 0 1-3.125.274zm0 0" fill="#ff8354"/><path d="M20.945 180.926c.203.73.442 1.453.739 2.152.015-.035.027-.07.043-.11a17.623 17.623 0 0 1-.782-2.042zm385.77 33.133C387.387 119.617 303.293 51.066 206.754 51.066c-62.258 0-120.617 28.817-158.899 76.11l2.028 11.511c38.3-45.816 95.71-73.62 156.87-73.62 95.216 0 178.282 66.703 199.087 159.144a17.935 17.935 0 0 0 .875-10.152zM20.219 177.79l.16.894c.008.054.023.105.035.156zm4.312-80.243c8.11-1.367 15.91 2.48 19.688 9.023l-1.485-8.422c-1.726-9.789-11.062-16.324-20.851-14.597-9.79 1.726-16.328 11.062-14.602 20.851l1.762 9.985c.414-8.207 6.684-15.352 15.488-16.84zm0 0" fill="#ffac8c"/><path d="M207.336 460.105c-96.54 0-180.637-68.546-199.961-162.992-1.996-9.738 4.285-19.25 14.023-21.242 9.739-1.992 19.25 4.285 21.247 14.024 15.914 77.765 85.175 134.21 164.69 134.21 64.86 0 124.61-37.945 152.224-96.667 4.226-9 14.953-12.86 23.949-8.633 8.996 4.23 12.86 14.953 8.629 23.949-33.524 71.289-106.063 117.351-184.801 117.351zm0 0" fill="#ff8354"/><path d="M364.203 372.484c-38.297 45.82-95.707 73.621-156.867 73.621-95.215 0-178.281-66.699-199.086-159.14a17.898 17.898 0 0 0-.879 10.148C26.7 391.56 110.793 460.105 207.332 460.105c62.258 0 120.617-28.812 158.898-76.105zm28.934-42.265a17.711 17.711 0 0 0-.73-2.125c-.016.035-.032.07-.044.105.293.653.555 1.324.774 2.02zm0 0" fill="#e0734a"/><path d="M389.059 427.902c-8.57 0-16.168-6.14-17.707-14.875l-9.973-56.554-56.555 9.972c-9.785 1.73-19.125-4.808-20.851-14.597-1.727-9.793 4.812-19.13 14.601-20.856l74.281-13.097c9.79-1.723 19.125 4.812 20.852 14.601l13.098 74.281c1.726 9.79-4.809 19.125-14.598 20.852a18.37 18.37 0 0 1-3.148.273zm0 0" fill="#ff8354"/><path d="M406.805 406.773l-.86-4.878c-2.289 5.914-7.886 10.562-15.12 11.73a21.426 21.426 0 0 1-3.438.277c-7.555 0-14.41-4.004-17.664-10.132l1.632 9.253c1.54 8.735 9.133 14.875 17.704 14.875 1.039 0 2.09-.09 3.148-.273 9.79-1.727 16.324-11.062 14.598-20.852zm0 0" fill="#e0734a"/><path d="M145.074 512H21.422C9.59 512 0 502.41 0 490.578V269.594c0-11.832 9.59-21.422 21.422-21.422h123.652c11.832 0 21.422 9.59 21.422 21.422v220.984c0 11.832-9.594 21.422-21.422 21.422zm0 0" fill="#6770e6"/><path d="M145.074 248.172H21.422C9.594 248.172 0 257.762 0 269.594v7.215c0-11.832 9.59-21.422 21.422-21.422h123.652c11.828 0 21.422 9.59 21.422 21.422v-7.215c0-11.832-9.594-21.422-21.422-21.422zm0 0" fill="#8f95e6"/><path d="M21.422 512h123.652c11.828 0 21.422-9.59 21.422-21.422v-7.215c0 11.832-9.59 21.422-21.422 21.422H21.422C9.594 504.785 0 495.195 0 483.363v7.215C.004 502.41 9.594 512 21.422 512zm0 0" fill="#5861c7"/><path d="M21.422 501.695c-6.129 0-11.117-4.988-11.117-11.117v-207.59c0-6.129 4.988-11.113 11.117-11.113h123.652c6.13 0 11.117 4.984 11.117 11.113v207.59c0 6.129-4.988 11.117-11.117 11.117zm0 0" fill="#a1f1fc"/><path d="M104.516 264.57H46.523a4.638 4.638 0 1 1 0-9.273h57.993c2.562 0 4.636 2.074 4.636 4.637s-2.074 4.636-4.636 4.636zm20.097-4.636a4.638 4.638 0 0 1-4.64 4.636 4.637 4.637 0 0 1 0-9.273 4.638 4.638 0 0 1 4.64 4.637zm0 0" fill="#5861c7"/><path d="M393.246 263.828H269.594c-11.832 0-21.422-9.59-21.422-21.422V21.422C248.172 9.59 257.766 0 269.594 0h123.648c11.832 0 21.422 9.59 21.422 21.422v220.984c0 11.832-9.59 21.422-21.418 21.422zm0 0" fill="#6770e6"/><path d="M393.246 0H269.594c-11.828 0-21.422 9.59-21.422 21.422v7.215c0-11.832 9.59-21.422 21.422-21.422h123.648c11.832 0 21.422 9.59 21.422 21.422v-7.215C414.664 9.59 405.074 0 393.246 0zm0 0" fill="#8f95e6"/><path d="M269.594 263.828h123.648c11.832 0 21.422-9.59 21.422-21.422v-7.215c0 11.832-9.59 21.422-21.422 21.422H269.594c-11.828 0-21.422-9.59-21.422-21.422v7.215c0 11.832 9.594 21.422 21.422 21.422zm0 0" fill="#5861c7"/><path d="M269.594 253.523c-6.13 0-11.117-4.988-11.117-11.117V34.82c0-6.129 4.988-11.117 11.117-11.117h123.648c6.133 0 11.117 4.988 11.117 11.117v207.586c0 6.133-4.984 11.117-11.117 11.117zm0 0" fill="#a1f1fc"/><path d="M352.688 16.398h-57.993a4.638 4.638 0 1 1 0-9.273h57.993a4.637 4.637 0 1 1 0 9.273zm20.097-4.632a4.64 4.64 0 1 1-4.64-4.64 4.641 4.641 0 0 1 4.64 4.64zm0 0" fill="#5861c7"/><path d="M138.637 385.797c0 30.594-24.797 55.39-55.39 55.39-30.59 0-55.388-24.796-55.388-55.39 0-30.59 24.797-55.39 55.387-55.39 30.594 0 55.39 24.8 55.39 55.39zm0 0" fill="#6770e6"/><path d="M121.594 385.797c0 21.18-17.168 38.348-38.348 38.348-21.176 0-38.344-17.168-38.344-38.348 0-21.176 17.168-38.344 38.344-38.344 21.18 0 38.348 17.168 38.348 38.344zm0 0" fill="#5861c7"/><path d="M80.441 411.191c-3.625-.53-6.851-1.93-9.68-4.207-1.652-1.328-3.027-2.988-4.124-4.988-1.332-2.426-.29-5.476 2.27-6.523 2.038-.832 4.429-.125 5.562 1.757.367.61.789 1.184 1.261 1.739 1.301 1.523 2.872 2.578 4.711 3.152v-13.777l-.648-.293a32.915 32.915 0 0 1-5.043-2.395c-1.57-.918-2.95-1.98-4.133-3.191a14.175 14.175 0 0 1-2.832-4.098c-.703-1.523-1.055-3.226-1.055-5.113 0-1.742.317-3.387.946-4.934a12.68 12.68 0 0 1 2.722-4.132c1.184-1.211 2.622-2.215 4.317-3.012 1.691-.801 3.597-1.317 5.726-1.559v-3.012a3.225 3.225 0 0 1 3.227-3.226 3.225 3.225 0 0 1 3.227 3.226v3.157c1.937.285 3.62.797 5.043 1.523a17.41 17.41 0 0 1 3.703 2.504c.406.356.796.785 1.168 1.246 1.832 2.293.902 5.723-1.778 6.918-1.84.82-3.953.309-5.304-1.183a8.747 8.747 0 0 0-2.829-2.09v12.984a63.974 63.974 0 0 1 5.665 2.688c1.69.918 3.14 1.957 4.351 3.117a11.912 11.912 0 0 1 2.754 3.953c.633 1.476.945 3.18.945 5.113 0 2.176-.375 4.113-1.12 5.805-.755 1.691-1.755 3.14-3.016 4.351a14.655 14.655 0 0 1-4.383 2.903 21.573 21.573 0 0 1-5.192 1.52v3.156a3.228 3.228 0 1 1-6.457 0v-3.079zm-4.78-37.937c0 1.16.374 2.164 1.12 3.008.754.847 1.973 1.707 3.664 2.578v-10.59c-1.453.387-2.605 1.016-3.48 1.883-.875.875-1.305 1.91-1.305 3.12zm15.667 23.36c0-1.259-.34-2.302-1.023-3.122-.676-.824-1.809-1.644-3.407-2.469v11.098c1.309-.434 2.372-1.125 3.196-2.066.82-.942 1.234-2.09 1.234-3.442zm0 0" fill="#8f95e6"/><path d="M150.059 344.598c0 14.14-11.465 25.609-25.61 25.609s-25.61-11.469-25.61-25.61c0-14.144 11.466-25.613 25.61-25.613s25.61 11.47 25.61 25.614zm0 0" fill="#d476e2"/><path d="M135.242 339.922h-21.586a4.633 4.633 0 0 0-4.633 4.633 4.634 4.634 0 0 0 4.633 4.636h21.586a4.635 4.635 0 1 0 0-9.27zm0 0" fill="#fff7f2"/><path d="M386.578 137.625c0 30.594-24.797 55.39-55.387 55.39-30.593 0-55.39-24.796-55.39-55.39 0-30.59 24.797-55.39 55.39-55.39 30.59 0 55.387 24.8 55.387 55.39zm0 0" fill="#6770e6"/><path d="M369.535 137.625c0 21.18-17.168 38.348-38.344 38.348-21.18 0-38.347-17.168-38.347-38.348 0-21.176 17.168-38.344 38.347-38.344 21.176 0 38.344 17.168 38.344 38.344zm0 0" fill="#5861c7"/><path d="M328.383 163.02c-3.625-.532-6.852-1.93-9.68-4.208-1.652-1.328-3.023-2.988-4.125-4.988-1.332-2.426-.289-5.476 2.274-6.523 2.035-.832 4.425-.125 5.558 1.758.367.605.79 1.183 1.262 1.738 1.3 1.523 2.871 2.578 4.71 3.152v-13.777l-.648-.293a32.915 32.915 0 0 1-5.043-2.395c-1.57-.918-2.949-1.98-4.132-3.191a14.252 14.252 0 0 1-2.832-4.098c-.704-1.523-1.055-3.226-1.055-5.117 0-1.738.316-3.383.945-4.93a12.628 12.628 0 0 1 2.727-4.132c1.18-1.211 2.617-2.215 4.312-3.012 1.692-.8 3.602-1.317 5.727-1.559v-3.011a3.228 3.228 0 1 1 6.457 0v3.156c1.933.285 3.617.797 5.039 1.523a17.54 17.54 0 0 1 3.707 2.504c.402.356.793.785 1.164 1.246 1.832 2.293.902 5.723-1.777 6.918-1.84.82-3.953.309-5.305-1.183a8.771 8.771 0 0 0-2.824-2.09v12.984c2.082.875 3.96 1.77 5.66 2.688 1.691.918 3.14 1.957 4.351 3.117a11.937 11.937 0 0 1 2.754 3.95c.633 1.48.946 3.183.946 5.116 0 2.176-.375 4.114-1.121 5.801-.754 1.695-1.754 3.145-3.012 4.356a14.723 14.723 0 0 1-4.387 2.902 21.573 21.573 0 0 1-5.191 1.52v3.156a3.228 3.228 0 1 1-6.457 0v-3.078zm-4.781-37.942c0 1.164.375 2.168 1.12 3.012.755.847 1.973 1.707 3.66 2.578v-10.59c-1.448.387-2.605 1.016-3.476 1.883-.875.875-1.304 1.91-1.304 3.117zm15.668 23.363c0-1.257-.336-2.3-1.024-3.12-.676-.825-1.808-1.645-3.406-2.47v11.098c1.308-.433 2.37-1.125 3.195-2.066.82-.942 1.235-2.09 1.235-3.442zm0 0" fill="#8f95e6"/><path d="M398.004 96.426c0 14.14-11.469 25.61-25.613 25.61s-25.61-11.47-25.61-25.61c0-14.145 11.465-25.614 25.61-25.614s25.613 11.47 25.613 25.614zm0 0" fill="#d476e2"/><path d="M383.227 91.824h-6.239V85.59a4.595 4.595 0 1 0-9.191 0v6.234h-6.234a4.598 4.598 0 0 0 0 9.196h6.234v6.234a4.595 4.595 0 1 0 9.191 0v-6.234h6.239a4.594 4.594 0 0 0 4.593-4.594 4.595 4.595 0 0 0-4.593-4.602zm0 0" fill="#fff7f2"/></svg>