<svg height="512pt" viewBox="0 0 512.026 512" width="512pt" xmlns="http://www.w3.org/2000/svg"><path d="M497.793 395.16H14.258c-7.86 0-14.23-6.37-14.23-14.23V14.246c0-7.86 6.37-14.234 14.23-14.234h483.535c7.86 0 14.23 6.375 14.23 14.234V380.93c.004 7.86-6.37 14.23-14.23 14.23zm0 0" fill="#6770e6"/><path d="M497.793.012H14.258C6.398.012.028 6.387.028 14.246v14c0-7.86 6.37-14.234 14.23-14.234h483.535c7.86 0 14.234 6.375 14.234 14.234v-14c0-7.86-6.375-14.234-14.234-14.234zm0 0" fill="#8f95e6"/><path d="M30.027 350.93V49.203c0-10.598 8.59-19.191 19.192-19.191h413.617c10.598 0 19.191 8.593 19.191 19.191V350.93c0 7.86-6.375 14.23-14.234 14.23H44.258c-7.86 0-14.23-6.37-14.23-14.23zm0 0" fill="#69ebfc"/><path d="M196.3 395.16h121.9v76.871H196.3zm0 0" fill="#5861c7"/><path d="M375.836 512.012H139.234c-11.039 0-19.992-8.95-19.992-19.989 0-11.039 8.953-19.992 19.992-19.992h236.602c11.039 0 19.988 8.953 19.988 19.992 0 11.04-8.949 19.989-19.988 19.989zm0 0" fill="#6770e6"/><path d="M375.836 498.012H139.234c-8.574 0-15.867-5.407-18.707-12.989a19.916 19.916 0 0 0-1.285 7c0 11.04 8.95 19.989 19.988 19.989h236.606c11.039 0 19.988-8.95 19.988-19.989 0-2.464-.469-4.82-1.285-7-2.836 7.582-10.129 12.989-18.703 12.989zm0 0" fill="#5861c7"/><path d="M49.066 30.012h71.36l-20 70.879H0l22.598-53.34a28.75 28.75 0 0 1 26.468-17.54zm0 0" fill="#ff8354"/><path d="M120.426 30.012h90.398l-10 70.879H100.426zm0 0" fill="#fff7f2"/><path d="M210.824 30.012h90.403l10 70.879H200.824zm0 0" fill="#ff8354"/><path d="M301.227 30.012h90.398l20 70.879H311.227zm0 0" fill="#fff7f2"/><path d="M391.625 30.012h71.344c11.55 0 21.98 6.914 26.48 17.55L512 100.892H411.625zm0 0" fill="#ff8354"/><path d="M50.238 164.59h-.05C22.468 164.59 0 142.12 0 114.402v-13.511h100.426v13.511c0 27.72-22.469 50.188-50.188 50.188zm0 0" fill="#e0734a"/><path d="M150.664 164.59h-.05c-27.72 0-50.188-22.473-50.188-50.188v-13.511h100.426v13.511c0 27.72-22.47 50.188-50.188 50.188zm210.801 0h-.055c-27.715 0-50.183-22.473-50.183-50.188v-13.511h100.425v13.511c0 27.72-22.468 50.188-50.187 50.188zm0 0" fill="#ffefe4"/><path d="M461.84 164.59c-27.719 0-50.188-22.473-50.188-50.188v-13.511h100.375v13.511c0 27.72-22.472 50.188-50.187 50.188zm-200.8 0h-10c-27.72 0-50.185-22.473-50.185-50.188v-13.511h110.372v13.511c0 27.72-22.47 50.188-50.188 50.188zm0 0" fill="#e0734a"/><path d="M295.32 346.676c-2.945 0-5.855-.797-8.41-2.309-5.023-2.972-8.14-8.43-8.14-14.246 0-.46.023-.918.066-1.371a16.39 16.39 0 0 1 2.309-7.172h-47.227l-.7 1.04a16.689 16.689 0 0 1 1.747 6.179c.039.398.062.848.066 1.305 0 2.52-.558 4.945-1.66 7.218a16.556 16.556 0 0 1-1.8 2.907c-.43.558-.887 1.097-1.383 1.597a16.547 16.547 0 0 1-3.82 2.852 16.434 16.434 0 0 1-7.891 2c-2.95 0-5.86-.797-8.414-2.309-5.02-2.969-8.141-8.43-8.141-14.246 0-.46.027-.918.066-1.367.332-4.184 2.278-8.008 5.262-10.774-1.477-.937-2.703-2.058-3.664-3.367-2.512-3.394-3.117-7.793-1.703-12.386 1.422-4.618 4.289-8.73 8.558-12.301a15.619 15.619 0 0 1-5.207-6.934l-28-74.129a5.382 5.382 0 0 0-2.644-2.933l-1.902-.953a9.728 9.728 0 0 1-2.157.238h-15.238a9.903 9.903 0 0 1-9.781-8.254l-.043-.281a9.328 9.328 0 0 1-.106-1.399 9.96 9.96 0 0 1 1.2-4.738 9.77 9.77 0 0 1 .496-.813 9.93 9.93 0 0 1 8.238-4.382h15.234a9.924 9.924 0 0 1 9.047 5.84l1.902.953a20.796 20.796 0 0 1 10.098 11.093l.094.22 4.57 12.097h135.95c1.644 0 3.128.406 4.43 1.176.39.234.71.46 1.007.699l.078.054.39.344.169.18c.035.023.191.187.343.36l.301.343c.164.203.274.36.375.516a7.55 7.55 0 0 1 .7 1.207l.124.293c.075.164.168.414.25.664l.094.32c.074.266.125.477.168.695.024.118.043.258.067.407.03.203.05.418.066.632l.02.418c0 .235-.008.473-.024.711l-.02.29a8.316 8.316 0 0 1-.18 1.074l-13.124 55.144a15.645 15.645 0 0 1-15.27 12.059h-71.062c-8.489 1.547-20.79 6.265-23.969 12.41 1.328.293 3.688.613 7.715.613h89.996c4.25 0 7.707 3.457 7.707 7.707s-3.457 7.707-7.707 7.707h-3.719l-.898 1.336a16.418 16.418 0 0 1 1.476 4.8c.051.356.098.716.125 1.083.028.289.047.605.059.93l.004.394c0 2.5-.559 4.918-1.66 7.2a16.658 16.658 0 0 1-1.797 2.91 17.514 17.514 0 0 1-1.39 1.597 16.566 16.566 0 0 1-3.817 2.848 16.511 16.511 0 0 1-7.898 2.004zm16.828-68.95a.266.266 0 0 0 .274-.214l3.89-16.348h-20.925l-1.996 16.563zm-34.28 0l1.991-16.562h-25.273l2.328 16.563zm-58.216-.18c.04.099.157.18.258.18h21.438l-2.332-16.562h-25.551zM319.98 245.75l3.52-14.781h-24.477l-1.78 14.781zm-38.265 0l1.777-14.781h-33.156l2.078 14.781zm-44.867 0l-2.078-14.781h-32.711l5.582 14.781zm0 0" fill="#6770e6"/><path d="M392.453 211.875c0 22.395-18.156 40.547-40.55 40.547-22.391 0-40.548-18.152-40.548-40.547s18.157-40.547 40.547-40.547c22.395 0 40.551 18.152 40.551 40.547zm0 0" fill="#d476e2"/><path d="M369.055 204.598h-9.875v-9.875a7.277 7.277 0 0 0-7.278-7.278 7.277 7.277 0 0 0-7.277 7.278v9.875h-9.871a7.278 7.278 0 1 0 0 14.554h9.871v9.875a7.277 7.277 0 0 0 7.277 7.278 7.277 7.277 0 0 0 7.278-7.278v-9.875h9.875c4.02 0 7.277-3.257 7.277-7.277s-3.258-7.277-7.277-7.277zm0 0" fill="#fff7f2"/></svg>