<svg height="512pt" viewBox="0 0 512 512" width="512pt" xmlns="http://www.w3.org/2000/svg"><path d="M9.746 128h492v384h-492zm0 0" fill="#ffefe4"/><path d="M9.746 498h492v14h-492zm0 0" fill="#edd4c2"/><path d="M36.57 200C16.375 200 0 183.625 0 163.43V128h73.14v35.43c0 20.195-16.37 36.57-36.57 36.57zm0 0" fill="#e0734a"/><path d="M109.715 200c-20.2 0-36.574-16.375-36.574-36.57V128h73.144v35.43c0 20.195-16.375 36.57-36.57 36.57zm0 0" fill="#edd4c2"/><path d="M182.86 200c-20.2 0-36.575-16.375-36.575-36.57V128h73.145v35.43c0 20.195-16.375 36.57-36.57 36.57zm0 0" fill="#e0734a"/><path d="M256 200c-20.2 0-36.57-16.375-36.57-36.57V128h73.14v35.43c0 20.195-16.37 36.57-36.57 36.57zm0 0" fill="#edd4c2"/><path d="M329.145 200c-20.2 0-36.575-16.375-36.575-36.57V128h73.145v35.43c0 20.195-16.375 36.57-36.57 36.57zm0 0" fill="#e0734a"/><path d="M402.285 200c-20.195 0-36.57-16.375-36.57-36.57V128h73.14v35.43c.004 20.195-16.37 36.57-36.57 36.57zm0 0" fill="#edd4c2"/><path d="M475.43 200c-20.2 0-36.575-16.375-36.575-36.57V128h73.141v35.43C512 183.625 495.625 200 475.43 200zm0 0" fill="#e0734a"/><path d="M141.14 0H89.599c-4.735 0-9.141 2.41-11.696 6.395L0 128h73.14zm0 0" fill="#ff8354"/><path d="M194.285 0h-53.144l-68 128h73.144zm0 0" fill="#ffefe4"/><path d="M235.43 0h-41.145l-48 128h73.145zm135.43 0h51.546c4.73 0 9.14 2.41 11.692 6.395L512 128h-73.14zm0 0" fill="#ff8354"/><path d="M317.715 0h53.144l68 128h-73.144zm0 0" fill="#ffefe4"/><path d="M276.285 0h41.43l48 128H292.57zm0 0" fill="#ff8354"/><path d="M276.285 0H235.43L220 124.344V128h72v-3.656zm0 0" fill="#ffefe4"/><path d="M129.14 393.648a7.982 7.982 0 0 1-5.156-1.882 8.008 8.008 0 0 1-.953-11.278l126.602-150a8.014 8.014 0 0 1 6.113-2.84 8.016 8.016 0 0 1 6.117 2.84l126.602 150a8 8 0 1 1-12.227 10.32L255.746 248.056 135.258 390.809a7.983 7.983 0 0 1-6.117 2.84zm0 0" fill="#5861c7"/><path d="M448.578 470.156H63.422c-11.692 0-21.168-9.476-21.168-21.168V332.156c0-11.691 9.476-21.168 21.168-21.168h385.156c11.695 0 21.168 9.477 21.168 21.168v116.832c0 11.696-9.476 21.168-21.168 21.168zm0 0" fill="#d476e2"/><path d="M70.89 450.16a8.637 8.637 0 0 1-8.636-8.637V339.625c0-4.77 3.867-8.64 8.637-8.64h370.218a8.637 8.637 0 0 1 8.637 8.636V441.52a8.637 8.637 0 0 1-8.637 8.636H70.891zm184.856-188.617c-12.45 0-22.637-10.184-22.637-22.637 0-12.449 10.188-22.636 22.637-22.636 12.453 0 22.64 10.183 22.64 22.636s-10.187 22.637-22.64 22.637zm0 0" fill="#b665c2"/><path d="M438.969 14l-4.871-7.605A13.892 13.892 0 0 0 422.402 0h-51.547l7.438 14zm0 0" fill="#ffac8c"/><path d="M378.293 14l-7.434-14h-53.144l5.25 14zm0 0" fill="#fff7f2"/><path d="M322.965 14l-5.25-14h-41.43l1.781 14zm0 0" fill="#ffac8c"/><path d="M278.055 14l-1.77-14H235.43l-1.739 14zm0 0" fill="#fff7f2"/><path d="M233.68 14l1.75-14h-41.145l-5.25 14zm0 0" fill="#ffac8c"/><path d="M189.035 14l5.25-14h-53.14l-7.438 14zm0 0" fill="#fff7f2"/><path d="M77.902 6.395L73.032 14h60.675l7.438-14H89.598c-4.735 0-9.141 2.41-11.696 6.395zm0 0" fill="#ffac8c"/><path d="M160.617 428.871c-5.46 0-10.531-.988-15.207-2.969-4.676-1.98-8.722-4.695-12.133-8.14-3.418-3.45-6.093-7.508-8.043-12.188-1.945-4.676-2.918-9.676-2.918-15.004 0-5.324.973-10.324 2.918-15 1.95-4.675 4.625-8.738 8.043-12.187 3.414-3.445 7.457-6.16 12.133-8.14 4.676-1.977 9.742-2.97 15.207-2.97 5.461 0 10.531.993 15.207 2.97 4.676 1.98 8.719 4.695 12.133 8.14 3.414 3.449 6.094 7.512 8.04 12.187 1.948 4.676 2.917 9.676 2.917 15 0 5.328-.969 10.328-2.918 15.004-1.945 4.676-4.625 8.739-8.039 12.188-3.414 3.445-7.457 6.16-12.133 8.14-4.676 1.98-9.746 2.97-15.207 2.97zm0-13.105c3.414 0 6.606-.618 9.574-1.844 2.97-1.23 5.567-2.938 7.782-5.121 2.218-2.184 3.96-4.832 5.222-7.938 1.262-3.105 1.895-6.539 1.895-10.293 0-3.754-.633-7.183-1.895-10.289-1.261-3.105-3.004-5.75-5.222-7.937-2.215-2.184-4.813-3.89-7.782-5.121-2.968-1.227-6.16-1.844-9.574-1.844-3.414 0-6.605.617-9.574 1.844-2.973 1.23-5.566 2.937-7.781 5.12-2.223 2.188-3.961 4.833-5.223 7.938-1.266 3.106-1.894 6.535-1.894 10.29 0 3.753.628 7.187 1.894 10.292 1.262 3.106 3 5.754 5.223 7.938 2.215 2.183 4.808 3.89 7.781 5.12 2.969 1.227 6.16 1.845 9.574 1.845zm46.297 4.914v-57.485c0-5.125 4.156-9.285 9.285-9.285h16.524c3.48 0 6.742.567 9.78 1.692 3.036 1.125 5.685 2.714 7.938 4.761 2.25 2.047 4.028 4.492 5.325 7.325 1.293 2.832 1.945 5.957 1.945 9.367 0 3.484-.649 6.64-1.945 9.472a22.403 22.403 0 0 1-5.325 7.325c-2.254 2.046-4.902 3.632-7.937 4.761-3.04 1.125-6.297 1.688-9.781 1.688h-11.98v20.379a6.553 6.553 0 0 1-6.555 6.554h-.715c-3.621-.004-6.559-2.937-6.559-6.554zm26.012-33.485c3.617 0 6.351-1.023 8.195-3.074 1.84-2.047 2.762-4.402 2.762-7.066 0-1.293-.223-2.559-.664-3.79a8.679 8.679 0 0 0-2.047-3.226c-.922-.922-2.067-1.656-3.434-2.2-1.363-.546-2.965-.82-4.808-.82h-12.188v20.172h12.184zm46.605-20.175v17h22.836a6.556 6.556 0 0 1 0 13.109h-22.836v17h26.114a6.553 6.553 0 1 1 0 13.105h-30.657a9.282 9.282 0 0 1-9.281-9.28v-54.755c0-5.129 4.156-9.285 9.281-9.285h30.657c3.62 0 6.554 2.934 6.554 6.555s-2.933 6.554-6.554 6.554H279.53zm52.457-13.11h1.535a9.28 9.28 0 0 1 7.961 4.512l26.79 44.644v-42.601a6.555 6.555 0 0 1 6.55-6.555h.617a6.556 6.556 0 0 1 6.555 6.555v57.484c0 5.125-4.156 9.285-9.285 9.285a9.28 9.28 0 0 1-7.961-4.511l-28.43-47.407v45.364a6.553 6.553 0 0 1-6.55 6.554h-.512a6.553 6.553 0 0 1-6.555-6.554v-57.485c.004-5.129 4.16-9.285 9.285-9.285zm0 0" fill="#ffefe4"/></svg>