<svg height="512pt" viewBox="0 0 512 512" width="512pt" xmlns="http://www.w3.org/2000/svg"><path d="M223.121 477.703c0 18.942-15.355 34.297-34.297 34.297-18.941 0-34.297-15.355-34.297-34.297s15.356-34.3 34.297-34.3c18.942 0 34.297 15.359 34.297 34.3zm0 0" fill="#4e56b0"/><path d="M188.824 502c-17.238 0-31.465-12.73-33.894-29.297-.239 1.637-.407 3.297-.407 5 0 18.942 15.356 34.297 34.297 34.297 18.946 0 34.301-15.355 34.301-34.297 0-1.703-.168-3.363-.406-5C220.289 489.27 206.062 502 188.825 502zm0 0" fill="#339"/><path d="M433.059 477.703c0 18.942-15.356 34.297-34.297 34.297-18.942 0-34.297-15.355-34.297-34.297s15.355-34.3 34.297-34.3c18.941 0 34.297 15.359 34.297 34.3zm0 0" fill="#4e56b0"/><path d="M398.762 502c-17.239 0-31.465-12.73-33.895-29.297-.238 1.637-.406 3.297-.406 5 0 18.942 15.355 34.297 34.3 34.297 18.942 0 34.298-15.355 34.298-34.297 0-1.703-.168-3.363-.407-5C430.23 489.27 416.004 502 398.762 502zm0 0" fill="#339"/><path d="M512 78c0 43.078-34.922 78-78 78s-78-34.922-78-78 34.922-78 78-78 78 34.922 78 78zm0 0" fill="#d476e2"/><path d="M433.863 7.96c41.793-.073 75.965 32.743 78.032 74.04.07-1.371.109-2.746.105-4.137C511.926 34.785 476.941-.074 433.863 0S355.926 35.059 356 78.137a77.43 77.43 0 0 0 .105 3.824c2.079-41.16 36.067-73.926 77.758-74zm0 0" fill="#ea82fa"/><path d="M424.836 114.176a14.159 14.159 0 0 1-8.8-3.063l-17.5-13.84c-6.15-4.863-7.192-13.793-2.329-19.941 4.86-6.148 13.79-7.195 19.941-2.328l6.528 5.16 26.972-33.11c4.957-6.077 13.899-6.992 19.977-2.038s6.988 13.898 2.035 19.972l-35.812 43.957a14.177 14.177 0 0 1-11.012 5.23zm0 0" fill="#fff7f2"/><path d="M509.375 180.254a12.06 12.06 0 0 0-9.527-4.617H120.52l-15.196-40.223a45.865 45.865 0 0 0-22.457-24.89l-9.191-4.594a16.27 16.27 0 0 1 .363 3.402c0 6.531-3.867 12.145-9.434 14.711l9.2 4.602a25.664 25.664 0 0 1 12.57 13.925l76.484 202.516c4.293 11.363 14.801 19.281 26.735 20.48-18.942 10.649-30.926 23.758-35.66 39.137-3.61 11.723-.364 19.602 2.992 24.145 4.965 6.722 13.254 10.382 22.578 12.363l-.188 37.477c-.05 9.953 12.852 13.917 18.403 5.652l27.46-40.906h165.192l-.176 35.254c-.05 9.953 12.852 13.917 18.403 5.652l27.457-40.906h15.996c5.594 0 10.129-4.536 10.129-10.13s-4.535-10.128-10.13-10.128H206.18c-25.504 0-31.543-4.45-32.957-6.363-.852-1.149-.825-3.22.074-6.149 8.457-27.473 57.223-41.574 76.324-44.914h195.11c14.863 0 27.644-10.098 31.082-24.55l35.855-150.606c.863-3.64.027-7.41-2.293-10.34zm-381.207 15.64h114.664l8.754 62.235h-99.91zm64.582 149.59c-4.832 0-9.227-3.035-10.937-7.558l-22.489-59.54h95.114l9.44 67.098zm168.016 0H284.34l-9.442-67.097h93.946zm10.515-87.355h-99.234l-8.754-62.234h115.48zm84.824 78.375a11.645 11.645 0 0 1-11.37 8.98h-63.567l8.078-67.097h80.695zm18.657-78.375h-83.078l7.492-62.234h90.398zm0 0" fill="#6770e6"/><path d="M57.828 125.54H16.207C7.257 125.54 0 118.28 0 109.331c0-8.953 7.258-16.21 16.207-16.21h41.621c8.953 0 16.211 7.257 16.211 16.21 0 8.95-7.258 16.207-16.21 16.207zm0 0" fill="#ff8354"/><path d="M507.941 178.719c-2.293-2.078-5.37-3.082-8.468-3.082H120.516L105.32 135.41a46.02 46.02 0 0 0-22.457-24.89l-9.191-4.594a16.13 16.13 0 0 1-.86 9.57l10.047 5.024a46.005 46.005 0 0 1 22.465 24.89l14.43 38.207a3.117 3.117 0 0 0 2.922 2.016h377.172c3.738 0 7.21 1.683 9.527 4.617a12.249 12.249 0 0 1 1.684 2.89l.609-2.554c1.023-4.305-.34-8.797-3.727-11.867zm0 0" fill="#8f95e6"/><path d="M16.207 103.125h41.621c7.207 0 13.305 4.703 15.414 11.207.512-1.574.797-3.254.797-5 0-8.953-7.258-16.207-16.21-16.207H16.206C7.257 93.125 0 100.379 0 109.332a16.3 16.3 0 0 0 .793 5c2.11-6.504 8.21-11.207 15.414-11.207zm0 0" fill="#ffac8c"/></svg>