<svg height="512pt" viewBox="0 0 512.002 512" width="512pt" xmlns="http://www.w3.org/2000/svg"><path d="M342.969 0H169.03c-18.793 0-34.023 15.234-34.023 34.023v99.801c0 18.79 15.23 34.024 34.023 34.024h25.805v35.87c0 5.66 6.844 8.497 10.844 4.493l40.363-40.363h96.926c18.789 0 34.023-15.235 34.023-34.024v-99.8C376.992 15.233 361.762 0 342.97 0zm0 0" fill="#69ebfc"/><path d="M169.031 0H342.97c18.793 0 34.023 15.234 34.023 34.023V48.25c0-18.793-15.23-34.023-34.023-34.023H169.03c-18.793 0-34.023 15.23-34.023 34.023V34.023C135.008 15.234 150.238 0 169.03 0zm0 0" fill="#a1f1fc"/><path d="M251.027 130.734c-6.238-.914-11.789-3.324-16.656-7.238-2.84-2.281-5.203-5.14-7.09-8.582-2.293-4.172-.504-9.422 3.906-11.223 3.504-1.433 7.61-.214 9.567 3.028a22.216 22.216 0 0 0 2.168 2.984c2.242 2.621 4.941 4.434 8.105 5.426V91.426l-1.117-.504a56.582 56.582 0 0 1-8.672-4.117c-2.703-1.575-5.078-3.41-7.11-5.489a24.392 24.392 0 0 1-4.87-7.05c-1.211-2.621-1.817-5.551-1.817-8.797 0-2.992.543-5.82 1.621-8.489a21.753 21.753 0 0 1 4.692-7.109c2.035-2.078 4.504-3.809 7.426-5.18 2.906-1.37 6.187-2.265 9.847-2.683v-5.176a5.55 5.55 0 0 1 5.551-5.555 5.551 5.551 0 0 1 5.555 5.555v5.426c3.332.496 6.226 1.375 8.676 2.62a30.208 30.208 0 0 1 6.37 4.306 17.122 17.122 0 0 1 2.005 2.148c3.152 3.945 1.55 9.844-3.059 11.902-3.16 1.41-6.8.524-9.129-2.039-1.219-1.343-2.824-2.664-4.863-3.593v22.34c3.586 1.5 6.82 3.038 9.742 4.62 2.906 1.583 5.402 3.368 7.484 5.368 2.086 1.992 3.66 4.261 4.739 6.797 1.09 2.543 1.62 5.472 1.62 8.796 0 3.747-.64 7.075-1.925 9.985-1.297 2.914-3.016 5.406-5.184 7.484-2.168 2.086-4.675 3.75-7.547 4.996a37.165 37.165 0 0 1-8.925 2.617v5.426a5.556 5.556 0 0 1-5.555 5.555 5.556 5.556 0 0 1-5.555-5.555zm-8.226-65.27c0 2 .644 3.724 1.926 5.18 1.296 1.458 3.394 2.938 6.3 4.434V56.855c-2.496.668-4.48 1.747-5.984 3.243-1.504 1.504-2.242 3.289-2.242 5.367zm26.953 40.188c0-2.16-.582-3.957-1.758-5.367-1.16-1.418-3.113-2.824-5.863-4.246v19.094c2.254-.742 4.082-1.934 5.5-3.555 1.406-1.625 2.12-3.598 2.12-5.926zm0 0" fill="#6770e6"/><path d="M279.465 437.46l-11.067 12.642c-9.515 10.875-9.394 27.148.286 37.882l3.285 3.645c4.222 4.683 11.347 5.305 16.324 1.43l22.305-17.387a43.007 43.007 0 0 0 16.566-33.926v-4.285zm0 0" fill="#edd4c2"/><path d="M240.316 437.46l-9.832 10.985c-8.453 9.453-8.347 23.594.25 32.918l2.922 3.168c3.754 4.07 10.082 4.614 14.504 1.242l19.817-15.105c9.289-7.086 14.722-17.961 14.722-29.484v-3.723zm0 0" fill="#edd4c2"/><path d="M107.016 339.258l87.91-55.028c31.86-19.94 73.437-14.101 98.57 13.84l59.723 66.395a22.563 22.563 0 0 1 5.789 15.09v62.191a43.01 43.01 0 0 1-16.57 33.926l-22.305 17.387c-4.973 3.875-12.098 3.25-16.324-1.43l-3.286-3.645c-9.675-10.734-9.8-27.007-.28-37.882l11.062-12.641v-41.375l-16.47-16.945c-17.105-17.598-44.163-20.883-64.976-7.887l-56.234 35.113zm0 0" fill="#ffefe4"/><path d="M311.414 437.46l-11.062 12.642c-9.516 10.875-9.395 27.148.28 37.882l3.29 3.645c4.223 4.683 11.348 5.305 16.32 1.43l22.305-17.387a42.999 42.999 0 0 0 16.57-33.926v-4.285zm0 0" fill="#edd4c2"/><path d="M481.238 437.46h-256.52c-16.988 0-30.761-13.772-30.761-30.76V259.026c0-16.988 13.773-30.761 30.762-30.761h256.52c16.988 0 30.765 13.77 30.765 30.761V406.7c-.004 16.988-13.777 30.762-30.766 30.762zm0 0" fill="#6770e6"/><path d="M481.238 228.266h-256.52c-16.988 0-30.761 13.773-30.761 30.761v11.73c0-16.987 13.773-30.76 30.762-30.76h256.52c16.988 0 30.765 13.773 30.765 30.76v-11.73c-.004-16.988-13.777-30.761-30.766-30.761zm0 0" fill="#8f95e6"/><g fill="#69ebfc"><path d="M249.637 264.105c-.867 0-1.602.735-1.602 1.606v31.098c0 .867.735 1.601 1.602 1.601h15.035c.867 0 1.601-.734 1.601-1.601V265.71c0-.867-.734-1.606-1.601-1.606zm-20.235 8.532h12.563v17.246h-12.563zm42.942 0h12.562v17.246h-12.562zm0 0"/><path d="M272.344 295.95v.859c0 4.226-3.446 7.671-7.672 7.671h-15.035c-4.23 0-7.672-3.445-7.672-7.671v-.86h-12.563v4.664c0 6.715 5.446 12.16 12.16 12.16h31.184c6.719 0 12.16-5.445 12.16-12.16v-4.664zm.402-46.208H241.56c-6.715 0-12.16 5.446-12.16 12.16v4.664h12.566v-.855c0-4.23 3.437-7.676 7.668-7.676h15.035c4.23 0 7.672 3.445 7.672 7.676v.855h12.562v-4.664c.004-6.715-5.441-12.16-12.156-12.16zm0 0"/></g><path d="M275.18 348.984h-36.051c-5.352 0-9.727-4.379-9.727-9.726 0-5.352 4.375-9.727 9.727-9.727h36.05c5.352 0 9.727 4.375 9.727 9.727 0 5.347-4.375 9.726-9.726 9.726zm32.84 51.606h-68.891c-5.352 0-9.727-4.375-9.727-9.727 0-5.351 4.375-9.726 9.727-9.726h68.89c5.348 0 9.723 4.375 9.723 9.726 0 5.352-4.375 9.727-9.722 9.727zm31.043-51.606h-36.051c-5.352 0-9.727-4.379-9.727-9.726 0-5.352 4.375-9.727 9.727-9.727h36.05c5.352 0 9.727 4.375 9.727 9.727 0 5.347-4.379 9.726-9.726 9.726zm63.887 0h-36.055c-5.348 0-9.723-4.379-9.723-9.726 0-5.352 4.375-9.727 9.723-9.727h36.054c5.348 0 9.727 4.375 9.727 9.727 0 5.347-4.38 9.726-9.727 9.726zm63.878 0h-36.05c-5.348 0-9.727-4.379-9.727-9.726 0-5.352 4.379-9.727 9.726-9.727h36.051c5.352 0 9.727 4.375 9.727 9.727 0 5.347-4.375 9.726-9.727 9.726zm0 0" fill="#8f95e6"/><path d="M446.14 390.863c0 13.875-11.25 25.121-25.12 25.121-13.875 0-25.125-11.246-25.125-25.12s11.25-25.122 25.125-25.122c13.87 0 25.12 11.246 25.12 25.121zm0 0" fill="#ff8354"/><path d="M476.555 390.863c0 13.875-11.246 25.121-25.121 25.121s-25.122-11.246-25.122-25.12 11.247-25.122 25.122-25.122 25.12 11.246 25.12 25.121zm0 0" fill="#69ebfc"/><path d="M426.313 390.863c0 8.149 3.898 15.375 9.914 19.965 6.015-4.59 9.914-11.812 9.914-19.965 0-8.148-3.899-15.375-9.914-19.965-6.016 4.594-9.914 11.817-9.914 19.965zm0 0" fill="#d476e2"/><path d="M345.64 370.902H203.165l-96.148-31.644H83.012V473.48h74.71a107.88 107.88 0 0 0 66.778-23.148l18.875-14.875a50.604 50.604 0 0 1 31.324-10.86h70.942c14.828 0 26.847-12.019 26.847-26.847 0-14.832-12.02-26.848-26.847-26.848zm0 0" fill="#ffefe4"/><path d="M345.64 412.863H274.7a50.608 50.608 0 0 0-31.325 10.864l-18.875 14.87a107.876 107.876 0 0 1-66.777 23.153H83.012v11.73h74.71c24.227 0 47.75-8.156 66.778-23.152l18.875-14.875a50.628 50.628 0 0 1 31.324-10.86h70.942c14.828 0 26.847-12.019 26.847-26.847 0-2.016-.238-3.976-.66-5.863-2.68 12.004-13.375 20.98-26.187 20.98zm0 0" fill="#edd4c2"/><path d="M61.86 332.492h45.156v147.75H61.859zm0 0" fill="#69ebfc"/><path d="M61.86 463.828h45.156v16.418H61.859zm0 0" fill="#5fd4e3"/><path d="M61.86 512H0V300.734h61.86zm0 0" fill="#6770e6"/><path d="M0 495.586h61.86V512H0zm0 0" fill="#5861c7"/></svg>