<svg height="512pt" viewBox="-94 0 512 512" width="512pt" xmlns="http://www.w3.org/2000/svg"><path d="M281.535 512H41.57C18.613 512 0 493.387 0 470.43V41.57C0 18.613 18.613 0 41.57 0h239.965c22.957 0 41.57 18.613 41.57 41.57v428.856c.004 22.96-18.609 41.574-41.57 41.574zm0 0" fill="#6770e6"/><path d="M281.535 0H41.57C18.613 0 0 18.613 0 41.57v14C0 32.613 18.613 14 41.57 14h239.965c22.957 0 41.57 18.613 41.57 41.57v-14C323.11 18.613 304.496 0 281.535 0zm0 0" fill="#8f95e6"/><path d="M41.57 512h239.965c22.957 0 41.57-18.613 41.57-41.57v-14c0 22.957-18.613 41.57-41.57 41.57H41.57C18.613 498 0 479.387 0 456.43v14C0 493.387 18.613 512 41.57 512zm0 0" fill="#5861c7"/><path d="M41.57 492C29.68 492 20 482.32 20 470.43V67.57C20 55.68 29.68 46 41.57 46h239.965c11.895 0 21.57 9.68 21.57 21.57v402.86c0 11.89-9.675 21.57-21.57 21.57zm0 0" fill="#a1f1fc"/><path d="M202.828 31.828H90.281a9 9 0 0 1 0-18h112.547c4.969 0 9 4.031 9 9s-4.031 9-9 9zm39-9c0 4.969-4.031 9-9 9s-9-4.031-9-9 4.031-9 9-9 9 4.031 9 9zm0 0" fill="#5861c7"/><path d="M121.664 303.863h32.332a9.797 9.797 0 0 0 9.691-8.343l6.715-44.692a6.059 6.059 0 0 1 5.989-5.152h10.257c9.418 0 49.536.004 61.555-53.48 6.727-29.934-10.426-49.106-40.363-49.106h-57.188a11.001 11.001 0 0 0-10.867 9.297l-22.894 145.898c-.454 2.93 1.808 5.578 4.773 5.578zm0 0" fill="#5fd4e3"/><path d="M82.242 281.469h36.887l10.351-65.14a6.053 6.053 0 0 1 5.977-5.106h28.316c22.649 0 56.457-8.86 66.961-57.77s-29.214-58.758-59.086-58.758h-55.18c-7.745 0-14.355 5.602-15.632 13.243L73.57 271.23c-.894 5.36 3.239 10.239 8.672 10.239zm0 0" fill="#d476e2"/><path d="M230.734 153.453a84.73 84.73 0 0 0 .918-5.086c-6.488-3.433-14.535-5.277-23.808-5.277h-57.188a11.005 11.005 0 0 0-10.87 9.297l-9.774 62.297c.98-2.063 3.062-3.461 5.445-3.461h28.316c22.649 0 56.457-8.864 66.961-57.77zm0 0" fill="#6770e6"/><path d="M221.965 456.43h-120.82c-32.395 0-58.657-26.262-58.657-58.657 0-32.394 26.262-58.652 58.657-58.652h120.82c32.394 0 58.656 26.258 58.656 58.652 0 32.391-26.262 58.657-58.656 58.657zm0 0" fill="#d476e2"/><path d="M98.473 428.516c-4.328-.637-8.176-2.309-11.559-5.024-1.969-1.586-3.61-3.566-4.918-5.953-1.59-2.898-.348-6.539 2.711-7.789 2.43-.992 5.281-.148 6.64 2.102.434.722.938 1.414 1.505 2.07 1.554 1.82 3.43 3.074 5.62 3.765v-16.449l-.773-.347a38.761 38.761 0 0 1-6.015-2.86 23.247 23.247 0 0 1-4.938-3.808 17.096 17.096 0 0 1-3.379-4.891c-.84-1.82-1.258-3.855-1.258-6.105 0-2.079.375-4.04 1.125-5.887a15.105 15.105 0 0 1 3.254-4.938c1.41-1.441 3.125-2.64 5.153-3.593 2.015-.954 4.296-1.57 6.832-1.86v-3.594a3.856 3.856 0 0 1 7.71 0v3.766c2.31.344 4.32.953 6.016 1.82a20.764 20.764 0 0 1 4.422 2.989c.484.425.95.937 1.39 1.488 2.188 2.738 1.079 6.832-2.124 8.262-2.192.976-4.715.363-6.332-1.414-.848-.93-1.957-1.848-3.371-2.493v15.5a75.454 75.454 0 0 1 6.757 3.204c2.016 1.097 3.746 2.336 5.192 3.726 1.445 1.383 2.539 2.957 3.289 4.715.754 1.766 1.125 3.8 1.125 6.105 0 2.598-.445 4.91-1.336 6.926-.902 2.024-2.094 3.754-3.598 5.196a17.644 17.644 0 0 1-5.238 3.468 25.868 25.868 0 0 1-6.195 1.817v3.765a3.854 3.854 0 0 1-7.707 0zm-5.707-45.293c0 1.386.445 2.586 1.336 3.593.902 1.012 2.355 2.04 4.37 3.079v-12.641c-1.734.46-3.109 1.207-4.152 2.246-1.043 1.043-1.554 2.281-1.554 3.723zm18.703 27.886c0-1.5-.406-2.742-1.219-3.722-.805-.985-2.16-1.961-4.066-2.946v13.247c1.562-.516 2.832-1.34 3.812-2.47.977-1.124 1.473-2.495 1.473-4.109zm122.105-5.105h-82.676c-4.546 0-8.234-3.688-8.234-8.23a8.235 8.235 0 0 1 8.234-8.235h82.676a8.232 8.232 0 0 1 8.23 8.234 8.229 8.229 0 0 1-8.23 8.23zm0 0" fill="#ffefe4"/></svg>