<svg height="512pt" viewBox="0 0 512.026 512" width="512pt" xmlns="http://www.w3.org/2000/svg"><path d="M497.793 395.16H14.258c-7.86 0-14.23-6.37-14.23-14.23V14.246c0-7.86 6.37-14.234 14.23-14.234h483.535c7.86 0 14.23 6.375 14.23 14.234V380.93c.004 7.86-6.37 14.23-14.23 14.23zm0 0" fill="#6770e6"/><path d="M497.793.012H14.258C6.398.012.028 6.387.028 14.246v14c0-7.86 6.37-14.234 14.23-14.234h483.535c7.86 0 14.234 6.375 14.234 14.234v-14c0-7.86-6.375-14.234-14.234-14.234zm0 0" fill="#8f95e6"/><path d="M30.027 350.93V49.203c0-10.598 8.59-19.191 19.192-19.191h413.617c10.598 0 19.191 8.593 19.191 19.191V350.93c0 7.86-6.375 14.23-14.234 14.23H44.258c-7.86 0-14.23-6.37-14.23-14.23zm0 0" fill="#69ebfc"/><path d="M196.3 395.16h121.9v76.871H196.3zm0 0" fill="#5861c7"/><path d="M375.836 512.012H139.234c-11.039 0-19.992-8.95-19.992-19.989 0-11.039 8.953-19.992 19.992-19.992h236.602c11.039 0 19.988 8.953 19.988 19.992 0 11.04-8.949 19.989-19.988 19.989zm0 0" fill="#6770e6"/><path d="M375.836 498.012H139.234c-8.574 0-15.867-5.407-18.707-12.989a19.916 19.916 0 0 0-1.285 7c0 11.04 8.95 19.989 19.988 19.989h236.606c11.039 0 19.988-8.95 19.988-19.989 0-2.464-.469-4.82-1.285-7-2.836 7.582-10.129 12.989-18.703 12.989zm0 0" fill="#5861c7"/><path d="M49.066 30.012h71.36l-20 70.879H0l22.598-53.34a28.75 28.75 0 0 1 26.468-17.54zm0 0" fill="#ff8354"/><path d="M120.426 30.012h90.398l-10 70.879H100.426zm0 0" fill="#fff7f2"/><path d="M210.824 30.012h90.403l10 70.879H200.824zm0 0" fill="#ff8354"/><path d="M301.227 30.012h90.398l20 70.879H311.227zm0 0" fill="#fff7f2"/><path d="M391.625 30.012h71.344c11.55 0 21.98 6.914 26.48 17.55L512 100.892H411.625zm0 0" fill="#ff8354"/><path d="M50.238 164.59h-.05C22.468 164.59 0 142.12 0 114.402v-13.511h100.426v13.511c0 27.72-22.469 50.188-50.188 50.188zm0 0" fill="#e0734a"/><path d="M150.664 164.59h-.05c-27.72 0-50.188-22.473-50.188-50.188v-13.511h100.426v13.511c0 27.72-22.47 50.188-50.188 50.188zm210.801 0h-.055c-27.715 0-50.183-22.473-50.183-50.188v-13.511h100.425v13.511c0 27.72-22.468 50.188-50.187 50.188zm0 0" fill="#ffefe4"/><path d="M461.84 164.59c-27.719 0-50.188-22.473-50.188-50.188v-13.511h100.375v13.511c0 27.72-22.472 50.188-50.187 50.188zm-200.8 0h-10c-27.72 0-50.185-22.473-50.185-50.188v-13.511h110.372v13.511c0 27.72-22.47 50.188-50.188 50.188zm0 0" fill="#e0734a"/><path d="M347.676 340.922H164.324c-12.14 0-21.984-9.844-21.984-21.988V213.387c0-12.14 9.844-21.985 21.984-21.985h183.348c12.14 0 21.984 9.844 21.984 21.985v105.547c.004 12.144-9.84 21.988-21.98 21.988zm0 0" fill="#6770e6"/><path d="M182.137 217.016a1.16 1.16 0 0 0-1.145 1.148v22.227c0 .62.524 1.144 1.145 1.144h10.746c.62 0 1.144-.523 1.144-1.144v-22.227a1.16 1.16 0 0 0-1.144-1.148zm-14.461 6.094h8.976v12.327h-8.976zm30.691 0h8.98v12.327h-8.98zm0 0" fill="#69ebfc"/><path d="M198.367 239.777v.614c0 3.023-2.46 5.48-5.484 5.48h-10.746a5.488 5.488 0 0 1-5.485-5.48v-.614h-8.976v3.332a8.69 8.69 0 0 0 8.691 8.692h22.29a8.69 8.69 0 0 0 8.69-8.692v-3.332zm.285-33.027h-22.289a8.69 8.69 0 0 0-8.691 8.691v3.332h8.98v-.613a5.49 5.49 0 0 1 5.48-5.484h10.747a5.491 5.491 0 0 1 5.484 5.484v.613h8.98v-3.332c.005-4.8-3.89-8.691-8.69-8.691zm0 0" fill="#69ebfc"/><path d="M200.395 277.68h-25.77c-3.824 0-6.95-3.125-6.95-6.95s3.126-6.953 6.95-6.953h25.77c3.824 0 6.953 3.13 6.953 6.953s-3.133 6.95-6.953 6.95zm23.468 36.886h-49.238c-3.824 0-6.953-3.129-6.953-6.953s3.129-6.949 6.953-6.949h49.238c3.825 0 6.953 3.125 6.953 6.95s-3.129 6.952-6.953 6.952zm22.192-36.886h-25.77c-3.824 0-6.95-3.125-6.95-6.95s3.126-6.953 6.95-6.953h25.77c3.824 0 6.953 3.13 6.953 6.953s-3.13 6.95-6.953 6.95zm45.66 0h-25.77c-3.824 0-6.953-3.125-6.953-6.95s3.13-6.953 6.953-6.953h25.77c3.824 0 6.95 3.13 6.95 6.953s-3.126 6.95-6.95 6.95zm45.66 0h-25.766c-3.824 0-6.953-3.125-6.953-6.95s3.13-6.953 6.953-6.953h25.766c3.824 0 6.953 3.13 6.953 6.953-.004 3.825-3.129 6.95-6.953 6.95zm0 0" fill="#8f95e6"/><path d="M322.586 307.613c0 9.918-8.04 17.957-17.957 17.957-9.914 0-17.953-8.039-17.953-17.957 0-9.914 8.039-17.953 17.953-17.953 9.918 0 17.957 8.04 17.957 17.953zm0 0" fill="#ff8354"/><path d="M344.324 307.613c0 9.918-8.039 17.957-17.953 17.957-9.918 0-17.957-8.039-17.957-17.957 0-9.914 8.04-17.953 17.957-17.953 9.914 0 17.953 8.04 17.953 17.953zm0 0" fill="#69ebfc"/><path d="M308.414 307.613c0 5.828 2.785 10.989 7.086 14.27 4.3-3.281 7.086-8.442 7.086-14.27 0-5.824-2.785-10.984-7.086-14.265-4.297 3.28-7.086 8.441-7.086 14.265zm0 0" fill="#d476e2"/></svg>