<svg height="682.669" viewBox="0 0 512.002 512.002" width="682.669" xmlns="http://www.w3.org/2000/svg"><path d="M364.105 63.602H321.09V21.508C321.09 9.628 330.719 0 342.598 0s21.507 9.629 21.507 21.508zm0 0" fill="#b665c2"/><path d="M383.629 448.398H128.37c-35.77 0-64.77-29-64.77-64.77V128.372c0-35.77 29-64.77 64.77-64.77h255.26c35.77 0 64.766 29 64.766 64.77V383.63c.003 35.77-28.997 64.77-64.766 64.77zm0 0" fill="#d476e2"/><path d="M383.629 63.602H128.37c-35.77 0-64.77 29-64.77 64.77v14c0-35.77 29-64.77 64.77-64.77h255.26c35.77 0 64.766 29 64.766 64.77v-14c.003-35.77-28.997-64.77-64.766-64.77zm0 0" fill="#ea82fa"/><path d="M128.371 448.398H383.63c35.77 0 64.766-29 64.766-64.77v-14c0 35.77-28.997 64.77-64.766 64.77H128.37c-35.77 0-64.77-29-64.77-64.77v14c0 35.77 29 64.77 64.77 64.77zm0 0" fill="#b665c2"/><path d="M356.523 406.277H155.477c-27.48 0-49.754-22.273-49.754-49.754V155.477c0-27.48 22.273-49.754 49.754-49.754h201.046c27.48 0 49.754 22.273 49.754 49.754v201.046c0 27.48-22.273 49.754-49.754 49.754zm0 0" fill="#b665c2"/><path d="M352.156 384.23H159.844c-17.715 0-32.074-14.359-32.074-32.074V159.844c0-17.715 14.359-32.074 32.074-32.074h192.312c17.715 0 32.074 14.359 32.074 32.074v192.312c0 17.715-14.359 32.074-32.074 32.074zm0 0" fill="#69ebfc"/><path d="M189.64 63.602h-43.015V21.508C146.625 9.628 156.258 0 168.133 0c11.879 0 21.508 9.629 21.508 21.508zm0 0" fill="#b665c2"/><path d="M168.133 0c-11.875 0-21.504 9.629-21.504 21.508v14C146.625 23.628 156.258 14 168.133 14c11.879 0 21.508 9.629 21.508 21.508v-14C189.64 9.628 180.01 0 168.133 0zm0 0" fill="#d476e2"/><path d="M277.508 63.602h-43.016V21.508C234.492 9.628 244.122 0 256 0s21.508 9.629 21.508 21.508zm0 0" fill="#b665c2"/><path d="M256 0c-11.879 0-21.508 9.629-21.508 21.508v14C234.492 23.628 244.122 14 256 14s21.508 9.629 21.508 21.508v-14C277.508 9.628 267.878 0 256 0zm86.598 0c-11.88 0-21.504 9.629-21.504 21.508v14C321.09 23.628 330.719 14 342.598 14s21.507 9.629 21.507 21.508v-14C364.105 9.628 354.477 0 342.598 0zm0 0" fill="#d476e2"/><path d="M321.09 448.398h43.015v42.094c0 11.88-9.628 21.512-21.507 21.512s-21.508-9.633-21.508-21.512zm-87.23 0h43.011v42.094c0 11.88-9.629 21.512-21.504 21.512-11.879 0-21.508-9.633-21.508-21.512zm-87.235 0h43.016v42.094c0 11.88-9.63 21.512-21.508 21.512-11.88 0-21.508-9.633-21.508-21.512zM63.602 321.723v43.015H21.508C9.628 364.738 0 355.11 0 343.23c0-11.875 9.629-21.507 21.508-21.507zm0-87.231v43.016H21.508C9.628 277.508 0 267.878 0 256s9.629-21.508 21.508-21.508zm0-87.23v43.015H21.508C9.628 190.277 0 180.645 0 168.77c0-11.88 9.629-21.508 21.508-21.508zm384.796 174.461v43.015h42.094c11.88 0 21.512-9.629 21.512-21.508 0-11.878-9.633-21.507-21.512-21.507zm0-87.231v43.016h42.094c11.88 0 21.512-9.63 21.512-21.508s-9.633-21.508-21.512-21.508zm0-87.23v43.015h42.094c11.88 0 21.512-9.632 21.512-21.507 0-11.88-9.633-21.508-21.512-21.508zm0 0" fill="#b665c2"/><path d="M246.746 338.406c-11.601-1.699-21.922-6.183-30.98-13.46-5.282-4.247-9.672-9.567-13.188-15.966-4.262-7.761-.933-17.527 7.266-20.875 6.515-2.66 14.16-.398 17.797 5.63a40.032 40.032 0 0 0 4.035 5.554c4.168 4.879 9.191 8.25 15.07 10.094v-44.098l-2.07-.933c-5.727-2.164-11.11-4.711-16.137-7.664-5.023-2.93-9.441-6.344-13.226-10.208-3.805-3.863-6.829-8.238-9.055-13.113-2.254-4.879-3.383-10.332-3.383-16.37 0-5.567 1.016-10.829 3.02-15.786 2.03-4.945 4.914-9.36 8.722-13.227 3.785-3.863 8.38-7.086 13.813-9.629 5.406-2.558 11.511-4.214 18.316-4.992v-9.633c0-5.707 4.629-10.332 10.332-10.332 5.707 0 10.332 4.625 10.332 10.332v10.094c6.2.922 11.582 2.559 16.137 4.88 4.574 2.32 8.484 5.026 11.851 8.007 1.297 1.148 2.547 2.516 3.727 3.992 5.863 7.34 2.887 18.313-5.691 22.14-5.88 2.626-12.645.981-16.977-3.784-2.27-2.5-5.254-4.957-9.047-6.688v41.55c6.672 2.794 12.688 5.657 18.117 8.599 5.41 2.937 10.051 6.261 13.926 9.98 3.875 3.707 6.805 7.934 8.813 12.64 2.027 4.731 3.02 10.184 3.02 16.372 0 6.96-1.196 13.16-3.583 18.566-2.414 5.418-5.61 10.059-9.644 13.926-4.036 3.875-8.7 6.973-14.04 9.293a69.123 69.123 0 0 1-16.605 4.867v10.098c0 5.703-4.625 10.332-10.332 10.332s-10.332-4.63-10.332-10.332v-9.856zM231.45 217.004c0 3.715 1.192 6.926 3.582 9.629 2.41 2.719 6.309 5.465 11.715 8.25v-33.89c-4.64 1.237-8.336 3.241-11.129 6.027-2.793 2.792-4.168 6.117-4.168 9.984zm50.137 74.75c0-4.024-1.082-7.36-3.27-9.98-2.164-2.637-5.789-5.262-10.906-7.899v35.512c4.192-1.387 7.594-3.594 10.23-6.614 2.614-3.02 3.946-6.695 3.946-11.02zm0 0" fill="#6770e6"/><path d="M169.277 158.523c0 5.938-4.816 10.754-10.754 10.754-5.941 0-10.753-4.816-10.753-10.754 0-5.941 4.812-10.753 10.753-10.753 5.938 0 10.754 4.812 10.754 10.753zm194.953 0c0 5.938-4.812 10.754-10.753 10.754-5.938 0-10.754-4.816-10.754-10.754 0-5.941 4.816-10.753 10.754-10.753 5.941 0 10.753 4.812 10.753 10.753zM169.277 353.477c0 5.941-4.816 10.753-10.754 10.753-5.941 0-10.753-4.812-10.753-10.753 0-5.938 4.812-10.754 10.753-10.754 5.938 0 10.754 4.816 10.754 10.754zm194.953 0c0 5.941-4.812 10.753-10.753 10.753-5.938 0-10.754-4.812-10.754-10.753 0-5.938 4.816-10.754 10.754-10.754 5.941 0 10.753 4.816 10.753 10.754zm0 0" fill="#5fd4e3"/><path d="M342.598 512c11.879 0 21.507-9.629 21.507-21.508v-14c0 11.88-9.628 21.508-21.507 21.508s-21.508-9.629-21.508-21.508v14c0 11.88 9.629 21.508 21.508 21.508zm-87.868 0c11.88 0 21.508-9.629 21.508-21.508v-14c0 11.88-9.629 21.508-21.508 21.508-11.875 0-21.507-9.629-21.507-21.508v14c0 11.88 9.632 21.508 21.507 21.508zm-86.597 0c11.879 0 21.508-9.629 21.508-21.508v-14c0 11.88-9.63 21.508-21.508 21.508-11.875 0-21.508-9.629-21.508-21.508v14c0 11.88 9.633 21.508 21.508 21.508zm0 0" fill="#9e58a8"/></svg>