<svg height="512pt" viewBox="0 0 512.003 512" width="512pt" xmlns="http://www.w3.org/2000/svg"><path d="M484.992 256c0 126.469-102.523 228.992-228.992 228.992S27.008 382.47 27.008 256 129.53 27.008 256 27.008 484.992 129.53 484.992 256zm0 0" fill="#b665c2"/><path d="M256 41.008c124.125 0 225.176 98.765 228.875 221.992.07-2.324.117-4.656.117-7C484.992 129.531 382.47 27.008 256 27.008S27.008 129.53 27.008 256c0 2.344.047 4.676.117 7C30.825 139.77 131.875 41.008 256 41.008zm0 0" fill="#d476e2"/><path d="M256 470.992C131.875 470.992 30.824 372.23 27.125 249c-.07 2.328-.117 4.66-.117 7 0 126.473 102.523 228.992 228.992 228.992S484.992 382.472 484.992 256c0-2.34-.047-4.672-.117-7-3.7 123.23-104.75 221.992-228.875 221.992zm0 0" fill="#9b56a6"/><path d="M256 68.398l27.207-19.062 21.348 25.453 31.215-11.371 14.03 30.113 33.095-2.902 5.761 32.715 32.719 5.761-2.906 33.094 30.113 14.031-11.371 31.215 25.457 21.348L443.605 256l19.063 27.21-25.457 21.349 11.371 31.21-30.113 14.036 2.906 33.093-32.719 5.758-5.761 32.719-33.094-2.902-14.031 30.109-31.215-11.367-21.348 25.453L256 443.605l-27.207 19.063-21.348-25.453-31.215 11.367-14.03-30.11-33.095 2.903-5.761-32.719-32.719-5.758 2.906-33.093-30.113-14.035 11.371-31.211-25.453-21.348L68.395 256l-19.06-27.207 25.454-21.348-11.371-31.215 30.113-14.03-2.906-33.095 32.719-5.761 5.761-32.715L162.2 93.53l14.031-30.113 31.215 11.371 21.348-25.453zm0 0" fill="#d476e2"/><path d="M437 256c0 99.965-81.04 181-181 181S75.004 355.965 75.004 256c0-99.96 81.035-180.996 180.996-180.996S437 156.039 437 256zm0 0" fill="#b665c2"/><path d="M487.41 259.578a9.827 9.827 0 0 1 0-7.152l23.91-61.39c2.516-6.458-2.246-13.427-9.18-13.427H336.45l14.777-82.382c.691-3.84-3.946-6.309-6.747-3.59l-42.507 41.222-42.508-72.39c-1.55-2.645-5.375-2.645-6.926 0l-42.508 72.39-42.508-41.226c-2.8-2.715-7.437-.246-6.75 3.594l14.782 82.382H9.859c-6.93 0-11.691 6.965-9.18 13.426l23.915 61.39a9.856 9.856 0 0 1 0 7.15L.684 320.968c-2.516 6.457 2.246 13.426 9.18 13.426H502.14c6.933 0 11.695-6.97 9.183-13.426zm0 0" fill="#ff8354"/><path d="M333.938 191.61H502.14a9.745 9.745 0 0 1 7.566 3.558l1.613-4.133c2.516-6.46-2.25-13.426-9.183-13.426H336.445zM2.293 195.168c1.777-2.14 4.45-3.559 7.566-3.559h168.203l-2.511-14H9.859c-6.93 0-11.691 6.965-9.18 13.426zm160.917-86.355c1.364-.567 3.028-.426 4.313.82l42.508 41.226 42.508-72.39c1.55-2.645 5.375-2.645 6.926 0l42.508 72.39 42.507-41.226c1.286-1.242 2.946-1.387 4.313-.82l2.437-13.586a4.03 4.03 0 0 0 .067-.704 3.875 3.875 0 0 0-.195-1.289c-.528-1.593-2.051-2.668-3.676-2.746a3.89 3.89 0 0 0-2.403.696 4.412 4.412 0 0 0-.543.449l-42.507 41.226-42.508-72.39a4.227 4.227 0 0 0-.68-.871 3.972 3.972 0 0 0-.84-.618 4.07 4.07 0 0 0-3.89 0 4.074 4.074 0 0 0-.84.618c-.254.25-.485.539-.68.87l-42.508 72.391-42.504-41.226a4.444 4.444 0 0 0-.546-.45 3.879 3.879 0 0 0-2.399-.695c-1.625.078-3.148 1.153-3.68 2.746a4.069 4.069 0 0 0-.125 1.993zm0 0" fill="#ffac8c"/><path d="M509.707 316.832c-1.773 2.145-4.445 3.563-7.566 3.563H9.859a9.741 9.741 0 0 1-7.566-3.563l-1.61 4.137c-2.515 6.457 2.247 13.426 9.18 13.426h492.278c6.933 0 11.695-6.97 9.183-13.426zm0 0" fill="#e0734a"/><path d="M53.11 282.941v-54.859a6.553 6.553 0 0 1 6.554-6.555h17.18c3.203 0 6.199.516 9 1.551 2.789 1.035 5.226 2.496 7.297 4.379 2.07 1.883 3.703 4.129 4.898 6.734 1.195 2.606 1.793 5.48 1.793 8.621 0 3.2-.598 6.106-1.793 8.711-1.195 2.606-2.828 4.852-4.898 6.735-2.07 1.887-4.508 3.344-7.297 4.379-2.801 1.035-5.797 1.558-9 1.558H65.828v18.742a6.03 6.03 0 0 1-6.031 6.028h-.664a6.02 6.02 0 0 1-6.024-6.024zm23.921-30.8c3.328 0 5.844-.942 7.54-2.825 1.69-1.886 2.542-4.054 2.542-6.5 0-1.191-.207-2.359-.613-3.488a8.013 8.013 0 0 0-1.887-2.965c-.851-.851-1.902-1.523-3.16-2.027-1.258-.5-2.726-.754-4.422-.754H65.824v18.559zm31.836-24.059a6.557 6.557 0 0 1 6.559-6.555h18.027c3.387 0 6.469.532 9.23 1.598 2.766 1.07 5.137 2.543 7.114 4.426 1.976 1.887 3.496 4.133 4.566 6.738 1.067 2.606 1.602 5.445 1.602 8.524 0 2.261-.375 4.382-1.133 6.359a18.882 18.882 0 0 1-3.105 5.367 22.857 22.857 0 0 1-4.614 4.238 23.502 23.502 0 0 1-5.558 2.875l-.098.66 11.531 16.508c2.88 4.125.149 9.817-4.875 10.149a5.358 5.358 0 0 1-4.754-2.305l-15.84-23.035h-5.933v19.312c0 3.329-2.7 6.028-6.027 6.028h-.664a6.028 6.028 0 0 1-6.028-6.028zm24.492 23.871c2.883 0 5.258-.883 7.106-2.637 1.855-1.761 2.781-3.992 2.781-6.687 0-1.195-.207-2.36-.613-3.488a8.604 8.604 0 0 0-1.84-3.012c-.813-.879-1.832-1.586-3.059-2.121-1.226-.531-2.62-.801-4.195-.801h-11.957v18.746zm46.629-18.371v15.637h21.004a6.029 6.029 0 0 1 6.028 6.027v.004c0 3.328-2.7 6.031-6.028 6.031h-21.004v15.633h24.016c3.328 0 6.027 2.7 6.027 6.027v.004a6.029 6.029 0 0 1-6.027 6.028h-30.176a6.557 6.557 0 0 1-6.558-6.555v-54.332a6.554 6.554 0 0 1 6.558-6.555h30.176a6.028 6.028 0 0 1 0 12.055h-24.016zm48.282-12.055h2.187c2.34 0 4.504 1.25 5.676 3.278l18.734 32.422h.754l18.734-32.422a6.558 6.558 0 0 1 5.676-3.278h2.29a6.556 6.556 0 0 1 6.554 6.555v54.863a6.03 6.03 0 0 1-6.027 6.028h-.575a6.028 6.028 0 0 1-6.027-6.028v-27.222l.758-11.305h-.758l-15.254 26.91a6.556 6.556 0 0 1-11.398.016l-15.352-26.926h-.754l.754 11.305v27.222a6.031 6.031 0 0 1-6.031 6.028h-.469a6.032 6.032 0 0 1-6.031-6.028v-54.863a6.554 6.554 0 0 1 6.559-6.555zm80.195 0h.664c3.328 0 6.031 2.7 6.031 6.028v55.39c0 3.325-2.7 6.028-6.031 6.028h-.664a6.028 6.028 0 0 1-6.027-6.028v-55.39a6.029 6.029 0 0 1 6.027-6.028zm44.925 68.95c-3.952 0-7.546-.645-10.785-1.934-3.234-1.285-5.98-3.152-8.238-5.602-2.262-2.453-4.015-5.418-5.273-8.902-1.258-3.488-1.887-7.457-1.887-11.914v-34.57a6.03 6.03 0 0 1 6.027-6.028h.664a6.026 6.026 0 0 1 6.028 6.028v35.32c0 2.262.285 4.336.851 6.215.559 1.887 1.41 3.52 2.535 4.898 1.137 1.387 2.547 2.469 4.243 3.25 1.703.79 3.64 1.176 5.84 1.176 2.265 0 4.242-.387 5.937-1.176 1.7-.781 3.11-1.863 4.238-3.25 1.133-1.379 1.977-3.011 2.543-4.898.57-1.88.852-3.953.852-6.215v-35.32a6.03 6.03 0 0 1 6.027-6.028h.664a6.026 6.026 0 0 1 6.028 6.028v34.57c0 4.207-.614 8.05-1.84 11.535-1.227 3.488-2.98 6.469-5.274 8.95-2.293 2.484-5.058 4.41-8.293 5.796-3.242 1.38-6.867 2.07-10.886 2.07zm44.9-68.95h2.187a6.565 6.565 0 0 1 5.68 3.278l18.734 32.422h.75l18.738-32.422a6.554 6.554 0 0 1 5.676-3.278h2.285a6.553 6.553 0 0 1 6.555 6.555v54.863a6.028 6.028 0 0 1-6.028 6.028h-.57a6.028 6.028 0 0 1-6.027-6.028v-27.222l.757-11.305h-.757l-15.258 26.91a6.552 6.552 0 0 1-11.395.016l-15.355-26.926h-.75l.75 11.305v27.222a6.03 6.03 0 0 1-6.028 6.028h-.472a6.028 6.028 0 0 1-6.028-6.028v-54.863a6.556 6.556 0 0 1 6.555-6.555zm0 0" fill="#ffefe4"/><path d="M255.324 406.523l19.567 10.29c2.28 1.199 4.949-.739 4.515-3.282l-3.738-21.789L291.5 376.31c1.844-1.801.828-4.934-1.727-5.309l-21.878-3.18-9.782-19.824c-1.144-2.312-4.441-2.312-5.582 0l-9.781 19.824-21.879 3.18c-2.55.371-3.574 3.508-1.726 5.309l15.832 15.433-3.735 21.79c-.437 2.542 2.23 4.48 4.512 3.28zm-76.058-26.663l10.91 5.734c1.273.672 2.762-.41 2.52-1.828l-2.087-12.145 8.828-8.605c1.028-1.004.461-2.754-.964-2.961l-12.196-1.77-5.453-11.055c-.637-1.289-2.476-1.289-3.113 0l-5.453 11.055-12.2 1.77c-1.421.207-1.992 1.957-.96 2.96l8.824 8.606-2.082 12.145c-.246 1.418 1.242 2.5 2.515 1.828zm152.113 0l10.91 5.734c1.27.672 2.758-.41 2.516-1.828l-2.082-12.145 8.824-8.605c1.031-1.004.465-2.754-.961-2.961l-12.2-1.77-5.452-11.055c-.637-1.289-2.473-1.289-3.11 0l-5.457 11.055-12.195 1.77c-1.422.207-1.992 1.957-.965 2.96l8.828 8.606-2.086 12.145c-.242 1.418 1.246 2.5 2.52 1.828zm0 0" fill="#ff8354"/><path d="M74.586 70.328l29.98-9.52c6.09-1.93 6.09-10.546 0-12.48l-29.98-9.52a6.544 6.544 0 0 1-4.262-4.257L60.81 4.566c-1.934-6.086-10.547-6.086-12.48 0l-9.52 29.985a6.544 6.544 0 0 1-4.262 4.258l-29.98 9.52c-6.09 1.929-6.09 10.546 0 12.48l29.98 9.52a6.544 6.544 0 0 1 4.262 4.257l9.52 29.984c1.929 6.086 10.546 6.086 12.48 0l9.52-29.984a6.53 6.53 0 0 1 4.257-4.258zm370.535 412.551l22.5-7.145c4.57-1.449 4.57-7.918 0-9.367l-22.5-7.144a4.908 4.908 0 0 1-3.195-3.196l-7.145-22.5c-1.449-4.57-7.918-4.57-9.367 0l-7.144 22.5a4.924 4.924 0 0 1-3.196 3.196l-22.5 7.144c-4.57 1.45-4.57 7.914 0 9.367l22.5 7.145a4.924 4.924 0 0 1 3.196 3.195l7.144 22.5c1.45 4.57 7.914 4.57 9.367 0l7.145-22.5a4.891 4.891 0 0 1 3.195-3.195zm0 0" fill="#69ebfc"/></svg>