<svg height="512pt" viewBox="0 0 512 512" width="512pt" xmlns="http://www.w3.org/2000/svg"><path d="M306.977 16.918c6.332 0 12.285 2.926 16.332 8.031 2.336 2.942 5.953 9.168 3.941 17.766-1.832 7.828-7.828 13.824-15.652 15.656l-32.918 7.703 7.699-32.918c1.832-7.824 7.832-13.824 15.656-15.652a21.684 21.684 0 0 1 4.942-.582zM306.973 0c-2.871 0-5.817.332-8.793 1.027a37.906 37.906 0 0 0-28.274 28.27L256 88.75l59.45-13.91a37.91 37.91 0 0 0 28.273-28.274C349.43 22.172 330.53 0 306.973 0zM205.027 16.918c1.625 0 3.29.195 4.938.582 7.828 1.828 13.824 7.828 15.656 15.652l7.7 32.918-32.919-7.703c-7.824-1.828-13.824-7.828-15.652-15.652-2.012-8.598 1.605-14.824 3.941-17.766 4.047-5.105 10-8.031 16.336-8.031zm0-16.918c-23.558 0-42.457 22.172-36.75 46.566a37.91 37.91 0 0 0 28.274 28.274L256 88.75l-13.91-59.453a37.894 37.894 0 0 0-28.274-28.27A38.569 38.569 0 0 0 205.027 0zm0 0" fill="#69ebfc"/><path d="M269.91 37.758a37.9 37.9 0 0 1 28.274-28.274 38.577 38.577 0 0 1 8.793-1.027c19.27 0 35.414 14.84 37.53 33.594C347.063 19.504 329.068 0 306.974 0c-2.871 0-5.817.332-8.793 1.027a37.906 37.906 0 0 0-28.274 28.27L256 88.75zm-27.82 0a37.9 37.9 0 0 0-28.274-28.274 38.577 38.577 0 0 0-8.793-1.027c-19.27 0-35.414 14.84-37.53 33.594C164.937 19.504 182.932 0 205.026 0c2.871 0 5.817.332 8.793 1.027a37.906 37.906 0 0 1 28.274 28.27L256 88.75zm0 0" fill="#a1f1fc"/><path d="M378.844 408.098H133.156c-13.484 0-24.418-10.934-24.418-24.418V113.574h294.524V383.68c0 13.488-10.934 24.418-24.418 24.418zm0 0" fill="#d476e2"/><path d="M108.738 103.578h294.524v43.227H108.738zm0 0" fill="#b665c2"/><path d="M405.902 128.52H106.098c-8.192 0-14.828-6.641-14.828-14.829V93.465c0-8.192 6.636-14.832 14.828-14.832h299.804c8.192 0 14.828 6.64 14.828 14.832v20.226c0 8.188-6.636 14.829-14.828 14.829zm0 0" fill="#d476e2"/><path d="M405.902 78.633H106.098c-8.192 0-14.828 6.64-14.828 14.832v16.914c0-8.188 6.636-14.828 14.828-14.828h299.804c8.192 0 14.828 6.64 14.828 14.828V93.465c0-8.192-6.636-14.832-14.828-14.832zm0 0" fill="#ea82fa"/><path d="M236.383 78.633h39.234v329.465h-39.234zm0 0" fill="#69ebfc"/><path d="M236.383 128.52h39.234v18.285h-39.234zm0 0" fill="#60d6e6"/><path d="M278.684 70.484c0 12.528-10.157 22.684-22.684 22.684s-22.684-10.156-22.684-22.684c0-12.523 10.157-22.68 22.684-22.68s22.684 10.157 22.684 22.68zm0 0" fill="#8cf2ff"/><path d="M256 57.805c10.805 0 19.832 7.562 22.11 17.68.363-1.61.574-3.278.574-5 0-12.524-10.157-22.68-22.684-22.68s-22.684 10.156-22.684 22.68c0 1.722.211 3.39.575 5 2.277-10.118 11.304-17.68 22.109-17.68zm0 0" fill="#c9f9ff"/><path d="M458.785 329.676c-23.332 26.445-59.11 78.015-73.11 78.015-6.39 0-26.12-3.613-45.683-7.546 32.63-9.102 65.621-23.891 71.32-29.594 8.493-8.492-7.425-19.102-37.14-19.102s-47.754 8.125-83.832 8.125c-36.082 0-35.2-15.414-69.07-15.414-33.872 0-68.622 30.832-68.622 30.832H91.27v86.172h76.82s67.789 23.75 93.066 23.75H382.88c34.32 0 116.351-141.238 127.238-155.238 10.89-14-28-26.446-51.332 0zm0 0" fill="#ffefe4"/><path d="M508.133 318.45c-16.477 24.128-92.54 152.468-125.258 152.468H261.156c-25.278 0-93.066-23.754-93.066-23.754H91.27v14h76.82s67.789 23.754 93.066 23.754h121.719c34.32 0 116.352-141.242 127.242-155.242 3.29-4.23 2.016-8.309-1.984-11.227zm0 0" fill="#edd4c2"/><path d="M52.758 358.91H91.27v126.008H52.758zm0 0" fill="#69ebfc"/><path d="M52.758 470.918H91.27v14H52.758zm0 0" fill="#5fd4e3"/><path d="M52.758 512H0V331.824h52.758zm0 0" fill="#6770e6"/><path d="M0 498h52.758v14H0zm0 0" fill="#5861c7"/></svg>