<svg height="512pt" viewBox="0 0 512 512.005" width="512pt" xmlns="http://www.w3.org/2000/svg"><path d="M342.281 163.105l-8.719-6.921-23.921-19.02-80.817-64.281c-12.5 6.722-23.183 13.582-31.344 20.262a30.97 30.97 0 0 1 9.704 22.558c0 4.621-1 9-2.82 12.942a31.094 31.094 0 0 1-16.52 15.859 30.946 30.946 0 0 1-11.742 2.3c-17.18 0-31.098-13.921-31.098-31.1 0-17.161 13.898-31.079 31.078-31.099 0 0 0-.02.02 0a95.496 95.496 0 0 1 5.378-5.039c7.844-6.82 17.98-13.761 29.82-20.582l-6.116-4.879c-17.02-13.539-41.141-13.539-58.18 0l-137.102 109a26.23 26.23 0 0 0-9.898 20.54v302.14c0 14.48 11.738 26.219 26.219 26.219H325.96c14.48 0 26.223-11.738 26.223-26.219v-302.14c0-8-3.641-15.56-9.903-20.54zm0 0" fill="#ff8354"/><path d="M308.324 331.55c0 73.032-59.203 132.235-132.23 132.235-73.031 0-132.235-59.203-132.235-132.234 0-73.028 59.204-132.23 132.235-132.23 73.027 0 132.23 59.202 132.23 132.23zm0 0" fill="#e0734a"/><path d="M167.809 405.344c-10.391-1.524-19.633-5.535-27.746-12.055-4.727-3.8-8.665-8.562-11.81-14.293-3.815-6.953-.835-15.695 6.505-18.695 5.836-2.383 12.68-.36 15.937 5.039a36.978 36.978 0 0 0 3.614 4.976c3.73 4.368 8.23 7.383 13.496 9.04V339.87l-1.856-.84c-5.125-1.937-9.945-4.215-14.445-6.86-4.5-2.624-8.453-5.679-11.844-9.14a40.738 40.738 0 0 1-8.113-11.742c-2.016-4.367-3.024-9.254-3.024-14.66 0-4.98.907-9.695 2.704-14.133a36.382 36.382 0 0 1 7.808-11.844c3.39-3.46 7.504-6.343 12.367-8.625 4.844-2.289 10.309-3.773 16.403-4.468v-8.63c0-5.109 4.144-9.25 9.254-9.25s9.25 4.141 9.25 9.25v9.044c5.55.824 10.375 2.289 14.449 4.367 4.094 2.078 7.594 4.504 10.613 7.172 1.16 1.027 2.277 2.254 3.336 3.574 5.254 6.574 2.586 16.398-5.098 19.828-5.261 2.348-11.324.875-15.199-3.39-2.035-2.243-4.707-4.438-8.101-5.989v37.207c5.972 2.504 11.363 5.067 16.222 7.7 4.844 2.632 9 5.609 12.473 8.937 3.469 3.32 6.094 7.101 7.887 11.32 1.816 4.239 2.707 9.121 2.707 14.656 0 6.235-1.07 11.786-3.211 16.63-2.157 4.85-5.024 9.007-8.633 12.468-3.613 3.469-7.79 6.242-12.57 8.324a61.866 61.866 0 0 1-14.871 4.356v9.043c0 5.11-4.141 9.25-9.254 9.25a9.25 9.25 0 0 1-9.25-9.25zm-13.7-108.715c0 3.332 1.07 6.207 3.207 8.629 2.157 2.43 5.649 4.894 10.493 7.383v-30.348c-4.157 1.113-7.465 2.906-9.97 5.398-2.5 2.5-3.73 5.477-3.73 8.938zm44.895 66.941c0-3.605-.969-6.59-2.926-8.941-1.941-2.36-5.187-4.711-9.77-7.07v31.8c3.755-1.242 6.801-3.218 9.16-5.921 2.345-2.708 3.536-5.997 3.536-9.868zm0 0" fill="#ffefe4"/><path d="M325.96 498.004H26.224c-14.48 0-26.22-11.738-26.22-26.219v14c0 14.48 11.74 26.219 26.22 26.219H325.96c14.48 0 26.223-11.738 26.223-26.219v-14c0 14.48-11.743 26.219-26.223 26.219zm0 0" fill="#e0734a"/><path d="M510.941 50.605c-4-20.601-18.34-35.722-41.48-43.68-64.379-22.179-189.637 12.618-258.16 52.06l17.523 13.898c25.7-13.817 59.098-27.04 93.88-36.758 36.679-10.242 70.276-15.46 97.679-15.46 16.64 0 31 1.92 42.34 5.839 16.18 5.562 25.32 14.742 27.898 28.062 9.16 47.118-82.297 68.7-110.559 74.18-22.44 4.36-46.66 7.2-70.421 8.418-22.317 1.14-44.239.82-63.88-1.039-18.238-1.742-31.679-4.46-41.398-7.48-3.082-.98-5.8-1.961-8.16-2.961-9.82-4.141-13.762-8.399-14.3-11.118-.622-3.28 2.5-10.101 13.16-19.382a88.28 88.28 0 0 1 2.417-2.04c-5.578-5.3-13.097-8.539-21.378-8.539-.02-.02-.02 0-.02 0-9.941 9.98-14.96 19.7-14.96 29 0 1.66.16 3.301.48 4.918 2.28 11.782 12.5 20.102 26.242 25.98 16.16 6.903 37.18 10.442 55.957 12.224 12.66 1.199 26.203 1.777 40.18 1.777 16.16 0 32.94-.8 49.581-2.32 17.2-1.579 34.282-3.957 50.461-7.118 89.438-17.382 135.7-53.261 126.918-98.46zm0 0" fill="#6770e6"/><path d="M176.102 84.605c-.02-.02-.02 0-.02 0-9.941 9.98-14.96 19.7-14.96 29a25.261 25.261 0 0 0 .956 6.899c1.883-7.11 6.567-14.43 14.004-21.899 0 0 0-.02.02 0a95.496 95.496 0 0 1 5.378-5.039c2.325-2.023 4.875-4.054 7.59-6.093-3.953-1.82-8.332-2.868-12.968-2.868zm334.839-34c-4-20.601-18.34-35.722-41.48-43.68-64.379-22.179-189.637 12.618-258.16 52.06l10.441 8.28c70.176-36.972 186.477-67.44 247.719-46.34 23.14 7.958 37.48 23.079 41.48 43.68a58.81 58.81 0 0 1 .567 3.602c.765-5.687.61-11.559-.567-17.602zm0 0" fill="#8f95e6"/><path d="M228.824 72.883c-12.5 6.722-23.183 13.582-31.344 20.262-5.578-5.301-13.097-8.54-21.378-8.54a95.496 95.496 0 0 1 5.378-5.039c7.844-6.82 17.98-13.761 29.82-20.582zm0 0" fill="#ff8354"/><path d="M342.281 163.105l-8.719-6.921c-5.355.492-10.722.879-16.082 1.214l16.082 12.786 8.72 6.921a26.233 26.233 0 0 1 9.902 20.54v-14c0-8-3.641-15.56-9.903-20.54zm-137.097-95l6.117 4.88 17.523 13.898 63.95 50.863a503.82 503.82 0 0 0 16.867-.582l-80.817-64.281-17.523-13.899-6.117-4.879c-17.02-13.539-41.141-13.539-58.18 0l-137.102 109a26.23 26.23 0 0 0-9.898 20.54v14c0-8 3.637-15.56 9.898-20.54l137.102-109c17.039-13.539 41.16-13.539 58.18 0zm0 0" fill="#ffac8c"/><path d="M489.207 512.004H273.699c-12.59 0-22.797-10.207-22.797-22.797V361.98c0-12.59 10.207-22.796 22.797-22.796h215.508c12.59 0 22.797 10.207 22.797 22.796v127.227c0 12.59-10.207 22.797-22.797 22.797zm0 0" fill="#ffefe4"/><path d="M489.207 339.184H273.699c-12.59 0-22.797 10.207-22.797 22.796v14c0-12.59 10.207-22.796 22.797-22.796h215.508c12.59 0 22.797 10.207 22.797 22.796v-14c0-12.59-10.207-22.796-22.797-22.796zm0 0" fill="#fff7f2"/><path d="M273.7 512.004h215.507c12.59 0 22.797-10.207 22.797-22.797v-14c0 12.59-10.207 22.797-22.797 22.797H273.699c-12.59 0-22.797-10.207-22.797-22.797v14c0 12.59 10.207 22.797 22.797 22.797zm0 0" fill="#edd4c2"/><path d="M273.379 370.11h9.726v116.816h-9.726zm21.898 0h17.004v93.273h-17.004zm26.731 0h16.937v93.273h-16.937zm38.902 0h9.727v93.273h-9.727zm-15.496 0h9.727v93.273h-9.727zm36.039 0h18.36v93.273h-18.36zm28.087 0h9.726v93.273h-9.727zm19.452 0h21.547v93.273h-21.547zm29.176 0h9.723v93.273h-9.723zm19.449 0h9.727v116.816h-9.727zM312.281 482.063a4.86 4.86 0 0 1-4.86 4.863h-7.276a4.864 4.864 0 0 1 0-9.727h7.277a4.86 4.86 0 0 1 4.86 4.864zm26.696 0a4.864 4.864 0 0 1-4.864 4.863h-7.273a4.864 4.864 0 0 1 0-9.727h7.273a4.861 4.861 0 0 1 4.864 4.864zm60.832.003a4.86 4.86 0 0 1-4.86 4.86h-44.672a4.86 4.86 0 0 1-4.859-4.86 4.86 4.86 0 0 1 4.86-4.863h44.671a4.858 4.858 0 0 1 4.86 4.863zm19.457-.003a4.864 4.864 0 1 1-9.728-.001 4.864 4.864 0 0 1 9.728 0zm48.624 0a4.86 4.86 0 1 1-9.722 0c0-2.688 2.18-4.864 4.863-4.864s4.86 2.18 4.86 4.864zm-17.35.003c0 2.684-2.18 4.86-4.864 4.86h-11.824a4.86 4.86 0 0 1-4.86-4.86 4.86 4.86 0 0 1 4.86-4.863h11.824a4.859 4.859 0 0 1 4.863 4.863zm0 0" fill="#6770e6"/></svg>