<svg height="512pt" viewBox="-12 0 512 512.001" width="512pt" xmlns="http://www.w3.org/2000/svg"><path d="M434.21 434.46H77.79c-21.548 0-39.02-17.468-39.02-39.015V39.02C38.77 17.469 56.238 0 77.79 0h356.425c21.547 0 39.02 17.469 39.02 39.02v356.425c-.005 21.547-17.473 39.016-39.024 39.016zm0 0" fill="#d476e2"/><path d="M434.21 0H77.79C56.237 0 38.77 17.469 38.77 39.02v14C38.77 31.469 56.238 14 77.79 14h356.425c21.547 0 39.02 17.469 39.02 39.02v-14C473.23 17.469 455.761 0 434.21 0zm0 0" fill="#ea82fa"/><path d="M94.324 264.46c-14.113 0-25.554-11.44-25.554-25.554V55.551C68.77 41.44 80.21 30 94.324 30H417.68c14.113 0 25.554 11.441 25.554 25.55v183.36c0 14.113-11.441 25.55-25.554 25.55zm0 0" fill="#fff7f2"/><path d="M44.242 383.617H76.54V489.29H44.242zm0 0" fill="#69ebfc"/><path d="M443.547 405.406c-26.117.621-82.149 15.434-111.54 18.383-13.417 1.344-26.554-10.336-37.839-11.672 17.926-5.05 59.297-3.3 72.781-10.27 20.074-10.378-19.183-22.066-34.031-24.816-14.844-2.754-57.441-2.82-79.516-3-22.078-.183-41.386-13.437-64.578-11.828-23.195 1.613-45.648 15.543-62.722 31.735-16.325 2.414-33.125 2.953-49.567 3.253v72.93c18.442-.351 44.367 3.387 67.375 3.027 21.645 1.36 54.574 4.086 75.219 2.739 20.648-1.352 83.406 9.91 90.406 10.254 19.3.949 147.313-40.735 171.04-51.29 23.718-10.558-10.907-30.062-37.028-29.445zm0 0" fill="#ffefe4"/><path d="M480.574 424.852c-23.722 10.554-151.738 52.234-171.039 51.289-7-.34-69.758-11.602-90.406-10.254-20.645 1.347-53.574-1.38-75.219-2.739-23.008.36-48.933-3.378-67.375-3.027v10c18.442-.351 44.367 3.387 67.375 3.027 21.645 1.36 54.574 4.086 75.219 2.739 20.648-1.352 83.406 9.91 90.406 10.254 19.3.949 147.313-40.735 171.04-51.29 8.718-3.882 9.534-8.968 5.808-13.824-1.285 1.356-3.168 2.649-5.809 3.825zm0 0" fill="#edd4c2"/><path d="M44.242 477.547H76.54v11.742H44.242zm0 0" fill="#5fd4e3"/><path d="M44.242 512H0V360.906h44.242zm0 0" fill="#6770e6"/><path d="M0 500.262h44.242V512H0zm0 0" fill="#5861c7"/><path d="M371.867 115.762L322.113 66.18a6.648 6.648 0 0 0-4.691-1.942H293.25c0 20.653-16.738 37.395-37.39 37.395s-37.391-16.742-37.391-37.395h-24.16a6.656 6.656 0 0 0-4.707 1.953l-49.48 49.57a2.723 2.723 0 0 0 0 3.856l25.952 25.953a2.728 2.728 0 0 0 3.86 0l21.62-21.617v103.543a2.724 2.724 0 0 0 2.727 2.727h123.16a2.727 2.727 0 0 0 2.727-2.727V123.68l21.89 21.89a2.728 2.728 0 0 0 3.86 0l25.953-25.953a2.727 2.727 0 0 0-.004-3.855zm0 0" fill="#ff8354"/><path d="M293.25 64.238c0 20.653-16.738 37.39-37.39 37.39s-37.391-16.737-37.391-37.39h8.035c0 16.211 13.144 29.352 29.355 29.352s29.352-13.14 29.352-29.352zm0 0" fill="#6770e6"/><path d="M285.21 64.238c0 16.211-13.14 29.352-29.35 29.352s-29.356-13.14-29.356-29.352zm0 0" fill="#e0734a"/><path d="M320.168 227.492v-5.308H191.551v5.308a2.73 2.73 0 0 0 2.726 2.73h123.164a2.73 2.73 0 0 0 2.727-2.73zm51.711-111.719l-3.754-3.757-29.797 29.796 3.754 3.758a2.728 2.728 0 0 0 3.86 0l25.94-25.941a2.727 2.727 0 0 0-.003-3.856zm-231.758 0l3.754-3.757 29.8 29.796-3.757 3.758a2.723 2.723 0 0 1-3.856 0l-25.94-25.941a2.723 2.723 0 0 1 0-3.856zm0 0" fill="#6770e6"/><path d="M355.64 311.352H156.364c-6.258 0-11.332-5.075-11.332-11.332 0-6.258 5.074-11.332 11.332-11.332h199.278c6.257 0 11.332 5.074 11.332 11.332 0 6.257-5.075 11.332-11.332 11.332zm40 46.89H116.364c-6.258 0-11.332-5.074-11.332-11.332 0-6.258 5.074-11.332 11.332-11.332h279.278c6.257 0 11.332 5.074 11.332 11.332 0 6.258-5.075 11.332-11.332 11.332zm0 0" fill="#b665c2"/></svg>