<svg height="512pt" viewBox="-12 0 512 512.001" width="512pt" xmlns="http://www.w3.org/2000/svg"><path d="M446.129 428.371H65.87c-13.285 0-24.055-10.773-24.055-24.058V24.058C41.816 10.773 52.586 0 65.871 0h380.254c13.29 0 24.059 10.773 24.059 24.059v380.253c0 13.286-10.77 24.06-24.055 24.06zm0 0" fill="#f7ddca"/><path d="M470.184 31.574H41.816V24.06C41.816 10.773 52.586 0 65.871 0h380.254c13.29 0 24.059 10.773 24.059 24.059zm0 0" fill="#ffefe4"/><path d="M289.906 100.89H273.41l-15.234-9.933-12.621 9.934-12.625-9.934-10.832 9.934V0h67.808zm0 0" fill="#ff8354"/><path d="M222.098 0h67.808v31.574h-67.808zm0 0" fill="#ffac8c"/><path d="M44.242 383.617H76.54V489.29H44.242zm0 0" fill="#69ebfc"/><path d="M443.547 405.406c-26.117.621-82.149 15.434-111.54 18.383-13.417 1.344-26.554-10.336-37.839-11.672 17.926-5.05 59.297-3.3 72.781-10.27 20.074-10.378-19.183-22.066-34.031-24.816-14.844-2.754-57.441-2.82-79.516-3-22.078-.183-41.386-13.437-64.578-11.828-23.195 1.613-45.648 15.543-62.722 31.735-16.325 2.414-33.125 2.953-49.567 3.253v72.93c18.442-.351 44.367 3.387 67.375 3.027 21.645 1.36 54.574 4.086 75.219 2.739 20.648-1.352 83.406 9.91 90.406 10.254 19.3.949 147.313-40.735 171.04-51.29 23.718-10.558-10.907-30.062-37.028-29.445zm0 0" fill="#ffefe4"/><path d="M480.574 424.852c-23.722 10.554-151.738 52.234-171.039 51.289-7-.34-69.758-11.602-90.406-10.254-20.645 1.347-53.574-1.38-75.219-2.739-23.008.36-48.933-3.378-67.375-3.027v10c18.442-.351 44.367 3.387 67.375 3.027 21.645 1.36 54.574 4.086 75.219 2.739 20.648-1.352 83.406 9.91 90.406 10.254 19.3.949 147.313-40.735 171.04-51.29 8.718-3.882 9.534-8.968 5.808-13.824-1.285 1.356-3.168 2.649-5.809 3.825zm0 0" fill="#edd4c2"/><path d="M44.242 477.547H76.54v11.742H44.242zm0 0" fill="#5fd4e3"/><path d="M44.242 512H0V360.906h44.242zm0 0" fill="#6770e6"/><path d="M0 500.262h44.242V512H0zm0 0" fill="#5861c7"/><path d="M328.617 148.582H143.375c-9.941 0-18 8.059-18 18s8.059 18 18 18h185.246c22.89 0 41.516 18.625 41.516 41.516s-18.625 41.511-41.516 41.511h-51.723l5.5-5.5c7.032-7.03 7.032-18.425 0-25.457-7.03-7.027-18.421-7.027-25.457 0l-36.23 36.227a18.004 18.004 0 0 0 0 25.457l36.23 36.23c3.516 3.512 8.125 5.274 12.73 5.274s9.212-1.762 12.727-5.274c7.032-7.03 7.032-18.43 0-25.457l-5.5-5.504h51.723c42.742 0 77.516-34.773 77.516-77.511 0-42.742-34.778-77.512-77.52-77.512zm0 0" fill="#d476e2"/></svg>