<svg height="512pt" viewBox="0 0 512 512" width="512pt" xmlns="http://www.w3.org/2000/svg"><path d="M451.707 0h-308.23C110.18 0 83.184 26.992 83.184 60.293v176.852c0 33.296 26.996 60.292 60.293 60.292h180.671V361c0 10.031 12.125 15.05 19.22 7.96l71.523-71.526h36.816c33.3 0 60.293-26.993 60.293-60.293V60.293C512 26.993 485.008 0 451.707 0zm0 0" fill="#69ebfc"/><path d="M451.707 0h-308.23C110.18 0 83.184 26.992 83.184 60.293v14c0-33.3 26.996-60.293 60.293-60.293h308.23C485.007 14 512 40.992 512 74.293v-14C512 26.993 485.008 0 451.707 0zm0 0" fill="#a1f1fc"/><path d="M116.129 420.578l133.426 49.418v-207.55l-133.426 49.417zm0 0" fill="#6770e6"/><path d="M90.188 512c14.328 0 25.94-11.617 25.94-25.945v-65.477H64.243v65.477c0 14.328 11.613 25.945 25.945 25.945zm0 0" fill="#b665c2"/><path d="M90.188 498c-14.329 0-25.946-11.617-25.946-25.945v14C64.242 500.383 75.86 512 90.187 512s25.942-11.617 25.942-25.945v-14c0 14.328-11.613 25.945-25.942 25.945zm0 0" fill="#a059ab"/><path d="M54.36 420.578h61.769V311.863h-61.77C24.336 311.863 0 336.2 0 366.223c0 30.02 24.336 54.355 54.36 54.355zm0 0" fill="#d476e2"/><path d="M116.129 311.863v16l133.426-49.418v-16zm0 0" fill="#8f95e6"/><path d="M54.36 311.863C24.335 311.863 0 336.2 0 366.223c0 2.718.207 5.386.59 8 3.87-26.23 26.465-46.36 53.77-46.36h61.769v-16zm0 0" fill="#ea82fa"/><path d="M259.016 396.293h-9.461v-60.14h9.46c16.61 0 30.07 13.46 30.07 30.07 0 16.605-13.46 30.07-30.07 30.07zm0 0" fill="#d476e2"/><path d="M196.973 108.723c0-6.043 1.164-11.743 3.496-17.094 2.328-5.352 5.523-10.059 9.582-14.117 4.058-4.055 8.847-7.25 14.375-9.582 5.523-2.332 11.566-3.496 18.129-3.496s12.648 1.164 18.257 3.496c5.614 2.332 10.45 5.527 14.504 9.582 4.059 4.058 7.254 8.765 9.586 14.117 2.328 5.351 3.496 11.05 3.496 17.094 0 6.047-1.164 11.785-3.496 17.222-2.332 5.438-5.527 10.149-9.586 14.114-4.058 3.976-8.89 7.125-14.503 9.457-5.61 2.328-11.696 3.496-18.258 3.496s-12.606-1.164-18.13-3.496c-5.527-2.332-10.32-5.48-14.374-9.457-4.059-3.97-7.25-8.676-9.582-14.114s-3.496-11.175-3.496-17.222zm27.71 0c0 5.699 1.723 10.273 5.184 13.726 3.45 3.453 7.68 5.18 12.688 5.18 5.007 0 9.238-1.727 12.691-5.18s5.18-8.027 5.18-13.726c0-5.7-1.727-10.274-5.18-13.727s-7.684-5.183-12.691-5.183c-5.012 0-9.239 1.73-12.688 5.183-3.46 3.457-5.183 8.027-5.183 13.727zm12.032 117.199L337.996 74.68c3.79-5.657 11.45-7.168 17.102-3.38 5.644 3.79 7.156 11.438 3.37 17.087l-101.28 151.242c-3.79 5.656-11.45 7.168-17.102 3.379-5.645-3.79-7.156-11.438-3.371-17.086zm70.07-20.336c0-6.043 1.164-11.738 3.5-17.094 2.328-5.351 5.524-10.054 9.582-14.113 4.055-4.059 8.848-7.254 14.371-9.586 5.528-2.328 11.567-3.496 18.133-3.496 6.559 0 12.645 1.164 18.258 3.496 5.61 2.332 10.445 5.527 14.504 9.586 4.055 4.059 7.25 8.762 9.582 14.113 2.332 5.356 3.5 11.051 3.5 17.094 0 6.047-1.168 11.785-3.5 17.223-2.328 5.441-5.527 10.148-9.582 14.117-4.063 3.972-8.895 7.12-14.504 9.453-5.613 2.328-11.7 3.496-18.258 3.496-6.566 0-12.605-1.164-18.133-3.496-5.527-2.332-10.316-5.48-14.37-9.453-4.06-3.973-7.25-8.68-9.583-14.117-2.336-5.438-3.5-11.176-3.5-17.223zm27.711 0c0 5.7 1.727 10.277 5.184 13.726 3.449 3.458 7.68 5.18 12.687 5.18 5.008 0 9.238-1.722 12.692-5.18 3.453-3.453 5.18-8.027 5.18-13.726 0-5.7-1.727-10.27-5.18-13.727-3.454-3.453-7.684-5.18-12.692-5.18s-9.238 1.727-12.687 5.18c-3.457 3.457-5.184 8.028-5.184 13.727zm0 0" fill="#ffefe4"/></svg>