<svg height="511pt" viewBox="0 0 511 511.998" width="511pt" xmlns="http://www.w3.org/2000/svg"><path d="M279.484 15.512c10.286-25.34 48-17.84 47.801 9.508-.16 22.277 26.844 33.464 42.48 17.597 19.2-19.476 51.173 1.887 40.524 27.074-8.676 20.524 11.992 41.188 32.512 32.512 25.191-10.644 46.554 21.324 27.074 40.524-15.863 15.636-4.68 42.64 17.598 42.48 27.347-.2 34.847 37.516 9.507 47.8-20.644 8.376-20.644 37.602 0 45.981 25.34 10.282 17.84 47.996-9.507 47.797-22.278-.16-33.461 26.844-17.598 42.48 19.48 19.2-1.887 51.173-27.074 40.524-20.52-8.676-41.188 11.992-32.512 32.512 10.649 25.191-21.324 46.554-40.523 27.074-15.637-15.863-42.641-4.68-42.48 17.598.198 27.347-37.516 34.851-47.802 9.507-8.375-20.64-37.601-20.64-45.98 0-10.281 25.344-47.996 17.84-47.797-9.507.16-22.278-26.844-33.461-42.48-17.598-19.2 19.48-51.172-1.883-40.524-27.074 8.676-20.52-11.992-41.188-32.512-32.512C45 420.438 23.637 388.465 43.117 369.266c15.863-15.637 4.68-42.641-17.597-42.48-27.348.198-34.852-37.516-9.508-47.798 20.64-8.379 20.64-37.605 0-45.98-25.344-10.285-17.84-48 9.508-47.801 22.277.16 33.46-26.844 17.597-42.48-19.48-19.2 1.883-51.172 27.074-40.524 20.52 8.676 41.188-11.992 32.512-32.512-10.648-25.191 21.324-46.55 40.524-27.074 15.636 15.867 42.64 4.68 42.48-17.597-.2-27.348 37.516-34.848 47.797-9.508 8.379 20.644 37.605 20.644 45.98 0zm0 0" fill="#ff8354"/><path d="M70.191 395.793c-15.582 6.586-29.687-3.137-33.582-16.05-5.683 18.25 12.61 38.913 33.582 30.05 14.711-6.219 29.5 2.648 33.493 15.727 5.8-19.543-13.903-38.008-33.493-29.727zm372.609 0c-19.59-8.281-39.296 10.184-33.491 29.727 3.992-13.079 18.777-21.946 33.492-15.727 20.972 8.863 39.265-11.8 33.582-30.05-3.899 12.913-18 22.636-33.582 16.05zm-73.034 59.59c-15.637-15.867-42.641-4.684-42.48 17.594.198 27.347-37.516 34.851-47.802 9.507-8.375-20.64-37.601-20.64-45.98 0-10.281 25.344-47.996 17.84-47.797-9.507.16-22.278-26.844-33.461-42.48-17.594-14.59 14.797-36.532 6.012-41.57-10.11-7.067 23.848 23.132 42.817 41.57 24.11 15.636-15.867 42.64-4.684 42.48 17.594-.2 27.347 37.516 34.851 47.797 9.507 8.379-20.64 37.605-20.64 45.98 0 10.286 25.344 48 17.84 47.801-9.507-.16-22.278 26.844-33.461 42.48-17.594 18.438 18.703 48.637-.262 41.567-24.11-5.035 16.122-26.977 24.907-41.566 10.11zm0 0" fill="#e0734a"/><path d="M143.227 56.617c15.636 15.867 42.64 4.68 42.48-17.597-.2-27.348 37.516-34.848 47.797-9.508 8.379 20.644 37.605 20.644 45.98 0 10.286-25.34 48-17.84 47.801 9.508-.16 22.277 26.844 33.464 42.48 17.597 14.59-14.8 36.532-6.015 41.567 10.106 7.07-23.848-23.129-42.813-41.566-24.106-15.637 15.867-42.641 4.68-42.48-17.597.198-27.348-37.516-34.848-47.802-9.508-8.375 20.644-37.601 20.644-45.98 0-10.281-25.34-47.996-17.84-47.797 9.508.16 22.277-26.844 33.464-42.48 17.597-18.438-18.707-48.637.258-41.57 24.106 5.038-16.121 26.98-24.907 41.57-10.106zm-73.036 59.586c19.59 8.285 39.293-10.18 33.493-29.726-3.993 13.082-18.782 21.949-33.493 15.726-20.972-8.863-39.265 11.805-33.582 30.055 3.895-12.914 18-22.64 33.582-16.055zm372.609 0c15.583-6.586 29.684 3.137 33.583 16.055 5.683-18.25-12.61-38.918-33.582-30.055-14.715 6.223-29.5-2.644-33.492-15.726-5.805 19.546 13.902 38.011 33.492 29.726zm0 0" fill="#ffac8c"/><path d="M447.98 256c0 105.754-85.73 191.484-191.484 191.484S65.012 361.754 65.012 256c0-105.758 85.73-191.488 191.484-191.488S447.98 150.242 447.98 256zm0 0" fill="#e0734a"/><path d="M170.285 218.605h38.426v125.73h-38.426zm0 0" fill="#69ebfc"/><path d="M170.285 361.258h-52.64v-159.57h52.64zm0 0" fill="#6770e6"/><path d="M412.387 253.23c0-10.066-8.16-18.222-18.223-18.222h-4.578v-.262c8.652-1.418 15.266-8.906 15.266-17.96 0-9.056-6.614-16.544-15.266-17.962v-.262h-83.379l9.766-26.648a52.478 52.478 0 0 0 2.82-24.348l-.723-5.941c-1.539-12.707-12.324-22.266-25.125-22.266a7.542 7.542 0 0 0-7.539 7.543v4.68a63.955 63.955 0 0 1-7.441 29.941l-8.973 16.95a64 64 0 0 1-15.531 19.164l-37.469 31.285-7.281 3.648v91.453l19.937 10.5a85.146 85.146 0 0 0 39.672 9.805h107.621c10.063 0 18.223-8.156 18.223-18.223 0-9.851-7.832-17.859-17.605-18.187l.007-.031h10.067c10.062 0 18.222-8.16 18.222-18.223s-8.16-18.223-18.222-18.223h7.531c10.063.008 18.223-8.148 18.223-18.21zm0 0" fill="#ffefe4"/></svg>