<svg height="512pt" viewBox="-1 0 512 512.024" width="512pt" xmlns="http://www.w3.org/2000/svg"><path d="M38.36 302.3v173.723h143.152V230.547zm0 0" fill="#6770e6"/><path d="M181.512 230.547v245.476h143.152V158.797zm0 0" fill="#d476e2"/><path d="M324.664 476.023h143.152V87.043l-143.152 71.754zm0 0" fill="#69ebfc"/><path d="M507.969 80.363c.05-.27.105-.539.144-.808.051-.336.082-.672.114-1.008.027-.29.058-.578.07-.867.012-.32.008-.64.008-.961 0-.301.004-.602-.012-.903-.016-.308-.055-.62-.086-.933-.031-.305-.059-.61-.102-.914-.046-.305-.109-.606-.171-.906-.063-.305-.122-.614-.2-.918-.074-.29-.164-.575-.254-.86a14.46 14.46 0 0 0-.3-.933c-.098-.27-.207-.536-.317-.801-.136-.32-.27-.64-.418-.95-.05-.105-.086-.206-.136-.308-.082-.16-.176-.305-.262-.457a17.162 17.162 0 0 0-.996-1.656c-.172-.25-.344-.496-.524-.743a20.115 20.115 0 0 0-.613-.777 28.48 28.48 0 0 0-.559-.64 24.258 24.258 0 0 0-.69-.723 15.157 15.157 0 0 0-.626-.59 28.433 28.433 0 0 0-.734-.633 24.778 24.778 0 0 0-.715-.55c-.25-.184-.5-.364-.758-.532a17.616 17.616 0 0 0-1.594-.95c-.27-.144-.543-.28-.82-.413-.3-.14-.602-.27-.902-.395a19.242 19.242 0 0 0-1.84-.645c-.153-.042-.297-.105-.45-.144L400.36 33.293c-10.14-2.719-20.566 3.3-23.28 13.445-2.72 10.14 3.296 20.567 13.44 23.285l45.551 12.204L10.508 295.535c-9.387 4.707-13.18 16.13-8.477 25.516 3.336 6.652 10.043 10.496 17.012 10.496 2.867 0 5.77-.649 8.504-2.02l432.45-216.754-14.2 52.989c-2.719 10.136 3.3 20.562 13.441 23.281 1.649.441 3.305.652 4.934.652 8.394 0 16.078-5.601 18.351-14.093l25.153-93.872c.027-.101.039-.207.066-.308.086-.352.156-.703.227-1.059zm0 0" fill="#ff8354"/><path d="M491.305 512.023H19.023c-10.5 0-19.011-8.511-19.011-19.011v-474C.012 8.512 8.523 0 19.023 0s19.012 8.512 19.012 19.012V474H491.31c10.5 0 19.011 8.512 19.011 19.012s-8.515 19.011-19.015 19.011zm0 0" fill="#ff8354"/><path d="M491.305 498.023H19.023c-10.5 0-19.011-8.511-19.011-19.011v14c0 10.5 8.511 19.011 19.011 19.011H491.31c10.5 0 19.011-8.511 19.011-19.011 0-2.473-.488-4.832-1.347-7-2.79 7.031-9.641 12.011-17.668 12.011zm0 0" fill="#e0734a"/><path d="M19.023 14c10.5 0 19.012 8.512 19.012 19.012v-14C38.035 8.512 29.523 0 19.023 0S.012 8.512.012 19.012v14C.012 22.512 8.523 14 19.023 14zm0 0" fill="#ffac8c"/><path d="M278.191.023H104.25c-18.79 0-34.023 15.235-34.023 34.024v99.8c0 18.79 15.234 34.024 34.023 34.024h25.805v35.871c0 5.66 6.843 8.492 10.843 4.492l40.364-40.363h96.925c18.79 0 34.024-15.234 34.024-34.023V34.047c.004-18.79-15.23-34.024-34.02-34.024zm0 0" fill="#69ebfc"/><path d="M104.25.023h173.938c18.792 0 34.023 15.235 34.023 34.024v14.226c0-18.793-15.23-34.027-34.024-34.027H104.25c-18.793 0-34.023 15.234-34.023 34.027V34.047C70.227 15.257 85.46.023 104.25.023zm0 0" fill="#a1f1fc"/><path d="M186.246 130.758c-6.238-.914-11.785-3.324-16.656-7.238-2.84-2.282-5.203-5.141-7.09-8.582-2.293-4.172-.5-9.422 3.906-11.223 3.504-1.434 7.614-.219 9.567 3.023a22.346 22.346 0 0 0 2.168 2.989c2.242 2.62 4.945 4.433 8.105 5.425V91.45l-1.113-.504a56.452 56.452 0 0 1-8.676-4.117c-2.7-1.574-5.074-3.41-7.11-5.488a24.6 24.6 0 0 1-4.87-7.05c-1.211-2.622-1.817-5.556-1.817-8.802 0-2.992.547-5.816 1.625-8.484a21.804 21.804 0 0 1 4.688-7.11c2.035-2.078 4.504-3.808 7.425-5.18 2.907-1.37 6.192-2.265 9.848-2.683v-5.176a5.551 5.551 0 0 1 5.555-5.554 5.554 5.554 0 0 1 5.554 5.554v5.426c3.333.496 6.227 1.371 8.672 2.621a29.961 29.961 0 0 1 6.371 4.305c.7.617 1.372 1.352 2.004 2.148 3.153 3.946 1.555 9.844-3.058 11.903-3.16 1.406-6.797.523-9.125-2.04-1.219-1.343-2.828-2.663-4.864-3.593v22.34c3.586 1.5 6.82 3.039 9.739 4.62 2.91 1.58 5.402 3.368 7.488 5.368 2.082 1.992 3.656 4.262 4.734 6.793 1.09 2.547 1.625 5.477 1.625 8.8 0 3.747-.644 7.075-1.925 9.985-1.297 2.914-3.016 5.406-5.184 7.485-2.168 2.086-4.68 3.75-7.547 4.996a37.247 37.247 0 0 1-8.93 2.617v5.426a5.554 5.554 0 1 1-11.105 0v-5.297zm-8.223-65.27c0 1.996.641 3.723 1.926 5.176 1.297 1.461 3.39 2.941 6.301 4.438V56.879c-2.496.668-4.484 1.746-5.984 3.242-1.504 1.504-2.243 3.29-2.243 5.367zm26.95 40.188c0-2.16-.582-3.957-1.754-5.367-1.164-1.418-3.114-2.829-5.864-4.246v19.093c2.254-.746 4.083-1.933 5.5-3.554 1.407-1.625 2.118-3.598 2.118-5.926zm0 0" fill="#6770e6"/></svg>