<svg height="512pt" viewBox="-2 0 512 512" width="512pt" xmlns="http://www.w3.org/2000/svg"><path d="M140.402 377.16V512h111.114V321.469zm0 0" fill="#6770e6"/><path d="M251.516 321.469V512h111.109V265.777zm0 0" fill="#d476e2"/><path d="M362.625 512h111.113V210.086l-111.113 55.691zm0 0" fill="#69ebfc"/><path d="M508.234 205.7c.055-.27.11-.544.149-.817.047-.332.078-.668.11-1.004.027-.29.058-.578.07-.867.015-.32.011-.64.011-.965-.004-.219.016-.442.004-.664-.004-.078-.015-.156-.02-.235-.015-.312-.05-.625-.081-.937-.032-.305-.059-.606-.106-.906a17.79 17.79 0 0 0-.172-.91c-.062-.305-.12-.614-.195-.915-.074-.289-.164-.574-.25-.859a23.89 23.89 0 0 0-.305-.937 19.54 19.54 0 0 0-.316-.79c-.04-.097-.074-.195-.117-.289-.047-.113-.086-.23-.137-.34a1.23 1.23 0 0 0-.05-.1c-.036-.08-.083-.153-.122-.231-.047-.102-.082-.204-.133-.305-.078-.156-.172-.297-.254-.45a22.014 22.014 0 0 0-.504-.894c-.16-.258-.324-.512-.492-.762a20.379 20.379 0 0 0-.535-.757 23.02 23.02 0 0 0-.598-.754 19.163 19.163 0 0 0-1.242-1.364 19.6 19.6 0 0 0-.664-.62 16.666 16.666 0 0 0-1.46-1.184 16.965 16.965 0 0 0-1.555-1.031 17.94 17.94 0 0 0-1.629-.86 16.061 16.061 0 0 0-.801-.351 17.61 17.61 0 0 0-1.82-.645c-.176-.05-.344-.117-.524-.168h-.004l-72.855-19.52c-10.145-2.722-20.567 3.301-23.282 13.446-2.718 10.14 3.297 20.566 13.442 23.281l24.543 6.578-320.297 160.531c-9.387 4.707-13.184 16.13-8.48 25.516 3.335 6.652 10.046 10.496 17.011 10.496 2.864 0 5.77-.648 8.504-2.02l327.184-163.992-8.567 31.973c-2.718 10.145 3.297 20.57 13.442 23.285 1.648.442 3.304.657 4.93.657 8.394 0 16.078-5.606 18.355-14.098l19.52-72.86c.027-.105.042-.21.07-.316.09-.348.16-.695.222-1.047zm0 0" fill="#ff8354"/><path d="M223.875 414.531l-41.848-13.75H69.617L27.66 414.543C11.156 419.953 0 435.355 0 452.723V512h251.516v-59.293c0-17.36-11.149-32.758-27.641-38.176zm0 0" fill="#5fd4e3"/><path d="M85.523 382.82h80.47v34.047h-80.47zm0 0" fill="#5fd4e3"/><path d="M139.688 450.91h-27.86l-6.187-34.043h40.234zm0 0" fill="#6770e6"/><path d="M57.664 404.484l40.238 43.332 27.856-30.949-40.235-34.047zm0 0" fill="#69ebfc"/><path d="M147.156 512l-7.469-61.09h-27.859L104.355 512zm0 0" fill="#5861c7"/><path d="M171.445 218.191c-1.941-7.507-10.226-18.144-41.61-18.144-48.491 0-55.394 7.18-68.3-5.223-10.89-10.46-17.281 39.895-2.765 55.887-6.13 22.652-1.227 45.336-1.227 45.336h136.43s11.449-52.992-22.528-77.856zm0 0" fill="#339"/><path d="M61.535 207.273c12.903 12.403 19.809 5.22 68.3 5.22 31.384 0 39.669 10.636 41.61 18.144 18.028 13.191 23.266 34.304 24.211 51.218.946-17.488-1.36-46.94-24.21-63.664-1.942-7.504-10.227-18.144-41.61-18.144-48.492 0-55.395 7.18-68.3-5.219-7.173-6.89-12.395 12.602-10.977 31.281 1.039-13.683 5.421-24.175 10.976-18.836zm0 0" fill="#5861c7"/><path d="M156.68 348.785H94.836V390.7l30.922 26.168 30.949-26.187zm-85.36-50.351s-5.882-10.778-17.644-10.778-20.098 51.719 17.644 43.098zm108.875 0s5.88-10.778 17.645-10.778c11.762 0 20.094 51.719-17.645 43.098zm0 0" fill="#ffe4d1"/><path d="M125.758 229.129c-90.121 0-72.89 147.805 0 147.805s90.12-147.805 0-147.805zm0 0" fill="#ffefe4"/><path d="M125.11 220.953s-61.012-8.605-61.012 69.676c0 0 7.683-32.356 25.304-41.18 8.211-4.11 11.215 6.301 35.707 6.301s27.496-10.41 35.707-6.3c17.625 8.823 25.305 41.179 25.305 41.179 0-78.281-61.012-69.676-61.012-69.676zm0 0" fill="#339"/><path d="M125.758 221.086S64.46 212.437 64.46 291.09c0 0 7.719-32.512 25.426-41.375 8.246-4.13 11.265 6.332 35.875 6.332 24.605 0 27.625-10.461 35.87-6.332 17.712 8.863 25.427 41.375 25.427 41.375-.004-78.653-61.301-70.004-61.301-70.004zm0 0" fill="#339"/><path d="M193.852 404.484l-40.239 43.332-27.855-30.949 40.234-34.047zM342.969 0H169.03c-18.793 0-34.023 15.234-34.023 34.023v99.801c0 18.79 15.23 34.024 34.023 34.024h25.805v35.87c0 5.66 6.844 8.493 10.844 4.493l40.363-40.363h96.926c18.789 0 34.023-15.235 34.023-34.024v-99.8C376.992 15.233 361.762 0 342.97 0zm0 0" fill="#69ebfc"/><path d="M169.031 0H342.97c18.793 0 34.023 15.23 34.023 34.023v14.223c0-18.789-15.23-34.023-34.023-34.023H169.03c-18.793 0-34.023 15.234-34.023 34.023V34.023C135.008 15.23 150.238 0 169.03 0zm0 0" fill="#a1f1fc"/><path d="M251.027 130.734c-6.238-.914-11.789-3.328-16.656-7.238-2.84-2.281-5.203-5.14-7.09-8.582-2.293-4.176-.504-9.422 3.906-11.223 3.504-1.433 7.61-.218 9.567 3.024a22.005 22.005 0 0 0 2.168 2.988c2.242 2.621 4.941 4.434 8.105 5.426V91.426l-1.117-.504a56.582 56.582 0 0 1-8.672-4.117c-2.703-1.575-5.078-3.41-7.11-5.489a24.445 24.445 0 0 1-4.87-7.05c-1.211-2.621-1.817-5.555-1.817-8.801 0-2.992.543-5.82 1.621-8.485a21.712 21.712 0 0 1 4.692-7.109c2.035-2.078 4.504-3.812 7.426-5.18 2.906-1.375 6.187-2.265 9.847-2.683v-5.18a5.55 5.55 0 0 1 5.551-5.55 5.55 5.55 0 0 1 5.555 5.55v5.43c3.332.496 6.226 1.37 8.676 2.62a30.06 30.06 0 0 1 6.37 4.306 17.355 17.355 0 0 1 2.005 2.144c3.152 3.95 1.55 9.848-3.059 11.902-3.16 1.41-6.8.528-9.129-2.035-1.219-1.343-2.824-2.664-4.863-3.593v22.34c3.586 1.5 6.82 3.038 9.742 4.62 2.906 1.579 5.402 3.368 7.484 5.368 2.086 1.992 3.66 4.261 4.739 6.793 1.09 2.547 1.62 5.476 1.62 8.8 0 3.747-.64 7.075-1.925 9.985-1.297 2.914-3.016 5.406-5.184 7.484-2.168 2.082-4.675 3.75-7.547 4.996a37.165 37.165 0 0 1-8.925 2.617v5.426a5.556 5.556 0 0 1-5.555 5.555 5.556 5.556 0 0 1-5.555-5.555zm-8.226-65.27c0 1.997.644 3.724 1.926 5.177 1.296 1.46 3.394 2.937 6.3 4.433V56.855c-2.496.668-4.48 1.747-5.984 3.243-1.504 1.504-2.242 3.289-2.242 5.367zm26.953 40.188c0-2.164-.582-3.957-1.758-5.367-1.16-1.418-3.113-2.828-5.863-4.246v19.094c2.254-.746 4.082-1.934 5.5-3.559 1.406-1.62 2.12-3.597 2.12-5.922zm0 0" fill="#6770e6"/><path d="M362.625 498h111.113v14H362.625zm0 0" fill="#5fd4e3"/><path d="M251.516 498h111.109v14h-111.11zm0 0" fill="#b665c2"/><path d="M0 498h251.516v14H0zm0 0" fill="#58c3d1"/><path d="M106.066 498l-1.71 14h42.8l-1.71-14zm0 0" fill="#5058b5"/></svg>