<svg height="512pt" viewBox="0 0 512.304 512" width="512pt" xmlns="http://www.w3.org/2000/svg"><path d="M511.422 145.832c-.043-.879-.082-1.781-.16-2.7-.461-5.519-5.32-9.6-10.801-9.12-5.5.46-9.602 5.3-9.121 10.8.34 3.961.101 7.079-.48 9.52-.098.461-.22.879-.36 1.281-.96 3.02-2.5 4.88-4.02 6.04l-.039.038c0-.078.02-.18.02-.257 1.16-18.883-4.402-33.422-14.98-38.961-4.7-2.48-14.442-5.141-26.82 4.78-8.34 6.7-12.7 14.86-12.7 23.138 0 .562.02 1.101.059 1.66 0 .14.02.3.039.441.02.442.082.88.14 1.32.02.06.02.122.04.2.081.52.16 1.039.28 1.558.02.063.02.121.04.203.14.54.28 1.098.441 1.637a25.526 25.526 0 0 0 1.922 4.723c4.797 9.238 14.879 16.398 26.2 19.918-4.802 10.582-12.84 19.722-24.384 23.84-5.218 1.84-7.937 7.562-6.078 12.761a9.998 9.998 0 0 0 9.418 6.66 9.76 9.76 0 0 0 3.344-.582c20.238-7.18 32.316-23.718 38.34-40.617a40.352 40.352 0 0 0 6.078-1.222c14.219-4.106 22.676-15.868 23.527-32.078.004-.083.012-.16.016-.239.074-1.547.101-3.117.039-4.742zm-44.844 12.762a55.55 55.55 0 0 1-.277 4.039c-6.2-2.102-11.602-5.82-13.621-9.7-.7-1.382-2.36-4.581 4.5-10.081a.381.381 0 0 1 .101-.079c2.7-2.14 6.7-.84 7.758 2.457.98 2.98 1.742 7.383 1.54 13.364zm0 0" fill="#ff8354"/><path d="M486.441 161.691c0-.078.02-.18.02-.257.02.078.02.136.02.218l-.04.04zm.019-.257c-1.839-11.942-7.198-20.903-14.98-24.961-4.699-2.48-14.44-5.141-26.82 4.78-5.98 4.798-9.898 10.34-11.66 16.157-.16-.539-.3-1.097-.441-1.637-.02-.082-.02-.14-.04-.203-.12-.52-.199-1.039-.28-1.558-.02-.078-.02-.14-.04-.2-.058-.44-.12-.878-.14-1.32-.02-.14-.04-.3-.04-.441a23.488 23.488 0 0 1-.058-1.66c0-8.278 4.36-16.438 12.7-23.137 12.378-9.922 22.12-7.262 26.82-4.781 10.578 5.539 16.14 20.078 14.98 38.96zm24.978-15.77c.175 3.32.042 6.48-.348 9.469-1.332-4.52-5.723-7.61-10.574-7.11-4.215.426-8.157 2.891-9.496 6.473.539-2.45.726-5.57.324-9.527-.567-5.492 3.453-10.399 8.945-10.946 5.473-.566 10.395 3.434 10.945 8.946.094.918.149 1.816.204 2.695zm0 0" fill="#ffac8c"/><path d="M354.227 61.984a8 8 0 0 1-8-8V18.152a8 8 0 0 1 16 0v35.832a8 8 0 0 1-8 8zm-40.461-20a8 8 0 0 1-8-8V8.152a8 8 0 0 1 16 0v25.832a8 8 0 0 1-8 8zm0 0" fill="#69ebfc"/><path d="M130.133 214.371s-37.117-63.68-80.004-63.68c-42.89 0 4.36 71.121 11.277 112.887zM118.55 443.488h85.923v68.664H118.55zm215.216 0h85.925v68.664h-85.925zm0 0" fill="#e0734a"/><path d="M333.766 498.152h85.925v14h-85.925zm-215.216 0h85.923v14H118.55zm0 0" fill="#c46541"/><path d="M387.996 477.82H162.922c-68.652 0-124.305-55.656-124.305-124.304 0-115.977 94.016-209.993 209.992-209.993h84c99.243 0 179.696 80.45 179.696 179.692v30.3c0 68.65-55.657 124.305-124.309 124.305zm0 0" fill="#ff8354"/><path d="M332.61 143.523h-84c-115.977 0-209.993 94.016-209.993 209.993 0 2.09.055 4.168.156 6.234 4.086-112.379 96.461-202.227 209.836-202.227h84c99.243 0 179.696 80.45 179.696 179.692v-14c0-99.242-80.453-179.692-179.696-179.692zm0 0" fill="#ffac8c"/><path d="M81.238 310.672c-5.953 0-10.781-4.828-10.781-10.781v-21.696c0-5.957 4.828-10.78 10.781-10.78s10.782 4.823 10.782 10.78v21.696c0 5.953-4.829 10.78-10.782 10.78zm0 0" fill="#5861c7"/><path d="M372.176 183.523h-116.61c-5.523 0-10-4.48-10-10 0-5.523 4.477-10 10-10h116.61c5.523 0 10 4.477 10 10 0 5.52-4.477 10-10 10zm0 0" fill="#e0734a"/><path d="M138.55 354.98c0 38.262-31.015 69.278-69.273 69.278C31.016 424.258 0 393.242 0 354.98c0-38.257 31.016-69.273 69.277-69.273 38.258 0 69.274 31.016 69.274 69.273zm0 0" fill="#ffac8c"/><path d="M37.313 387.926a8.454 8.454 0 0 1-8.454-8.453v-48.985a8.454 8.454 0 0 1 16.906 0v48.985a8.454 8.454 0 0 1-8.453 8.453zm43.925 0a8.454 8.454 0 0 1-8.453-8.453v-48.985a8.454 8.454 0 0 1 16.906 0v48.985a8.454 8.454 0 0 1-8.453 8.453zm77.312 55.562h85.923v68.664H158.55zm0 0" fill="#ff8354"/><path d="M158.55 498.152h85.923v14H158.55zm0 0" fill="#e0734a"/><path d="M373.766 443.488h85.925v68.664h-85.925zm0 0" fill="#ff8354"/><path d="M373.766 498.152h85.925v14h-85.925zm0 0" fill="#e0734a"/><path d="M233.195 210.156s-40.297-69.133-86.855-69.133c-46.563 0 4.734 77.211 12.242 122.555zm0 0" fill="#ff8354"/><path d="M146.34 155.023c35.687 0 86.855 55.137 86.855 55.137s-40.297-69.137-86.855-69.137c-17.242 0-21.059 10.594-18.656 26.23 1.761-7.62 7.285-12.23 18.656-12.23zm0 0" fill="#ffac8c"/><path d="M169.328 310.672c-5.953 0-10.777-4.828-10.777-10.781v-21.696c0-5.957 4.824-10.78 10.777-10.78 5.957 0 10.781 4.823 10.781 10.78v21.696c0 5.953-4.824 10.78-10.78 10.78zm0 0" fill="#5861c7"/><path d="M372.21 118.813c0 32.277-26.167 58.445-58.444 58.445s-58.446-26.168-58.446-58.446 26.168-58.445 58.446-58.445 58.445 26.168 58.445 58.446zm0 0" fill="#69ebfc"/><path d="M313.766 68.828c30.855 0 56.105 23.914 58.273 54.215.102-1.398.172-2.805.172-4.23 0-32.278-26.168-58.442-58.445-58.442s-58.446 26.164-58.446 58.441c0 1.426.07 2.833.172 4.231 2.168-30.3 27.418-54.215 58.274-54.215zm0 0" fill="#a1f1fc"/><path d="M354.227 118.813c0 22.347-18.114 40.46-40.461 40.46s-40.461-18.113-40.461-40.46 18.113-40.461 40.46-40.461 40.462 18.113 40.462 40.46zm0 0" fill="#5fd4e3"/><path d="M310.805 145.605c-3.828-.558-7.23-2.039-10.215-4.44-1.742-1.4-3.192-3.153-4.352-5.263-1.402-2.558-.304-5.78 2.399-6.882 2.148-.88 4.668-.133 5.867 1.855.387.64.832 1.25 1.332 1.832 1.371 1.606 3.031 2.719 4.969 3.328v-14.543l-.684-.305a34.739 34.739 0 0 1-5.32-2.527 20.645 20.645 0 0 1-4.364-3.367 14.996 14.996 0 0 1-2.984-4.324c-.742-1.606-1.113-3.406-1.113-5.399 0-1.836.332-3.566.996-5.203a13.339 13.339 0 0 1 2.875-4.36c1.246-1.277 2.762-2.335 4.555-3.179 1.78-.844 3.793-1.387 6.039-1.644v-3.172a3.407 3.407 0 0 1 6.813 0v3.328c2.042.305 3.816.844 5.32 1.61a18.382 18.382 0 0 1 3.906 2.64c.43.379.84.832 1.23 1.316 1.934 2.418.953 6.04-1.879 7.301-1.937.863-4.168.32-5.597-1.25a9.203 9.203 0 0 0-2.98-2.203v13.7a65.959 65.959 0 0 1 5.972 2.835c1.785.969 3.312 2.066 4.594 3.29a12.587 12.587 0 0 1 2.906 4.167c.668 1.563.996 3.36.996 5.399 0 2.296-.395 4.34-1.184 6.125-.793 1.785-1.851 3.316-3.18 4.59a15.602 15.602 0 0 1-4.628 3.066 22.714 22.714 0 0 1-5.477 1.601v3.328a3.407 3.407 0 0 1-6.813 0zm-5.043-40.03c0 1.226.39 2.284 1.18 3.179.792.894 2.081 1.8 3.863 2.719v-11.176c-1.528.41-2.75 1.07-3.668 1.988-.926.918-1.375 2.016-1.375 3.29zm16.527 24.648c0-1.325-.355-2.426-1.078-3.29-.715-.87-1.91-1.734-3.594-2.605v11.711c1.38-.457 2.504-1.187 3.371-2.18.864-1 1.301-2.21 1.301-3.636zm0 0" fill="#a1f1fc"/><path d="M273.305 61.984a8 8 0 0 1-8-8V26.152a8 8 0 0 1 16 0v27.832a8 8 0 0 1-8 8zm0 0" fill="#69ebfc"/><path d="M273.305 18.152a8 8 0 0 0-8 8v10a8 8 0 0 1 16 0v-10a8 8 0 0 0-8-8zm40.461-18a8 8 0 0 0-8 8v10a8 8 0 0 1 16 0v-10a8 8 0 0 0-8-8zm40.461 10a8 8 0 0 0-8 8v10a8 8 0 0 1 16 0v-10a8 8 0 0 0-8-8zm0 0" fill="#a1f1fc"/></svg>