<svg height="512pt" viewBox="-47 0 511 512" width="512pt" xmlns="http://www.w3.org/2000/svg"><path d="M282.035 512H42.07C19.113 512 .5 493.387.5 470.43V41.57C.5 18.613 19.113 0 42.07 0h239.965c22.957 0 41.57 18.613 41.57 41.57v428.856c.004 22.96-18.609 41.574-41.57 41.574zm0 0" fill="#6770e6"/><path d="M282.035 0H42.07C19.113 0 .5 18.613.5 41.57v14C.5 32.613 19.113 14 42.07 14h239.965c22.957 0 41.57 18.613 41.57 41.57v-14C323.61 18.613 304.996 0 282.035 0zm0 0" fill="#8f95e6"/><path d="M42.07 512h239.965c22.957 0 41.57-18.613 41.57-41.57v-14c0 22.957-18.613 41.57-41.57 41.57H42.07C19.113 498 .5 479.387.5 456.43v14C.5 493.387 19.113 512 42.07 512zm0 0" fill="#5861c7"/><path d="M42.07 492c-11.89 0-21.57-9.68-21.57-21.57V67.57C20.5 55.68 30.18 46 42.07 46h239.965c11.895 0 21.57 9.68 21.57 21.57v402.86c0 11.89-9.675 21.57-21.57 21.57zm0 0" fill="#a1f1fc"/><path d="M203.328 31.828H90.781a9 9 0 0 1 0-18h112.547c4.969 0 9 4.031 9 9s-4.031 9-9 9zm39-9c0 4.969-4.031 9-9 9s-9-4.031-9-9 4.031-9 9-9 9 4.031 9 9zM339.805 165h58.25v58.25h20V145h-78.25zM106.05 223.25V165h58.25v-20H86.05v78.25zM164.3 373h-58.25v-58.25h-20V393h78.25zm233.755-58.25V373h-58.25v20h78.25v-78.25zm0 0" fill="#5861c7"/><path d="M359.805 355.41H144.3c-12.59 0-22.797-10.207-22.797-22.797V205.387c0-12.59 10.207-22.797 22.797-22.797h215.508c12.59 0 22.796 10.207 22.796 22.797v127.226c-.003 12.59-10.21 22.797-22.8 22.797zm0 0" fill="#ffefe4"/><path d="M359.805 182.59H144.3c-12.59 0-22.797 10.207-22.797 22.797v14c0-12.59 10.207-22.797 22.797-22.797h215.508c12.59 0 22.796 10.207 22.796 22.797v-14c-.003-12.59-10.21-22.797-22.8-22.797zm0 0" fill="#fff7f2"/><path d="M144.3 355.41h215.51c12.59 0 22.796-10.207 22.796-22.797v-14c0 12.59-10.207 22.797-22.796 22.797H144.3c-12.59 0-22.797-10.207-22.797-22.797v14c0 12.59 10.203 22.797 22.797 22.797zm0 0" fill="#edd4c2"/><path d="M143.977 213.516h9.726v116.816h-9.726zm21.902 0h17.004v93.273h-17.004zm26.731 0h16.937v93.273h-16.938zm38.902 0h9.722v93.273h-9.722zm-15.496 0h9.726v93.273h-9.726zm36.034 0h18.36v93.273h-18.36zm28.087 0h9.726v93.273h-9.726zm19.453 0h21.55v93.273h-21.55zm29.18 0h9.722v93.273h-9.722zm19.449 0h9.726v116.816h-9.726zM182.883 325.469c0 2.683-2.18 4.86-4.863 4.86h-7.278a4.86 4.86 0 0 1-4.86-4.86 4.86 4.86 0 0 1 4.86-4.864h7.278a4.866 4.866 0 0 1 4.863 4.864zm26.695 0c0 2.683-2.18 4.86-4.863 4.86h-7.274a4.86 4.86 0 1 1 0-9.724h7.274a4.866 4.866 0 0 1 4.863 4.864zm60.832 0a4.86 4.86 0 0 1-4.86 4.863h-44.67a4.86 4.86 0 1 1 0-9.723h44.672a4.857 4.857 0 0 1 4.86 4.86zm19.453 0a4.86 4.86 0 1 1-9.722 0 4.86 4.86 0 0 1 4.863-4.86 4.857 4.857 0 0 1 4.86 4.86zm48.629 0c0 2.687-2.18 4.863-4.863 4.863s-4.86-2.18-4.86-4.863 2.176-4.86 4.86-4.86a4.858 4.858 0 0 1 4.863 4.86zm-17.352 0a4.864 4.864 0 0 1-4.863 4.863h-11.824a4.861 4.861 0 1 1 0-9.723h11.824a4.86 4.86 0 0 1 4.864 4.86zm0 0" fill="#6770e6"/></svg>