<svg height="512pt" viewBox="-47 0 511 512" width="512pt" xmlns="http://www.w3.org/2000/svg"><path d="M282.035 512H42.07C19.113 512 .5 493.387.5 470.43V41.57C.5 18.613 19.113 0 42.07 0h239.965c22.957 0 41.57 18.613 41.57 41.57v428.856c.004 22.96-18.609 41.574-41.57 41.574zm0 0" fill="#6770e6"/><path d="M282.035 0H42.07C19.113 0 .5 18.613.5 41.57v14C.5 32.613 19.113 14 42.07 14h239.965c22.957 0 41.57 18.613 41.57 41.57v-14C323.61 18.613 304.996 0 282.035 0zm0 0" fill="#8f95e6"/><path d="M42.07 512h239.965c22.957 0 41.57-18.613 41.57-41.57v-14c0 22.957-18.613 41.57-41.57 41.57H42.07C19.113 498 .5 479.387.5 456.43v14C.5 493.387 19.113 512 42.07 512zm0 0" fill="#5861c7"/><path d="M42.07 492c-11.89 0-21.57-9.68-21.57-21.57V67.57C20.5 55.68 30.18 46 42.07 46h239.965c11.895 0 21.57 9.68 21.57 21.57v402.86c0 11.89-9.675 21.57-21.57 21.57zm0 0" fill="#a1f1fc"/><path d="M203.328 31.828H90.781a9 9 0 0 1 0-18h112.547c4.969 0 9 4.031 9 9s-4.031 9-9 9zm39-9c0 4.969-4.031 9-9 9s-9-4.031-9-9 4.031-9 9-9 9 4.031 9 9zm0 0" fill="#5861c7"/><path d="M120.133 143.059V394.94a5.977 5.977 0 0 0 5.976 5.977h251.883a5.977 5.977 0 0 0 5.98-5.977V143.06a5.98 5.98 0 0 0-5.98-5.98H126.113a5.98 5.98 0 0 0-5.98 5.98zm0 0" fill="#ffefe4"/><g fill="#5861c7"><path d="M131.324 147.477v75.492h75.492v-75.492zm59.602 59.597h-43.707v-43.703h43.707zm0 0"/><path d="M177.02 177.277v15.895h-15.895v-15.895zm120.27-29.8v75.492h75.491v-75.492zm59.597 59.597h-43.703v-43.703h43.703zm0 0"/><path d="M342.98 177.277v15.895h-15.89v-15.895zM131.324 315.031v75.492h75.492v-75.492zm59.602 59.598h-43.707v-43.703h43.707zm0 0"/><path d="M177.016 344.832v15.89H161.12v-15.89zm120.274-29.801v75.492h75.491v-75.492zm59.597 59.598h-43.703v-43.703h43.703zm0 0"/><path d="M342.98 344.828v15.895h-15.894v-15.895zm-211.656-51.523h24.145v24.304h-24.145zM276.2 366.219h24.144v24.304h-24.145zm0-24.305h24.144v-48.61H252.05v24.305h24.148zm-72.438 24.305v24.304h48.289V366.22zm0 0"/><path d="M227.906 317.61h24.145v24.304h-24.145zM324.488 269v24.305h24.149v24.304h24.144V269zm-117.672-24.305v-24.304h-27.199v24.304h-48.293V269h72.438v24.305h-24.145v24.304h48.29V269h-21.09zm141.821-24.305h24.144v24.305h-24.144zm-96.587-72.913h-24.144v72.914h24.145v-48.61h48.293v-24.304zm0 0"/><path d="M227.906 244.695V269h72.438v-72.914h-24.145v24.305h-24.148v24.304zM339.805 123h58.25v58.25h20V103h-78.25zM106.05 181.25V123h58.25v-20H86.05v78.25zM164.3 415h-58.25v-58.25h-20V435h78.25zm233.755-58.25V415h-58.25v20h78.25v-78.25zm0 0"/></g></svg>