<svg height="512pt" viewBox="0 0 512.002 512" width="512pt" xmlns="http://www.w3.org/2000/svg"><path d="M499.387 499.387c-16.82 16.816-44.086 16.816-60.903 0L260.297 321.199l60.902-60.902 178.188 178.187c16.816 16.82 16.816 44.086 0 60.903zm0 0" fill="#ff8354"/><path d="M379.145 189.574c0 104.696-84.875 189.57-189.575 189.57C84.875 379.145 0 294.27 0 189.575 0 84.875 84.875 0 189.57 0c104.7 0 189.575 84.875 189.575 189.574zm0 0" fill="#ff8354"/><path d="M55.523 85.523c74.032-74.03 194.067-74.03 268.098 0 33.195 33.2 51.457 75.649 54.883 119.051 4.21-53.387-14.047-108.215-54.883-149.05-74.031-74.032-194.066-74.032-268.098 0C14.691 96.358-3.57 151.186.641 204.573c3.425-43.402 21.687-85.851 54.882-119.05zm0 0" fill="#ffac8c"/><path d="M322.387 192.809c0 72.246-58.567 130.812-130.817 130.812-72.246 0-130.812-58.566-130.812-130.812 0-72.25 58.566-130.817 130.812-130.817 72.25 0 130.817 58.567 130.817 130.817zm0 0" fill="#a1f1fc"/><path d="M328.29 389.191l110.194 110.196c16.817 16.816 44.082 16.816 60.903 0 16.816-16.817 16.816-44.082 0-60.903L389.19 328.29zm0 0" fill="#6770e6"/><path d="M508.059 451.035c-2.079 4.54-4.934 8.813-8.672 12.55-8.383 8.384-19.364 12.583-30.352 12.606v.008h-53.742l23.187 23.192c16.82 16.816 44.086 16.816 60.903 0 13.082-13.082 15.941-32.47 8.676-48.356zm0 0" fill="#5861c7"/><path d="M454.152 250.656H171.867c-31.945 0-57.844-25.898-57.844-57.847 0-31.95 25.899-57.844 57.844-57.844h282.285c31.95-.004 57.848 25.894 57.848 57.844 0 31.945-25.898 57.847-57.848 57.847zm0 0" fill="#ffefe4"/><path d="M454.152 134.96h-282.28c-31.95 0-57.849 25.9-57.849 57.849 0 1.683.09 3.347.23 5 2.536-29.606 27.356-52.848 57.618-52.848h282.281c30.262 0 55.082 23.242 57.621 52.848a58.74 58.74 0 0 0 .23-5c-.003-31.95-25.901-57.848-57.85-57.848zm0 0" fill="#fff7f2"/><path d="M454.152 250.656H396.31V134.961h57.843c31.95 0 57.848 25.898 57.848 57.848 0 31.945-25.898 57.847-57.848 57.847zm0 0" fill="#d476e2"/><path d="M503.625 162.813a57.97 57.97 0 0 0-8.57-10.906 55.484 55.484 0 0 0-2.985-2.762 58.131 58.131 0 0 0-10.347-7.204 59.87 59.87 0 0 0-2.493-1.277 57.482 57.482 0 0 0-12.894-4.406 58.106 58.106 0 0 0-12.184-1.297h-57.847v10h57.847c30.262 0 55.078 23.242 57.618 52.848 0-.008 0-.012.003-.02.067-.8.122-1.61.16-2.418.04-.851.063-1.703.063-2.562.004-10.985-3.055-21.25-8.371-29.996zm0 0" fill="#ea82fa"/><path d="M350.766 221.059H168.609c-3.57 0-6.46-2.895-6.46-6.465s2.894-6.461 6.46-6.461h182.157a6.46 6.46 0 0 1 6.46 6.46 6.462 6.462 0 0 1-6.46 6.466zm0 0" fill="#edd4c2"/><path d="M480.566 216.152l-11.308-11.308a27.804 27.804 0 0 0 5-15.922c0-15.434-12.555-27.992-27.992-27.992s-27.993 12.558-27.993 27.992 12.555 27.992 27.993 27.992a27.804 27.804 0 0 0 15.921-5l11.31 11.313a5.002 5.002 0 0 0 3.538 1.46 5 5 0 0 0 3.535-1.46 5 5 0 0 0-.004-7.075zm-52.293-27.234c0-9.918 8.07-17.992 17.993-17.992s17.992 8.074 17.992 17.992c0 9.922-8.07 17.992-17.992 17.992s-17.993-8.07-17.993-17.992zm0 0" fill="#ffefe4"/></svg>