<svg height="512pt" viewBox="0 0 512 512" width="512pt" xmlns="http://www.w3.org/2000/svg"><path d="M462.48 512H49.523C22.172 512 0 489.828 0 462.48V224.746c0-27.348 22.172-49.52 49.52-49.52h412.96c27.348 0 49.52 22.172 49.52 49.52V462.48c0 27.348-22.172 49.52-49.52 49.52zm0 0" fill="#6770e6"/><path d="M462.48 175.227H49.523C22.172 175.227 0 197.398 0 224.747v18.886c0-27.352 22.172-49.52 49.523-49.52H462.48c27.348 0 49.52 22.168 49.52 49.52v-18.887c0-27.348-22.172-49.52-49.52-49.52zm0 0" fill="#8f95e6"/><path d="M49.52 512h412.957C489.828 512 512 489.828 512 462.48v-18.882c0 27.347-22.172 49.52-49.523 49.52H49.52c-27.348 0-49.52-22.173-49.52-49.52v18.882C0 489.828 22.172 512 49.52 512zm0 0" fill="#5861c7"/><path d="M89.633 232.926c-1.399 0-2.578 1.18-2.578 2.578v50.059c0 1.398 1.18 2.582 2.578 2.582h24.207c1.398 0 2.578-1.184 2.578-2.583v-50.058c0-1.399-1.18-2.578-2.578-2.578zm-32.574 13.726h20.226v27.766H57.06zm69.129 0h20.226v27.766h-20.226zm0 0" fill="#69ebfc"/><path d="M126.188 284.188v1.378c0 6.809-5.54 12.348-12.348 12.348H89.633c-6.809 0-12.348-5.539-12.348-12.348v-1.379H57.06v7.508c0 10.813 8.761 19.575 19.574 19.575h50.207c10.808 0 19.574-8.762 19.574-19.575v-7.508zm.652-74.388H76.633c-10.813 0-19.574 8.762-19.574 19.575v7.508h20.226v-1.38c0-6.808 5.535-12.35 12.348-12.35h24.203c6.809 0 12.351 5.542 12.351 12.35v1.38h20.223v-7.508c0-10.809-8.762-19.574-19.57-19.574zm0 0" fill="#69ebfc"/><path d="M130.758 369.563H72.715c-8.61 0-15.656-7.047-15.656-15.66 0-8.61 7.046-15.657 15.656-15.657h58.043c8.61 0 15.656 7.047 15.656 15.656-.004 8.614-7.047 15.66-15.656 15.66zm52.863 83.077H72.715c-8.61 0-15.656-7.046-15.656-15.66 0-8.609 7.046-15.656 15.656-15.656H183.62c8.61 0 15.656 7.047 15.656 15.656 0 8.614-7.047 15.66-15.656 15.66zm49.977-83.077h-58.04c-8.609 0-15.656-7.047-15.656-15.66 0-8.61 7.047-15.657 15.657-15.657h58.043c8.609 0 15.656 7.047 15.656 15.656 0 8.614-7.047 15.66-15.66 15.66zm102.843 0h-58.039c-8.613 0-15.66-7.047-15.66-15.66 0-8.61 7.047-15.657 15.66-15.657h58.04c8.613 0 15.66 7.047 15.66 15.656-.004 8.614-7.051 15.66-15.66 15.66zm102.844 0h-58.043c-8.61 0-15.656-7.047-15.656-15.66 0-8.61 7.047-15.657 15.656-15.657h58.043c8.61 0 15.656 7.047 15.656 15.656 0 8.614-7.046 15.66-15.656 15.66zm0 0" fill="#8f95e6"/><path d="M405.977 436.984c0 22.336-18.11 40.446-40.446 40.446s-40.441-18.11-40.441-40.446 18.105-40.445 40.441-40.445 40.446 18.11 40.446 40.445zm0 0" fill="#ff8354"/><path d="M454.941 436.984c0 22.336-18.105 40.446-40.445 40.446-22.336 0-40.441-18.11-40.441-40.446s18.105-40.445 40.441-40.445c22.34 0 40.445 18.11 40.445 40.445zm0 0" fill="#69ebfc"/><path d="M374.055 436.984c0 13.121 6.273 24.746 15.96 32.137 9.684-7.39 15.958-19.016 15.958-32.137s-6.274-24.75-15.957-32.136c-9.684 7.386-15.961 19.015-15.961 32.136zm0 0" fill="#d476e2"/><path d="M464.555 210.984l-44.977 31.145-44.976-31.145a110.164 110.164 0 0 1-47.446-90.57V40l92.422-40L512 40v80.414a110.17 110.17 0 0 1-47.445 90.57zm0 0" fill="#69ebfc"/><path d="M419.578 0l-92.422 40v14l92.422-40L512 54V40zm0 0" fill="#a1f1fc"/><path d="M385.984 194.543a90.2 90.2 0 0 1-38.828-74.129V53.137l72.422-31.344L492 53.137v67.277a90.175 90.175 0 0 1-38.836 74.125l-33.586 23.262zm0 0" fill="#5fd4e3"/><path d="M407.445 164.926a15.995 15.995 0 0 1-9.937-3.457l-23.164-18.317c-6.95-5.496-8.13-15.582-2.637-22.527 5.496-6.95 15.582-8.129 22.527-2.637l10.77 8.516 37.426-45.93c5.593-6.867 15.695-7.898 22.562-2.3 6.867 5.593 7.899 15.695 2.305 22.562l-47.41 58.184c-3.164 3.886-7.782 5.906-12.442 5.906zm0 0" fill="#ffefe4"/></svg>