<svg height="512pt" viewBox="0 0 512.001 512" width="512pt" xmlns="http://www.w3.org/2000/svg"><path d="M375.984 512H136.02c-22.961 0-41.575-18.61-41.575-41.57V41.574C94.445 18.614 113.06 0 136.02 0h239.96c22.961 0 41.57 18.613 41.57 41.574v428.852C417.556 493.39 398.942 512 375.985 512zm0 0" fill="#6770e6"/><path d="M375.984 0H136.02c-22.961 0-41.575 18.613-41.575 41.574v14C94.445 32.614 113.06 14 136.02 14h239.96c22.961 0 41.57 18.613 41.57 41.574v-14C417.556 18.614 398.942 0 375.985 0zm0 0" fill="#8f95e6"/><path d="M136.02 512h239.96c22.961 0 41.57-18.61 41.57-41.57v-14c0 22.96-18.609 41.57-41.57 41.57H136.02c-22.961 0-41.575-18.61-41.575-41.57v14c0 22.96 18.614 41.57 41.575 41.57zm0 0" fill="#5861c7"/><path d="M136.02 492c-11.895 0-21.575-9.676-21.575-21.57V67.574c0-11.894 9.68-21.574 21.575-21.574h239.96c11.895 0 21.57 9.68 21.57 21.574V470.43c0 11.894-9.675 21.57-21.57 21.57zm0 0" fill="#a1f1fc"/><path d="M297.273 31.828H184.727c-4.97 0-9-4.031-9-9s4.03-9 9-9h112.546c4.973 0 9 4.031 9 9s-4.027 9-9 9zm39-9c0 4.973-4.027 9-9 9a9 9 0 1 1 0-18 9 9 0 0 1 9 9zm0 0" fill="#5861c7"/><path d="M365.516 257.824l-48.473-48.304a6.476 6.476 0 0 0-4.57-1.891h-23.547c0 20.121-16.309 36.43-36.426 36.43-20.121 0-36.43-16.309-36.43-36.43h-23.539a6.478 6.478 0 0 0-4.582 1.902l-48.207 48.293a2.655 2.655 0 0 0 0 3.758l25.285 25.285a2.655 2.655 0 0 0 3.758 0l21.063-21.062V366.68a2.654 2.654 0 0 0 2.656 2.656h119.988a2.657 2.657 0 0 0 2.656-2.656V265.54l21.325 21.327a2.66 2.66 0 0 0 3.761 0l25.282-25.285a2.662 2.662 0 0 0 0-3.758zm0 0" fill="#ff8354"/><path d="M288.926 207.629c0 20.121-16.309 36.43-36.43 36.43s-36.426-16.309-36.426-36.43h7.832c0 15.797 12.801 28.598 28.594 28.598 15.793 0 28.598-12.805 28.598-28.598zm0 0" fill="#6770e6"/><path d="M281.094 207.629c0 15.797-12.805 28.598-28.598 28.598s-28.594-12.805-28.594-28.598zm0 0" fill="#e0734a"/><path d="M315.148 366.676v-5.172h-125.3v5.172a2.657 2.657 0 0 0 2.656 2.66h119.988a2.66 2.66 0 0 0 2.656-2.66zm50.379-108.84l-3.66-3.66-29.027 29.027 3.656 3.66a2.655 2.655 0 0 0 3.758 0l25.273-25.273a2.65 2.65 0 0 0 0-3.754zm-225.785 0l3.66-3.66 29.028 29.027-3.66 3.66a2.655 2.655 0 0 1-3.758 0l-25.27-25.27a2.655 2.655 0 0 1 0-3.757zm0 0" fill="#6770e6"/><path d="M128.844 46h45.597l-12.03 58.633h-60.407L117.48 54.39A11.888 11.888 0 0 1 128.844 46zm0 0" fill="#ff8354"/><path d="M174.441 46h54.38l-6.016 58.633h-60.39zm0 0" fill="#fff7f2"/><path d="M228.82 46h54.375l6.016 58.633h-66.406zm0 0" fill="#ff8354"/><path d="M283.195 46h54.38l12.03 58.633h-60.394zm0 0" fill="#fff7f2"/><path d="M337.574 46h45.594c5.219 0 9.832 3.406 11.363 8.398l15.45 50.235H349.6zm0 0" fill="#ff8354"/><path d="M132.223 142.95h-.032c-16.671 0-30.187-13.516-30.187-30.188v-8.13h60.406v8.13c.004 16.672-13.512 30.187-30.187 30.187zm0 0" fill="#e0734a"/><path d="M192.633 142.95h-.031c-16.672 0-30.188-13.516-30.188-30.188v-8.13h60.406v8.13c0 16.672-13.515 30.187-30.187 30.187zm126.801 0h-.032c-16.675 0-30.191-13.516-30.191-30.188v-8.13h60.41v8.13c0 16.672-13.516 30.187-30.187 30.187zm0 0" fill="#ffefe4"/><path d="M379.809 142.95c-16.672 0-30.188-13.516-30.188-30.188v-8.13H410v8.13c-.004 16.672-13.516 30.187-30.191 30.187zm-120.786 0h-6.015c-16.672 0-30.188-13.516-30.188-30.188v-8.13h66.39v8.13c0 16.672-13.515 30.187-30.187 30.187zm0 0" fill="#e0734a"/><path d="M455.68 346.418c-7.5 0-13.582 6.082-13.582 13.582v-12.637c0-7.5-6.082-13.582-13.582-13.582s-13.582 6.082-13.582 13.582v-9.152c0-7.504-6.082-13.582-13.582-13.582s-13.582 6.082-13.582 13.582V254.34c0-7.5-6.083-13.582-13.583-13.582s-13.582 6.082-13.582 13.582v105.074c-1.011-8.176-7.992-14.64-16.593-14.64a3.173 3.173 0 0 0-2.957 2.023l-12.336 31.879a41.276 41.276 0 0 0-2.778 14.887v35.171a41.25 41.25 0 0 0 11.036 28.086l29.613 31.852V512h84.656v-36.148h.61l12.933-25.805a42.167 42.167 0 0 0 4.477-18.914V360c-.004-7.5-6.086-13.582-13.586-13.582zm0 0" fill="#ffefe4"/><path d="M451.242 511.441v-15.57h-84.937l.28.3v15.27zm0 0" fill="#ffe4d1"/><path d="M1.695 291.969l38.082 29.91c2.91 2.289 7.176.215 7.176-3.484v-17.961h17.832c6.602 0 11.953-5.352 11.953-11.954 0-3.3-1.336-6.289-3.5-8.453a11.934 11.934 0 0 0-8.453-3.504H46.953v-17.957c0-3.699-4.266-5.773-7.176-3.488L1.695 284.996c-2.261 1.774-2.261 5.2 0 6.973zm508.61 0l-38.082 29.91c-2.91 2.289-7.176.215-7.176-3.484v-17.961h-17.832c-6.602 0-11.953-5.352-11.953-11.954 0-3.3 1.34-6.289 3.504-8.453a11.932 11.932 0 0 1 8.449-3.504h17.832v-17.957c0-3.699 4.266-5.773 7.176-3.488l38.082 29.914c2.261 1.778 2.261 5.203 0 6.977zm0 0" fill="#6770e6"/><path d="M1.695 291.969l1.926 1.511 36.156-28.398c2.91-2.289 7.176-.215 7.176 3.488v17.957h17.832c3.3 0 6.29 1.336 8.453 3.5a12.01 12.01 0 0 1 2.39 3.453 11.915 11.915 0 0 0-2.39-13.453 11.915 11.915 0 0 0-8.453-3.5H46.953V258.57c0-3.703-4.266-5.773-7.176-3.488L1.695 284.996c-2.257 1.774-2.257 5.2 0 6.973zm437.071-1.938a11.934 11.934 0 0 1 8.453-3.504h17.832V268.57c0-3.699 4.265-5.773 7.172-3.488l36.156 28.402 1.926-1.511c2.261-1.778 2.261-5.203 0-6.977l-38.082-29.91c-2.907-2.29-7.172-.215-7.172 3.488v17.957h-17.832c-3.301 0-6.29 1.336-8.453 3.5a11.92 11.92 0 0 0-2.395 13.453 11.893 11.893 0 0 1 2.395-3.453zm0 0" fill="#8f95e6"/></svg>