<svg height="512pt" viewBox="0 0 512 512" width="512pt" xmlns="http://www.w3.org/2000/svg"><path d="M497.77 395.148H14.23c-7.859 0-14.23-6.37-14.23-14.234V14.23C0 6.371 6.371 0 14.23 0h483.536c7.859 0 14.23 6.371 14.23 14.23v366.684c.004 7.863-6.367 14.234-14.226 14.234zm0 0" fill="#6770e6"/><path d="M497.77 0H14.23C6.371 0 0 6.371 0 14.23v14C0 20.371 6.371 14 14.23 14h483.54c7.859 0 14.23 6.371 14.23 14.23v-14C512 6.371 505.629 0 497.77 0zm0 0" fill="#8f95e6"/><path d="M30 350.914V49.191C30 38.594 38.594 30 49.191 30H462.81C473.406 30 482 38.594 482 49.191v301.723c0 7.863-6.371 14.234-14.23 14.234H44.23c-7.859 0-14.23-6.37-14.23-14.234zm0 0" fill="#ffefe4"/><path d="M89.305 270.309v94.84h111.113V214.616zm0 0" fill="#6770e6"/><path d="M200.418 214.617v150.531h111.113V158.926zm0 0" fill="#d476e2"/><path d="M311.531 365.148h111.11V103.23l-111.11 55.696zm0 0" fill="#69ebfc"/><path d="M457.14 98.84c.051-.27.106-.54.145-.809.05-.332.082-.672.113-1.008.028-.289.059-.578.07-.867.012-.316.009-.636.009-.957 0-.304.003-.605-.012-.906-.016-.309-.055-.617-.086-.93-.031-.308-.059-.613-.102-.914-.047-.304-.113-.605-.172-.91-.062-.305-.12-.613-.199-.914-.074-.29-.164-.578-.254-.863a16.21 16.21 0 0 0-.3-.934c-.098-.27-.207-.531-.317-.797-.137-.32-.27-.64-.418-.953-.05-.101-.086-.207-.137-.308-.082-.16-.175-.305-.261-.461a18.26 18.26 0 0 0-1-1.66 16.002 16.002 0 0 0-.512-.723c-.203-.274-.41-.535-.621-.793a21.086 21.086 0 0 0-1.25-1.363 16.78 16.78 0 0 0-.617-.579 16.124 16.124 0 0 0-1.45-1.184c-.25-.187-.503-.366-.761-.538a24.006 24.006 0 0 0-.79-.492 20.132 20.132 0 0 0-1.625-.867 25.817 25.817 0 0 0-.894-.391c-.265-.11-.531-.211-.804-.313a22.66 22.66 0 0 0-1.032-.332c-.156-.047-.3-.105-.457-.148l-72.86-19.524c-10.144-2.718-20.566 3.301-23.28 13.446-2.72 10.14 3.297 20.566 13.441 23.285l24.543 6.574L64.945 261.254c-9.386 4.707-13.183 16.129-8.476 25.516 3.332 6.652 10.043 10.496 17.011 10.496 2.864 0 5.77-.649 8.504-2.02l327.184-163.992-8.566 31.973c-2.72 10.14 3.296 20.566 13.441 23.285 1.648.441 3.305.652 4.934.652 8.394 0 16.074-5.601 18.351-14.098l19.524-72.855c.027-.106.039-.207.062-.313.09-.347.16-.703.227-1.058zm0 0" fill="#ff8354"/><path d="M196.277 395.148h121.895v76.872H196.277zm0 0" fill="#5861c7"/><path d="M375.809 512H139.207c-11.039 0-19.988-8.95-19.988-19.988 0-11.043 8.949-19.992 19.988-19.992h236.602c11.043 0 19.992 8.949 19.992 19.992 0 11.039-8.95 19.988-19.992 19.988zm0 0" fill="#6770e6"/><path d="M375.809 498H139.207c-8.574 0-15.863-5.406-18.703-12.988a19.814 19.814 0 0 0-1.29 7c0 11.039 8.95 19.988 19.993 19.988h236.602c11.039 0 19.988-8.95 19.988-19.988a19.9 19.9 0 0 0-1.285-7c-2.836 7.582-10.13 12.988-18.703 12.988zm0 0" fill="#5861c7"/><path d="M504.93 504.953c-9.395 9.395-24.63 9.395-34.024 0l-99.531-99.531 34.02-34.024 99.535 99.54c9.39 9.39 9.39 24.62 0 34.015zm0 0" fill="#ff8354"/><path d="M437.762 331.895c0 58.484-47.41 105.894-105.895 105.894-58.484 0-105.894-47.41-105.894-105.894S273.383 226 331.867 226c58.485 0 105.895 47.41 105.895 105.895zm0 0" fill="#ff8354"/><path d="M406.746 331.895c0 41.351-33.523 74.878-74.879 74.878-41.351 0-74.879-33.527-74.879-74.878 0-41.356 33.528-74.88 74.88-74.88 41.355 0 74.878 33.524 74.878 74.88zm0 0" fill="#a1f1fc"/><path d="M409.355 443.398l61.551 61.555c9.395 9.395 24.63 9.395 34.024 0 9.39-9.394 9.39-24.625 0-34.02l-61.555-61.554zm0 0" fill="#6770e6"/><path d="M509.773 477.945a23.973 23.973 0 0 1-4.843 7.008c-4.684 4.684-10.817 7.027-16.957 7.043V492h-30.02l12.953 12.953c9.395 9.395 24.63 9.395 34.024 0 7.304-7.305 8.902-18.133 4.843-27.008zm0 0" fill="#5861c7"/><path d="M116.406 141.766c-3.367 0-6.586-.485-9.668-1.43a27.974 27.974 0 0 1-8.453-4.285c-2.566-1.903-4.793-4.227-6.695-6.98a32.938 32.938 0 0 1-1.184-1.848c-2.281-3.887-.379-8.918 3.817-10.567 3.382-1.332 7.308-.074 9.113 3.082a19.622 19.622 0 0 0 3.082 4.07c2.555 2.59 5.926 3.895 10.102 3.895 1.535 0 3.02-.207 4.449-.605 1.43-.403 2.707-.985 3.844-1.754s2.027-1.742 2.69-2.914c.661-1.168.981-2.532.981-4.067 0-1.465-.25-2.777-.765-3.949-.512-1.172-1.367-2.27-2.574-3.297-1.207-1.02-2.79-2.012-4.73-2.969-1.938-.949-4.333-1.93-7.192-2.957l-4.828-1.761c-2.125-.73-4.27-1.715-6.426-2.97a28.025 28.025 0 0 1-5.871-4.495c-1.758-1.758-3.207-3.824-4.344-6.211-1.137-2.379-1.7-5.067-1.7-8.07 0-3.075.598-5.946 1.81-8.625a21.199 21.199 0 0 1 5.163-7.024c2.235-2.008 4.907-3.582 8.016-4.719 3.11-1.132 6.57-1.707 10.379-1.707 3.957 0 7.371.536 10.27 1.59 2.894 1.067 5.343 2.422 7.355 4.067.738.601 1.793 1.59 2.89 2.84 3.211 3.656 1.868 9.406-2.62 11.289-2.891 1.214-6.196.37-8.231-2.016a16.27 16.27 0 0 0-1.477-1.512c-1.941-1.762-4.601-2.637-7.964-2.637-3.227 0-5.899.75-8.016 2.25-2.129 1.504-3.192 3.461-3.192 5.875 0 2.34 1.028 4.344 3.075 5.989 2.054 1.64 5.308 3.234 9.777 4.77l4.941 1.656c3.149 1.097 6.028 2.359 8.625 3.789 2.594 1.421 4.829 3.129 6.696 5.101a20.697 20.697 0 0 1 4.281 6.758c.992 2.52 1.484 5.434 1.484 8.73 0 4.106-.824 7.633-2.464 10.59-1.645 2.969-3.754 5.41-6.32 7.313-2.567 1.902-5.454 3.324-8.669 4.281-3.234.95-6.383 1.434-9.457 1.434zm52.02-66.336v18.222h24.484a7.032 7.032 0 0 1 0 14.063h-24.484v18.23h27.996a7.032 7.032 0 0 1 0 14.063H160.3c-3.703 0-6.703-3-6.703-6.703V68.07a6.7 6.7 0 0 1 6.703-6.699h36.12a7.031 7.031 0 0 1 7.032 7.027 7.032 7.032 0 0 1-7.031 7.032zm81.238 66.336c-5.855 0-11.289-1.067-16.3-3.192-5.024-2.117-9.36-5.031-13.024-8.73-3.656-3.696-6.535-8.055-8.617-13.067-2.09-5.015-3.125-10.379-3.125-16.09s1.035-11.074 3.125-16.085c2.082-5.016 4.96-9.38 8.617-13.079 3.664-3.691 8-6.601 13.023-8.722 5.012-2.125 10.446-3.188 16.301-3.188 5.863 0 11.297 1.063 16.309 3.188 5.015 2.12 9.359 5.035 13.011 8.722 3.664 3.7 6.536 8.063 8.625 13.079 2.082 5.011 3.13 10.375 3.13 16.085s-1.048 11.075-3.13 16.09c-2.09 5.012-4.96 9.375-8.625 13.067-3.656 3.699-8 6.613-13.011 8.73-5.012 2.125-10.446 3.192-16.309 3.192zm0-14.063c3.664 0 7.09-.66 10.27-1.976 3.191-1.32 5.968-3.153 8.347-5.497 2.38-2.34 4.246-5.171 5.606-8.507 1.347-3.332 2.027-7.004 2.027-11.035 0-4.036-.68-7.708-2.027-11.04-1.36-3.335-3.227-6.168-5.606-8.507-2.379-2.344-5.156-4.176-8.347-5.496-3.18-1.317-6.606-1.977-10.27-1.977-3.656 0-7.078.66-10.27 1.977-3.183 1.32-5.96 3.152-8.34 5.496-2.382 2.34-4.253 5.171-5.6 8.507-1.36 3.332-2.028 7.004-2.028 11.04 0 4.03.668 7.703 2.027 11.035 1.348 3.336 3.219 6.168 5.602 8.507 2.379 2.344 5.156 4.176 8.34 5.497 3.19 1.316 6.617 1.976 10.27 1.976zm0 0" fill="#d476e2"/></svg>