<svg height="512pt" viewBox="0 0 512 512" width="512pt" xmlns="http://www.w3.org/2000/svg"><path d="M347.457 461.3H41.473c-12.188 0-22.067-9.878-22.067-22.066V199.328h328.051zm0 0" fill="#5861c7"/><path d="M347.457 461.3h142.48c12.184 0 22.063-9.878 22.063-22.066v-63.601a22.06 22.06 0 0 0-1.906-8.977L460.105 254.43a22.072 22.072 0 0 0-20.156-13.086h-92.488V461.3zm0 0" fill="#d476e2"/><path d="M463.387 261.805h-82.422c-6.211 0-11.25 5.035-11.25 11.246v80.09c0 6.214 5.039 11.25 11.25 11.25h128.113zm35.801 165.047H512V387.82h-12.813c-10.78 0-19.515 8.739-19.515 19.516 0 10.777 8.734 19.516 19.515 19.516zm-466.965 0H19.41V387.82h12.813c10.78 0 19.515 8.739 19.515 19.516 0 10.777-8.738 19.516-19.515 19.516zm0 0" fill="#69ebfc"/><path d="M167.11 461.3c0 28-22.7 50.7-50.704 50.7-28 0-50.699-22.7-50.699-50.7s22.7-50.698 50.7-50.698c28.003 0 50.702 22.699 50.702 50.699zm0 0" fill="#339"/><path d="M142.543 461.3c0 14.434-11.703 26.134-26.137 26.134s-26.133-11.7-26.133-26.133c0-14.434 11.7-26.137 26.133-26.137s26.137 11.703 26.137 26.137zm0 0" fill="#6770e6"/><path d="M471.117 461.3c0 28-22.699 50.7-50.703 50.7-28 0-50.7-22.7-50.7-50.7s22.7-50.698 50.7-50.698c28.004 0 50.703 22.699 50.703 50.699zm0 0" fill="#339"/><path d="M116.406 500c-25.969 0-47.363-19.531-50.332-44.7a51.548 51.548 0 0 0-.367 6c0 28 22.7 50.7 50.7 50.7s50.702-22.7 50.702-50.7c0-2.03-.136-4.03-.367-6-2.969 25.169-24.363 44.7-50.336 44.7zm304.008 0c-25.969 0-47.363-19.531-50.332-44.7a51.548 51.548 0 0 0-.367 6c0 28 22.7 50.7 50.7 50.7s50.702-22.7 50.702-50.7c0-2.03-.137-4.03-.367-6-2.969 25.169-24.363 44.7-50.336 44.7zm0 0" fill="#29297a"/><path d="M446.55 461.3c0 14.434-11.702 26.134-26.136 26.134-14.43 0-26.133-11.7-26.133-26.133 0-14.434 11.703-26.137 26.133-26.137 14.434 0 26.137 11.703 26.137 26.137zm-95.323-326.34H15.64C7.004 134.96 0 141.966 0 150.606v33.083c0 8.636 7.004 15.64 15.64 15.64h335.587c8.636 0 15.64-7.004 15.64-15.64v-33.083c0-8.64-7.004-15.644-15.64-15.644zm0 0" fill="#6770e6"/><path d="M351.227 134.96H15.64C7.004 134.96 0 141.966 0 150.606v15.833c0-8.641 7.004-15.645 15.64-15.645h335.587c8.636 0 15.64 7.004 15.64 15.644v-15.832c0-8.64-7.004-15.644-15.64-15.644zm0 0" fill="#8f95e6"/><path d="M242.594 266.422H124.277c-8.5 0-15.394-6.895-15.394-15.395s6.894-15.39 15.394-15.39h118.317c8.5 0 15.39 6.89 15.39 15.39 0 8.504-6.89 15.395-15.39 15.395zm0 0" fill="#339"/><path d="M187.16 118.809l47.36-60.293c3.617-4.606.335-11.36-5.524-11.36h-28.434v-28.23C200.563 8.473 192.09 0 181.637 0a18.871 18.871 0 0 0-13.38 5.543 18.868 18.868 0 0 0-5.546 13.383v28.23h-28.434c-5.855 0-9.14 6.75-5.52 11.36l47.36 60.293c2.813 3.578 8.235 3.578 11.043 0zm0 0" fill="#d476e2"/><path d="M200.563 61.156h28.433c1.082 0 2.07.235 2.95.637l2.574-3.277c3.617-4.606.335-11.36-5.524-11.36h-28.434zm-69.231.637a7.034 7.034 0 0 1 2.95-.637h28.433v-28.23c0-5.227 2.117-9.957 5.543-13.383A18.878 18.878 0 0 1 181.637 14c10.453 0 18.925 8.473 18.925 18.926v-14C200.563 8.473 192.09 0 181.637 0a18.871 18.871 0 0 0-13.38 5.543 18.868 18.868 0 0 0-5.546 13.383v28.23h-28.434c-5.855 0-9.14 6.75-5.52 11.36zm0 0" fill="#ea82fa"/></svg>