<svg height="512pt" viewBox="0 0 512.003 512" width="512pt" xmlns="http://www.w3.org/2000/svg"><path d="M301.367 512.004H29.801c-17.41 0-31.11-14.86-29.7-32.211l27.047-332.996a8.468 8.468 0 0 1 8.438-7.781h259.992a8.465 8.465 0 0 1 8.438 7.78l27.046 332.997c1.41 17.352-12.289 32.21-29.695 32.21zm0 0" fill="#6770e6"/><path d="M33.277 153.016h264.614a8.663 8.663 0 0 1 6.91 3.41l-.781-9.63a8.472 8.472 0 0 0-8.442-7.78H35.586a8.465 8.465 0 0 0-8.438 7.78l-.78 9.63a8.657 8.657 0 0 1 6.91-3.41zm0 0" fill="#8f95e6"/><g fill="#69ebfc"><path d="M96.39 199.469c0 9.199-7.456 16.656-16.652 16.656-9.199 0-16.656-7.457-16.656-16.656 0-9.196 7.457-16.653 16.656-16.653 9.196 0 16.653 7.457 16.653 16.653zm171.692 0c0 9.199-7.457 16.656-16.656 16.656-9.196 0-16.653-7.457-16.653-16.656 0-9.196 7.457-16.653 16.653-16.653 9.199 0 16.656 7.457 16.656 16.653zm0 0"/><path d="M251.012 208.559c-5.575 0-10.098-4.524-10.098-10.098V96.703c0-41.59-33.207-76.098-74.793-76.5-41.992-.406-76.285 33.637-76.285 75.535v102.719c0 5.578-4.52 10.098-10.098 10.098s-10.097-4.52-10.097-10.098v-101.5c0-52.707 42.09-96.441 94.793-96.95 53.218-.515 96.68 42.626 96.68 95.731v102.719c0 5.578-4.524 10.102-10.102 10.102zm0 0"/></g><path d="M164.43.008C111.727.52 69.64 44.254 69.64 96.96v10c0-52.707 42.087-96.441 94.79-96.953 53.222-.516 96.683 42.629 96.683 95.734v-10c0-53.105-43.46-96.25-96.683-95.734zm0 0" fill="#a1f1fc"/><path d="M330.586 473.887c-2.64 13.629-14.606 24.117-29.219 24.117H29.801c-14.614 0-26.578-10.488-29.223-24.117l-.48 5.906c-1.407 17.352 12.297 32.21 29.703 32.21h271.566c17.406 0 31.106-14.858 29.695-32.21zm0 0" fill="#5861c7"/><path d="M480.555 512.004H215.672c-18.926 0-33.563-16.602-31.195-35.379l24.593-194.996a11.243 11.243 0 0 1 11.153-9.832h255.78a11.236 11.236 0 0 1 11.15 9.832l24.593 194.996c2.371 18.777-12.266 35.379-31.191 35.379zm0 0" fill="#d476e2"/><path d="M216.844 285.797h262.539c3.512 0 6.676 1.555 8.805 4.012l-1.032-8.18a11.24 11.24 0 0 0-11.152-9.832H220.223a11.243 11.243 0 0 0-11.153 9.832l-1.03 8.18a11.631 11.631 0 0 1 8.804-4.012zm0 0" fill="#ea82fa"/><path d="M511.309 473.117c-2.993 14.055-15.47 24.887-30.75 24.887H215.672c-15.285 0-27.762-10.832-30.75-24.887l-.442 3.512c-2.37 18.773 12.266 35.375 31.192 35.375h264.887c18.925 0 33.562-16.602 31.191-35.375zm0 0" fill="#b665c2"/><path d="M450.613 311.809c0 9.199-7.457 16.656-16.656 16.656-9.195 0-16.652-7.457-16.652-16.656 0-9.196 7.457-16.653 16.652-16.653 9.2 0 16.656 7.457 16.656 16.653zm-171.691 0c0 9.199-7.453 16.656-16.652 16.656s-16.653-7.457-16.653-16.656c0-9.196 7.453-16.653 16.653-16.653s16.652 7.457 16.652 16.653zm0 0" fill="#69ebfc"/><path d="M262.684 302.723c5.578 0 10.097 4.523 10.097 10.101v19.758c0 41.586 33.207 76.094 74.793 76.496 41.992.406 76.285-33.633 76.285-75.535v-20.719c0-5.578 4.524-10.101 10.098-10.101 5.578 0 10.098 4.523 10.098 10.101v19.5c0 52.707-42.086 96.442-94.793 96.95-53.219.515-96.68-42.63-96.68-95.731v-20.719c0-5.578 4.523-10.101 10.102-10.101zm0 0" fill="#69ebfc"/></svg>