<svg height="512pt" viewBox="0 0 512 512" width="512pt" xmlns="http://www.w3.org/2000/svg"><path d="M25.371 512h399.254c14.012 0 25.371-11.36 25.371-25.371V52.793c0-14.012-11.36-25.371-25.371-25.371H25.371C11.36 27.422 0 38.782 0 52.793v433.836C0 500.64 11.36 512 25.371 512zm0 0" fill="#ffefe4"/><path d="M424.629 27.422H25.37C11.36 27.422 0 38.782 0 52.793v10.625c0-14.016 11.36-25.375 25.371-25.375H424.63c14.012 0 25.371 11.36 25.371 25.375V52.793c0-14.012-11.36-25.371-25.371-25.371zm0 0" fill="#fff7f2"/><path d="M424.629 490.758H25.37C11.36 490.758 0 479.395 0 465.383v21.242C0 500.641 11.36 512 25.371 512H424.63c14.01 0 25.37-11.36 25.37-25.371v-21.246c0 14.012-11.36 25.375-25.371 25.375zm0 0" fill="#edd4c2"/><path d="M83.121 356.7c-2.281 0-4.578-.743-6.504-2.266l-12.941-10.23c-4.547-3.599-5.317-10.2-1.723-14.747s10.195-5.316 14.742-1.723l4.828 3.817 19.946-24.48c3.66-4.493 10.273-5.173 14.765-1.508 4.496 3.664 5.172 10.277 1.508 14.769l-26.48 32.5a10.47 10.47 0 0 1-8.14 3.867zm276.692-16.25H159.108c-5.8 0-10.496-4.7-10.496-10.497s4.7-10.496 10.496-10.496h200.703c5.797 0 10.497 4.7 10.497 10.496s-4.7 10.496-10.497 10.496zM83.121 441.3a10.45 10.45 0 0 1-6.504-2.265l-12.941-10.23c-4.547-3.594-5.32-10.196-1.723-14.743 3.594-4.546 10.195-5.316 14.742-1.722l4.828 3.812 19.946-24.476c3.66-4.496 10.273-5.168 14.765-1.508 4.496 3.664 5.172 10.273 1.508 14.77l-26.48 32.5a10.478 10.478 0 0 1-8.14 3.863zm276.692-16.25H159.108c-5.8 0-10.496-4.698-10.496-10.495 0-5.797 4.7-10.496 10.496-10.496h200.703c5.797 0 10.497 4.699 10.497 10.496 0 5.797-4.7 10.496-10.497 10.496zm0 0" fill="#6770e6"/><path d="M66.855 52.898c0 6.336-5.136 11.477-11.476 11.477-6.336 0-11.477-5.14-11.477-11.477 0-6.34 5.141-11.476 11.477-11.476 6.34 0 11.476 5.137 11.476 11.476zm0 0" fill="#edd4c2"/><path d="M55.379 56.086a6.883 6.883 0 0 1-6.883-6.883V6.883a6.883 6.883 0 0 1 13.766 0v42.32a6.88 6.88 0 0 1-6.883 6.883zm0 0" fill="#6770e6"/><path d="M55.379 0a6.883 6.883 0 0 0-6.883 6.883v10.62a6.883 6.883 0 0 1 13.766 0V6.884A6.88 6.88 0 0 0 55.379 0zm0 0" fill="#8f95e6"/><path d="M151.664 52.898c0 6.336-5.137 11.477-11.473 11.477-6.34 0-11.476-5.14-11.476-11.477 0-6.34 5.137-11.476 11.476-11.476 6.336 0 11.473 5.137 11.473 11.476zm0 0" fill="#edd4c2"/><path d="M140.191 56.086a6.883 6.883 0 0 1-6.882-6.883V6.883A6.883 6.883 0 0 1 140.191 0a6.883 6.883 0 0 1 6.88 6.883v42.32a6.88 6.88 0 0 1-6.88 6.883zm0 0" fill="#6770e6"/><path d="M140.191 0a6.883 6.883 0 0 0-6.882 6.883v10.62a6.88 6.88 0 1 1 13.761 0V6.884a6.883 6.883 0 0 0-6.879-6.883zm0 0" fill="#8f95e6"/><path d="M321.285 52.898c0 6.336-5.137 11.477-11.476 11.477-6.336 0-11.473-5.14-11.473-11.477 0-6.34 5.137-11.476 11.473-11.476 6.34 0 11.476 5.137 11.476 11.476zm0 0" fill="#edd4c2"/><path d="M309.809 56.086a6.883 6.883 0 0 1-6.88-6.883V6.883A6.883 6.883 0 0 1 309.809 0c3.8 0 6.882 3.082 6.882 6.883v42.32c0 3.8-3.082 6.883-6.882 6.883zm0 0" fill="#6770e6"/><path d="M309.809 0a6.883 6.883 0 0 0-6.88 6.883v10.62a6.88 6.88 0 1 1 13.762 0V6.884a6.883 6.883 0 0 0-6.882-6.883zm0 0" fill="#8f95e6"/><path d="M236.477 52.898c0 6.336-5.137 11.477-11.477 11.477s-11.477-5.14-11.477-11.477c0-6.34 5.137-11.476 11.477-11.476s11.477 5.137 11.477 11.476zm0 0" fill="#edd4c2"/><path d="M225 56.086a6.883 6.883 0 0 1-6.883-6.883V6.883a6.883 6.883 0 0 1 13.766 0v42.32c0 3.8-3.082 6.883-6.883 6.883zm0 0" fill="#6770e6"/><path d="M225 0a6.883 6.883 0 0 0-6.883 6.883v10.62a6.883 6.883 0 0 1 13.766 0V6.884A6.884 6.884 0 0 0 225 0zm0 0" fill="#8f95e6"/><path d="M406.098 52.898c0 6.336-5.141 11.477-11.477 11.477-6.34 0-11.476-5.14-11.476-11.477 0-6.34 5.136-11.476 11.476-11.476 6.336 0 11.477 5.137 11.477 11.476zm0 0" fill="#edd4c2"/><path d="M394.621 56.086a6.883 6.883 0 0 1-6.883-6.883V6.883a6.883 6.883 0 0 1 13.766 0v42.32c0 3.8-3.082 6.883-6.883 6.883zm0 0" fill="#6770e6"/><path d="M394.617 0a6.883 6.883 0 0 0-6.883 6.883v10.62a6.883 6.883 0 0 1 13.766 0V6.884A6.878 6.878 0 0 0 394.617 0zm0 0" fill="#8f95e6"/><path d="M512 454.984h-45.273V140.926H512zm0 0" fill="#ff8354"/><path d="M512 466.652h-45.273v-11.664H512zm0 0" fill="#ffefe4"/><path d="M466.727 466.648H512v22.715C512 501.867 501.867 512 489.363 512c-12.5 0-22.636-10.133-22.636-22.637zm0 0" fill="#6770e6"/><path d="M489.363 492c-12.5 0-22.636-10.133-22.636-22.637v20c0 12.504 10.136 22.637 22.636 22.637C501.867 512 512 501.867 512 489.363v-20C512 481.867 501.867 492 489.363 492zm0 0" fill="#5861c7"/><path d="M466.727 140.906l20.964-58.492c.563-1.57 2.782-1.57 3.344 0L512 140.906zm0 0" fill="#edd4c2"/><path d="M478.043 109.328h22.637l-9.645-26.914c-.562-1.57-2.785-1.57-3.347 0zm0 0" fill="#5861c7"/><path d="M478.043 109.328h22.637l-9.645-26.914c-.562-1.57-2.785-1.57-3.347 0zm0 0" fill="#5861c7"/><path d="M486.883 92.414c.836-1.57 4.125-1.57 4.957 0l8.558 16.121-9.363-26.12c-.562-1.571-2.781-1.571-3.344 0l-9.359 26.112zm0 0" fill="#8f95e6"/><path d="M279.477 265.867H170.523c-8.402 0-14.921-7.344-13.921-15.687l12.109-101.106a4.567 4.567 0 0 1 4.531-4.023h103.516a4.567 4.567 0 0 1 4.531 4.023l12.106 101.106c1 8.343-5.516 15.687-13.918 15.687zm0 0" fill="#6770e6"/><path d="M256.879 172.238c-3.317 0-6-2.683-6-6v-31.875c0-14.27-11.61-25.879-25.879-25.879s-25.879 11.61-25.879 25.88v31.874c0 3.317-2.684 6-6 6-3.312 0-6-2.683-6-6v-31.875c0-20.886 16.992-37.879 37.879-37.879s37.875 16.993 37.875 37.88v31.874c0 3.317-2.684 6-5.996 6zm0 0" fill="#69ebfc"/></svg>