<svg height="512pt" viewBox="0 0 512 512.002" width="512pt" xmlns="http://www.w3.org/2000/svg"><path d="M510.223 113.04L401.055 4.253A14.597 14.597 0 0 0 390.758 0H337.73c0 45.313-36.726 82.04-82.043 82.04-45.312 0-82.039-36.728-82.039-82.04h-53.003c-3.875 0-7.586 1.54-10.32 4.281L1.753 113.04a5.984 5.984 0 0 0 0 8.461l56.941 56.945a5.988 5.988 0 0 0 8.465 0l47.434-47.433v273.18c0 3.3 2.68 5.984 5.984 5.984H390.8a5.987 5.987 0 0 0 5.984-5.985V130.414l48.031 48.031a5.977 5.977 0 0 0 8.461 0l56.946-56.941a5.988 5.988 0 0 0 0-8.465zm0 0" fill="#ff8354"/><path d="M4.504 124.281l105.82-106A14.568 14.568 0 0 1 120.644 14h270.114a14.58 14.58 0 0 1 10.293 4.254L501.992 118.84l.016-.016 5.472 5.473 2.766-2.77a5.984 5.984 0 0 0 0-8.46l-.023-.028-.036-.031-8.18-8.18-.01.016L401.05 4.254A14.58 14.58 0 0 0 390.758 0H120.645c-3.875 0-7.586 1.54-10.32 4.281L1.753 113.04A5.979 5.979 0 0 0 0 117.285a5.969 5.969 0 0 0 1.754 4.246zm0 0" fill="#ffac8c"/><path d="M337.73 0c0 45.313-36.726 82.04-82.042 82.04-45.313 0-82.036-36.728-82.036-82.04h17.637c0 35.566 28.836 64.402 64.402 64.402S320.09 35.566 320.09 0zm0 0" fill="#6770e6"/><path d="M336.516 14a82.64 82.64 0 0 0 1.214-14h-17.64c0 4.809-.543 9.488-1.543 14zm-143.684 0a64.606 64.606 0 0 1-1.543-14h-17.64c0 4.777.433 9.45 1.214 14zm0 0" fill="#8f95e6"/><path d="M320.09 0c0 35.566-28.832 64.402-64.402 64.402-35.567 0-64.399-28.836-64.399-64.402zm0 0" fill="#e0734a"/><path d="M318.547 14c1-4.512 1.543-9.191 1.543-14h-128.8c0 4.809.542 9.488 1.542 14zm0 0" fill="#ff8354"/><path d="M396.785 404.191v-11.656H114.594v11.656a5.988 5.988 0 0 0 5.984 5.985h270.223a5.985 5.985 0 0 0 5.984-5.985zM510.25 113.066l-8.242-8.242-65.38 65.383 8.243 8.238a5.984 5.984 0 0 0 8.461 0l56.918-56.918a5.984 5.984 0 0 0 0-8.46zm-508.496 0l8.238-8.242 65.383 65.383-8.242 8.238a5.984 5.984 0 0 1-8.461 0L1.754 121.527a5.984 5.984 0 0 1 0-8.46zm0 0" fill="#6770e6"/><path d="M379.121 200.89l-45.844-36.007c-3.5-2.754-8.632-.258-8.632 4.195V190.7H187.359v-21.62c0-4.454-5.132-6.946-8.636-4.196l-45.84 36.008c-2.723 2.136-2.723 6.257 0 8.394l45.84 36.008c3.504 2.75 8.636.254 8.636-4.2v-21.616h137.286v21.617c0 4.453 5.128 6.949 8.632 4.199l45.844-36.008c2.723-2.137 2.723-6.258 0-8.394zM509.96 466.445l-45.839-36.007c-3.504-2.75-8.637-.254-8.637 4.199v21.617H56.52v-21.617c0-4.453-5.133-6.95-8.637-4.2l-45.84 36.008c-2.723 2.14-2.723 6.258 0 8.399l45.84 36.004c3.504 2.754 8.637.257 8.637-4.2v-21.617h398.96v21.617c0 4.457 5.133 6.954 8.637 4.2l45.844-36.004c2.719-2.137 2.719-6.258 0-8.399zm0 0" fill="#69ebfc"/><path d="M47.883 496.852L5.609 463.645l-3.566 2.8c-2.723 2.137-2.723 6.258 0 8.399l45.84 36.004c3.504 2.754 8.637.257 8.637-4.2v-14c0 4.457-5.133 6.954-8.637 4.204zm407.601-25.817H56.52v14h398.964zm54.476-4.585l-3.565-2.805-42.274 33.207c-3.504 2.753-8.637.257-8.637-4.2v14c0 4.457 5.133 6.953 8.637 4.2l45.84-36.004c2.719-2.141 2.719-6.262 0-8.399zm0 0" fill="#5fd4e3"/></svg>