<svg height="512pt" viewBox="0 0 512 512.241" width="512pt" xmlns="http://www.w3.org/2000/svg"><path d="M301.484 512H29.922c-17.41 0-31.11-14.855-29.7-32.207L27.27 146.797a8.468 8.468 0 0 1 8.437-7.781h259.992a8.465 8.465 0 0 1 8.438 7.78l27.047 332.997c1.41 17.352-12.29 32.207-29.7 32.207zm0 0" fill="#6770e6"/><path d="M33.395 153.016h264.617a8.663 8.663 0 0 1 6.91 3.41l-.785-9.63a8.465 8.465 0 0 0-8.438-7.78H35.707a8.465 8.465 0 0 0-8.437 7.78l-.782 9.63a8.65 8.65 0 0 1 6.907-3.41zm0 0" fill="#8f95e6"/><path d="M96.512 199.469c0 9.199-7.457 16.652-16.653 16.652-9.199 0-16.656-7.453-16.656-16.652s7.457-16.653 16.656-16.653c9.196 0 16.653 7.454 16.653 16.653zm171.691 0c0 9.199-7.457 16.652-16.656 16.652-9.195 0-16.652-7.453-16.652-16.652s7.457-16.653 16.652-16.653c9.2 0 16.656 7.454 16.656 16.653zm0 0" fill="#69ebfc"/><path d="M251.133 208.555a10.096 10.096 0 0 1-10.098-10.098V96.699c0-41.586-33.207-76.094-74.793-76.496-41.992-.41-76.285 33.633-76.285 75.535v102.719c0 5.578-4.52 10.098-10.098 10.098s-10.097-4.524-10.097-10.098v-101.5c0-52.707 42.09-96.441 94.793-96.953 53.218-.516 96.68 42.629 96.68 95.734v102.719c-.005 5.578-4.524 10.098-10.102 10.098zm0 0" fill="#69ebfc"/><path d="M164.55.004C111.849.516 69.763 44.25 69.763 96.957v10c0-52.707 42.086-96.441 94.789-96.95 53.222-.515 96.68 42.626 96.68 95.731v-10c0-53.105-43.458-96.25-96.68-95.734zm0 0" fill="#a1f1fc"/><path d="M330.707 473.887C328.067 487.516 316.102 498 301.484 498H29.922C15.305 498 3.344 487.516.699 473.887l-.48 5.906C-1.188 497.145 12.516 512 29.922 512h271.562c17.41 0 31.11-14.855 29.7-32.207zm0 0" fill="#5861c7"/><path d="M501.602 409.96l-10.98-8.538-14.84-11.543-45.16-35.098a42.171 42.171 0 0 0-2.161-1.562c2.082 11.46 4.86 22.62 8.242 32.742 4.04 12.14 8.18 20.418 11.7 25.781a19.966 19.966 0 0 1 8.46-1.82c3 0 5.86.66 8.418 1.86 5.88 2.738 10.219 8.238 11.36 14.84.101.597.18 1.218.222 1.839.059.559.078 1.121.078 1.68A20.082 20.082 0 0 1 470.344 445c-3.621 3.281-8.364 5.242-13.602 5.219-.898 0-1.8-.059-2.68-.2-6.32-.84-11.699-4.617-14.742-9.898a19.851 19.851 0 0 1-2.68-10.082c0-1.2.102-2.398.32-3.539-7.558-9.258-13.3-22.719-17.339-34.84-4.5-13.46-8.02-28.62-10.32-43.98L162.94 347c-16.078-.04-29.14 12.941-29.18 29.04l-.3 106.339c-.04 16.062 12.941 29.14 29.039 29.183l247.023.68a33.7 33.7 0 0 0 20.7-7.023l15.699-12.078 14.2-10.899 34.64-26.64 6.738-5.16a25.778 25.778 0 0 0 6.562-7.403c6.18-10.66 4.02-24.918-6.46-33.078zm0 0" fill="#ff8354"/><path d="M508.055 429.035a25.77 25.77 0 0 1-6.559 7.406l-6.726 5.16-34.645 26.641-14.195 10.903-15.711 12.085a33.756 33.756 0 0 1-20.692 7.012l-247.035-.676c-15.832-.043-28.625-12.718-28.984-28.425l-.04 13.242c-.042 16.058 12.934 29.137 29.024 29.183l247.035.676a33.78 33.78 0 0 0 20.692-7.012l15.71-12.085 14.196-10.903 34.645-26.64 6.726-5.16a25.77 25.77 0 0 0 6.559-7.407c3.508-6.05 4.324-13.27 2.46-19.87a25.431 25.431 0 0 1-2.46 5.87zm0 0" fill="#e0734a"/><path d="M194.512 464.676c-2.825-.008-5.524-.414-8.102-1.219a23.464 23.464 0 0 1-7.078-3.61c-2.144-1.597-4.008-3.554-5.598-5.859a23.766 23.766 0 0 1-.797-1.234c-2.03-3.36-.62-7.746 3.04-9.176 2.937-1.148 6.164.133 7.765 2.852a16.384 16.384 0 0 0 2.43 3.172c2.14 2.183 4.96 3.28 8.46 3.293 1.29.003 2.532-.165 3.731-.497a11.104 11.104 0 0 0 3.227-1.468 7.118 7.118 0 0 0 2.262-2.43c.554-.98.835-2.121.84-3.406.003-1.227-.212-2.332-.637-3.317-.43-.984-1.145-1.906-2.157-2.77-1.011-.859-2.328-1.69-3.953-2.491-1.625-.805-3.629-1.637-6.02-2.504l-4.046-1.485c-1.777-.617-3.574-1.453-5.383-2.5a23.635 23.635 0 0 1-4.914-3.789c-1.465-1.476-2.676-3.215-3.621-5.21-.945-1.997-1.414-4.255-1.406-6.774.007-2.574.52-4.984 1.539-7.223 1.015-2.238 2.465-4.195 4.344-5.879 1.87-1.683 4.117-2.996 6.726-3.941 2.613-.945 5.516-1.41 8.707-1.402 3.313.011 6.18.46 8.602 1.355 2.422.899 4.472 2.04 6.16 3.426.629.515 1.52 1.34 2.453 2.39 2.695 3.04 1.648 7.825-2.098 9.387-2.383.992-5.242.535-6.925-1.418-2.426-2.812-5.926-3.719-8.043-3.726-2.7-.008-4.942.617-6.723 1.867-1.785 1.254-2.676 2.894-2.684 4.922-.004 1.965.848 3.64 2.563 5.023 1.715 1.387 4.441 2.727 8.183 4.028l4.141 1.394c2.637.926 5.043 1.992 7.219 3.195 2.172 1.203 4.043 2.633 5.601 4.297a17.387 17.387 0 0 1 3.578 5.672c.825 2.117 1.23 4.559 1.223 7.32-.008 3.438-.707 6.399-2.098 8.88-1.386 2.48-3.156 4.519-5.308 6.109-2.153 1.59-4.582 2.777-7.281 3.57-2.704.79-5.344 1.184-7.922 1.176zm63.98.176c-4.91-.016-9.465-.914-13.664-2.707s-7.832-4.239-10.887-7.348c-3.062-3.106-5.464-6.766-7.199-10.977-1.734-4.207-2.597-8.707-2.586-13.492.016-4.789.903-9.285 2.66-13.484 1.758-4.196 4.18-7.844 7.258-10.934 3.074-3.09 6.719-5.523 10.93-7.289 4.207-1.77 8.766-2.644 13.68-2.633 4.906.016 9.46.914 13.664 2.707 4.195 1.793 7.828 4.243 10.886 7.348 3.059 3.11 5.461 6.77 7.2 10.977 1.738 4.21 2.601 8.707 2.586 13.496-.012 4.785-.903 9.28-2.66 13.476-1.762 4.2-4.18 7.848-7.258 10.938-3.079 3.09-6.723 5.52-10.93 7.285-4.211 1.773-8.77 2.648-13.68 2.637zm.035-11.786c3.067.008 5.938-.535 8.61-1.632s5.008-2.625 7.011-4.586c1.997-1.953 3.57-4.332 4.711-7.125 1.145-2.79 1.72-5.868 1.73-9.243.009-3.378-.55-6.464-1.679-9.261-1.129-2.793-2.687-5.176-4.676-7.149-1.988-1.968-4.32-3.507-6.984-4.62s-5.535-1.673-8.602-1.68c-3.07-.008-5.941.535-8.613 1.632s-5.012 2.63-7.008 4.586c-2.004 1.957-3.574 4.332-4.718 7.121-1.145 2.793-1.72 5.875-1.727 9.25-.012 3.375.55 6.461 1.68 9.254 1.125 2.797 2.683 5.18 4.676 7.149 1.988 1.972 4.32 3.511 6.984 4.62 2.668 1.118 5.535 1.677 8.605 1.684zm50.508-55.468l.649.004a5.89 5.89 0 0 1 5.875 5.906l-.133 48.246 22.004.058a5.89 5.89 0 0 1 5.875 5.907 5.897 5.897 0 0 1-5.91 5.879l-28.54-.078a5.897 5.897 0 0 1-5.878-5.91l.148-54.133a5.897 5.897 0 0 1 5.91-5.88zm43.255 6.012a5.887 5.887 0 0 1 5.905-5.876l16.39.043c5.216.012 9.907.825 14.08 2.43 4.163 1.61 7.722 3.875 10.66 6.797 2.937 2.926 5.183 6.414 6.738 10.469 1.554 4.054 2.324 8.507 2.312 13.355-.016 4.91-.809 9.387-2.387 13.434-1.574 4.047-3.84 7.508-6.793 10.386-2.953 2.88-6.52 5.106-10.695 6.692-4.18 1.586-8.875 2.367-14.09 2.355l-16.39-.043a5.893 5.893 0 0 1-5.875-5.91zm21.593 48.3c3.625.012 6.816-.488 9.582-1.492 2.762-1.004 5.07-2.426 6.914-4.262s3.234-4.058 4.16-6.664c.93-2.605 1.399-5.504 1.406-8.695.008-3.195-.445-6.094-1.36-8.703-.91-2.614-2.288-4.84-4.12-6.688-1.836-1.844-4.137-3.281-6.895-4.3-2.761-1.02-5.949-1.532-9.574-1.543l-9.293-.028-.117 42.348zm0 0" fill="#ffefe4"/><path d="M448.402 411.742c-5.902 2.7-10.28 8.16-11.441 14.758-7.559-9.258-13.3-22.719-17.34-34.84-4.5-13.46-8.02-28.62-10.32-43.98h.68a34 34 0 0 1 18.48 5.539c2.082 11.46 4.86 22.62 8.242 32.742 4.04 12.14 8.18 20.418 11.7 25.781zm0 0" fill="#ff8354"/><path d="M508.055 430.203a25.873 25.873 0 0 0-6.559-7.406l-6.726-5.156L460.125 391l-14.195-10.902-15.711-12.086A33.756 33.756 0 0 0 409.527 361l-247.035.676c-15.832.043-28.625 12.719-28.984 28.426l-.04-13.243c-.042-16.058 12.934-29.14 29.024-29.183L409.527 347a33.756 33.756 0 0 1 20.692 7.012l15.71 12.086L460.126 377l34.645 26.64 6.726 5.157a25.873 25.873 0 0 1 6.559 7.406c3.508 6.055 4.324 13.27 2.46 19.875a25.388 25.388 0 0 0-2.46-5.875zm0 0" fill="#ffac8c"/><path d="M497.922 250.563c-8.66-18.024-22.7-27.583-40.559-27.622-17.883-.062-31.96 9.418-40.722 27.399-6.899 14.18-10.438 33.222-10.5 56.601-.04 13.02 1.062 26.961 3.16 40.739h.68c6.581.02 13 1.96 18.48 5.539-2.82-15.457-4.36-31.477-4.32-46.219.062-20.36 3.062-37.219 8.68-48.781 5.679-11.656 13.702-17.317 24.48-17.297 10.8.039 18.781 5.738 24.402 17.437 5.559 11.582 8.457 28.461 8.418 48.82-.078 25.66-4.937 55.16-13 78.903-.437 1.32-.898 2.578-1.34 3.797-3.66 10.062-7.32 17.14-10.5 21.902-3.879 5.84-7 8.18-8.46 8.18-1.438 0-4.56-2.34-8.419-8.219-5.902 2.7-10.28 8.16-11.441 14.758 5.582 6.879 12.18 11.441 19.8 11.46 7.641.02 14.262-4.5 19.88-11.339 5.64-6.84 10.28-15.98 13.98-25.2a168.71 168.71 0 0 0 3.54-9.562c8.66-25.48 13.882-57.117 13.96-84.64.063-23.38-3.379-42.438-10.2-56.656zm0 0" fill="#6770e6"/><path d="M416.64 260.34c8.762-17.98 22.84-27.461 40.723-27.399 17.86.043 31.899 9.598 40.559 27.622 6.351 13.238 9.73 30.73 10.121 51.945.047-1.778.074-3.543.078-5.29.063-23.378-3.379-42.437-10.2-56.656-8.66-18.023-22.698-27.582-40.558-27.62-17.883-.063-31.96 9.417-40.722 27.398-6.899 14.18-10.438 33.222-10.5 56.601-.004 1.52.058 3.086.086 4.63.554-20.938 4.054-38.153 10.414-51.231zm0 0" fill="#8f95e6"/></svg>