<svg height="680" viewBox="0 0 510 510.779" width="680" xmlns="http://www.w3.org/2000/svg"><path d="M42.016 212.977c1 .253 2 .375 2.98.375 5.356 0 10.23-3.606 11.621-9.032C78.445 118.918 151.98 57.707 238.7 50.547l-4.637 4.637c-4.687 4.687-4.687 12.285 0 16.972 2.344 2.34 5.415 3.512 8.485 3.512s6.144-1.172 8.488-3.516l25.832-25.832c4.684-4.687 4.684-12.285 0-16.968L251.035 3.516c-4.687-4.688-12.289-4.688-16.972-.004-4.688 4.691-4.688 12.289 0 16.972l5.933 5.934C141.73 33.125 58.02 101.914 33.363 198.375c-1.64 6.422 2.235 12.957 8.653 14.602zm161.07 241.152C160.946 442.989 122.64 418 95.23 383.762c-25.855-32.285-41.027-70.676-44.3-111.614l4.644 4.645a11.967 11.967 0 0 0 8.485 3.512c3.07 0 6.14-1.172 8.484-3.516 4.687-4.687 4.687-12.285 0-16.969l-25.836-25.832c-4.684-4.683-12.285-4.683-16.969 0L3.906 259.82c-4.687 4.688-4.687 12.285-.004 16.97 4.688 4.683 12.29 4.687 16.973.003l5.863-5.867c3.11 46.918 20.211 90.941 49.754 127.84 30.606 38.218 73.383 66.12 120.457 78.566a12.09 12.09 0 0 0 3.074.402c5.317 0 10.172-3.558 11.594-8.937 1.696-6.406-2.125-12.973-8.531-14.668zm265.785-153.07c-6.387-1.727-12.988 2.035-14.73 8.43-22.813 83.859-96.317 143.925-181.954 150.784l4.68-4.68c4.684-4.683 4.684-12.28-.004-16.968-4.683-4.684-12.285-4.684-16.968.004l-25.833 25.832c-4.687 4.687-4.687 12.285 0 16.969l25.833 25.832a11.949 11.949 0 0 0 8.484 3.52c3.07 0 6.144-1.173 8.484-3.516 4.688-4.688 4.688-12.286.004-16.97l-5.902-5.901c96.969-6.434 180.578-73.922 206.336-168.606 1.738-6.394-2.035-12.992-8.43-14.73zm38.152-67.071c-4.683-4.683-12.285-4.687-16.968 0l-5.313 5.313c-6.797-98.149-74.887-180.7-170.187-205.871-6.418-1.696-12.977 2.132-14.668 8.539-1.692 6.41 2.129 12.976 8.539 14.668 84.789 22.394 145.511 95.52 152.246 182.664l-5.317-5.317c-4.683-4.683-12.285-4.683-16.968.004-4.688 4.684-4.688 12.285 0 16.969l25.836 25.832a11.954 11.954 0 0 0 8.484 3.516c3.07 0 6.14-1.172 8.484-3.516l25.832-25.832c4.688-4.684 4.688-12.281 0-16.969zm0 0" fill="#ff8354"/><path d="M365.023 378.809H145.906c-7.656 0-13.863-6.207-13.863-13.86V145.832c0-7.656 6.207-13.863 13.863-13.863h219.117c7.657 0 13.86 6.207 13.86 13.863v219.117c0 7.653-6.203 13.86-13.86 13.86zm0 0" fill="#f7ddca"/><path d="M378.883 150.164h-246.84v-4.332c0-7.656 6.207-13.863 13.863-13.863h219.117c7.657 0 13.86 6.207 13.86 13.863zm0 0" fill="#ffefe4"/><path d="M365.023 378.809H145.906c-7.656 0-13.863-6.207-13.863-13.86v-4.332h246.84v4.332c0 7.653-6.203 13.86-13.86 13.86zm0 0" fill="#edd4c2"/><path d="M275 190.105h-9.504l-8.777-5.726-7.274 5.726-7.273-5.726-6.242 5.726V131.97H275zm0 0" fill="#ff8354"/><path d="M235.93 131.969h39.074v18.195H235.93zm0 0" fill="#ffac8c"/><path d="M150.383 312.637h92.164v33.601h-92.164zm0 0" fill="#fff7f2"/><path d="M232.547 322.637v13.601h-72.164v-13.601zm0 0" fill="#edd4c2"/><path d="M200.023 477.734c-1.015 0-2.046-.129-3.074-.402-47.074-12.445-89.851-40.348-120.457-78.566-31.52-39.368-48.875-86.836-50.191-137.286-.172-6.62 5.058-12.132 11.683-12.308.106 0 .211-.004.317-.004 6.484 0 11.82 5.168 11.992 11.691 1.176 45.164 16.715 87.664 44.934 122.907 27.414 34.234 65.718 59.222 107.859 70.363 6.406 1.695 10.226 8.262 8.535 14.668-1.426 5.383-6.281 8.937-11.598 8.937zm55.754 7.211c-6.625 0-12-5.375-12-12 0-6.629 5.375-12 12-12 92.536 0 174.106-62.285 198.364-151.46 1.742-6.395 8.343-10.157 14.73-8.43 6.395 1.742 10.168 8.336 8.43 14.73-27.094 99.598-118.188 169.16-221.524 169.16zm0 0" fill="#ff8354"/><path d="M64.059 280.305c-3.07 0-6.145-1.172-8.485-3.512l-17.351-17.348-17.348 17.348c-4.688 4.684-12.285 4.684-16.973-.004-4.683-4.687-4.683-12.285.004-16.969l25.832-25.832c4.688-4.683 12.29-4.683 16.969 0l25.836 25.832c4.687 4.688 4.687 12.285 0 16.97a11.961 11.961 0 0 1-8.484 3.515zm0 0" fill="#ff8354"/><path d="M238.98 26.484C141.156 33.59 57.934 102.246 33.363 198.375a11.936 11.936 0 0 0 .625 7.742C60.07 108.22 147.141 39.332 248.102 35.992zM484.738 239.3c-6.793-98.148-74.886-180.698-170.187-205.87-6.418-1.696-12.973 2.132-14.664 8.539a11.937 11.937 0 0 0 .699 8.078c2.375-5.219 8.223-8.133 13.965-6.617 92.324 24.386 159.926 101.773 170.187 195.87zM234.063 13.512c4.683-4.684 12.285-4.684 16.972.004l25.832 25.832c1.035 1.039 1.801 2.23 2.38 3.484 2.038-4.43 1.269-9.832-2.38-13.484L251.035 3.516c-4.687-4.688-12.289-4.688-16.972-.004-3.653 3.652-4.418 9.058-2.38 13.488.579-1.258 1.344-2.45 2.38-3.488zm4.637 37.035l-4.637 4.637c-3.653 3.652-4.418 9.054-2.38 13.484.579-1.254 1.344-2.445 2.38-3.484l15.21-15.211c-3.543.109-7.07.28-10.574.574zm0 0" fill="#ffac8c"/><path d="M268.379 510.777c-3.07 0-6.14-1.172-8.484-3.515l-25.833-25.836c-4.687-4.684-4.687-12.281 0-16.965l25.833-25.836c4.687-4.687 12.289-4.684 16.968 0 4.688 4.688 4.688 12.285.004 16.969l-17.347 17.351 17.347 17.348c4.684 4.687 4.684 12.285-.004 16.969a11.954 11.954 0 0 1-8.484 3.515zm0 0" fill="#ff8354"/><path d="M210.926 460.734a12.013 12.013 0 0 1-10.903 7c-1.015 0-2.046-.129-3.074-.402-47.074-12.445-89.851-40.348-120.457-78.566-27.613-34.489-44.289-75.211-48.894-118.696l-.86.86c3.11 46.918 20.211 90.937 49.754 127.836 30.606 38.218 73.383 66.125 120.457 78.566 1.028.273 2.059.402 3.074.402 5.317 0 10.172-3.554 11.594-8.937a11.92 11.92 0 0 0-.691-8.063zm265.777-152.921c-27.265 96.699-115.008 164.558-215.305 167.011l9.567 9.567c96.969-6.434 180.574-73.922 206.336-168.602.75-2.758.472-5.547-.598-7.976zM26.3 261.48c0-.039.005-.078.005-.117l-5.43 5.43c-4.687 4.684-12.285 4.684-16.973-.004-1.035-1.035-1.8-2.226-2.379-3.484-2.039 4.433-1.27 9.836 2.38 13.484 4.687 4.688 12.288 4.688 16.972.004l5.863-5.867a236.299 236.299 0 0 1-.437-9.446zm24.63 10.668l4.644 4.645a11.967 11.967 0 0 0 8.485 3.512c3.07 0 6.14-1.172 8.484-3.516 3.652-3.648 4.418-9.05 2.383-13.484-.578 1.257-1.348 2.449-2.383 3.484a11.961 11.961 0 0 1-8.484 3.516c-3.07 0-6.145-1.172-8.485-3.512l-5.25-5.25c.106 3.555.324 7.086.606 10.605zm225.933 225.118a11.954 11.954 0 0 1-8.484 3.515c-3.07 0-6.14-1.172-8.484-3.52l-25.833-25.831c-1.035-1.035-1.8-2.227-2.378-3.485-2.04 4.434-1.274 9.836 2.378 13.485l25.833 25.832a11.949 11.949 0 0 0 8.484 3.52c3.07 0 6.144-1.173 8.484-3.516 3.653-3.653 4.422-9.055 2.383-13.485-.578 1.254-1.348 2.446-2.383 3.485zm0 0" fill="#e0734a"/><path d="M507.023 233.988c-4.683-4.683-12.285-4.687-16.968 0l-5.313 5.313c.059.832.145 1.66.195 2.496.028.445.024.887 0 1.324l.293 5.688 4.825-4.825c4.683-4.683 12.285-4.683 16.968.004 1.036 1.035 1.801 2.227 2.38 3.485 2.038-4.43 1.273-9.832-2.38-13.485zm-46.351 5.317l-5.317-5.317c-4.683-4.683-12.285-4.687-16.972 0-3.649 3.653-4.418 9.055-2.38 13.485.579-1.254 1.349-2.446 2.38-3.485 4.687-4.687 12.289-4.683 16.972 0l5.922 5.918zm0 0" fill="#ffac8c"/></svg>