<svg height="512pt" viewBox="0 0 512 512" width="512pt" xmlns="http://www.w3.org/2000/svg"><path d="M33.672 0C15.07 0 0 15.07 0 33.672v59.004h67.34V33.672C67.34 15.07 52.262 0 33.672 0zm0 0" fill="#edd4c2"/><path d="M409.852 0H33.664c18.602 0 33.672 15.074 33.672 33.672V512h376.187V33.672C443.523 15.074 428.437 0 409.852 0zm0 0" fill="#ffefe4"/><path d="M67.336 492h376.187v20H67.336zm0 0" fill="#edd4c2"/><path d="M409.852 0H33.664c13.73 0 25.531 8.219 30.773 20h345.415c18.586 0 33.671 15.074 33.671 33.672v-20C443.523 15.074 428.437 0 409.852 0zm0 0" fill="#fff7f2"/><path d="M512 454.984h-45.273V140.926H512zm0 0" fill="#ff8354"/><path d="M512 466.652h-45.273v-11.664H512zm0 0" fill="#ffefe4"/><path d="M466.727 466.648H512v22.715C512 501.867 501.867 512 489.363 512c-12.5 0-22.636-10.133-22.636-22.637zm0 0" fill="#6770e6"/><path d="M489.363 492c-12.5 0-22.636-10.133-22.636-22.637v20c0 12.504 10.136 22.637 22.636 22.637C501.867 512 512 501.867 512 489.363v-20C512 481.867 501.867 492 489.363 492zm0 0" fill="#5861c7"/><path d="M466.727 140.906l20.964-58.492c.563-1.57 2.782-1.57 3.344 0L512 140.906zm0 0" fill="#edd4c2"/><path d="M478.043 109.328h22.637l-9.645-26.914c-.562-1.57-2.785-1.57-3.347 0zm0 0" fill="#5861c7"/><path d="M478.043 109.328h22.637l-9.645-26.914c-.562-1.57-2.785-1.57-3.347 0zm0 0" fill="#5861c7"/><path d="M486.883 92.414c.836-1.57 4.125-1.57 4.957 0l8.558 16.121-9.363-26.12c-.562-1.571-2.781-1.571-3.344 0l-9.359 26.112zm0 0" fill="#8f95e6"/><path d="M374.832 203.375H176.027c-5.078 0-9.199-4.117-9.199-9.195a9.2 9.2 0 0 1 9.2-9.2h198.8c5.082 0 9.2 4.118 9.2 9.2.003 5.078-4.118 9.195-9.196 9.195zm0 48.203H176.027a9.2 9.2 0 0 1-9.199-9.2c0-5.077 4.121-9.194 9.2-9.194h198.8c5.082 0 9.2 4.117 9.2 9.195.003 5.082-4.118 9.2-9.196 9.2zm0 48.203H176.027a9.2 9.2 0 0 1 .001-18.399h198.8c5.082 0 9.2 4.122 9.2 9.2.003 5.082-4.118 9.2-9.196 9.2zm0 48.199H176.027c-5.078 0-9.199-4.117-9.199-9.195a9.2 9.2 0 0 1 9.2-9.2h198.8c5.082 0 9.2 4.118 9.2 9.2.003 5.078-4.118 9.195-9.196 9.195zM145.23 194.176a9.199 9.199 0 0 1-9.199 9.199c-5.082 0-9.203-4.117-9.203-9.2s4.121-9.198 9.203-9.198c5.078 0 9.2 4.117 9.2 9.199zm0 48.203c0 5.082-4.12 9.203-9.199 9.203a9.204 9.204 0 0 1-9.203-9.203c0-5.078 4.121-9.2 9.203-9.2 5.078 0 9.2 4.122 9.2 9.2zm0 48.203a9.2 9.2 0 0 1-9.199 9.2c-5.082 0-9.203-4.118-9.203-9.2s4.121-9.2 9.203-9.2c5.078 0 9.2 4.118 9.2 9.2zm0 48.203c0 5.078-4.12 9.2-9.199 9.2-5.082 0-9.203-4.122-9.203-9.2 0-5.082 4.121-9.2 9.203-9.2 5.078 0 9.2 4.118 9.2 9.2zm19.985-210.781V65.035h-16.348a7.691 7.691 0 1 1 0-15.383h48.91a7.691 7.691 0 0 1 7.692 7.692 7.689 7.689 0 0 1-7.692 7.691H181.43v62.969a7.691 7.691 0 0 1-7.692 7.691h-.832a7.691 7.691 0 0 1-7.691-7.691zm111.43-9.969l4.234 5.078a7.174 7.174 0 0 1-1.145 10.285 7.17 7.17 0 0 1-9.906-1.125l-1.84-2.23c-5.691 5.059-12.535 7.582-20.547 7.582-4.488 0-8.671-.746-12.558-2.23-3.89-1.477-7.274-3.56-10.153-6.25-2.882-2.68-5.152-5.868-6.796-9.555-1.645-3.68-2.465-7.727-2.465-12.137 0-4.805 1.183-9.371 3.55-13.703 2.356-4.32 5.665-8.012 9.918-11.05-1.527-2.087-2.769-4.247-3.726-6.497-.969-2.238-1.45-4.605-1.45-7.09 0-2.965.548-5.738 1.626-8.351a19.998 19.998 0 0 1 4.625-6.79c2.004-1.913 4.37-3.44 7.09-4.566 2.726-1.113 5.734-1.683 9.02-1.683 5.769 0 10.394 1.34 13.874 4.03a23.45 23.45 0 0 1 2.652 2.372c3.297 3.434 2.454 9.05-1.753 11.273l-.754.399c-2.59 1.371-5.649.61-7.664-1.516-1.997-2.097-4.625-2.738-6.125-2.738-2.317 0-4.165.684-5.528 2.043-1.36 1.371-2.043 3.09-2.043 5.176a7.6 7.6 0 0 0 .844 3.539c.559 1.086 1.32 2.219 2.285 3.422l25.84 31.492 3.54-5.762a6.7 6.7 0 0 1 9.284-2.156 6.698 6.698 0 0 1 2.082 9.254zm-28.48 5.406c4.48 0 8.167-1.328 11.054-3.968l-21.75-26.32c-2.242 1.683-3.961 3.745-5.164 6.19-1.203 2.446-1.813 4.95-1.813 7.512 0 2.567.488 4.872 1.45 6.907.956 2.043 2.261 3.793 3.902 5.23a17.497 17.497 0 0 0 5.652 3.305c2.121.766 4.344 1.144 6.668 1.144zm119.05-7.175c3.523 3.34 3.219 8.992-.567 12.027a41.63 41.63 0 0 1-8.53 5.3c-5.77 2.68-12.22 4.028-19.345 4.028-6.418 0-12.363-1.164-17.847-3.492-5.488-2.316-10.242-5.484-14.242-9.484-4.008-4.012-7.168-8.754-9.496-14.25-2.329-5.489-3.481-11.395-3.481-17.723s1.152-12.234 3.48-17.73c2.329-5.489 5.489-10.231 9.497-14.243 4-4 8.753-7.168 14.242-9.484 5.484-2.328 11.43-3.492 17.847-3.492 6.883 0 12.957 1.203 18.2 3.609a40.973 40.973 0 0 1 7.847 4.723c3.567 2.73 3.739 8.07.516 11.191l-.688.664c-2.699 2.613-6.855 2.723-9.847.45a30.12 30.12 0 0 0-4.078-2.614c-3.325-1.762-7.266-2.64-11.832-2.64-4.012 0-7.778.703-11.297 2.101-3.532 1.41-6.59 3.387-9.196 5.945-2.601 2.575-4.664 5.676-6.187 9.32-1.527 3.65-2.277 7.708-2.277 12.2 0 4.488.753 8.547 2.277 12.195 1.523 3.649 3.59 6.746 6.187 9.309 2.606 2.574 5.664 4.547 9.196 5.957 3.52 1.398 7.285 2.101 11.297 2.101 4.8 0 9.074-.976 12.8-2.945a29.126 29.126 0 0 0 4.965-3.309c3.121-2.562 7.63-2.492 10.559.286zm0 0" fill="#6770e6"/><path d="M182.992 454.984h-48.094a8.069 8.069 0 0 1-8.066-8.066V398.82a8.066 8.066 0 0 1 8.066-8.066h48.098a8.064 8.064 0 0 1 8.066 8.066v48.098a8.07 8.07 0 0 1-8.07 8.066zm0 0" fill="#edd4c2"/><path d="M155.273 441.023a7.685 7.685 0 0 1-4.77-1.66l-9.487-7.504a7.7 7.7 0 0 1-1.262-10.812 7.695 7.695 0 0 1 10.809-1.262l3.539 2.797 14.628-17.953a7.697 7.697 0 1 1 11.934 9.727l-19.418 23.831a7.689 7.689 0 0 1-5.973 2.836zm219.559-8.957h-144.57c-5.078 0-9.2-4.117-9.2-9.199 0-5.078 4.122-9.195 9.2-9.195h144.57c5.078 0 9.2 4.117 9.2 9.195 0 5.082-4.122 9.2-9.2 9.2zm0 0" fill="#6770e6"/></svg>