<svg height="512pt" viewBox="0 0 512 512.005" width="512pt" xmlns="http://www.w3.org/2000/svg"><path d="M342.281 163.105l-8.719-6.921-23.921-19.02-80.817-64.281c-12.5 6.722-23.183 13.582-31.344 20.262a30.97 30.97 0 0 1 9.704 22.558c0 4.621-1 9-2.82 12.942a31.094 31.094 0 0 1-16.52 15.859 30.946 30.946 0 0 1-11.742 2.3c-17.18 0-31.098-13.921-31.098-31.1 0-17.161 13.898-31.079 31.078-31.099 0 0 0-.02.02 0a95.496 95.496 0 0 1 5.378-5.039c7.844-6.82 17.98-13.761 29.82-20.582l-6.116-4.879c-17.02-13.539-41.141-13.539-58.18 0l-137.102 109a26.23 26.23 0 0 0-9.898 20.54v302.14c0 14.48 11.738 26.219 26.219 26.219H325.96c14.48 0 26.223-11.738 26.223-26.219v-302.14c0-8-3.641-15.56-9.903-20.54zm0 0" fill="#ff8354"/><path d="M325.96 498.004H26.224c-14.48 0-26.22-11.738-26.22-26.219v14c0 14.48 11.74 26.219 26.22 26.219H325.96c14.48 0 26.223-11.738 26.223-26.219v-14c0 14.48-11.743 26.219-26.223 26.219zm0 0" fill="#e0734a"/><path d="M59.203 281.691c0-7.02 1.352-13.64 4.059-19.859 2.707-6.215 6.418-11.684 11.133-16.398 4.71-4.711 10.277-8.426 16.699-11.133 6.418-2.707 13.437-4.059 21.062-4.059 7.621 0 14.692 1.352 21.211 4.059 6.516 2.71 12.133 6.426 16.848 11.133 4.715 4.714 8.426 10.183 11.133 16.398 2.707 6.219 4.062 12.84 4.062 19.86 0 7.023-1.355 13.687-4.062 20.007-2.707 6.32-6.422 11.79-11.133 16.399-4.715 4.617-10.332 8.273-16.848 10.984-6.52 2.707-13.59 4.063-21.21 4.063-7.626 0-14.645-1.356-21.063-4.063-6.422-2.71-11.989-6.367-16.7-10.984-4.714-4.61-8.425-10.078-11.132-16.399-2.707-6.32-4.059-12.988-4.059-20.008zm32.192 0c0 6.621 2.003 11.934 6.02 15.946 4.01 4.015 8.92 6.02 14.741 6.02 5.817 0 10.727-2.005 14.742-6.02 4.012-4.012 6.02-9.328 6.02-15.946 0-6.62-2.008-11.933-6.02-15.945-4.015-4.012-8.93-6.02-14.742-6.02-5.82 0-10.73 2.008-14.742 6.02-4.016 4.012-6.02 9.324-6.02 15.945zM105.37 417.84l117.664-175.7c4.399-6.574 13.297-8.328 19.863-3.925 6.559 4.402 8.313 13.285 3.918 19.851l-117.664 175.7c-4.398 6.574-13.297 8.328-19.863 3.921-6.562-4.398-8.316-13.28-3.918-19.847zm81.402-23.621c0-7.02 1.352-13.637 4.063-19.86 2.707-6.214 6.418-11.68 11.129-16.398 4.715-4.711 10.281-8.426 16.703-11.129 6.418-2.71 13.434-4.062 21.059-4.062s14.695 1.351 21.214 4.062c6.516 2.707 12.133 6.422 16.848 11.129 4.711 4.719 8.426 10.184 11.133 16.398 2.707 6.223 4.058 12.84 4.058 19.86 0 7.023-1.351 13.691-4.058 20.011-2.711 6.317-6.422 11.786-11.133 16.395-4.715 4.621-10.336 8.277-16.848 10.984-6.523 2.711-13.593 4.063-21.214 4.063-7.625 0-14.641-1.352-21.059-4.063-6.422-2.707-11.988-6.363-16.703-10.984-4.711-4.61-8.422-10.078-11.13-16.395-2.706-6.32-4.062-12.988-4.062-20.011zm32.196 0c0 6.62 2.004 11.937 6.02 15.945 4.011 4.016 8.925 6.02 14.741 6.02 5.817 0 10.727-2.004 14.743-6.02 4.011-4.008 6.02-9.328 6.02-15.945 0-6.621-2.009-11.93-6.02-15.946-4.016-4.011-8.93-6.02-14.743-6.02-5.82 0-10.73 2.009-14.742 6.02-4.02 4.016-6.02 9.325-6.02 15.946zm0 0" fill="#ffefe4"/><path d="M510.941 50.605c-4-20.601-18.34-35.722-41.48-43.68-64.379-22.179-189.637 12.618-258.16 52.06l17.523 13.898c25.7-13.817 59.098-27.04 93.88-36.758 36.679-10.242 70.276-15.46 97.679-15.46 16.64 0 31 1.92 42.34 5.839 16.18 5.562 25.32 14.742 27.898 28.062 9.16 47.118-82.297 68.7-110.559 74.18-22.44 4.36-46.66 7.2-70.421 8.418-22.317 1.14-44.239.82-63.88-1.039-18.238-1.742-31.679-4.46-41.398-7.48-3.082-.98-5.8-1.961-8.16-2.961-9.82-4.141-13.762-8.399-14.3-11.118-.622-3.28 2.5-10.101 13.16-19.382a88.28 88.28 0 0 1 2.417-2.04c-5.578-5.3-13.097-8.539-21.378-8.539-.02-.02-.02 0-.02 0-9.941 9.98-14.96 19.7-14.96 29 0 1.66.16 3.301.48 4.918 2.28 11.782 12.5 20.102 26.242 25.98 16.16 6.903 37.18 10.442 55.957 12.224 12.66 1.199 26.203 1.777 40.18 1.777 16.16 0 32.94-.8 49.581-2.32 17.2-1.579 34.282-3.957 50.461-7.118 89.438-17.382 135.7-53.261 126.918-98.46zm0 0" fill="#6770e6"/><path d="M176.102 84.605c-.02-.02-.02 0-.02 0-9.941 9.98-14.96 19.7-14.96 29a25.261 25.261 0 0 0 .956 6.899c1.883-7.11 6.567-14.43 14.004-21.899 0 0 0-.02.02 0a95.496 95.496 0 0 1 5.378-5.039c2.325-2.023 4.875-4.054 7.59-6.093-3.953-1.82-8.332-2.868-12.968-2.868zm334.839-34c-4-20.601-18.34-35.722-41.48-43.68-64.379-22.179-189.637 12.618-258.16 52.06l10.441 8.28c70.176-36.972 186.477-67.44 247.719-46.34 23.14 7.958 37.48 23.079 41.48 43.68a58.81 58.81 0 0 1 .567 3.602c.765-5.687.61-11.559-.567-17.602zm0 0" fill="#8f95e6"/><path d="M228.824 72.883c-12.5 6.722-23.183 13.582-31.344 20.262-5.578-5.301-13.097-8.54-21.378-8.54a95.496 95.496 0 0 1 5.378-5.039c7.844-6.82 17.98-13.761 29.82-20.582zm0 0" fill="#ff8354"/><path d="M503.09 512.004H329.063c-4.922 0-8.915-3.988-8.915-8.91s3.993-8.914 8.914-8.914H503.09c4.922 0 8.914 3.992 8.914 8.914s-3.992 8.91-8.914 8.91zm0-288.172H329.063c-4.922 0-8.915-3.988-8.915-8.91s3.993-8.914 8.914-8.914H503.09c4.922 0 8.914 3.992 8.914 8.914s-3.992 8.91-8.914 8.91zm0 0" fill="#6770e6"/><path d="M329.063 216.008H503.09c3.07 0 5.773 1.55 7.375 3.91a8.864 8.864 0 0 0 1.539-5c0-4.922-3.992-8.91-8.914-8.91H329.062c-4.921 0-8.914 3.988-8.914 8.91 0 1.855.57 3.574 1.54 5a8.9 8.9 0 0 1 7.374-3.91zm0 0" fill="#8f95e6"/><path d="M503.09 502.004H329.063a8.9 8.9 0 0 1-7.375-3.91 8.864 8.864 0 0 0-1.54 5c0 4.922 3.993 8.91 8.914 8.91H503.09c4.922 0 8.914-3.988 8.914-8.91 0-1.856-.57-3.574-1.54-5a8.895 8.895 0 0 1-7.374 3.91zm0 0" fill="#5861c7"/><path d="M500.863 271.95v-47.97H331.29v47.97c0 35.323 21.617 65.585 52.332 78.323 3.524 1.465 5.809 4.915 5.809 8.73s-2.285 7.27-5.809 8.731c-30.715 12.743-52.332 43-52.332 78.329v47.968h169.574v-47.969c0-35.328-21.613-65.59-52.332-78.328-3.523-1.46-5.808-4.914-5.808-8.73a9.451 9.451 0 0 1 5.808-8.73c30.719-12.739 52.332-43 52.332-78.325zm0 0" fill="#a1f1fc"/><path d="M359.324 291.46c-1.453 0-2.453 1.462-1.941 2.821 6.015 15.852 18.332 28.89 34.668 35.664a31.336 31.336 0 0 1 19.07 24.59c.332 2.356 2.234 4.297 4.606 4.461 2.668.18 4.93-1.754 5.289-4.363a31.324 31.324 0 0 1 19.086-24.684c16.336-6.777 28.652-19.816 34.664-35.668.515-1.36-.485-2.82-1.938-2.82zm48.379 121.392l-57.812 56.906c-3.79 3.734-1.149 10.187 4.171 10.187h124.024c5.324 0 7.965-6.453 4.172-10.187l-57.813-56.906c-4.64-4.57-12.097-4.57-16.742 0zm0 0" fill="#ff8354"/><path d="M342.281 163.105l-8.719-6.921c-5.355.492-10.722.879-16.082 1.214l16.082 12.786 8.72 6.921a26.233 26.233 0 0 1 9.902 20.54v-14c0-8-3.641-15.56-9.903-20.54zm-137.097-95l6.117 4.88 17.523 13.898 63.95 50.863a503.82 503.82 0 0 0 16.867-.582l-80.817-64.281-17.523-13.899-6.117-4.879c-17.02-13.539-41.141-13.539-58.18 0l-137.102 109a26.23 26.23 0 0 0-9.898 20.54v14c0-8 3.637-15.56 9.898-20.54l137.102-109c17.039-13.539 41.16-13.539 58.18 0zm0 0" fill="#ffac8c"/></svg>