<svg height="682.668" viewBox="0 0 512.001 512.001" width="682.668" xmlns="http://www.w3.org/2000/svg"><path d="M467.297 338.887H44.703C20.016 338.887 0 318.875 0 294.187V44.703C0 20.016 20.016 0 44.703 0h422.594C491.984 0 512 20.016 512 44.703v249.484c0 24.688-20.016 44.7-44.703 44.7zm0 0" fill="#ffefe4"/><path d="M467.297 0H44.703C20.016 0 0 20.016 0 44.703v14C0 34.016 20.016 14 44.703 14h422.594C491.984 14 512 34.016 512 58.703v-14C512 20.016 491.984 0 467.297 0zm0 0" fill="#fff7f2"/><path d="M44.074 60.64h19.07v229.07h-19.07zm42.946 0h33.34v182.907H87.02zm52.414 0h33.214v182.907h-33.214zm76.285 0h19.07v182.907h-19.07zm-30.383 0h19.07v182.907h-19.07zm70.664 0h36.004v182.907H256zm55.074 0h19.07v182.907h-19.07zm38.145 0h42.258v182.907h-42.258zm57.215 0h19.07v182.907h-19.07zm38.14 0h19.07v229.07h-19.07zM120.363 280.176c0 5.265-4.27 9.535-9.539 9.535H96.56c-5.266 0-9.536-4.27-9.536-9.535s4.27-9.535 9.536-9.535h14.265c5.27 0 9.54 4.27 9.54 9.535zm52.347 0c0 5.265-4.269 9.535-9.534 9.535h-14.27c-5.265 0-9.535-4.27-9.535-9.535s4.27-9.535 9.535-9.535h14.27c5.265 0 9.535 4.27 9.535 9.535zm119.294.004c0 5.265-4.274 9.535-9.54 9.535h-87.593c-5.266 0-9.535-4.27-9.535-9.535 0-5.27 4.27-9.54 9.535-9.54h87.594c5.265 0 9.539 4.27 9.539 9.54zm38.144-.004c0 5.265-4.27 9.535-9.535 9.535s-9.539-4.27-9.539-9.535 4.274-9.535 9.54-9.535 9.534 4.27 9.534 9.535zm95.356 0c0 5.265-4.27 9.535-9.535 9.535s-9.535-4.27-9.535-9.535 4.27-9.535 9.535-9.535 9.535 4.27 9.535 9.535zm-34.031.004c0 5.265-4.27 9.535-9.536 9.535h-23.183a9.538 9.538 0 0 1 0-19.075h23.184c5.269 0 9.535 4.27 9.535 9.54zm0 0" fill="#6770e6"/><path d="M502.344 502.344c-12.88 12.875-33.754 12.875-46.63 0L319.29 365.914l46.625-46.625 136.43 136.426c12.875 12.875 12.875 33.75 0 46.629zm0 0" fill="#ff8354"/><path d="M410.285 265.14c0 80.16-64.984 145.145-145.144 145.145S120 345.301 120 265.141 184.98 120 265.14 120s145.145 64.98 145.145 145.14zm0 0" fill="#ff8354"/><path d="M367.773 265.14c0 56.684-45.949 102.633-102.632 102.633-56.68 0-102.63-45.949-102.63-102.632 0-56.68 45.95-102.63 102.63-102.63 56.683 0 102.632 45.95 102.632 102.63zm0 0" fill="#a1f1fc"/><path d="M318.2 322.691c0-12.16-23.74-22.015-53.02-22.015s-53.02 9.855-53.02 22.015c0 12.157 23.738 22.016 53.02 22.016s53.02-9.86 53.02-22.016zm0 0" fill="#5fd4e3"/><path d="M344.45 192.523c3.081 60.993-59.06 115.551-75.391 128.793a6.12 6.12 0 0 1-7.739-.011c-15.898-13.02-75.523-65.754-75.523-124.383 0-43.836 35.531-79.375 79.367-79.379 42.344-.008 77.149 32.691 79.285 74.98zm0 0" fill="#d476e2"/><path d="M265.164 131.207c41.55-.004 75.844 31.488 79.129 72.629.285-3.742.348-7.516.156-11.313-2.137-42.289-36.941-74.988-79.285-74.984-43.832.008-79.363 35.547-79.363 79.383 0 2.328.101 4.644.285 6.953 3.41-40.691 37.508-72.66 79.078-72.668zm0 0" fill="#ea82fa"/><path d="M313.95 196.992c0 26.934-21.837 48.77-48.77 48.77-26.934 0-48.77-21.836-48.77-48.77 0-26.933 21.836-48.77 48.77-48.77 26.933 0 48.77 21.837 48.77 48.77zm0 0" fill="#b665c2"/><path d="M371.348 417.973l84.367 84.37c12.879 12.876 33.754 12.876 46.629 0s12.875-33.75 0-46.628l-84.371-84.367zm0 0" fill="#6770e6"/><path d="M508.98 465.32c-1.59 3.477-3.777 6.746-6.636 9.61-6.418 6.418-14.828 9.632-23.239 9.656v.004h-41.144l17.754 17.754c12.879 12.875 33.754 12.875 46.629 0 10.015-10.016 12.203-24.856 6.636-37.024zm0 0" fill="#5861c7"/></svg>