<svg height="512pt" viewBox="0 0 512 512" width="512pt" xmlns="http://www.w3.org/2000/svg"><path d="M53.96 214.668l92.602 254.418.114-.176a66.984 66.984 0 0 0 1.41 4.36c11.137 30.605 45.031 46.355 75.621 35.082 29.348-10.817 45.238-43.293 35.7-73.079-7.782-24.308-29.65-39.828-53.415-40.902a56.35 56.35 0 0 0-4.875-.008c-11.09-.89-21.25-7.77-25.898-18.527l-79.02-217.102a2.344 2.344 0 0 0-3.008-1.398l-15.05 5.476c-20.996 7.641-31.82 30.86-24.18 51.856zm140.044 212.773c14.2-5.168 29.902 2.157 35.07 16.356 5.172 14.203-2.152 29.906-16.355 35.074-14.2 5.172-29.906-2.152-35.074-16.355-5.168-14.2 2.156-29.903 16.359-35.075zm0 0" fill="#5861c7"/><path d="M78.129 176.672l21.23-7.91c.145-.051.29-.086.434-.11l-3.606-9.914a2.346 2.346 0 0 0-3.007-1.402l-15.051 5.476c-18.715 6.813-29.336 25.993-26.02 44.95 2.418-13.797 11.918-25.957 26.02-31.09zm0 0" fill="#8f95e6"/><path d="M225.715 494.492c15.222-5.039 27.187-14.785 34.558-26.77-4.707 18.126-17.91 33.755-36.566 40.633-30.586 11.27-64.48-4.48-75.617-35.082a61.691 61.691 0 0 1-1.258-3.859c15.797 23.883 48.777 35.05 78.883 25.078zm0 0" fill="#4c53ab"/><path d="M453.855 142c0-32.113 26.032-58.145 58.145-58.145V0H0v83.855c32.113 0 58.145 26.032 58.145 58.145S32.113 200.145 0 200.145V284h512v-83.855c-32.113 0-58.145-26.032-58.145-58.145zm0 0" fill="#69ebfc"/><path d="M0 270h512v14H0zm0 0" fill="#5fd4e3"/><path d="M0 0h512v14H0zm0 0" fill="#a1f1fc"/><path d="M136.613 15.191c8.39 0 15.192-6.8 15.192-15.191h-30.383c0 8.39 6.8 15.191 15.191 15.191zm0 0" fill="#69ebfc"/><path d="M151.805 47.336c0 8.387-6.801 15.191-15.192 15.191s-15.191-6.804-15.191-15.191c0-8.39 6.8-15.195 15.191-15.195s15.192 6.804 15.192 15.195zm0 47.328c0 8.39-6.801 15.195-15.192 15.195s-15.191-6.804-15.191-15.195c0-8.387 6.8-15.191 15.191-15.191s15.192 6.804 15.192 15.191zm0 47.336c0 8.39-6.801 15.191-15.192 15.191s-15.191-6.8-15.191-15.191 6.8-15.191 15.191-15.191 15.192 6.8 15.192 15.191zm0 47.336c0 8.387-6.801 15.191-15.192 15.191s-15.191-6.804-15.191-15.191c0-8.39 6.8-15.195 15.191-15.195s15.192 6.804 15.192 15.195zm0 47.328c0 8.39-6.801 15.195-15.192 15.195s-15.191-6.804-15.191-15.195c0-8.387 6.8-15.191 15.191-15.191s15.192 6.804 15.192 15.191zm0 0" fill="#5fd4e3"/><path d="M211.934 93.566c0-6.039 1.164-11.738 3.496-17.093 2.332-5.348 5.523-10.059 9.586-14.114 4.054-4.054 8.847-7.25 14.37-9.586 5.524-2.328 11.567-3.496 18.134-3.496 6.558 0 12.644 1.164 18.257 3.496 5.61 2.332 10.446 5.532 14.504 9.586 4.055 4.059 7.25 8.766 9.582 14.114 2.332 5.355 3.5 11.054 3.5 17.093 0 6.047-1.168 11.786-3.5 17.227-2.328 5.437-5.527 10.144-9.582 14.113-4.062 3.973-8.894 7.121-14.504 9.453-5.613 2.332-11.699 3.5-18.257 3.5-6.567 0-12.61-1.168-18.133-3.5-5.528-2.328-10.32-5.48-14.371-9.453-4.063-3.969-7.254-8.676-9.586-14.113-2.332-5.441-3.496-11.18-3.496-17.227zm27.71 0c0 5.7 1.727 10.278 5.184 13.727 3.453 3.457 7.68 5.18 12.692 5.18 5.003 0 9.234-1.723 12.687-5.18 3.453-3.45 5.18-8.027 5.18-13.727 0-5.695-1.727-10.27-5.18-13.722-3.453-3.457-7.684-5.184-12.687-5.184-5.012 0-9.239 1.727-12.692 5.184-3.457 3.453-5.183 8.027-5.183 13.722zm12.032 117.2L352.96 59.523c3.785-5.656 11.445-7.168 17.098-3.375 5.648 3.79 7.156 11.438 3.375 17.086L272.148 224.477c-3.789 5.656-11.445 7.168-17.101 3.375-5.645-3.79-7.156-11.438-3.371-17.086zm70.07-20.332c0-6.043 1.164-11.743 3.5-17.094 2.328-5.352 5.524-10.059 9.582-14.117 4.055-4.055 8.848-7.25 14.375-9.582 5.524-2.332 11.567-3.5 18.129-3.5 6.559 0 12.645 1.168 18.262 3.5 5.605 2.328 10.441 5.527 14.5 9.582 4.054 4.062 7.254 8.765 9.586 14.117 2.328 5.351 3.496 11.05 3.496 17.094 0 6.043-1.164 11.785-3.496 17.222-2.332 5.442-5.532 10.145-9.586 14.114-4.059 3.972-8.895 7.125-14.5 9.453-5.617 2.332-11.703 3.496-18.262 3.496-6.562 0-12.605-1.164-18.129-3.496-5.527-2.328-10.32-5.48-14.375-9.453-4.058-3.97-7.25-8.676-9.582-14.114-2.336-5.437-3.5-11.18-3.5-17.222zm27.715 0c0 5.695 1.723 10.273 5.18 13.722 3.453 3.457 7.68 5.184 12.687 5.184s9.238-1.723 12.695-5.184c3.45-3.449 5.18-8.027 5.18-13.722 0-5.7-1.73-10.274-5.18-13.727-3.457-3.453-7.687-5.18-12.695-5.18s-9.234 1.727-12.687 5.18c-3.457 3.453-5.18 8.027-5.18 13.727zm0 0" fill="#d476e2"/><path d="M46.645 508.355c30.585 11.27 64.48-4.48 75.62-35.085a66.519 66.519 0 0 0 1.407-4.36l.113.176 92.602-254.418c7.64-20.996-3.184-44.215-24.184-51.855l-15.05-5.477a2.347 2.347 0 0 0-3.008 1.398L95.129 375.84c-4.649 10.754-14.809 17.637-25.899 18.527a56.353 56.353 0 0 0-4.875.004c-23.765 1.074-45.636 16.598-53.414 40.906-9.539 29.786 6.356 62.262 35.704 73.078zm-5.372-64.558c5.168-14.2 20.872-21.524 35.075-16.356 14.199 5.172 21.523 20.872 16.355 35.075-5.172 14.203-20.875 21.523-35.074 16.355-14.203-5.168-21.527-20.871-16.356-35.074zm0 0" fill="#6770e6"/><path d="M44.656 493.93c-15.218-5.043-27.187-14.79-34.554-26.774 4.707 18.125 17.91 33.754 36.562 40.633 30.59 11.27 64.484-4.48 75.625-35.082a63.429 63.429 0 0 0 1.254-3.86c-15.8 23.883-48.777 35.051-78.887 25.083zm0 0" fill="#5861c7"/><path d="M148.195 351.633c0 7.226-5.86 13.082-13.082 13.082-7.226 0-13.082-5.856-13.082-13.082 0-7.223 5.856-13.082 13.082-13.082 7.223 0 13.082 5.86 13.082 13.082zm0 0" fill="#8f95e6"/></svg>