<svg height="512pt" viewBox="0 0 512.002 512" width="512pt" xmlns="http://www.w3.org/2000/svg"><path d="M447.89 512H45.032C20.161 512 0 491.84 0 466.969V202.672c0-24.867 20.16-45.031 45.031-45.031h402.86c24.87 0 45.03 20.164 45.03 45.03V466.97c0 24.87-20.16 45.031-45.03 45.031zm0 0" fill="#b665c2"/><path d="M425.89 492H45.032C20.161 492 0 471.84 0 446.969V222.672c0-24.867 20.16-45.031 45.031-45.031h380.86c24.87 0 45.03 20.164 45.03 45.03V446.97c0 24.87-20.16 45.031-45.03 45.031zm0 0" fill="#69ebfc"/><path d="M373.602 157.64c0 38.15-30.922 69.07-69.07 69.07-38.145 0-69.071-30.92-69.071-69.07 0-38.144 30.926-69.07 69.07-69.07 38.149 0 69.07 30.926 69.07 69.07zm0 0" fill="#69ebfc"/><path d="M352.352 157.64c0 26.41-21.41 47.82-47.82 47.82s-47.817-21.41-47.817-47.82 21.406-47.816 47.816-47.816 47.82 21.406 47.82 47.817zm0 0" fill="#5fd4e3"/><path d="M301.031 189.309c-4.52-.664-8.543-2.41-12.074-5.246-2.059-1.657-3.77-3.727-5.14-6.223-1.66-3.024-.364-6.828 2.831-8.133 2.54-1.039 5.516-.156 6.938 2.195.453.754.977 1.477 1.57 2.164 1.625 1.903 3.582 3.215 5.875 3.934v-17.184l-.808-.363a41.177 41.177 0 0 1-6.285-2.984c-1.961-1.145-3.68-2.473-5.157-3.98a17.69 17.69 0 0 1-3.527-5.11c-.879-1.902-1.32-4.027-1.32-6.379 0-2.168.394-4.223 1.175-6.152a15.777 15.777 0 0 1 3.399-5.153c1.476-1.507 3.265-2.761 5.383-3.754 2.105-.996 4.484-1.64 7.136-1.945v-3.754a4.025 4.025 0 0 1 4.028-4.027c2.222 0 4.023 1.8 4.023 4.027v3.934c2.414.36 4.516.996 6.29 1.902a21.666 21.666 0 0 1 4.616 3.121c.504.446.993.98 1.454 1.555 2.285 2.86 1.12 7.137-2.22 8.629-2.292 1.023-4.929.383-6.613-1.477-.886-.972-2.05-1.93-3.527-2.605v16.191c2.602 1.09 4.945 2.203 7.059 3.352 2.11 1.144 3.918 2.441 5.426 3.89a14.722 14.722 0 0 1 3.433 4.926c.793 1.844 1.18 3.969 1.18 6.38 0 2.714-.469 5.128-1.399 7.233-.937 2.114-2.183 3.922-3.757 5.426-1.57 1.512-3.391 2.719-5.47 3.625a27.045 27.045 0 0 1-6.472 1.895v3.933c0 2.227-1.8 4.028-4.027 4.028a4.024 4.024 0 0 1-4.024-4.028v-3.843zm-5.96-47.313c0 1.45.464 2.7 1.394 3.754.941 1.059 2.46 2.133 4.566 3.215v-13.207c-1.808.484-3.246 1.265-4.336 2.347-1.09 1.09-1.625 2.387-1.625 3.891zm19.538 29.133c0-1.57-.421-2.867-1.273-3.89-.844-1.028-2.258-2.052-4.25-3.079v13.836c1.633-.539 2.957-1.398 3.984-2.578 1.02-1.172 1.54-2.606 1.54-4.29zm0 0" fill="#a1f1fc"/><path d="M304.531 98.57c36.465 0 66.309 28.262 68.871 64.07.118-1.652.2-3.316.2-5 0-38.144-30.922-69.07-69.07-69.07-38.145 0-69.071 30.926-69.071 69.07 0 1.684.082 3.348.2 5 2.566-35.808 32.405-64.07 68.87-64.07zm0 0" fill="#a1f1fc"/><path d="M403.89 512H45.032C20.161 512 0 491.84 0 466.969V202.672c0-24.867 20.16-45.031 45.031-45.031h358.86c24.87 0 45.03 20.164 45.03 45.03V466.97c0 24.87-20.16 45.031-45.03 45.031zm0 0" fill="#d476e2"/><path d="M403.89 157.64H45.032C20.161 157.64 0 177.806 0 202.673v14c0-24.867 20.16-45.031 45.031-45.031h358.86c24.87 0 45.03 20.164 45.03 45.03v-14c0-24.866-20.16-45.03-45.03-45.03zm0 0" fill="#ea82fa"/><path d="M45.031 512h358.86c24.87 0 45.03-20.16 45.03-45.031v-14c0 24.87-20.16 45.031-45.03 45.031H45.03C20.161 498 0 477.84 0 452.969v14C0 491.839 20.16 512 45.031 512zm0 0" fill="#b665c2"/><path d="M409.133 389.336h78.297c13.57 0 24.574-11 24.574-24.574v-59.883c0-13.57-11.004-24.574-24.574-24.574h-78.297c-30.11 0-54.516 24.41-54.516 54.515 0 30.11 24.406 54.516 54.516 54.516zm0 0" fill="#ea82fa"/><path d="M438.762 334.82c0 17.797-14.426 32.22-32.223 32.22-17.793 0-32.219-14.423-32.219-32.22 0-17.793 14.426-32.218 32.22-32.218 17.796 0 32.222 14.425 32.222 32.218zM222.64 69.07c0 38.149-30.925 69.07-69.07 69.07-38.148 0-69.07-30.921-69.07-69.07C84.5 30.926 115.422 0 153.57 0c38.145 0 69.07 30.926 69.07 69.07zm0 0" fill="#69ebfc"/><path d="M153.57 10c36.465 0 66.305 28.262 68.871 64.07.118-1.652.2-3.316.2-5C222.64 30.926 191.715 0 153.57 0 115.425 0 84.5 30.926 84.5 69.07c0 1.684.082 3.348.2 5C87.265 38.262 117.104 10 153.57 10zm0 0" fill="#a1f1fc"/><path d="M201.387 69.07c0 26.41-21.407 47.82-47.817 47.82s-47.816-21.41-47.816-47.82 21.406-47.816 47.816-47.816c26.41 0 47.817 21.406 47.817 47.816zm0 0" fill="#5fd4e3"/><path d="M150.07 100.738c-4.52-.664-8.543-2.41-12.074-5.246-2.055-1.656-3.77-3.726-5.137-6.222-1.66-3.024-.367-6.829 2.828-8.133 2.54-1.04 5.52-.157 6.938 2.195.453.754.98 1.477 1.57 2.164 1.625 1.902 3.582 3.215 5.875 3.934V72.246l-.808-.363a41.177 41.177 0 0 1-6.285-2.985c-1.957-1.144-3.68-2.472-5.157-3.98a17.713 17.713 0 0 1-3.527-5.11c-.879-1.902-1.32-4.027-1.32-6.378 0-2.168.398-4.22 1.175-6.153a15.881 15.881 0 0 1 3.399-5.152c1.476-1.508 3.266-2.762 5.383-3.754 2.11-.996 4.484-1.64 7.136-1.945v-3.754c0-2.223 1.805-4.024 4.028-4.024s4.027 1.801 4.027 4.024v3.933c2.414.364 4.512.997 6.285 1.903a21.822 21.822 0 0 1 4.617 3.125c.504.445.993.976 1.454 1.554 2.285 2.86 1.125 7.137-2.22 8.63-2.292 1.019-4.929.378-6.612-1.477a10.766 10.766 0 0 0-3.528-2.606v16.192a78.116 78.116 0 0 1 7.063 3.347c2.105 1.149 3.914 2.446 5.425 3.891 1.508 1.445 2.653 3.09 3.434 4.926.79 1.844 1.176 3.969 1.176 6.383 0 2.71-.469 5.125-1.399 7.234-.937 2.113-2.183 3.922-3.757 5.426a18.284 18.284 0 0 1-5.47 3.62 27.002 27.002 0 0 1-6.472 1.9v3.933c0 2.223-1.8 4.023-4.023 4.023a4.024 4.024 0 0 1-4.028-4.023v-3.848zm-5.96-47.312c0 1.449.464 2.703 1.398 3.754.937 1.058 2.457 2.132 4.562 3.215V47.187c-1.804.485-3.246 1.266-4.336 2.348-1.09 1.094-1.625 2.387-1.625 3.89zm19.535 29.133c0-1.57-.422-2.868-1.274-3.891-.84-1.027-2.254-2.05-4.25-3.078v13.836c1.637-.54 2.961-1.399 3.988-2.578 1.02-1.172 1.536-2.606 1.536-4.29zm0 0" fill="#a1f1fc"/></svg>