<svg height="512pt" viewBox="0 0 512.003 512" width="512pt" xmlns="http://www.w3.org/2000/svg"><path d="M489.203 219.586a22.65 22.65 0 0 1-13.437-4.402L261.609 58.3a9.495 9.495 0 0 0-11.218 0L36.238 215.184c-10.148 7.433-24.402 5.234-31.832-4.914-7.436-10.15-5.234-24.4 4.914-31.833l241.07-176.6a9.495 9.495 0 0 1 11.22 0l241.074 176.601c10.148 7.434 12.347 21.684 4.914 31.833-4.465 6.09-11.383 9.316-18.395 9.316zm0 0" fill="#ff8354"/><path d="M9.32 192.438L250.39 15.835a9.495 9.495 0 0 1 11.22 0l241.07 176.601a22.631 22.631 0 0 1 8.199 11.391c2.95-9.094-.063-19.433-8.2-25.39L261.61 1.835a9.495 9.495 0 0 0-11.218 0L9.32 178.437c-8.137 5.958-11.15 16.297-8.2 25.391a22.631 22.631 0 0 1 8.2-11.39zm0 0" fill="#ffac8c"/><path d="M183.887 107.02V512h48.074V71.8zm0 0" fill="#fff7f2"/><path d="M261.61 58.3a9.495 9.495 0 0 0-11.22 0l-18.43 13.5V512h48.08V71.8zm0 0" fill="#ffefe4"/><path d="M280.04 71.8V512h48.073V107.02zm0 0" fill="#fff7f2"/><path d="M328.113 107.02V512h48.074V142.238zm0 0" fill="#ffefe4"/><path d="M376.188 142.238V512h48.074V177.457zm0 0" fill="#fff7f2"/><path d="M424.262 512h48.078V212.676l-48.078-35.219zm0 0" fill="#ffefe4"/><path d="M87.738 177.457V512h48.075V142.238zm0 0" fill="#fff7f2"/><path d="M39.664 212.676V512h48.074V177.457zm96.149-70.438V512h48.074V107.02zm0 0" fill="#ffefe4"/><path d="M100.125 270.336h311.75V512h-311.75zm0 0" fill="#69ebfc"/><path d="M411.875 270.336h-311.75v-26.938c0-5.882 4.77-10.652 10.652-10.652h290.446c5.882 0 10.652 4.77 10.652 10.652zm0 0" fill="#ff8354"/><path d="M39.664 498h60.461v14h-60.46zm372.211 0h60.465v14h-60.465zm0 0" fill="#edd4c2"/><path d="M100.125 498h64.781v14h-64.781zm246.973 0h64.777v14h-64.777zm0 0" fill="#5fd4e3"/><path d="M164.902 420.879H256v91.098h-91.098zm0 0" fill="#6770e6"/><path d="M256 420.879h91.098v91.098H256zm0 0" fill="#5861c7"/><path d="M210.453 329.785h91.098v91.098h-91.098zm0 0" fill="#8f95e6"/><path d="M165.273 498H256v14h-90.727zm0 0" fill="#5861c7"/><path d="M256.184 498h90.73v14h-90.73zm0 0" fill="#5058b5"/></svg>