<svg height="512pt" viewBox="0 0 512 512" width="512pt" xmlns="http://www.w3.org/2000/svg"><path d="M497.77 395.148H14.23c-7.859 0-14.23-6.37-14.23-14.234V14.23C0 6.371 6.371 0 14.23 0h483.536c7.859 0 14.23 6.371 14.23 14.23v366.684c.004 7.863-6.367 14.234-14.226 14.234zm0 0" fill="#6770e6"/><path d="M497.77 0H14.23C6.371 0 0 6.371 0 14.23v14C0 20.371 6.371 14 14.23 14h483.54c7.859 0 14.23 6.371 14.23 14.23v-14C512 6.371 505.629 0 497.77 0zm0 0" fill="#8f95e6"/><path d="M30 350.914V49.191C30 38.594 38.594 30 49.191 30H462.81C473.406 30 482 38.594 482 49.191v301.723c0 7.863-6.371 14.234-14.23 14.234H44.23c-7.859 0-14.23-6.37-14.23-14.234zm0 0" fill="#ffefe4"/><path d="M386.602 351.352h-269c-9.047 0-16.383-7.336-16.383-16.383s7.336-16.383 16.383-16.383h269c9.046 0 16.382 7.336 16.382 16.383s-7.336 16.383-16.382 16.383zm0 0" fill="#edd4c2"/><path d="M128.973 159.238v175.973h84.683V159.238a8.133 8.133 0 0 0-8.133-8.136H137.11a8.134 8.134 0 0 0-8.136 8.136zm0 0" fill="#6770e6"/><path d="M213.656 205.71v129.5h84.688v-129.5a8.134 8.134 0 0 0-8.137-8.136h-68.414a8.136 8.136 0 0 0-8.137 8.137zm0 0" fill="#d476e2"/><path d="M298.344 335.21h84.683V120.907a8.133 8.133 0 0 0-8.136-8.133h-68.414a8.132 8.132 0 0 0-8.133 8.133zm0 0" fill="#69ebfc"/><path d="M196.277 395.148h121.895v76.872H196.277zm0 0" fill="#5861c7"/><path d="M375.809 512H139.207c-11.039 0-19.988-8.95-19.988-19.988 0-11.043 8.949-19.992 19.988-19.992h236.602c11.043 0 19.992 8.949 19.992 19.992 0 11.039-8.95 19.988-19.992 19.988zm0 0" fill="#6770e6"/><path d="M375.809 498H139.207c-8.574 0-15.863-5.406-18.703-12.988a19.814 19.814 0 0 0-1.29 7c0 11.039 8.95 19.988 19.993 19.988h236.602c11.039 0 19.988-8.95 19.988-19.988a19.9 19.9 0 0 0-1.285-7c-2.836 7.582-10.13 12.988-18.703 12.988zm0 0" fill="#5861c7"/><path d="M462.809 30H49.19C38.594 30 30 38.594 30 49.191v25.102h452V49.191C482 38.594 473.406 30 462.809 30zm0 0" fill="#d476e2"/><path d="M71.71 52.145c0 5.996-4.858 10.859-10.855 10.859C54.86 63.004 50 58.14 50 52.144c0-5.992 4.86-10.855 10.855-10.855 5.997 0 10.856 4.863 10.856 10.856zm41.716 0c0 5.996-4.86 10.859-10.856 10.859-5.996 0-10.855-4.863-10.855-10.86 0-5.992 4.86-10.855 10.855-10.855 5.996 0 10.856 4.863 10.856 10.856zm40.648 0c0 5.996-4.86 10.859-10.855 10.859s-10.856-4.863-10.856-10.86c0-5.992 4.86-10.855 10.856-10.855s10.855 4.863 10.855 10.856zm0 0" fill="#b665c2"/><path d="M504.93 504.953c-9.395 9.395-24.63 9.395-34.024 0l-99.531-99.531 34.02-34.024 99.535 99.54c9.39 9.39 9.39 24.62 0 34.015zm0 0" fill="#ff8354"/><path d="M437.762 331.895c0 58.484-47.41 105.894-105.895 105.894-58.484 0-105.894-47.41-105.894-105.894S273.383 226 331.867 226c58.485 0 105.895 47.41 105.895 105.895zm0 0" fill="#ff8354"/><path d="M406.746 331.895c0 41.351-33.523 74.878-74.879 74.878-41.351 0-74.879-33.527-74.879-74.878 0-41.356 33.528-74.88 74.88-74.88 41.355 0 74.878 33.524 74.878 74.88zm0 0" fill="#a1f1fc"/><path d="M409.355 443.398l61.551 61.555c9.395 9.395 24.63 9.395 34.024 0 9.39-9.394 9.39-24.625 0-34.02l-61.555-61.554zm0 0" fill="#6770e6"/><path d="M509.773 477.945a23.973 23.973 0 0 1-4.843 7.008c-4.684 4.684-10.817 7.027-16.957 7.043V492h-30.02l12.953 12.953c9.395 9.395 24.63 9.395 34.024 0 7.304-7.305 8.902-18.133 4.843-27.008zm0 0" fill="#5861c7"/></svg>