<svg height="512pt" viewBox="0 0 512 512" width="512pt" xmlns="http://www.w3.org/2000/svg"><path d="M25.371 512h399.254c14.012 0 25.371-11.36 25.371-25.371V52.793c0-14.012-11.36-25.371-25.371-25.371H25.371C11.36 27.422 0 38.782 0 52.793v433.836C0 500.64 11.36 512 25.371 512zm0 0" fill="#ffefe4"/><path d="M424.629 27.422H25.37C11.36 27.422 0 38.782 0 52.793v10.625c0-14.016 11.36-25.375 25.371-25.375H424.63c14.012 0 25.371 11.36 25.371 25.375V52.793c0-14.012-11.36-25.371-25.371-25.371zm0 0" fill="#fff7f2"/><path d="M424.629 490.758H25.37C11.36 490.758 0 479.395 0 465.383v21.242C0 500.641 11.36 512 25.371 512H424.63c14.01 0 25.37-11.36 25.37-25.371v-21.246c0 14.012-11.36 25.375-25.371 25.375zm0 0" fill="#edd4c2"/><path d="M359.813 340.45H159.108c-5.8 0-10.496-4.7-10.496-10.497s4.7-10.496 10.496-10.496h200.703c5.797 0 10.497 4.7 10.497 10.496s-4.7 10.496-10.497 10.496zm0 84.6H159.108c-5.8 0-10.496-4.698-10.496-10.495 0-5.797 4.7-10.496 10.496-10.496h200.703c5.797 0 10.497 4.699 10.497 10.496 0 5.797-4.7 10.496-10.497 10.496zm0 0" fill="#6770e6"/><path d="M66.855 52.898c0 6.336-5.136 11.477-11.476 11.477-6.336 0-11.477-5.14-11.477-11.477 0-6.34 5.141-11.476 11.477-11.476 6.34 0 11.476 5.137 11.476 11.476zm0 0" fill="#edd4c2"/><path d="M55.379 56.086a6.883 6.883 0 0 1-6.883-6.883V6.883a6.883 6.883 0 0 1 13.766 0v42.32a6.88 6.88 0 0 1-6.883 6.883zm0 0" fill="#6770e6"/><path d="M55.379 0a6.883 6.883 0 0 0-6.883 6.883v10.62a6.883 6.883 0 0 1 13.766 0V6.884A6.88 6.88 0 0 0 55.379 0zm0 0" fill="#8f95e6"/><path d="M151.664 52.898c0 6.336-5.137 11.477-11.473 11.477-6.34 0-11.476-5.14-11.476-11.477 0-6.34 5.137-11.476 11.476-11.476 6.336 0 11.473 5.137 11.473 11.476zm0 0" fill="#edd4c2"/><path d="M140.191 56.086a6.883 6.883 0 0 1-6.882-6.883V6.883A6.883 6.883 0 0 1 140.191 0a6.883 6.883 0 0 1 6.88 6.883v42.32a6.88 6.88 0 0 1-6.88 6.883zm0 0" fill="#6770e6"/><path d="M140.191 0a6.883 6.883 0 0 0-6.882 6.883v10.62a6.88 6.88 0 1 1 13.761 0V6.884a6.883 6.883 0 0 0-6.879-6.883zm0 0" fill="#8f95e6"/><path d="M321.285 52.898c0 6.336-5.137 11.477-11.476 11.477-6.336 0-11.473-5.14-11.473-11.477 0-6.34 5.137-11.476 11.473-11.476 6.34 0 11.476 5.137 11.476 11.476zm0 0" fill="#edd4c2"/><path d="M309.809 56.086a6.883 6.883 0 0 1-6.88-6.883V6.883A6.883 6.883 0 0 1 309.809 0c3.8 0 6.882 3.082 6.882 6.883v42.32c0 3.8-3.082 6.883-6.882 6.883zm0 0" fill="#6770e6"/><path d="M309.809 0a6.883 6.883 0 0 0-6.88 6.883v10.62a6.88 6.88 0 1 1 13.762 0V6.884a6.883 6.883 0 0 0-6.882-6.883zm0 0" fill="#8f95e6"/><path d="M236.477 52.898c0 6.336-5.137 11.477-11.477 11.477s-11.477-5.14-11.477-11.477c0-6.34 5.137-11.476 11.477-11.476s11.477 5.137 11.477 11.476zm0 0" fill="#edd4c2"/><path d="M225 56.086a6.883 6.883 0 0 1-6.883-6.883V6.883a6.883 6.883 0 0 1 13.766 0v42.32c0 3.8-3.082 6.883-6.883 6.883zm0 0" fill="#6770e6"/><path d="M225 0a6.883 6.883 0 0 0-6.883 6.883v10.62a6.883 6.883 0 0 1 13.766 0V6.884A6.884 6.884 0 0 0 225 0zm0 0" fill="#8f95e6"/><path d="M406.098 52.898c0 6.336-5.141 11.477-11.477 11.477-6.34 0-11.476-5.14-11.476-11.477 0-6.34 5.136-11.476 11.476-11.476 6.336 0 11.477 5.137 11.477 11.476zm0 0" fill="#edd4c2"/><path d="M394.621 56.086a6.883 6.883 0 0 1-6.883-6.883V6.883a6.883 6.883 0 0 1 13.766 0v42.32c0 3.8-3.082 6.883-6.883 6.883zm0 0" fill="#6770e6"/><path d="M394.617 0a6.883 6.883 0 0 0-6.883 6.883v10.62a6.883 6.883 0 0 1 13.766 0V6.884A6.878 6.878 0 0 0 394.617 0zm0 0" fill="#8f95e6"/><path d="M512 454.984h-45.273V140.926H512zm0 0" fill="#ff8354"/><path d="M512 466.652h-45.273v-11.664H512zm0 0" fill="#ffefe4"/><path d="M466.727 466.648H512v22.715C512 501.867 501.867 512 489.363 512c-12.5 0-22.636-10.133-22.636-22.637zm0 0" fill="#6770e6"/><path d="M489.363 492c-12.5 0-22.636-10.133-22.636-22.637v20c0 12.504 10.136 22.637 22.636 22.637C501.867 512 512 501.867 512 489.363v-20C512 481.867 501.867 492 489.363 492zm0 0" fill="#5861c7"/><path d="M466.727 140.906l20.964-58.492c.563-1.57 2.782-1.57 3.344 0L512 140.906zm0 0" fill="#edd4c2"/><path d="M478.043 109.328h22.637l-9.645-26.914c-.562-1.57-2.785-1.57-3.347 0zm0 0" fill="#5861c7"/><path d="M478.043 109.328h22.637l-9.645-26.914c-.562-1.57-2.785-1.57-3.347 0zm0 0" fill="#5861c7"/><path d="M486.883 92.414c.836-1.57 4.125-1.57 4.957 0l8.558 16.121-9.363-26.12c-.562-1.571-2.781-1.571-3.344 0l-9.359 26.112zm0 0" fill="#8f95e6"/><path d="M100.395 329.95c0 5.796-4.7 10.495-10.497 10.495-5.796 0-10.496-4.699-10.496-10.496s4.7-10.496 10.496-10.496c5.797 0 10.497 4.7 10.497 10.496zm0 84.605c0 5.797-4.7 10.496-10.497 10.496-5.796 0-10.496-4.7-10.496-10.496 0-5.797 4.7-10.496 10.496-10.496 5.797 0 10.497 4.699 10.497 10.496zm0 0" fill="#6770e6"/><path d="M186.934 115.082c27.046-.281 38.05 17.969 38.05 17.969s10.637-17.692 37.688-17.969c27.047-.281 47.476 22.363 47.7 43.461.218 21.094-2.907 36.207-41.845 69.355-13.672 11.641-25.164 19.91-32.691 24.97a17.474 17.474 0 0 1-19.215.198c-7.633-4.902-19.293-12.933-33.203-24.285-39.617-32.336-43.055-47.379-43.273-68.476-.215-21.094 19.742-44.946 46.789-45.223zm0 0" fill="#ff8354"/><path d="M330.93 215.297c0 22.394-18.157 40.55-40.551 40.55-22.395 0-40.547-18.156-40.547-40.55s18.152-40.547 40.547-40.547c22.394 0 40.55 18.152 40.55 40.547zm0 0" fill="#d476e2"/><path d="M307.531 208.02h-9.875v-9.875a7.277 7.277 0 0 0-7.277-7.278 7.277 7.277 0 0 0-7.277 7.278v9.875h-9.875a7.28 7.28 0 0 0 0 14.559h9.875v9.87a7.277 7.277 0 0 0 7.277 7.278 7.277 7.277 0 0 0 7.277-7.278v-9.87h9.875a7.28 7.28 0 0 0 0-14.56zm0 0" fill="#fff7f2"/></svg>