<svg height="512pt" viewBox="0 0 512 512" width="512pt" xmlns="http://www.w3.org/2000/svg"><path d="M112.86 0h286.124v197.613H112.86zm0 0" fill="#b665c2"/><path d="M112.86 0h286.124v14H112.86zm0 0" fill="#d476e2"/><path d="M512 19.8V512H0V19.8L92.441 3.579 112.86 0v37.04c0 79.054 64.086 143.14 143.141 143.14s143.14-64.086 143.14-143.14V.2zm0 0" fill="#d476e2"/><path d="M0 498h512v14H0zm0 0" fill="#b665c2"/><path d="M112.86 14V0L92.44 3.578 0 19.801v14l92.441-16.223zM399.14.2v14L512 33.8v-14zm0 0" fill="#ea82fa"/><path d="M280.844 333.676c0 13.238-10.73 23.969-23.969 23.969s-23.973-10.73-23.973-23.97 10.735-23.972 23.973-23.972 23.969 10.735 23.969 23.973zm0 105.801c0 13.238-10.73 23.968-23.969 23.968s-23.973-10.73-23.973-23.968c0-13.239 10.735-23.97 23.973-23.97s23.969 10.731 23.969 23.97zM92.441 3.578L18.301 16.59c.347 42.375 8.426 101.594 44.488 145.984C143.656 262.13 256 180.18 256 180.18c-79.055 0-143.14-64.086-143.14-143.14V0zm0 0" fill="#69ebfc"/><path d="M18.7 30.52l73.74-12.942L112.86 14V0L92.441 3.578 18.301 16.59c.039 4.465.164 9.125.398 13.93zm0 0" fill="#a1f1fc"/><path d="M419.559 3.578l74.14 13.012c-.347 42.375-8.426 101.594-44.488 145.984C368.344 262.13 256 180.18 256 180.18c79.055 0 143.14-64.086 143.14-143.14V0zm0 0" fill="#69ebfc"/><path d="M493.7 16.621L399.14.2v14l94.16 16.352c.231-4.801.36-9.461.4-13.93zm0 0" fill="#a1f1fc"/><path d="M340.344 201.129c-20.871-15.848-68.2-22.113-84.344-12.125-16.148-9.988-63.473-3.723-84.344 12.125-14.441 10.969-17.683 26.195-8.89 41.781 6.367 11.293 16.558 17.38 28.933 17.38a39.3 39.3 0 0 0 3.156-.13c11.602-.937 24.211-7.097 35.368-15.297-9.172 20.14-21.907 42.293-37.875 56.106-4.18 3.613-4.637 9.93-1.028 14.105a9.98 9.98 0 0 0 7.57 3.457c2.317 0 4.645-.8 6.54-2.433 24.484-21.176 41.664-57.54 51.449-83.067 9.785 25.531 26.965 61.89 51.45 83.067a9.97 9.97 0 0 0 6.538 2.433 9.981 9.981 0 0 0 7.567-3.457c3.613-4.176 3.156-10.492-1.024-14.105-15.453-13.364-27.894-34.598-37.008-54.239 10.485 7.254 22.043 12.567 32.746 13.43 1.067.086 2.122.13 3.157.13 12.375 0 22.566-6.09 28.933-17.38 8.79-15.586 5.547-30.812-8.894-41.781zM195.832 239.87c-7.48 1.422-12.164-.61-15.648-6.785-3.79-6.719-2.336-10.375 1.015-13.797 10.192-10.406 36.52-15.094 52.442-15.094 2.957 0 5.55.164 7.62.48-5.8 10.407-27.495 31.79-45.429 35.196zm135.984-6.785c-3.484 6.176-8.164 8.203-15.648 6.781-17.934-3.406-39.629-24.789-45.43-35.195 13.219-2.02 47.98 2.277 60.063 14.613 3.351 3.422 4.804 7.078 1.015 13.8zm0 0" fill="#5fd4e3"/><path d="M280.844 201.613c0 13.239-10.73 23.973-23.969 23.973s-23.973-10.734-23.973-23.973 10.735-23.968 23.973-23.968 23.969 10.73 23.969 23.968zm0 0" fill="#69ebfc"/></svg>