<svg height="512pt" viewBox="0 0 512 512" width="512pt" xmlns="http://www.w3.org/2000/svg"><path d="M62.863 0S56 141.695 32.02 231.625c-12.77 47.887 0 82.848 15.421 81.086 15.422-1.762 140.805 41.086 172.032 84.55 31.222 43.462 59.957 91.348 117.418 91.348s152.89-30.27 152.89-30.27 11.7-39.472-16.64-39.472-60.88-4.375-95.516-21.605c-34.64-17.23-108.152-135.434-114.43-152.957-6.28-17.524-15.191-38.653-13.36-115.207C251.666 52.543 263.192 0 263.192 0zm0 0" fill="#ffefe4"/><path d="M260.55 14c1.555-9.047 2.641-14 2.641-14H62.863s-.25 5.113-.812 14zm0 0" fill="#fff7f2"/><path d="M12.762 316.676s11.449 23.86 13.36 73.484C28.026 439.785 29.936 512 29.936 512h23.86s-3.82-119.93 0-145.7c3.816-25.765 59.168-18.128 59.168-18.128l-50.102-37.223zm0 0" fill="#e0734a"/><path d="M8.844 316.188c1.914 5.136 6.426 8.84 11.8 9.898 15.368 3.023 51.415 11.426 92.32 30.086 54.4 24.812 119.294 87.797 150.786 117.383 31.492 29.586 48.672 38.175 81.117 38.175 32.445 0 167.133-17.183 167.133-17.183v-38.535s-143.383 15-170.95 18.129c-41.987 4.773-97.34-83.301-146.964-114.793-49.629-31.493-112.613-54.399-130.746-66.805-18.133-12.406-17.18-89.434-5.727-117.11C69.066 147.759 0 210.747 0 249.876c0 31.246 3.879 52.988 8.844 66.313zm0 0" fill="#ff8354"/><path d="M263.75 459.55c-31.492-29.581-96.387-92.57-150.785-117.382-40.906-18.656-76.953-27.063-92.32-30.086-5.38-1.059-9.891-4.762-11.805-9.898C4.465 290.44.938 272.148.16 246.578a37.984 37.984 0 0 0-.16 3.297c0 31.246 3.879 52.988 8.844 66.312 1.914 5.137 6.426 8.84 11.8 9.899 15.368 3.023 51.415 11.43 92.32 30.086 54.4 24.812 119.294 87.797 150.79 117.383 31.492 29.586 48.668 38.175 81.117 38.175 32.445 0 167.129-17.183 167.129-17.183v-14s-134.684 17.18-167.133 17.18c-32.445 0-49.625-8.59-81.117-38.176zm0 0" fill="#e0734a"/><path d="M372.543 477.008l17.344-71.028c1.492-6.109 7.64-9.863 13.758-8.402l21.718 5.195c6.14 1.465 9.926 7.637 8.453 13.778l-14.507 60.457zm0 0" fill="#ff8354"/><path d="M425.363 402.77l-21.718-5.196c-6.114-1.46-12.266 2.293-13.758 8.403l-2.258 9.25c2.879-3.125 7.465-4.676 12.035-3.653l23.129 5.196c4.566 1.023 7.898 4.343 8.969 8.34l2.054-8.563c1.473-6.137-2.312-12.309-8.453-13.777zm0 0" fill="#ffac8c"/><path d="M260.648 208.71L51.36 176.743c-6.37-.972-10.746-6.926-9.773-13.297l2.516-16.468c.972-6.372 6.925-10.747 13.296-9.774l209.29 31.969c6.37.973 10.746 6.926 9.773 13.297l-2.516 16.469c-.972 6.37-6.925 10.75-13.297 9.773zm0 0" fill="#ff8354"/><path d="M44.234 160.977c.973-6.372 6.922-10.747 13.29-9.774l209.167 31.969c3.91.598 7.059 3.074 8.688 6.367l1.082-7.07c.973-6.367-3.402-12.324-9.773-13.297l-209.29-31.969c-6.37-.973-12.324 3.402-13.296 9.774l-2.516 16.472c-.39 2.54.086 5.004 1.184 7.121zm0 0" fill="#ffac8c"/><path d="M167.906 214.543a20.59 20.59 0 0 1-3.082-.234l-38.586-5.895a20.003 20.003 0 0 1-13.183-7.976c-3.184-4.336-4.493-9.649-3.676-14.965l6-39.282a19.985 19.985 0 0 1 7.98-13.18 19.963 19.963 0 0 1 14.961-3.679l38.586 5.89c5.317.817 10 3.65 13.184 7.981a19.994 19.994 0 0 1 3.68 14.965l-6 39.281a20.015 20.015 0 0 1-7.98 13.18c-3.497 2.566-7.626 3.914-11.884 3.914zm-32.61-65.441l-6.148 39.39 38.7 6.043c.058.008.136-.039.148-.11l6-39.28zm0 0" fill="#d476e2"/><path d="M120.426 147.012c4.511-3.188 10.043-4.496 15.586-3.68l40.183 5.89c5.54.817 10.414 3.65 13.73 7.981a19.942 19.942 0 0 1 3.09 5.871l.75-4.906a20.008 20.008 0 0 0-3.675-14.965 20.032 20.032 0 0 0-13.184-7.98l-38.586-5.891c-5.32-.816-10.629.492-14.965 3.68a20.015 20.015 0 0 0-7.98 13.18l-1.207 7.906a20.239 20.239 0 0 1 6.258-7.086zm76.426 41.438c-.485 0-.973-.036-1.461-.106l-35.598-5.215c-5.465-.8-9.246-5.875-8.445-11.34.8-5.469 5.875-9.25 11.343-8.445l35.594 5.21c5.465.801 9.246 5.88 8.445 11.34-.726 4.977-5 8.555-9.878 8.555zm0 0" fill="#ea82fa"/><path d="M233.855 183.031a7.194 7.194 0 0 1-14.386 0 7.194 7.194 0 0 1 14.387 0zm29.336 4.317c0 3.972-3.218 7.191-7.191 7.191s-7.191-3.219-7.191-7.191 3.218-7.192 7.191-7.192 7.191 3.219 7.191 7.192zm0 0" fill="#e0734a"/><path d="M29.555 498c.242 8.688.382 14 .382 14h23.86s-.172-5.344-.402-14zm0 0" fill="#c26440"/></svg>