<svg height="512pt" viewBox="0 0 512 512" width="512pt" xmlns="http://www.w3.org/2000/svg"><path d="M347.457 461.3H41.473c-12.188 0-22.067-9.878-22.067-22.066V199.328h328.051zm0 0" fill="#5861c7"/><path d="M347.457 461.3h142.48c12.184 0 22.063-9.878 22.063-22.066v-63.601a22.06 22.06 0 0 0-1.906-8.977L460.105 254.43a22.072 22.072 0 0 0-20.156-13.086h-92.488V461.3zm0 0" fill="#d476e2"/><path d="M463.387 261.805h-82.422c-6.211 0-11.25 5.035-11.25 11.246v80.09c0 6.214 5.039 11.25 11.25 11.25h128.113zm35.801 165.047H512V387.82h-12.813c-10.78 0-19.515 8.739-19.515 19.516 0 10.777 8.734 19.516 19.515 19.516zm-466.965 0H19.41V387.82h12.813c10.78 0 19.515 8.739 19.515 19.516 0 10.777-8.738 19.516-19.515 19.516zm0 0" fill="#69ebfc"/><path d="M167.11 461.3c0 28-22.7 50.7-50.704 50.7-28 0-50.699-22.7-50.699-50.7s22.7-50.698 50.7-50.698c28.003 0 50.702 22.699 50.702 50.699zm0 0" fill="#339"/><path d="M142.543 461.3c0 14.434-11.703 26.134-26.137 26.134s-26.133-11.7-26.133-26.133c0-14.434 11.7-26.137 26.133-26.137s26.137 11.703 26.137 26.137zm0 0" fill="#6770e6"/><path d="M471.117 461.3c0 28-22.699 50.7-50.703 50.7-28 0-50.7-22.7-50.7-50.7s22.7-50.698 50.7-50.698c28.004 0 50.703 22.699 50.703 50.699zm0 0" fill="#339"/><path d="M116.406 500c-25.969 0-47.363-19.531-50.332-44.7a51.548 51.548 0 0 0-.367 6c0 28 22.7 50.7 50.7 50.7s50.702-22.7 50.702-50.7c0-2.03-.136-4.03-.367-6-2.969 25.169-24.363 44.7-50.336 44.7zm304.008 0c-25.969 0-47.363-19.531-50.332-44.7a51.548 51.548 0 0 0-.367 6c0 28 22.7 50.7 50.7 50.7s50.702-22.7 50.702-50.7c0-2.03-.137-4.03-.367-6-2.969 25.169-24.363 44.7-50.336 44.7zm0 0" fill="#29297a"/><path d="M446.55 461.3c0 14.434-11.702 26.134-26.136 26.134-14.43 0-26.133-11.7-26.133-26.133 0-14.434 11.703-26.137 26.133-26.137 14.434 0 26.137 11.703 26.137 26.137zm-95.323-326.34H15.64C7.004 134.96 0 141.966 0 150.606v33.083c0 8.636 7.004 15.64 15.64 15.64h335.587c8.636 0 15.64-7.004 15.64-15.64v-33.083c0-8.64-7.004-15.644-15.64-15.644zm0 0" fill="#6770e6"/><path d="M351.227 134.96H15.64C7.004 134.96 0 141.966 0 150.606v15.833c0-8.641 7.004-15.645 15.64-15.645h335.587c8.636 0 15.64 7.004 15.64 15.644v-15.832c0-8.64-7.004-15.644-15.64-15.644zm0 0" fill="#8f95e6"/><path d="M242.594 266.422H124.277c-8.5 0-15.394-6.895-15.394-15.395s6.894-15.39 15.394-15.39h118.317c8.5 0 15.39 6.89 15.39 15.39 0 8.504-6.89 15.395-15.39 15.395zm0 0" fill="#339"/><path d="M227.23 113.617c0 62.746-50.867 113.613-113.613 113.613C50.867 227.23 0 176.363 0 113.617 0 50.867 50.867 0 113.617 0 176.363 0 227.23 50.867 227.23 113.617zm0 0" fill="#a1f1fc"/><path d="M227.23 113.617c0-.96-.011-1.918-.035-2.875C225.695 50.277 176.957 1.535 116.488.035a117.029 117.029 0 0 0-5.746 0C50.277 1.54 1.54 50.277.035 110.742a117.348 117.348 0 0 0 0 5.746c.723 29.094 12.387 55.469 31.024 75.176.011.016.027.027.039.04a112.688 112.688 0 0 0 6.09 5.976l.09.078c.648.59 1.296 1.168 1.96 1.738.035.031.067.063.102.09 19.246 16.64 44.129 26.93 71.402 27.61a117.345 117.345 0 0 0 5.75 0c27.274-.676 52.16-10.97 71.406-27.61l.102-.09c.66-.57 1.313-1.148 1.96-1.738.032-.028.063-.051.09-.078a112.688 112.688 0 0 0 6.09-5.977l.04-.039c18.636-19.707 30.3-46.082 31.023-75.176.016-.953.027-1.914.027-2.87zm-47.699-78.055a101.94 101.94 0 0 1-21.039 13.778c-4.613-14.012-10.687-25.754-17.77-34.266 14.2 3.883 27.403 10.824 38.81 20.489zm-60.187-23.011c7.926 2.984 15.86 11.976 22.422 25.676 2.304 4.812 4.351 10.03 6.144 15.57a101.931 101.931 0 0 1-28.566 5.715zm0 58.433a113.111 113.111 0 0 0 31.676-6.16c3.222 13.207 5.109 27.809 5.484 43.063h-37.16zm37.164 48.36c-.38 15.254-2.262 29.86-5.485 43.062a113.25 113.25 0 0 0-31.68-6.16v-36.902zm-85.781 0h37.16v36.902a113.39 113.39 0 0 0-31.676 6.16c-3.227-13.203-5.11-27.804-5.484-43.062zm0-11.457c.375-15.254 2.257-29.856 5.484-43.063a113.25 113.25 0 0 0 31.676 6.16v36.903zm37.16-95.336v46.957c-9.86-.543-19.457-2.473-28.567-5.711 1.793-5.54 3.844-10.758 6.149-15.574C92.03 24.527 99.96 15.535 107.887 12.55zm-21.375 2.523c-7.082 8.512-13.16 20.254-17.774 34.266a101.913 101.913 0 0 1-21.035-13.778C59.11 25.898 72.31 18.957 86.512 15.075zM39.34 43.48a113.521 113.521 0 0 0 26.172 16.985c-3.63 14.273-5.84 30.351-6.246 47.422H11.62c1.325-24.164 11.028-46.758 27.72-64.407zm19.926 75.864c.406 17.07 2.62 33.144 6.246 47.422a113.577 113.577 0 0 0-26.157 16.968c-16.687-17.644-26.41-40.226-27.734-64.39zm-11.559 72.32a102 102 0 0 1 21.035-13.773c4.613 14.007 10.688 25.757 17.77 34.265-14.203-3.883-27.399-10.832-38.805-20.492zm37.762-2.656c-2.309-4.817-4.356-10.035-6.149-15.574a102.05 102.05 0 0 1 28.567-5.711v46.957c-7.926-2.985-15.856-11.973-22.418-25.672zm33.875 25.672v-46.957c9.86.543 19.46 2.472 28.566 5.71-1.789 5.54-3.84 10.758-6.144 15.575-6.563 13.699-14.496 22.687-22.422 25.672zm39.144-36.79a101.84 101.84 0 0 1 21.035 13.774c-11.406 9.664-24.601 16.613-38.8 20.492 7.082-8.508 13.152-20.258 17.765-34.265zm29.387 5.844a113.765 113.765 0 0 0-26.152-16.968c3.625-14.278 5.84-30.352 6.246-47.422h47.644c-1.328 24.164-11.05 46.746-27.738 64.39zm-19.906-75.847c-.406-17.07-2.621-33.149-6.246-47.422A113.58 113.58 0 0 0 187.89 43.48c16.687 17.649 26.394 40.243 27.722 64.407zm0 0" fill="#5fd4e3"/><path d="M.105 118.39C2.57 58.81 50.91 11.07 110.742 9.587a101.451 101.451 0 0 1 5.746 0C176.32 11.07 224.66 58.809 227.125 118.39c.027-.633.055-1.266.07-1.903a116.787 116.787 0 0 0 0-5.746C225.695 50.277 176.957 1.535 116.488.035a117.029 117.029 0 0 0-5.746 0C50.277 1.54 1.54 50.277.035 110.742a117.348 117.348 0 0 0 0 5.746c.016.637.043 1.27.07 1.903zm0 0" fill="#a1f1fc"/><path d="M227.125 108.844c-2.465 59.582-50.809 107.316-110.637 108.804a117.111 117.111 0 0 1-5.75 0C50.91 216.16 2.57 168.426.105 108.844a107.94 107.94 0 0 0-.07 1.898 117.348 117.348 0 0 0 0 5.746c1.5 60.469 50.242 109.207 110.707 110.707a116.868 116.868 0 0 0 5.746 0c60.469-1.5 109.207-50.238 110.707-110.707a116.787 116.787 0 0 0 0-5.746c-.015-.633-.043-1.265-.07-1.898zm0 0" fill="#53bac7"/></svg>