<svg height="512pt" viewBox="0 0 512.00159 512" width="512pt" xmlns="http://www.w3.org/2000/svg"><path d="m256 460.105469c-96.535156 0-180.632812-68.546875-199.957031-162.992188-1.996094-9.738281 4.285156-19.25 14.023437-21.242187 9.738282-1.992188 19.25 4.285156 21.246094 14.027344 15.914062 77.765624 85.175781 134.207031 164.691406 134.207031 64.859375 0 124.609375-37.945313 152.222656-96.667969 4.226563-9 14.953126-12.859375 23.945313-8.628906 8.996094 4.226562 12.863281 14.949218 8.632813 23.945312-33.523438 71.289063-106.0625 117.351563-184.804688 117.351563zm0 0" fill="#ff8354"/><path d="m412.871094 372.488281c-38.296875 45.816407-95.707032 73.617188-156.871094 73.617188-95.210938 0-178.277344-66.699219-199.082031-159.140625-1.222657 3.125-1.601563 6.621094-.878907 10.148437 19.328126 94.445313 103.421876 162.992188 199.960938 162.992188 62.257812 0 120.617188-28.8125 158.898438-76.105469zm0 0" fill="#e0734a"/><path d="m441.804688 330.222656c-.207032-.722656-.4375-1.4375-.730469-2.128906-.015625.035156-.03125.070312-.042969.105469.292969.652343.554688 1.324219.773438 2.023437zm0 0" fill="#e0734a"/><path d="m437.726562 427.90625c-8.570312 0-16.167968-6.144531-17.707031-14.878906l-9.972656-56.550782-56.554687 9.96875c-9.785157 1.730469-19.125-4.808593-20.851563-14.597656-1.726563-9.789062 4.8125-19.125 14.601563-20.851562l74.28125-13.097656c9.789062-1.726563 19.125 4.808593 20.851562 14.597656l13.097656 74.28125c1.726563 9.792968-4.808594 19.128906-14.597656 20.851562-1.058594.1875-2.113281.277344-3.148438.277344zm0 0" fill="#ff8354"/><path d="m455.472656 406.773438-.859375-4.878907c-2.289062 5.914063-7.886719 10.5625-15.121093 11.730469-1.15625.1875-2.304688.277344-3.4375.277344-7.554688 0-14.410157-4-17.664063-10.132813l1.632813 9.253907c1.539062 8.734374 9.132812 14.878906 17.703124 14.878906 1.039063 0 2.089844-.089844 3.148438-.277344 9.789062-1.722656 16.324219-11.058594 14.597656-20.851562zm0 0" fill="#e0734a"/><path d="m264.933594 80.078125c0-10.925781 8.859375-19.785156 19.785156-19.785156h30.011719c-18.792969-5.71875-38.621094-8.808594-59.019531-8.808594-78.742188 0-151.28125 46.058594-184.800782 117.347656-4.230468 8.996094-.367187 19.71875 8.628906 23.949219 8.992188 4.226562 19.71875.367188 23.949219-8.628906 27.609375-58.726563 87.363281-96.667969 152.222657-96.667969 3.089843 0 6.160156.113281 9.21875.28125v-7.6875zm0 0" fill="#ff8354"/><path d="m284.71875 60.292969h31.132812c-19.207031-5.996094-39.523437-9.222657-60.429687-9.222657-62.257813 0-120.617187 28.816407-158.898437 76.105469l2.027343 11.515625c38.296875-45.820312 95.707031-73.621094 156.871094-73.621094 5.28125 0 10.519531.238282 15.71875.640626 3.542969-3.351563 8.3125-5.417969 13.578125-5.417969zm0 0" fill="#ffac8c"/><path d="m492.21875 234h-207.5c-10.925781 0-19.785156-8.855469-19.785156-19.785156v-134.136719c0-10.925781 8.859375-19.785156 19.785156-19.785156h207.5c10.925781 0 19.78125 8.859375 19.78125 19.785156v134.136719c0 10.929687-8.855469 19.785156-19.78125 19.785156zm0 0" fill="#6770e6"/><path d="m87.0625 193.972656c-3.667969 0-7.277344-1.125-10.324219-3.257812-3.910156-2.734375-6.574219-6.917969-7.402343-11.617188l-13.097657-74.28125c-1.726562-9.792968 4.8125-19.128906 14.601563-20.855468 9.789062-1.722657 19.125 4.8125 20.851562 14.601562l9.972656 56.554688 56.554688-9.96875c9.789062-1.722657 19.125 4.808593 20.851562 14.597656 1.726563 9.789062-4.808593 19.125-14.597656 20.851562l-74.28125 13.097656c-1.042968.183594-2.085937.277344-3.128906.277344zm0 0" fill="#ff8354"/><path d="m70.640625 183.496094c.015625-.039063.027344-.074219.042969-.109375-.300782-.664063-.5625-1.347657-.78125-2.046875.207031.730468.441406 1.453125.738281 2.15625zm0 0" fill="#ffac8c"/><path d="m69.179688 178.199219.15625.898437c.011718.054688.027343.101563.039062.15625zm0 0" fill="#ffac8c"/><path d="m73.488281 97.960938c8.109375-1.367188 15.910157 2.480468 19.6875 9.023437l-1.484375-8.421875c-1.726562-9.792969-11.0625-16.324219-20.851562-14.601562-9.789063 1.726562-16.328125 11.0625-14.601563 20.851562l1.761719 9.984375c.417969-8.207031 6.683594-15.347656 15.488281-16.835937zm0 0" fill="#ffac8c"/><path d="m492.21875 234h-207.5c-10.925781 0-19.785156-8.855469-19.785156-19.785156v-134.136719c0-10.925781 8.859375-19.785156 19.785156-19.785156h207.5c10.925781 0 19.78125 8.859375 19.78125 19.785156v134.136719c0 10.929687-8.855469 19.785156-19.78125 19.785156zm0 0" fill="#6770e6"/><path d="m492.21875 60.292969h-207.5c-10.925781 0-19.785156 8.859375-19.785156 19.785156v9.050781c0-10.925781 8.859375-19.78125 19.785156-19.78125h207.5c10.925781 0 19.78125 8.855469 19.78125 19.78125v-9.050781c0-10.925781-8.855469-19.785156-19.78125-19.785156zm0 0" fill="#8f95e6"/><g fill="#d476e2"><path d="m469.417969 210.871094h-161.898438c-13.417969 0-24.292969-10.875-24.292969-24.289063v-51.816406c0-4.421875 3.582032-8.003906 8.003907-8.003906h194.476562c4.421875 0 8.003907 3.582031 8.003907 8.003906v51.816406c0 13.414063-10.878907 24.289063-24.292969 24.289063zm0 0"/><path d="m324.753906 98.257812c-10.070312 0-18.234375-8.164062-18.234375-18.238281v-20.132812c0-3.503907 2.839844-6.34375 6.339844-6.34375h23.792969c3.503906 0 6.339844 2.839843 6.339844 6.34375v20.132812c0 10.070313-8.164063 18.238281-18.238282 18.238281zm0 0"/><path d="m452.179688 98.257812c-10.070313 0-18.234376-8.164062-18.234376-18.238281v-20.132812c0-3.503907 2.835938-6.34375 6.339844-6.34375h23.792969c3.5 0 6.339844 2.839843 6.339844 6.34375v20.132812c-.003907 10.070313-8.167969 18.238281-18.238281 18.238281zm0 0"/><path d="m460.570312 53.546875h-16.78125c0-20.273437-16.492187-36.765625-36.765624-36.765625h-37.113282c-20.273437 0-36.765625 16.492188-36.765625 36.765625h-16.78125c.003907-29.527344 24.023438-53.546875 53.546875-53.546875h37.113282c29.527343 0 53.546874 24.019531 53.546874 53.546875zm0 0"/></g><path d="m369.910156 9.054688h37.113282c26.4375 0 48.449218 19.265624 52.765624 44.492187h.78125c0-29.527344-24.019531-53.546875-53.546874-53.546875h-37.113282c-29.527344 0-53.546875 24.019531-53.546875 53.546875h.78125c4.316407-25.226563 26.328125-44.492187 52.765625-44.492187zm0 0" fill="#ea82fa"/><path d="m467.910156 167.558594h-158.886718c-14.246094 0-25.796876-11.550782-25.796876-25.796875v-6.59375c0-4.644531 3.761719-8.40625 8.40625-8.40625h193.671876c4.644531 0 8.40625 3.761719 8.40625 8.40625v6.59375c0 14.246093-11.550782 25.796875-25.800782 25.796875zm0 0" fill="#ea82fa"/><path d="m403.679688 177.710938h-30.425782c-2.652344 0-4.804687-2.148438-4.804687-4.804688v-11.613281c0-2.652344 2.152343-4.804688 4.804687-4.804688h30.425782c2.652343 0 4.804687 2.152344 4.804687 4.804688v11.613281c0 2.65625-2.152344 4.804688-4.804687 4.804688zm0 0" fill="#6770e6"/><path d="m204.722656 512h-184.480468c-11.824219 0-21.128907-10.09375-20.1718755-21.878906l18.3749995-226.210938c.242188-2.984375 2.734376-5.285156 5.730469-5.285156h176.617188c2.996093 0 5.488281 2.300781 5.730469 5.285156l18.375 226.210938c.957031 11.785156-8.347657 21.878906-20.175782 21.878906zm0 0" fill="#69ebfc"/><path d="m22.605469 268.136719h179.757812c1.914063 0 3.621094.902343 4.695313 2.3125l-.53125-6.539063c-.242188-2.984375-2.738282-5.285156-5.734375-5.285156h-176.617188c-2.996093 0-5.488281 2.300781-5.730469 5.285156l-.535156 6.539063c1.074219-1.410157 2.785156-2.3125 4.695313-2.3125zm0 0" fill="#a1f1fc"/><path d="m224.574219 486.109375c-1.792969 9.257813-9.921875 16.382813-19.851563 16.382813h-184.480468c-9.925782 0-18.054688-7.125-19.847657-16.382813l-.3281248 4.011719c-.9531252 11.785156 8.3515628 21.878906 20.1757818 21.878906h184.480468c11.828125 0 21.132813-10.09375 20.175782-21.878906zm0 0" fill="#5fd4e3"/><path d="m65.480469 296.332031c0 6.246094-5.0625 11.3125-11.3125 11.3125s-11.3125-5.066406-11.3125-11.3125c0-6.25 5.0625-11.316406 11.3125-11.316406s11.3125 5.066406 11.3125 11.316406zm0 0" fill="#ffefe4"/><path d="m182.113281 296.332031c0 6.246094-5.066406 11.3125-11.3125 11.3125-6.25 0-11.316406-5.066406-11.316406-11.3125 0-6.25 5.066406-11.316406 11.316406-11.316406 6.246094 0 11.3125 5.066406 11.3125 11.316406zm0 0" fill="#ffefe4"/><path d="m170.519531 290.15625c-3.789062 0-6.859375 3.074219-6.859375 6.859375v50.0625c0 28.25-22.558594 51.691406-50.808594 51.964844-28.527343.277343-51.820312-22.847657-51.820312-51.308594v-50.714844c0-3.789062-3.074219-6.859375-6.863281-6.859375-3.785157 0-6.859375 3.070313-6.859375 6.859375v49.882813c0 35.804687 28.589844 65.515625 64.394531 65.863281 36.15625.347656 65.679687-28.957031 65.679687-65.03125v-50.714844c-.003906-3.789062-3.074218-6.863281-6.863281-6.863281zm0 0" fill="#ffefe4"/></svg>